<svg width="152" height="21" viewBox="0 0 152 21" fill="none" xmlns="http://www.w3.org/2000/svg">
<path d="M112.694 5.44798H114.552V14.0736H119.29V15.6H112.694V5.44798ZM128.039 13.224H123.1L122.078 15.6H120.206L124.799 5.44798H126.311L130.905 15.6H129.062L128.039 13.224ZM127.42 11.784L125.562 7.46398L123.705 11.784H127.42ZM138.94 10.3584C139.525 10.5216 139.976 10.8192 140.293 11.2512C140.62 11.6832 140.783 12.2112 140.783 12.8352C140.783 13.6992 140.471 14.376 139.847 14.8656C139.232 15.3552 138.383 15.6 137.298 15.6H132.69V5.44798H137.154C138.21 5.44798 139.036 5.68318 139.631 6.15358C140.236 6.61438 140.538 7.26238 140.538 8.09758C140.538 8.63518 140.394 9.10078 140.106 9.49438C139.828 9.88798 139.439 10.176 138.94 10.3584ZM134.504 9.72478H136.852C138.128 9.72478 138.767 9.24958 138.767 8.29918C138.767 7.81918 138.608 7.46398 138.292 7.23358C137.975 7.00318 137.495 6.88798 136.852 6.88798H134.504V9.72478ZM137.096 14.16C137.768 14.16 138.258 14.04 138.565 13.8C138.872 13.56 139.026 13.1856 139.026 12.6768C139.026 12.168 138.868 11.7888 138.551 11.5392C138.244 11.2896 137.759 11.1648 137.096 11.1648H134.504V14.16H137.096ZM146.664 15.7296C145.886 15.7296 145.157 15.624 144.475 15.4128C143.793 15.2016 143.217 14.904 142.747 14.52L143.366 13.1664C143.856 13.5408 144.369 13.8144 144.907 13.9872C145.454 14.16 146.045 14.2464 146.678 14.2464C147.379 14.2464 147.917 14.1264 148.291 13.8864C148.675 13.6368 148.867 13.2912 148.867 12.8496C148.867 12.4656 148.689 12.1728 148.334 11.9712C147.989 11.7696 147.408 11.5776 146.592 11.3952C145.747 11.2128 145.061 11.0016 144.533 10.7616C144.005 10.5216 143.606 10.2144 143.337 9.83998C143.069 9.46558 142.934 8.99038 142.934 8.41438C142.934 7.81918 143.097 7.28638 143.424 6.81598C143.75 6.34558 144.211 5.98078 144.806 5.72158C145.401 5.45278 146.088 5.31838 146.865 5.31838C147.576 5.31838 148.253 5.42878 148.896 5.64958C149.539 5.86078 150.067 6.15358 150.48 6.52798L149.861 7.88158C148.958 7.16158 147.96 6.80158 146.865 6.80158C146.213 6.80158 145.694 6.93598 145.31 7.20478C144.936 7.46398 144.749 7.82878 144.749 8.29918C144.749 8.69278 144.917 8.99518 145.253 9.20638C145.589 9.41758 146.16 9.61438 146.966 9.79678C147.821 9.98878 148.512 10.2048 149.04 10.4448C149.577 10.6752 149.985 10.9728 150.264 11.3376C150.552 11.7024 150.696 12.1632 150.696 12.72C150.696 13.3248 150.533 13.8576 150.206 14.3184C149.889 14.7696 149.424 15.12 148.809 15.3696C148.205 15.6096 147.489 15.7296 146.664 15.7296Z" fill="white"/>
<path fill-rule="evenodd" clip-rule="evenodd" d="M2.93403 17.3822C4.55446 17.3822 5.86807 16.0686 5.86807 14.4482C5.86807 12.8278 4.55446 11.5142 2.93403 11.5142C1.31361 11.5142 0 12.8278 0 14.4482C0 16.0686 1.31361 17.3822 2.93403 17.3822Z" fill="#FF6CBB"/>
<path fill-rule="evenodd" clip-rule="evenodd" d="M7.81746 1.5L14.2567 11.4643C14.6577 12.0847 14.8709 12.8077 14.8709 13.5463C14.8709 15.6649 13.1535 17.3823 11.035 17.3823L6.18196 10.15C4.96202 8.33199 4.94028 5.96257 6.12666 4.12247L7.81746 1.5Z" fill="#8E62FF"/>
<path fill-rule="evenodd" clip-rule="evenodd" d="M64.2651 7.76328H61.5784V10.9544C61.5784 12.6324 63.071 12.4882 64.6357 12.1177L64.8622 14.7529C64.1416 15.0206 63.0607 15.2059 62.2372 15.2059C59.9725 15.2059 58.3357 14.1147 58.3357 11.4794V7.76328H56.7607V5.11771H58.3357V1.94714H61.4754V5.11771H64.2651V7.76328ZM31.074 15H34.2137V5.11775H31.074L30.9711 6.15744C30.4049 5.46774 29.4476 4.91187 28.0579 4.91187C25.4226 4.91187 23.4873 7.11479 23.4873 10.0692C23.4873 13.0236 25.4226 15.2059 28.0579 15.2059C29.4476 15.2059 30.4049 14.6603 30.9711 13.9603L31.074 15ZM26.6992 10.0692C26.6992 8.73095 27.5742 7.79419 28.8301 7.79419C30.086 7.80448 30.961 8.73095 30.961 10.0692C30.961 11.4074 30.086 12.3442 28.8301 12.3442C27.5742 12.3442 26.6992 11.4074 26.6992 10.0692ZM40.5629 6.46627C41.0261 5.48833 42.004 4.91187 43.1467 4.91187C43.5378 4.91187 43.9393 4.98392 44.3511 5.11775L44.1555 7.94861C43.7437 7.80449 43.3217 7.73243 42.9099 7.73243C41.6849 7.73243 40.6452 8.40154 40.6452 10.2442V15H37.4026V5.11775H40.4599L40.5629 6.46627ZM51.4412 4.91187C48.3839 4.91187 45.9751 6.68244 45.9751 10.0795C45.9751 13.1059 48.3221 15.2059 51.4824 15.2059C52.7795 15.2059 53.675 14.9383 54.8177 14.3927L54.4986 11.5515C53.5721 11.9942 52.9133 12.2309 51.8427 12.2309C50.3809 12.2309 49.2177 11.4898 49.2177 10.0589C49.2177 8.39125 50.5354 7.84567 52.0177 7.84567C52.8515 7.84567 53.7368 8.03096 54.4574 8.32949L54.6941 5.57068C53.4795 5.06628 52.5736 4.91187 51.4412 4.91187ZM66.4656 5.11768L70.4391 15.0102C70.1508 16.0191 69.3994 16.5235 68.5141 16.5235C68.1435 16.5235 67.7523 16.4308 67.3612 16.2558L66.9185 18.8087C67.6082 19.1485 68.3391 19.3234 69.0494 19.3234C70.8714 19.3234 72.4567 18.4176 73.2493 16.4514L77.8302 5.11768H74.2067L72.1685 11.7264L70.0788 5.11768H66.4656ZM83.4484 19.1176H80.2058V5.11775H83.2528L83.3558 6.15744C83.9323 5.43686 84.8587 4.91187 86.3514 4.91187C89.141 4.91187 90.9631 7.11479 90.9631 10.0795C90.9631 13.0236 89.141 15.2059 86.3514 15.2059C85.1264 15.2059 84.0352 14.8353 83.4484 14.2691V19.1176ZM83.4072 10.0589C83.4072 8.73099 84.3028 7.81482 85.5175 7.81482C86.7631 7.81482 87.6998 8.68981 87.6998 10.0589C87.6998 11.3766 86.7528 12.303 85.5175 12.303C84.3028 12.303 83.4072 11.3766 83.4072 10.0589ZM96.468 8.98828H100.153C100.153 8.21623 99.5048 7.48535 98.4136 7.48535C97.2195 7.48535 96.5504 8.17505 96.468 8.98828ZM102.85 14.3206L102.408 11.8912C101.78 12.1898 100.483 12.4677 99.1753 12.4677C97.8473 12.4677 96.6223 12.0353 96.4576 10.8927H103.046C103.766 6.79567 101.224 4.91187 98.362 4.91187C95.4488 4.91187 93.2974 6.95008 93.2974 10.0589C93.2974 13.1677 95.49 15.2059 99.1547 15.2059C100.668 15.2059 102.078 14.7633 102.85 14.3206Z" fill="white"/>
</svg>
