<svg width="320" height="733" viewBox="0 0 320 733" fill="none" xmlns="http://www.w3.org/2000/svg">
<path fill-rule="evenodd" clip-rule="evenodd" d="M0 0H320V707.854C147.735 779.936 178 668.878 0 668.878V0Z" fill="url(#paint0_linear)"/>
<mask id="mask0" mask-type="alpha" maskUnits="userSpaceOnUse" x="0" y="0" width="320" height="733">
<path fill-rule="evenodd" clip-rule="evenodd" d="M0 0H320V707.854C147.735 779.936 178 668.878 0 668.878V0Z" fill="white"/>
</mask>
<g mask="url(#mask0)">
<path opacity="0.5" fill-rule="evenodd" clip-rule="evenodd" d="M174.85 480.464C175.816 480.464 176.6 479.68 176.6 478.712C176.6 477.744 175.816 476.96 174.85 476.96C173.883 476.96 173.1 477.744 173.1 478.712C173.1 479.68 173.883 480.464 174.85 480.464Z" fill="white"/>
<path opacity="0.5" fill-rule="evenodd" clip-rule="evenodd" d="M279.85 459.438C280.816 459.438 281.6 458.654 281.6 457.686C281.6 456.718 280.816 455.934 279.85 455.934C278.883 455.934 278.1 456.718 278.1 457.686C278.1 458.654 278.883 459.438 279.85 459.438Z" fill="white"/>
<path opacity="0.5" fill-rule="evenodd" clip-rule="evenodd" d="M225.904 681.405C226.871 681.405 227.654 680.62 227.654 679.653C227.654 678.685 226.871 677.9 225.904 677.9C224.938 677.9 224.154 678.685 224.154 679.653C224.154 680.62 224.938 681.405 225.904 681.405Z" fill="white"/>
<path opacity="0.3" fill-rule="evenodd" clip-rule="evenodd" d="M62.85 526.021C63.8165 526.021 64.6 525.236 64.6 524.269C64.6 523.301 63.8165 522.517 62.85 522.517C61.8835 522.517 61.1 523.301 61.1 524.269C61.1 525.236 61.8835 526.021 62.85 526.021Z" fill="white"/>
<path opacity="0.3" fill-rule="evenodd" clip-rule="evenodd" d="M-0.150024 540.038C0.816474 540.038 1.59998 539.254 1.59998 538.286C1.59998 537.318 0.816474 536.534 -0.150024 536.534C-1.11652 536.534 -1.90002 537.318 -1.90002 538.286C-1.90002 539.254 -1.11652 540.038 -0.150024 540.038Z" fill="white"/>
<path opacity="0.3" fill-rule="evenodd" clip-rule="evenodd" d="M10.35 424.395C11.3165 424.395 12.1 423.61 12.1 422.643C12.1 421.675 11.3165 420.89 10.35 420.89C9.38348 420.89 8.59998 421.675 8.59998 422.643C8.59998 423.61 9.38348 424.395 10.35 424.395Z" fill="white"/>
<path opacity="0.3" fill-rule="evenodd" clip-rule="evenodd" d="M136.35 497.986C137.316 497.986 138.1 497.202 138.1 496.234C138.1 495.266 137.316 494.482 136.35 494.482C135.383 494.482 134.6 495.266 134.6 496.234C134.6 497.202 135.383 497.986 136.35 497.986Z" fill="white"/>
<path opacity="0.3" fill-rule="evenodd" clip-rule="evenodd" d="M108.35 543.543C109.316 543.543 110.1 542.758 110.1 541.79C110.1 540.823 109.316 540.038 108.35 540.038C107.383 540.038 106.6 540.823 106.6 541.79C106.6 542.758 107.383 543.543 108.35 543.543Z" fill="white"/>
<path opacity="0.3" fill-rule="evenodd" clip-rule="evenodd" d="M213.35 554.056C214.316 554.056 215.1 553.271 215.1 552.303C215.1 551.336 214.316 550.551 213.35 550.551C212.383 550.551 211.6 551.336 211.6 552.303C211.6 553.271 212.383 554.056 213.35 554.056Z" fill="white"/>
<path opacity="0.3" fill-rule="evenodd" clip-rule="evenodd" d="M234.35 417.386C235.316 417.386 236.1 416.602 236.1 415.634C236.1 414.666 235.316 413.882 234.35 413.882C233.383 413.882 232.6 414.666 232.6 415.634C232.6 416.602 233.383 417.386 234.35 417.386Z" fill="white"/>
<path fill-rule="evenodd" clip-rule="evenodd" d="M-151.191 376.13L-13.5013 485.367C-3.00714 493.692 10.5222 497.169 23.7239 494.933L367.423 436.72C375.999 435.267 381.776 427.128 380.325 418.541C378.874 409.954 370.745 404.17 362.169 405.623L18.4699 463.836C14.0694 464.581 9.55957 463.422 6.06151 460.647L-131.628 351.41C-138.446 346.002 -148.352 347.15 -153.754 353.977C-159.156 360.803 -158.008 370.721 -151.191 376.13Z" fill="url(#paint1_linear)"/>
<mask id="mask1" mask-type="alpha" maskUnits="userSpaceOnUse" x="-158" y="348" width="539" height="148">
<path fill-rule="evenodd" clip-rule="evenodd" d="M-151.191 376.13L-13.5013 485.367C-3.00714 493.692 10.5222 497.169 23.7239 494.933L367.423 436.72C375.999 435.267 381.776 427.128 380.325 418.541C378.874 409.954 370.745 404.17 362.169 405.623L18.4699 463.836C14.0694 464.581 9.55957 463.422 6.06151 460.647L-131.628 351.41C-138.446 346.002 -148.352 347.15 -153.754 353.977C-159.156 360.803 -158.008 370.721 -151.191 376.13Z" fill="white"/>
</mask>
<g mask="url(#mask1)">
<path d="M13.2551 463.749C13.2551 463.749 -2.49491 476.364 6.32509 495.603" stroke="#BB3493" stroke-width="0.63" stroke-linecap="round" stroke-linejoin="round"/>
<g style="mix-blend-mode:screen" opacity="0.4">
<path fill-rule="evenodd" clip-rule="evenodd" d="M-149.301 363.199L-11.6113 472.436C-1.11713 480.761 12.4122 484.238 25.6139 482.002L369.313 423.789C377.889 422.336 383.666 414.197 382.215 405.61C380.764 397.023 372.635 391.239 364.059 392.692L20.36 450.905C15.9594 451.65 11.4496 450.491 7.95152 447.716L-129.738 338.479C-136.556 333.07 -146.462 334.219 -151.864 341.046C-157.266 347.872 -156.118 357.79 -149.301 363.199Z" fill="url(#paint2_linear)"/>
</g>
<g style="mix-blend-mode:screen" opacity="0.4">
<path fill-rule="evenodd" clip-rule="evenodd" d="M313.421 435.758C323.334 434.186 330.822 429.448 330.146 425.175C329.47 420.903 320.886 418.714 310.974 420.286C301.061 421.858 293.573 426.596 294.249 430.868C294.925 435.14 303.508 437.33 313.421 435.758Z" fill="url(#paint3_linear)"/>
</g>
<g style="mix-blend-mode:screen" opacity="0.4">
<path fill-rule="evenodd" clip-rule="evenodd" d="M167.605 459.598C171.084 459.598 173.905 456.773 173.905 453.29C173.905 449.806 171.084 446.982 167.605 446.982C164.126 446.982 161.305 449.806 161.305 453.29C161.305 456.773 164.126 459.598 167.605 459.598Z" fill="url(#paint4_linear)"/>
</g>
<g style="mix-blend-mode:screen" opacity="0.4">
<path fill-rule="evenodd" clip-rule="evenodd" d="M135.045 468.05C143.207 466.313 149.023 461.136 148.036 456.488C147.049 451.839 139.633 449.479 131.471 451.216C123.31 452.953 117.493 458.129 118.48 462.778C119.467 467.426 126.883 469.786 135.045 468.05Z" fill="url(#paint5_linear)"/>
</g>
</g>
<path fill-rule="evenodd" clip-rule="evenodd" d="M170.923 483.008C187.195 483.008 200.386 469.801 200.386 453.509C200.386 437.217 187.195 424.009 170.923 424.009C154.651 424.009 141.46 437.217 141.46 453.509C141.46 469.801 154.651 483.008 170.923 483.008ZM170.923 468.816C162.48 468.816 155.635 461.963 155.635 453.509C155.635 445.055 162.48 438.202 170.923 438.202C179.366 438.202 186.211 445.055 186.211 453.509C186.211 461.963 179.366 468.816 170.923 468.816Z" fill="url(#paint6_linear)"/>
<mask id="mask2" mask-type="alpha" maskUnits="userSpaceOnUse" x="141" y="424" width="60" height="60">
<path fill-rule="evenodd" clip-rule="evenodd" d="M170.923 483.008C187.195 483.008 200.386 469.801 200.386 453.509C200.386 437.217 187.195 424.009 170.923 424.009C154.651 424.009 141.46 437.217 141.46 453.509C141.46 469.801 154.651 483.008 170.923 483.008ZM170.923 468.816C162.48 468.816 155.635 461.963 155.635 453.509C155.635 445.055 162.48 438.202 170.923 438.202C179.366 438.202 186.211 445.055 186.211 453.509C186.211 461.963 179.366 468.816 170.923 468.816Z" fill="white"/>
</mask>
<g mask="url(#mask2)">
<g style="mix-blend-mode:screen" opacity="0.4">
<path fill-rule="evenodd" clip-rule="evenodd" d="M163.038 477.626C175.824 477.626 186.19 467.247 186.19 454.445C186.19 441.642 175.824 431.263 163.038 431.263C150.251 431.263 139.885 441.642 139.885 454.445C139.885 467.247 150.251 477.626 163.038 477.626Z" fill="#BC1C79"/>
</g>
<mask id="mask3" mask-type="alpha" maskUnits="userSpaceOnUse" x="139" y="431" width="48" height="47">
<g style="mix-blend-mode:screen">
<path fill-rule="evenodd" clip-rule="evenodd" d="M163.038 477.626C175.824 477.626 186.19 467.247 186.19 454.445C186.19 441.642 175.824 431.263 163.038 431.263C150.251 431.263 139.885 441.642 139.885 454.445C139.885 467.247 150.251 477.626 163.038 477.626Z" fill="white"/>
<path fill-rule="evenodd" clip-rule="evenodd" d="M163.038 477.626C175.824 477.626 186.19 467.247 186.19 454.445C186.19 441.642 175.824 431.263 163.038 431.263C150.251 431.263 139.885 441.642 139.885 454.445C139.885 467.247 150.251 477.626 163.038 477.626Z" stroke="white"/>
</g>
</mask>
<g mask="url(#mask3)">
<g style="mix-blend-mode:screen" opacity="0.4">
<path fill-rule="evenodd" clip-rule="evenodd" d="M148.6 474.157L200.4 464.695L199.7 452.43L141.6 462.592L148.6 474.157Z" fill="url(#paint7_linear)"/>
</g>
<g style="mix-blend-mode:screen" opacity="0.4">
<path fill-rule="evenodd" clip-rule="evenodd" d="M137.995 463.118L186.19 454.918L182.725 435.679L136.735 443.879L137.995 463.118Z" fill="url(#paint8_linear)"/>
</g>
<g style="mix-blend-mode:screen" opacity="0.4">
<path fill-rule="evenodd" clip-rule="evenodd" d="M135.168 467.945C143.329 466.208 149.146 461.032 148.159 456.383C147.172 451.735 139.756 449.374 131.594 451.111C123.432 452.848 117.616 458.025 118.603 462.673C119.59 467.322 127.006 469.682 135.168 467.945Z" fill="url(#paint9_linear)"/>
</g>
</g>
</g>
<g opacity="0.7">
<path fill-rule="evenodd" clip-rule="evenodd" d="M78.943 499.093C95.215 499.093 108.406 485.886 108.406 469.594C108.406 453.302 95.215 440.094 78.943 440.094C62.6711 440.094 49.4801 453.302 49.4801 469.594C49.4801 485.886 62.6711 499.093 78.943 499.093ZM78.943 484.901C70.4997 484.901 63.6551 478.048 63.6551 469.594C63.6551 461.14 70.4997 454.287 78.943 454.287C87.3863 454.287 94.231 461.14 94.231 469.594C94.231 478.048 87.3863 484.901 78.943 484.901Z" fill="url(#paint10_linear)"/>
<mask id="mask4" mask-type="alpha" maskUnits="userSpaceOnUse" x="49" y="440" width="60" height="60">
<path fill-rule="evenodd" clip-rule="evenodd" d="M78.943 499.093C95.215 499.093 108.406 485.886 108.406 469.594C108.406 453.302 95.215 440.094 78.943 440.094C62.6711 440.094 49.4801 453.302 49.4801 469.594C49.4801 485.886 62.6711 499.093 78.943 499.093ZM78.943 484.901C70.4997 484.901 63.6551 478.048 63.6551 469.594C63.6551 461.14 70.4997 454.287 78.943 454.287C87.3863 454.287 94.231 461.14 94.231 469.594C94.231 478.048 87.3863 484.901 78.943 484.901Z" fill="white"/>
</mask>
<g mask="url(#mask4)">
<g style="mix-blend-mode:screen" opacity="0.4">
<path fill-rule="evenodd" clip-rule="evenodd" d="M71.0577 493.711C83.8444 493.711 94.2102 483.332 94.2102 470.53C94.2102 457.727 83.8444 447.348 71.0577 447.348C58.2709 447.348 47.9052 457.727 47.9052 470.53C47.9052 483.332 58.2709 493.711 71.0577 493.711Z" fill="#BC1C79"/>
</g>
<mask id="mask5" mask-type="alpha" maskUnits="userSpaceOnUse" x="47" y="447" width="48" height="47">
<g style="mix-blend-mode:screen">
<path fill-rule="evenodd" clip-rule="evenodd" d="M71.0577 493.711C83.8444 493.711 94.2102 483.332 94.2102 470.53C94.2102 457.727 83.8444 447.348 71.0577 447.348C58.2709 447.348 47.9052 457.727 47.9052 470.53C47.9052 483.332 58.2709 493.711 71.0577 493.711Z" fill="white"/>
<path fill-rule="evenodd" clip-rule="evenodd" d="M71.0577 493.711C83.8444 493.711 94.2102 483.332 94.2102 470.53C94.2102 457.727 83.8444 447.348 71.0577 447.348C58.2709 447.348 47.9052 457.727 47.9052 470.53C47.9052 483.332 58.2709 493.711 71.0577 493.711Z" stroke="white"/>
</g>
</mask>
<g mask="url(#mask5)">
<g style="mix-blend-mode:screen" opacity="0.4">
<path fill-rule="evenodd" clip-rule="evenodd" d="M54.1001 489.926L98.5501 482.217L94.7001 469.601L48.1501 478.362L54.1001 489.926Z" fill="url(#paint11_linear)"/>
</g>
<g style="mix-blend-mode:screen" opacity="0.4">
<path fill-rule="evenodd" clip-rule="evenodd" d="M50.4252 477.941L65.5452 475.103L94.8402 470.372L92.9502 451.764L46.3302 459.018L50.4252 477.941Z" fill="url(#paint12_linear)"/>
</g>
</g>
</g>
</g>
<path fill-rule="evenodd" clip-rule="evenodd" d="M260.698 467.87C276.97 467.87 290.161 454.662 290.161 438.37C290.161 422.078 276.97 408.871 260.698 408.871C244.426 408.871 231.235 422.078 231.235 438.37C231.235 454.662 244.426 467.87 260.698 467.87ZM260.698 453.677C252.255 453.677 245.41 446.824 245.41 438.37C245.41 429.916 252.255 423.063 260.698 423.063C269.141 423.063 275.986 429.916 275.986 438.37C275.986 446.824 269.141 453.677 260.698 453.677Z" fill="url(#paint13_linear)"/>
<mask id="mask6" mask-type="alpha" maskUnits="userSpaceOnUse" x="231" y="408" width="60" height="60">
<path fill-rule="evenodd" clip-rule="evenodd" d="M260.698 467.87C276.97 467.87 290.161 454.662 290.161 438.37C290.161 422.078 276.97 408.871 260.698 408.871C244.426 408.871 231.235 422.078 231.235 438.37C231.235 454.662 244.426 467.87 260.698 467.87ZM260.698 453.677C252.255 453.677 245.41 446.824 245.41 438.37C245.41 429.916 252.255 423.063 260.698 423.063C269.141 423.063 275.986 429.916 275.986 438.37C275.986 446.824 269.141 453.677 260.698 453.677Z" fill="white"/>
</mask>
<g mask="url(#mask6)">
<g style="mix-blend-mode:screen" opacity="0.4">
<path fill-rule="evenodd" clip-rule="evenodd" d="M252.813 462.487C265.599 462.487 275.965 452.108 275.965 439.306C275.965 426.503 265.599 416.125 252.813 416.125C240.026 416.125 229.66 426.503 229.66 439.306C229.66 452.108 240.026 462.487 252.813 462.487Z" fill="#BC1C79"/>
</g>
<mask id="mask7" mask-type="alpha" maskUnits="userSpaceOnUse" x="229" y="416" width="47" height="47">
<g style="mix-blend-mode:screen">
<path fill-rule="evenodd" clip-rule="evenodd" d="M252.813 462.487C265.599 462.487 275.965 452.108 275.965 439.306C275.965 426.503 265.599 416.125 252.813 416.125C240.026 416.125 229.66 426.503 229.66 439.306C229.66 452.108 240.026 462.487 252.813 462.487Z" fill="white"/>
<path fill-rule="evenodd" clip-rule="evenodd" d="M252.813 462.487C265.599 462.487 275.965 452.108 275.965 439.306C275.965 426.503 265.599 416.125 252.813 416.125C240.026 416.125 229.66 426.503 229.66 439.306C229.66 452.108 240.026 462.487 252.813 462.487Z" stroke="white"/>
</g>
</mask>
<g mask="url(#mask7)">
<g style="mix-blend-mode:screen" opacity="0.4">
<path fill-rule="evenodd" clip-rule="evenodd" d="M236.8 458.737L293.5 449.276L293.15 437.01L230.5 447.523L236.8 458.737Z" fill="url(#paint14_linear)"/>
</g>
<g style="mix-blend-mode:screen" opacity="0.4">
<path fill-rule="evenodd" clip-rule="evenodd" d="M228.085 447.979L293.605 436.625L290.14 418.017L225.565 428.74L228.085 447.979Z" fill="url(#paint15_linear)"/>
</g>
</g>
</g>
<path fill-rule="evenodd" clip-rule="evenodd" d="M348.198 452.801C364.47 452.801 377.661 439.594 377.661 423.301C377.661 407.009 364.47 393.802 348.198 393.802C331.926 393.802 318.735 407.009 318.735 423.301C318.735 439.594 331.926 452.801 348.198 452.801ZM348.198 438.608C339.755 438.608 332.91 431.755 332.91 423.301C332.91 414.848 339.755 407.994 348.198 407.994C356.641 407.994 363.486 414.848 363.486 423.301C363.486 431.755 356.641 438.608 348.198 438.608Z" fill="url(#paint16_linear)"/>
<mask id="mask8" mask-type="alpha" maskUnits="userSpaceOnUse" x="318" y="393" width="60" height="60">
<path fill-rule="evenodd" clip-rule="evenodd" d="M348.198 452.801C364.47 452.801 377.661 439.594 377.661 423.301C377.661 407.009 364.47 393.802 348.198 393.802C331.926 393.802 318.735 407.009 318.735 423.301C318.735 439.594 331.926 452.801 348.198 452.801ZM348.198 438.608C339.755 438.608 332.91 431.755 332.91 423.301C332.91 414.848 339.755 407.994 348.198 407.994C356.641 407.994 363.486 414.848 363.486 423.301C363.486 431.755 356.641 438.608 348.198 438.608Z" fill="white"/>
</mask>
<g mask="url(#mask8)">
<g style="mix-blend-mode:screen" opacity="0.4">
<path fill-rule="evenodd" clip-rule="evenodd" d="M340.313 447.418C353.099 447.418 363.465 437.04 363.465 424.237C363.465 411.434 353.099 401.056 340.313 401.056C327.526 401.056 317.16 411.434 317.16 424.237C317.16 437.04 327.526 447.418 340.313 447.418Z" fill="url(#paint17_linear)"/>
</g>
<mask id="mask9" mask-type="alpha" maskUnits="userSpaceOnUse" x="317" y="401" width="47" height="47">
<g style="mix-blend-mode:screen">
<path fill-rule="evenodd" clip-rule="evenodd" d="M340.313 447.418C353.099 447.418 363.465 437.04 363.465 424.237C363.465 411.434 353.099 401.056 340.313 401.056C327.526 401.056 317.16 411.434 317.16 424.237C317.16 437.04 327.526 447.418 340.313 447.418Z" fill="white"/>
<path fill-rule="evenodd" clip-rule="evenodd" d="M340.313 447.418C353.099 447.418 363.465 437.04 363.465 424.237C363.465 411.434 353.099 401.056 340.313 401.056C327.526 401.056 317.16 411.434 317.16 424.237C317.16 437.04 327.526 447.418 340.313 447.418Z" stroke="white"/>
</g>
</mask>
<g mask="url(#mask9)">
<g style="mix-blend-mode:screen" opacity="0.4">
<path fill-rule="evenodd" clip-rule="evenodd" d="M315.585 432.91L381.105 421.556L377.64 402.948L313.065 413.671L315.585 432.91Z" fill="url(#paint18_linear)"/>
</g>
<g style="mix-blend-mode:screen" opacity="0.4">
<path fill-rule="evenodd" clip-rule="evenodd" d="M313.421 435.758C323.334 434.186 330.822 429.448 330.146 425.175C329.47 420.903 320.886 418.714 310.974 420.286C301.061 421.858 293.573 426.596 294.249 430.868C294.925 435.14 303.508 437.33 313.421 435.758Z" fill="url(#paint19_linear)"/>
</g>
</g>
</g>
<g opacity="0.5">
<path fill-rule="evenodd" clip-rule="evenodd" d="M-46.7815 476.369C-60.7292 467.988 -65.2338 449.873 -56.8427 435.908C-48.4517 421.943 -30.3425 417.416 -16.3947 425.796C-2.44692 434.177 2.05767 452.292 -6.3334 466.257C-14.7245 480.222 -32.8337 484.749 -46.7815 476.369ZM-39.4717 464.203C-32.2344 468.552 -22.8378 466.203 -18.4837 458.956C-14.1297 451.71 -16.4671 442.311 -23.7044 437.962C-30.9417 433.613 -40.3384 435.962 -44.6924 443.209C-49.0464 450.455 -46.709 459.854 -39.4717 464.203Z" fill="url(#paint20_linear)"/>
<mask id="mask10" mask-type="alpha" maskUnits="userSpaceOnUse" x="-73" y="410" width="82" height="82">
<path fill-rule="evenodd" clip-rule="evenodd" d="M-46.7815 476.369C-60.7292 467.988 -65.2338 449.873 -56.8427 435.908C-48.4517 421.943 -30.3425 417.416 -16.3947 425.796C-2.44692 434.177 2.05767 452.292 -6.3334 466.257C-14.7245 480.222 -32.8337 484.749 -46.7815 476.369ZM-39.4717 464.203C-32.2344 468.552 -22.8378 466.203 -18.4837 458.956C-14.1297 451.71 -16.4671 442.311 -23.7044 437.962C-30.9417 433.613 -40.3384 435.962 -44.6924 443.209C-49.0464 450.455 -46.709 459.854 -39.4717 464.203Z" fill="white"/>
</mask>
<g mask="url(#mask10)">
<g style="mix-blend-mode:screen" opacity="0.4">
<path fill-rule="evenodd" clip-rule="evenodd" d="M-37.2502 475.816C-48.2106 469.23 -51.7503 454.995 -45.1565 444.021C-38.5626 433.047 -24.3321 429.49 -13.3717 436.076C-2.41129 442.661 1.1285 456.896 -5.46536 467.87C-12.0592 478.844 -26.2897 482.402 -37.2502 475.816Z" fill="url(#paint21_linear)"/>
</g>
<mask id="mask11" mask-type="alpha" maskUnits="userSpaceOnUse" x="-58" y="424" width="65" height="64">
<g style="mix-blend-mode:screen">
<path fill-rule="evenodd" clip-rule="evenodd" d="M-37.2502 475.816C-48.2106 469.23 -51.7503 454.995 -45.1565 444.021C-38.5626 433.047 -24.3321 429.49 -13.3717 436.076C-2.41129 442.661 1.1285 456.896 -5.46536 467.87C-12.0592 478.844 -26.2897 482.402 -37.2502 475.816Z" fill="white"/>
<path fill-rule="evenodd" clip-rule="evenodd" d="M-37.2502 475.816C-48.2106 469.23 -51.7503 454.995 -45.1565 444.021C-38.5626 433.047 -24.3321 429.49 -13.3717 436.076C-2.41129 442.661 1.1285 456.896 -5.46536 467.87C-12.0592 478.844 -26.2897 482.402 -37.2502 475.816Z" stroke="white"/>
</g>
</mask>
<g mask="url(#mask11)">
<g style="mix-blend-mode:screen" opacity="0.3">
<path fill-rule="evenodd" clip-rule="evenodd" d="M-10.6901 473.192L-48.4863 443.575L-34.2982 428.118L0.663124 455.845L-10.6901 473.192Z" fill="url(#paint22_linear)"/>
</g>
</g>
</g>
</g>
<path fill-rule="evenodd" clip-rule="evenodd" d="M82.4044 660.379C83.3709 660.379 84.1544 659.594 84.1544 658.626C84.1544 657.659 83.3709 656.874 82.4044 656.874C81.4379 656.874 80.6544 657.659 80.6544 658.626C80.6544 659.594 81.4379 660.379 82.4044 660.379Z" fill="white"/>
<path fill-rule="evenodd" clip-rule="evenodd" d="M-184.239 638.053L375.334 607.373C383.054 606.949 388.971 600.34 388.549 592.61C388.127 584.88 381.527 578.957 373.806 579.38L-185.766 610.06C-193.487 610.484 -199.403 617.093 -198.982 624.823C-198.56 632.553 -191.959 638.477 -184.239 638.053Z" fill="url(#paint23_linear)"/>
<mask id="mask12" mask-type="alpha" maskUnits="userSpaceOnUse" x="-200" y="579" width="589" height="60">
<path fill-rule="evenodd" clip-rule="evenodd" d="M-184.239 638.053L375.334 607.373C383.054 606.949 388.971 600.34 388.549 592.61C388.127 584.88 381.527 578.957 373.806 579.38L-185.766 610.06C-193.487 610.484 -199.403 617.093 -198.982 624.823C-198.56 632.553 -191.959 638.477 -184.239 638.053Z" fill="white"/>
</mask>
<g mask="url(#mask12)">
<g style="mix-blend-mode:screen" opacity="0.4">
<path fill-rule="evenodd" clip-rule="evenodd" d="M-11.1406 620.09C5.96826 618.892 19.4118 611.816 18.8864 604.286C18.3611 596.756 4.06567 591.624 -13.0432 592.823C-30.1521 594.022 -43.5956 601.098 -43.0703 608.628C-42.5449 616.157 -28.2495 621.289 -11.1406 620.09Z" fill="url(#paint24_linear)"/>
</g>
<g style="mix-blend-mode:screen" opacity="0.4">
<path fill-rule="evenodd" clip-rule="evenodd" d="M129.35 627.473C147.97 626.494 162.747 619.603 162.353 612.081C161.96 604.559 146.546 599.254 127.926 600.233C109.305 601.211 94.5285 608.102 94.9218 615.624C95.315 623.146 110.729 628.451 129.35 627.473Z" fill="url(#paint25_linear)"/>
</g>
<g style="mix-blend-mode:screen" opacity="0.4">
<path fill-rule="evenodd" clip-rule="evenodd" d="M-186.651 623.89L372.922 593.21C380.642 592.786 386.559 586.177 386.137 578.447C385.715 570.717 379.115 564.794 371.394 565.217L-188.178 595.897C-195.899 596.321 -201.816 602.93 -201.394 610.66C-200.972 618.39 -194.371 624.313 -186.651 623.89Z" fill="url(#paint26_linear)"/>
</g>
</g>
<rect x="-9.39246" y="594.238" width="11.2" height="38.3726" rx="5.6" transform="rotate(3 -9.39246 594.238)" fill="url(#paint27_linear)"/>
<rect x="65.0963" y="589.334" width="11.2" height="38.3726" rx="5.6" transform="rotate(3 65.0963 589.334)" fill="#4832A6"/>
<rect x="139.585" y="584.43" width="11.2" height="38.3726" rx="5.6" transform="rotate(3 139.585 584.43)" fill="#4832A6"/>
<path fill-rule="evenodd" clip-rule="evenodd" d="M186.142 558.077C197.012 558.077 205.825 549.254 205.825 538.369C205.825 527.485 197.012 518.662 186.142 518.662C175.271 518.662 166.458 527.485 166.458 538.369C166.458 549.254 175.271 558.077 186.142 558.077Z" fill="url(#paint28_linear)"/>
<mask id="mask13" mask-type="alpha" maskUnits="userSpaceOnUse" x="166" y="518" width="40" height="41">
<path fill-rule="evenodd" clip-rule="evenodd" d="M186.142 558.077C197.012 558.077 205.825 549.254 205.825 538.369C205.825 527.485 197.012 518.662 186.142 518.662C175.271 518.662 166.458 527.485 166.458 538.369C166.458 549.254 175.271 558.077 186.142 558.077Z" fill="white"/>
</mask>
<g mask="url(#mask13)">
<path opacity="0.705473" fill-rule="evenodd" clip-rule="evenodd" d="M189.948 560.434C195.882 559.599 200.279 555.979 199.769 552.348C199.26 548.718 194.036 546.452 188.102 547.287C182.168 548.122 177.771 551.742 178.281 555.372C178.79 559.003 184.014 561.269 189.948 560.434Z" fill="url(#paint29_linear)"/>
<path d="M167.394 549.544C177.948 537.849 191.231 534.703 207.905 540.064C209.745 540.656 211.716 539.642 212.307 537.799C212.898 535.957 211.885 533.983 210.044 533.391C190.826 527.211 174.657 531.042 162.2 544.844C160.904 546.28 161.016 548.496 162.451 549.794C163.885 551.092 166.098 550.98 167.394 549.544Z" fill="#583FB3"/>
<path fill-rule="evenodd" clip-rule="evenodd" d="M171.438 544.419C173.322 544.419 174.85 542.889 174.85 541.002C174.85 539.115 173.322 537.585 171.438 537.585C169.553 537.585 168.025 539.115 168.025 541.002C168.025 542.889 169.553 544.419 171.438 544.419Z" fill="#FFBD60"/>
<path fill-rule="evenodd" clip-rule="evenodd" d="M185.818 538.099C187.703 538.099 189.23 536.569 189.23 534.682C189.23 532.795 187.703 531.265 185.818 531.265C183.933 531.265 182.405 532.795 182.405 534.682C182.405 536.569 183.933 538.099 185.818 538.099Z" fill="#FFBD60"/>
<path fill-rule="evenodd" clip-rule="evenodd" d="M200.846 538.099C202.731 538.099 204.258 536.569 204.258 534.682C204.258 532.795 202.731 531.265 200.846 531.265C198.961 531.265 197.433 532.795 197.433 534.682C197.433 536.569 198.961 538.099 200.846 538.099Z" fill="#FFBD60"/>
</g>
<path d="M189.249 557.004C191.742 556.564 193.6 555.28 193.399 554.136C193.197 552.992 191.012 552.421 188.519 552.861C186.026 553.301 184.168 554.586 184.37 555.73C184.571 556.874 186.756 557.445 189.249 557.004Z" fill="#583FB3"/>
<path d="M188.518 561.55L188.168 555.943L190.268 555.592L192.018 561.199L188.518 561.55Z" fill="#583FB3"/>
<path fill-rule="evenodd" clip-rule="evenodd" d="M235.325 750.274L201.413 565.947C200.745 562.315 197.37 559.827 193.703 560.262L186.169 561.157C182.472 561.596 179.766 564.852 180.009 568.566L191.925 750.274H235.325Z" fill="url(#paint30_linear)"/>
<mask id="mask14" mask-type="alpha" maskUnits="userSpaceOnUse" x="179" y="560" width="57" height="191">
<path fill-rule="evenodd" clip-rule="evenodd" d="M235.325 750.274L201.413 565.947C200.745 562.315 197.37 559.827 193.703 560.262L186.169 561.157C182.472 561.596 179.766 564.852 180.009 568.566L191.925 750.274H235.325Z" fill="white"/>
</mask>
<g mask="url(#mask14)">
<path fill-rule="evenodd" clip-rule="evenodd" d="M194.506 572.217C194.264 570.494 195.464 568.902 197.186 568.659V568.659C198.91 568.417 200.503 569.618 200.745 571.341L203.328 589.741C203.569 591.463 202.369 593.056 200.647 593.298V593.298C198.924 593.54 197.331 592.34 197.089 590.616L194.506 572.217Z" fill="url(#paint31_linear)"/>
<path fill-rule="evenodd" clip-rule="evenodd" d="M189.372 580.979C190.866 580.979 192.077 579.766 192.077 578.27C192.077 576.774 190.866 575.561 189.372 575.561C187.878 575.561 186.667 576.774 186.667 578.27C186.667 579.766 187.878 580.979 189.372 580.979Z" fill="#F6F8FB"/>
<path fill-rule="evenodd" clip-rule="evenodd" d="M190.597 588.737C191.643 588.737 192.491 587.888 192.491 586.841C192.491 585.794 191.643 584.945 190.597 584.945C189.551 584.945 188.703 585.794 188.703 586.841C188.703 587.888 189.551 588.737 190.597 588.737Z" fill="#FF6CBB"/>
<path fill-rule="evenodd" clip-rule="evenodd" d="M202.012 620.743C201.77 619.02 202.97 617.428 204.692 617.185V617.185C206.416 616.943 208.009 618.144 208.251 619.867L210.834 638.267C211.075 639.989 209.875 641.581 208.153 641.824V641.824C206.43 642.066 204.837 640.866 204.595 639.142L202.012 620.743Z" fill="url(#paint32_linear)"/>
<path fill-rule="evenodd" clip-rule="evenodd" d="M196.878 629.505C198.372 629.505 199.583 628.292 199.583 626.796C199.583 625.3 198.372 624.087 196.878 624.087C195.384 624.087 194.173 625.3 194.173 626.796C194.173 628.292 195.384 629.505 196.878 629.505Z" fill="#F6F8FB"/>
<path fill-rule="evenodd" clip-rule="evenodd" d="M198.103 637.263C199.149 637.263 199.997 636.414 199.997 635.367C199.997 634.32 199.149 633.471 198.103 633.471C197.057 633.471 196.209 634.32 196.209 635.367C196.209 636.414 197.057 637.263 198.103 637.263Z" fill="#FF6CBB"/>
<path fill-rule="evenodd" clip-rule="evenodd" d="M209.518 669.268C209.276 667.546 210.476 665.954 212.199 665.711V665.711C213.922 665.469 215.515 666.669 215.757 668.393L218.34 686.792C218.581 688.515 217.382 690.107 215.659 690.35V690.35C213.936 690.592 212.343 689.391 212.101 687.668L209.518 669.268Z" fill="url(#paint33_linear)"/>
<path fill-rule="evenodd" clip-rule="evenodd" d="M204.384 678.03C205.878 678.03 207.089 676.818 207.089 675.322C207.089 673.826 205.878 672.613 204.384 672.613C202.89 672.613 201.679 673.826 201.679 675.322C201.679 676.818 202.89 678.03 204.384 678.03Z" fill="#F6F8FB"/>
<path fill-rule="evenodd" clip-rule="evenodd" d="M205.609 685.789C206.655 685.789 207.503 684.94 207.503 683.893C207.503 682.846 206.655 681.997 205.609 681.997C204.563 681.997 203.715 682.846 203.715 683.893C203.715 684.94 204.563 685.789 205.609 685.789Z" fill="#FFBD60"/>
<path opacity="0.548875" fill-rule="evenodd" clip-rule="evenodd" d="M177.425 673.028C177.425 673.028 170.775 636.233 187.575 636.233C204.375 636.233 198.775 712.978 229.225 695.807C259.675 678.635 247.775 727.696 246.725 728.047C245.675 728.397 230.975 743.115 229.225 743.115C227.475 743.115 175.675 745.218 172.175 743.115C168.675 741.013 177.425 673.028 177.425 673.028Z" fill="url(#paint34_linear)"/>
<path opacity="0.548875" fill-rule="evenodd" clip-rule="evenodd" d="M220 651.827C220 651.827 212.65 709.999 185.7 713.153C158.75 716.307 239.25 727.17 239.95 727.17C240.65 727.17 245.55 684.417 244.85 680.212C244.15 676.007 220 651.827 220 651.827Z" fill="url(#paint35_linear)"/>
</g>
<path fill-rule="evenodd" clip-rule="evenodd" d="M141.425 746.918L137.544 638.078C137.464 635.818 135.608 634.028 133.347 634.028H93.229C90.9374 634.028 89.0687 635.865 89.0297 638.156L87.175 746.918H141.425Z" fill="url(#paint36_linear)"/>
<mask id="mask15" mask-type="alpha" maskUnits="userSpaceOnUse" x="87" y="634" width="55" height="113">
<path fill-rule="evenodd" clip-rule="evenodd" d="M141.425 746.918L137.544 638.078C137.464 635.818 135.608 634.028 133.347 634.028H93.229C90.9374 634.028 89.0687 635.865 89.0297 638.156L87.175 746.918H141.425Z" fill="white"/>
</mask>
<g mask="url(#mask15)">
<path fill-rule="evenodd" clip-rule="evenodd" d="M86.4751 645.943H145.1V661.362H86.4751V645.943Z" stroke="#FFBD60" stroke-width="0.7" stroke-linejoin="round"/>
<rect x="86.6501" y="649.588" width="60.3641" height="8.12769" fill="#F6F8FB"/>
<path fill-rule="evenodd" clip-rule="evenodd" d="M83.5 676.08H142.125V691.499H83.5V676.08Z" stroke="#FFBD60" stroke-width="0.7" stroke-linejoin="round"/>
<rect x="83.675" y="679.726" width="60.3641" height="8.12769" fill="#F6F8FB"/>
</g>
<path fill-rule="evenodd" clip-rule="evenodd" d="M97.0124 617.871C98.1064 617.871 98.9932 616.983 98.9932 615.887C98.9932 614.792 98.1064 613.904 97.0124 613.904C95.9184 613.904 95.0316 614.792 95.0316 615.887C95.0316 616.983 95.9184 617.871 97.0124 617.871Z" stroke="#FFBD60" stroke-width="1.05"/>
<path d="M96.778 634.013L97.059 617.895" stroke="#FFBD60" stroke-width="1.05"/>
<path d="M94.9314 632.639C94.9314 631.673 95.7149 630.889 96.6814 630.889H97.3814C98.3479 630.889 99.1314 631.673 99.1314 632.639V634.096H94.9314V632.639Z" fill="url(#paint37_linear)"/>
<path d="M105.235 633.988L105.516 600.349" stroke="#583FB3" stroke-width="1.05"/>
<path fill-rule="evenodd" clip-rule="evenodd" d="M103.275 627.666C103.275 627.086 103.745 626.616 104.325 626.616H106.425C107.005 626.616 107.475 627.086 107.475 627.666V634.028H103.275V627.666Z" fill="url(#paint38_linear)"/>
<path fill-rule="evenodd" clip-rule="evenodd" d="M103.8 609.526C103.8 608.946 104.27 608.476 104.85 608.476H105.9C106.48 608.476 106.95 608.946 106.95 609.526V611.333C106.95 611.913 106.48 612.383 105.9 612.383H104.85C104.27 612.383 103.8 611.913 103.8 611.333V609.526Z" fill="url(#paint39_linear)"/>
<path fill-rule="evenodd" clip-rule="evenodd" d="M105.516 600.911C106.869 600.911 107.966 599.812 107.966 598.458C107.966 597.103 106.869 596.004 105.516 596.004C104.162 596.004 103.066 597.103 103.066 598.458C103.066 599.812 104.162 600.911 105.516 600.911Z" fill="#FFBD60"/>
<path d="M129.886 603.603L131.205 619.002" stroke="#563EB2" stroke-width="2.1"/>
<path fill-rule="evenodd" clip-rule="evenodd" d="M129.939 606.616C132.12 606.578 133.858 604.776 133.82 602.591C133.782 600.407 131.982 598.667 129.8 598.705C127.619 598.743 125.881 600.545 125.919 602.729C125.957 604.914 127.757 606.654 129.939 606.616Z" fill="#FF6CBB"/>
<path fill-rule="evenodd" clip-rule="evenodd" d="M122.258 623.498C124.637 619.855 128.554 617.503 132.888 617.117L156.888 614.975C159.831 614.713 162.793 615.2 165.498 616.391L173.785 620.042C176.969 621.445 179.251 624.333 179.879 627.755L201.8 747.19H116.4L119.953 630.83C120.033 628.221 120.83 625.684 122.258 623.498V623.498Z" fill="url(#paint40_linear)"/>
<path opacity="0.415341" fill-rule="evenodd" clip-rule="evenodd" d="M128.475 654.072C128.475 651.165 130.769 648.776 133.674 648.658L157.961 647.671C161.035 647.546 163.601 649.995 163.619 653.072V653.072C163.636 656.004 161.325 658.422 158.394 658.537L134.106 659.487C131.032 659.607 128.475 657.148 128.475 654.072V654.072Z" fill="#253554"/>
<path opacity="0.415341" fill-rule="evenodd" clip-rule="evenodd" d="M127.075 634.098C127.075 631.19 129.369 628.801 132.274 628.683L156.561 627.696C159.635 627.571 162.201 630.02 162.219 633.097V633.097C162.236 636.029 159.925 638.447 156.994 638.562L132.706 639.512C129.632 639.633 127.075 637.173 127.075 634.098V634.098Z" fill="#253554"/>
<path opacity="0.415341" fill-rule="evenodd" clip-rule="evenodd" d="M159.861 666.545C162.751 666.545 165.131 668.816 165.266 671.703L166.185 691.324C166.33 694.407 163.877 696.991 160.791 697.006V697.006C157.877 697.021 155.471 694.733 155.34 691.822L154.455 672.2C154.316 669.119 156.777 666.545 159.861 666.545V666.545Z" fill="#253554"/>
<path opacity="0.415341" fill-rule="evenodd" clip-rule="evenodd" d="M135.011 667.597C137.901 667.597 140.281 669.868 140.416 672.755L141.335 692.375C141.48 695.459 139.027 698.042 135.94 698.058V698.058C133.027 698.073 130.621 695.785 130.49 692.874L129.605 673.252C129.466 670.17 131.927 667.597 135.011 667.597V667.597Z" fill="#253554"/>
<mask id="mask16" mask-type="alpha" maskUnits="userSpaceOnUse" x="129" y="667" width="13" height="32">
<path fill-rule="evenodd" clip-rule="evenodd" d="M135.011 667.597C137.901 667.597 140.281 669.868 140.416 672.755L141.335 692.375C141.48 695.459 139.027 698.042 135.94 698.058V698.058C133.027 698.073 130.621 695.785 130.49 692.874L129.605 673.252C129.466 670.17 131.927 667.597 135.011 667.597V667.597Z" fill="white"/>
</mask>
<g mask="url(#mask16)">
</g>
<path fill-rule="evenodd" clip-rule="evenodd" d="M126.238 632.563C126.415 629.808 128.644 627.632 131.403 627.52L156.663 626.498C159.276 626.392 161.577 628.203 162.089 630.767V630.767C162.726 633.956 160.375 636.964 157.126 637.116L131.873 638.298C128.66 638.448 126.031 635.772 126.238 632.563V632.563Z" fill="#FFBD60"/>
<mask id="mask17" mask-type="alpha" maskUnits="userSpaceOnUse" x="126" y="626" width="37" height="13">
<path fill-rule="evenodd" clip-rule="evenodd" d="M126.238 632.563C126.415 629.808 128.644 627.632 131.403 627.52L156.663 626.498C159.276 626.392 161.577 628.203 162.089 630.767V630.767C162.726 633.956 160.375 636.964 157.126 637.116L131.873 638.298C128.66 638.448 126.031 635.772 126.238 632.563V632.563Z" fill="white"/>
</mask>
<g mask="url(#mask17)">
<path d="M136.444 626.117L137.603 639.383" stroke="#FF9666" stroke-width="1.75" stroke-linecap="round" stroke-linejoin="round"/>
<path d="M149.287 625.314L150.446 638.58" stroke="#FF9666" stroke-width="1.75" stroke-linecap="round" stroke-linejoin="round"/>
</g>
<path fill-rule="evenodd" clip-rule="evenodd" d="M127.638 652.337C127.815 649.582 130.044 647.406 132.803 647.294L158.063 646.272C160.676 646.167 162.977 647.977 163.489 650.541V650.541C164.126 653.73 161.775 656.739 158.526 656.891L133.273 658.072C130.06 658.223 127.431 655.546 127.638 652.337V652.337Z" fill="#FFBD60"/>
<mask id="mask18" mask-type="alpha" maskUnits="userSpaceOnUse" x="127" y="646" width="37" height="13">
<path fill-rule="evenodd" clip-rule="evenodd" d="M127.638 652.337C127.815 649.582 130.044 647.406 132.803 647.294L158.063 646.272C160.676 646.167 162.977 647.977 163.489 650.541V650.541C164.126 653.73 161.775 656.739 158.526 656.891L133.273 658.072C130.06 658.223 127.431 655.546 127.638 652.337V652.337Z" fill="white"/>
</mask>
<g mask="url(#mask18)">
<path d="M137.844 645.891L139.003 659.157" stroke="#FF9666" stroke-width="1.75" stroke-linecap="round" stroke-linejoin="round"/>
<path d="M150.687 645.088L151.846 658.354" stroke="#FF9666" stroke-width="1.75" stroke-linecap="round" stroke-linejoin="round"/>
</g>
<path fill-rule="evenodd" clip-rule="evenodd" d="M132.886 709.764C133.111 707.012 135.378 704.875 138.138 704.812L163.413 704.231C166.027 704.171 168.296 706.021 168.763 708.594V708.594C169.345 711.794 166.941 714.761 163.69 714.856L138.42 715.596C135.205 715.691 132.623 712.969 132.886 709.764V709.764Z" fill="#FFBD60"/>
<mask id="mask19" mask-type="alpha" maskUnits="userSpaceOnUse" x="132" y="703" width="37" height="14">
<path fill-rule="evenodd" clip-rule="evenodd" d="M132.886 709.764C133.111 707.012 135.378 704.875 138.138 704.812L163.413 704.231C166.027 704.171 168.296 706.021 168.763 708.594V708.594C169.345 711.794 166.941 714.761 163.69 714.856L138.42 715.596C135.205 715.691 132.623 712.969 132.886 709.764V709.764Z" fill="white"/>
</mask>
<g mask="url(#mask19)">
<path d="M143.203 703.497L144.131 716.781" stroke="#FF9666" stroke-width="1.75" stroke-linecap="round" stroke-linejoin="round"/>
<path d="M156.058 702.918L156.986 716.202" stroke="#FF9666" stroke-width="1.75" stroke-linecap="round" stroke-linejoin="round"/>
</g>
<path fill-rule="evenodd" clip-rule="evenodd" d="M135.739 696.007C132.846 696.007 130.463 693.733 130.327 690.843L129.408 671.273C129.263 668.186 131.719 665.599 134.81 665.583V665.583C137.727 665.569 140.135 667.859 140.267 670.773L141.152 690.344C141.291 693.429 138.827 696.007 135.739 696.007V696.007Z" fill="#FFBD60"/>
<mask id="mask20" mask-type="alpha" maskUnits="userSpaceOnUse" x="129" y="665" width="13" height="32">
<path fill-rule="evenodd" clip-rule="evenodd" d="M135.739 696.007C132.846 696.007 130.463 693.733 130.327 690.843L129.408 671.273C129.263 668.186 131.719 665.599 134.81 665.583V665.583C137.727 665.569 140.135 667.859 140.267 670.773L141.152 690.344C141.291 693.429 138.827 696.007 135.739 696.007V696.007Z" fill="white"/>
</mask>
<g mask="url(#mask20)">
<path d="M127.791 680.661L141.433 680.257" stroke="#FF9666" stroke-width="1.75" stroke-linecap="round" stroke-linejoin="round"/>
</g>
<path fill-rule="evenodd" clip-rule="evenodd" d="M160.764 694.806C157.87 694.806 155.488 692.532 155.352 689.642L154.433 670.072C154.288 666.985 156.744 664.398 159.834 664.382V664.382C162.751 664.367 165.16 666.658 165.292 669.572L166.176 689.143C166.316 692.228 163.852 694.806 160.764 694.806V694.806Z" fill="#FFBD60"/>
<mask id="mask21" mask-type="alpha" maskUnits="userSpaceOnUse" x="154" y="664" width="13" height="31">
<path fill-rule="evenodd" clip-rule="evenodd" d="M160.764 694.806C157.87 694.806 155.488 692.532 155.352 689.642L154.433 670.072C154.288 666.985 156.744 664.398 159.834 664.382V664.382C162.751 664.367 165.16 666.658 165.292 669.572L166.176 689.143C166.316 692.228 163.852 694.806 160.764 694.806V694.806Z" fill="white"/>
</mask>
<g mask="url(#mask21)">
<path d="M152.816 679.46L166.458 679.056" stroke="#FF9666" stroke-width="1.75" stroke-linecap="round" stroke-linejoin="round"/>
</g>
<path fill-rule="evenodd" clip-rule="evenodd" d="M299.5 461.366L313.5 441.04L328.301 444.46C330.36 444.936 331.933 446.6 332.293 448.683L381.4 733.303H341.85L299.5 461.366Z" fill="url(#paint41_linear)"/>
<mask id="mask22" mask-type="alpha" maskUnits="userSpaceOnUse" x="299" y="441" width="83" height="293">
<path fill-rule="evenodd" clip-rule="evenodd" d="M299.5 461.366L313.5 441.04L328.301 444.46C330.36 444.936 331.933 446.6 332.293 448.683L381.4 733.303H341.85L299.5 461.366Z" fill="white"/>
</mask>
<g mask="url(#mask22)">
<path opacity="0.415341" fill-rule="evenodd" clip-rule="evenodd" d="M341.85 494.657C341.85 494.657 343.6 503.418 328.2 508.324C312.8 513.23 240 521.64 240 521.64L239.65 534.607C239.65 534.607 358.3 521.64 357.25 521.64C356.2 521.64 341.85 494.657 341.85 494.657Z" fill="#253554"/>
</g>
<path fill-rule="evenodd" clip-rule="evenodd" d="M250.149 733.303L240.826 453.604C240.754 451.446 242.33 449.585 244.471 449.3L310.656 440.506C312.847 440.215 314.889 441.673 315.326 443.84L373.699 733.303H250.149Z" fill="url(#paint42_linear)"/>
<path opacity="0.415341" fill-rule="evenodd" clip-rule="evenodd" d="M248.289 469.553C247.936 466.676 249.982 464.057 252.859 463.703L259.537 462.883C262.415 462.529 265.035 464.576 265.388 467.454L270.679 510.597C271.032 513.474 268.986 516.093 266.109 516.447L259.431 517.268C256.553 517.622 253.933 515.575 253.58 512.696L248.289 469.553Z" fill="#253554"/>
<path opacity="0.415341" fill-rule="evenodd" clip-rule="evenodd" d="M288.889 464.998C288.536 462.12 290.582 459.501 293.459 459.148L300.137 458.327C303.015 457.973 305.635 460.02 305.988 462.899L311.279 506.041C311.632 508.919 309.586 511.537 306.709 511.891L300.031 512.712C297.153 513.066 294.533 511.019 294.18 508.14L288.889 464.998Z" fill="#253554"/>
<path opacity="0.415341" fill-rule="evenodd" clip-rule="evenodd" d="M268.559 639.183C268.199 635.408 270.91 632.033 274.673 631.57L277.818 631.184C281.75 630.7 285.299 633.573 285.645 637.518L292.706 717.845C293.046 721.703 290.187 725.104 286.328 725.433L283.775 725.65C279.951 725.976 276.577 723.162 276.212 719.341L268.559 639.183Z" fill="#253554"/>
<path opacity="0.415341" fill-rule="evenodd" clip-rule="evenodd" d="M317.559 632.175C317.199 628.4 319.91 625.024 323.673 624.562L326.818 624.175C330.75 623.692 334.299 626.564 334.645 630.51L341.706 710.836C342.046 714.695 339.187 718.095 335.328 718.424L332.775 718.641C328.951 718.967 325.577 716.153 325.212 712.332L317.559 632.175Z" fill="#253554"/>
<path opacity="0.415341" fill-rule="evenodd" clip-rule="evenodd" d="M321.059 632.175C320.699 628.4 323.41 625.024 327.173 624.562L330.318 624.175C334.25 623.692 337.799 626.564 338.145 630.51L345.206 710.836C345.546 714.695 342.687 718.095 338.828 718.424L336.275 718.641C332.451 718.967 329.077 716.153 328.712 712.332L321.059 632.175Z" fill="#253554"/>
<mask id="mask23" mask-type="alpha" maskUnits="userSpaceOnUse" x="318" y="623" width="31" height="97">
<path fill-rule="evenodd" clip-rule="evenodd" d="M321.059 632.175C320.699 628.4 323.41 625.024 327.173 624.562L330.318 624.175C334.25 623.692 337.799 626.564 338.145 630.51L345.206 710.836C345.546 714.695 342.687 718.095 338.828 718.424L336.275 718.641C332.451 718.967 329.077 716.153 328.712 712.332L321.059 632.175Z" fill="white"/>
</mask>
<g mask="url(#mask23)">
</g>
<path opacity="0.415341" fill-rule="evenodd" clip-rule="evenodd" d="M234.399 620.113L357.249 615.207L355.499 601.189L232.649 608.548L234.399 620.113Z" fill="#253554"/>
<path fill-rule="evenodd" clip-rule="evenodd" d="M247.743 466.075C247.39 463.198 249.436 460.579 252.314 460.225L258.991 459.404C261.869 459.05 264.49 461.098 264.843 463.976L270.133 507.119C270.486 509.996 268.44 512.615 265.563 512.969L258.885 513.79C256.007 514.143 253.387 512.096 253.034 509.218L247.743 466.075Z" fill="#FFBD60"/>
<mask id="mask24" mask-type="alpha" maskUnits="userSpaceOnUse" x="247" y="458" width="24" height="57">
<path fill-rule="evenodd" clip-rule="evenodd" d="M247.743 466.075C247.39 463.198 249.436 460.579 252.314 460.225L258.991 459.404C261.869 459.05 264.49 461.098 264.843 463.976L270.133 507.119C270.486 509.996 268.44 512.615 265.563 512.969L258.885 513.79C256.007 514.143 253.387 512.096 253.034 509.218L247.743 466.075Z" fill="white"/>
</mask>
<g mask="url(#mask24)">
<path d="M245.221 473.567L268.728 469.84" stroke="#FF9666" stroke-width="1.75" stroke-linecap="round" stroke-linejoin="round"/>
<path d="M246.971 488.198L270.478 484.47" stroke="#FF9666" stroke-width="1.75" stroke-linecap="round" stroke-linejoin="round"/>
<path d="M248.721 502.829L272.228 499.101" stroke="#FF9666" stroke-width="1.75" stroke-linecap="round" stroke-linejoin="round"/>
</g>
<path fill-rule="evenodd" clip-rule="evenodd" d="M312.188 631.179C311.827 627.404 314.538 624.029 318.302 623.566L321.447 623.18C325.378 622.696 328.927 625.568 329.274 629.514L336.335 709.841C336.674 713.699 333.815 717.1 329.956 717.429L327.403 717.646C323.579 717.972 320.206 715.157 319.841 711.337L312.188 631.179Z" fill="#FFBD60"/>
<mask id="mask25" mask-type="alpha" maskUnits="userSpaceOnUse" x="309" y="622" width="31" height="97">
<path fill-rule="evenodd" clip-rule="evenodd" d="M312.188 631.179C311.827 627.404 314.538 624.029 318.302 623.566L321.447 623.18C325.378 622.696 328.927 625.568 329.274 629.514L336.335 709.841C336.674 713.699 333.815 717.1 329.956 717.429L327.403 717.646C323.579 717.972 320.206 715.157 319.841 711.337L312.188 631.179Z" fill="white"/>
</mask>
<g mask="url(#mask25)">
<path d="M309.19 646.94L332.859 644.449" stroke="#FF9666" stroke-width="1.75" stroke-linecap="round" stroke-linejoin="round"/>
<path d="M309.19 671.645L332.859 669.155" stroke="#FF9666" stroke-width="1.75" stroke-linecap="round" stroke-linejoin="round"/>
<path d="M312.165 696.351L335.834 693.86" stroke="#FF9666" stroke-width="1.75" stroke-linecap="round" stroke-linejoin="round"/>
</g>
<path fill-rule="evenodd" clip-rule="evenodd" d="M265.252 632.415C264.891 628.64 267.602 625.265 271.366 624.802L274.511 624.415C278.442 623.932 281.991 626.804 282.338 630.75L289.399 711.077C289.738 714.935 286.879 718.335 283.02 718.664L280.467 718.882C276.643 719.208 273.27 716.393 272.905 712.572L265.252 632.415Z" fill="#FFBD60"/>
<mask id="mask26" mask-type="alpha" maskUnits="userSpaceOnUse" x="262" y="623" width="31" height="97">
<path fill-rule="evenodd" clip-rule="evenodd" d="M265.252 632.415C264.891 628.64 267.602 625.265 271.366 624.802L274.511 624.415C278.442 623.932 281.991 626.804 282.338 630.75L289.399 711.077C289.738 714.935 286.879 718.335 283.02 718.664L280.467 718.882C276.643 719.208 273.27 716.393 272.905 712.572L265.252 632.415Z" fill="white"/>
</mask>
<g mask="url(#mask26)">
<path d="M262.254 648.176L285.923 645.685" stroke="#FF9666" stroke-width="1.75" stroke-linecap="round" stroke-linejoin="round"/>
<path d="M262.254 672.881L285.923 670.39" stroke="#FF9666" stroke-width="1.75" stroke-linecap="round" stroke-linejoin="round"/>
<path d="M265.229 697.587L288.898 695.096" stroke="#FF9666" stroke-width="1.75" stroke-linecap="round" stroke-linejoin="round"/>
</g>
<path fill-rule="evenodd" clip-rule="evenodd" d="M288.343 461.519C287.99 458.642 290.036 456.023 292.914 455.67L299.591 454.849C302.469 454.495 305.09 456.542 305.443 459.42L310.733 502.563C311.086 505.441 309.04 508.059 306.163 508.413L299.485 509.234C296.607 509.588 293.987 507.541 293.634 504.662L288.343 461.519Z" fill="#FFBD60"/>
<mask id="mask27" mask-type="alpha" maskUnits="userSpaceOnUse" x="287" y="454" width="25" height="56">
<path fill-rule="evenodd" clip-rule="evenodd" d="M288.343 461.519C287.99 458.642 290.036 456.023 292.914 455.67L299.591 454.849C302.469 454.495 305.09 456.542 305.443 459.42L310.733 502.563C311.086 505.441 309.04 508.059 306.163 508.413L299.485 509.234C296.607 509.588 293.987 507.541 293.634 504.662L288.343 461.519Z" fill="white"/>
</mask>
<g mask="url(#mask27)">
<path d="M285.821 469.012L309.328 465.284" stroke="#FF9666" stroke-width="1.75" stroke-linecap="round" stroke-linejoin="round"/>
<path d="M287.571 483.642L311.078 479.915" stroke="#FF9666" stroke-width="1.75" stroke-linecap="round" stroke-linejoin="round"/>
<path d="M289.321 498.273L312.828 494.545" stroke="#FF9666" stroke-width="1.75" stroke-linecap="round" stroke-linejoin="round"/>
</g>
<path fill-rule="evenodd" clip-rule="evenodd" d="M235.872 527.272C235.831 525.469 237.166 523.93 238.956 523.717L329.53 512.913C331.346 512.696 333.023 513.915 333.378 515.71L350.881 604.308C351.289 606.374 349.795 608.329 347.695 608.478L241.562 615.998C239.568 616.14 237.861 614.585 237.816 612.587L235.872 527.272Z" fill="url(#paint43_linear)"/>
<path opacity="0.415341" fill-rule="evenodd" clip-rule="evenodd" d="M248.547 546.887C248.063 542.274 251.409 538.141 256.022 537.656L319.199 531.008C323.814 530.522 327.948 533.87 328.432 538.485L329.005 543.942C329.489 548.555 326.143 552.687 321.53 553.173L258.353 559.821C253.738 560.307 249.604 556.959 249.12 552.344L248.547 546.887Z" fill="#253554"/>
<path opacity="0.415341" fill-rule="evenodd" clip-rule="evenodd" d="M262.547 588.238C262.063 583.625 265.409 579.493 270.022 579.007L333.199 572.359C337.814 571.873 341.948 575.221 342.432 579.836L343.005 585.293C343.489 589.906 340.143 594.039 335.53 594.524L272.353 601.172C267.738 601.658 263.604 598.31 263.12 593.696L262.547 588.238Z" fill="#253554"/>
<path fill-rule="evenodd" clip-rule="evenodd" d="M245.882 543.44C245.398 538.827 248.744 534.695 253.357 534.209L316.534 527.558C321.149 527.072 325.284 530.42 325.768 535.035L326.341 540.492C326.825 545.105 323.479 549.237 318.866 549.723L255.688 556.374C251.073 556.86 246.939 553.512 246.455 548.897L245.882 543.44Z" fill="#E2E7F4"/>
<path fill-rule="evenodd" clip-rule="evenodd" d="M247.322 543.748C246.919 539.904 249.707 536.461 253.551 536.056L316.729 529.405C320.574 529 324.02 531.79 324.423 535.636L324.901 540.184C325.304 544.028 322.515 547.471 318.672 547.876L255.494 554.527C251.648 554.932 248.203 552.142 247.799 548.296L247.322 543.748Z" fill="#FFBD60"/>
<mask id="mask28" mask-type="alpha" maskUnits="userSpaceOnUse" x="247" y="529" width="78" height="26">
<path fill-rule="evenodd" clip-rule="evenodd" d="M247.322 543.748C246.919 539.904 249.707 536.461 253.551 536.056L316.729 529.405C320.574 529 324.02 531.79 324.423 535.636L324.901 540.184C325.304 544.028 322.515 547.471 318.672 547.876L255.494 554.527C251.648 554.932 248.203 552.142 247.799 548.296L247.322 543.748Z" fill="white"/>
</mask>
<g mask="url(#mask28)">
<path d="M263.286 534.665L265.375 555.075" stroke="#FF9666" stroke-width="1.75" stroke-linecap="round" stroke-linejoin="round"/>
<path d="M285.067 531.761L287.156 552.171" stroke="#FF9666" stroke-width="1.75" stroke-linecap="round" stroke-linejoin="round"/>
<path d="M306.561 528.988L308.65 549.398" stroke="#FF9666" stroke-width="1.75" stroke-linecap="round" stroke-linejoin="round"/>
<path opacity="0.503664" fill-rule="evenodd" clip-rule="evenodd" d="M246.95 552.305L326.75 543.891L327.45 551.951L246.949 561.066L246.95 552.305Z" fill="#FF9666"/>
</g>
<path fill-rule="evenodd" clip-rule="evenodd" d="M253.232 585.018C252.748 580.405 256.094 576.273 260.707 575.787L323.884 569.136C328.499 568.65 332.634 571.998 333.118 576.613L333.691 582.07C334.175 586.683 330.829 590.815 326.216 591.301L263.038 597.952C258.423 598.438 254.289 595.09 253.805 590.475L253.232 585.018Z" fill="#E2E7F4"/>
<path fill-rule="evenodd" clip-rule="evenodd" d="M254.672 585.326C254.269 581.482 257.057 578.039 260.901 577.634L324.079 570.983C327.924 570.578 331.37 573.368 331.773 577.214L332.251 581.762C332.654 585.606 329.865 589.049 326.022 589.454L262.844 596.105C258.998 596.51 255.553 593.72 255.149 589.874L254.672 585.326Z" fill="#FFBD60"/>
<mask id="mask29" mask-type="alpha" maskUnits="userSpaceOnUse" x="254" y="570" width="79" height="27">
<path fill-rule="evenodd" clip-rule="evenodd" d="M254.672 585.326C254.269 581.482 257.057 578.039 260.901 577.634L324.079 570.983C327.924 570.578 331.37 573.368 331.773 577.214L332.251 581.762C332.654 585.606 329.865 589.049 326.022 589.454L262.844 596.105C258.998 596.51 255.553 593.72 255.149 589.874L254.672 585.326Z" fill="white"/>
</mask>
<g mask="url(#mask29)">
<path opacity="0.503664" fill-rule="evenodd" clip-rule="evenodd" d="M246.952 595.061L326.594 585.254L327.434 593.3L247.105 603.82L246.952 595.061Z" fill="#FF9666"/>
<path d="M270.636 576.243L272.725 596.653" stroke="#FF9666" stroke-width="1.75" stroke-linecap="round" stroke-linejoin="round"/>
<path d="M292.417 573.339L294.506 593.749" stroke="#FF9666" stroke-width="1.75" stroke-linecap="round" stroke-linejoin="round"/>
<path d="M313.911 570.566L315.999 590.976" stroke="#FF9666" stroke-width="1.75" stroke-linecap="round" stroke-linejoin="round"/>
</g>
<path fill-rule="evenodd" clip-rule="evenodd" d="M100.65 729.871L89.7185 599.213C89.5667 597.399 88.0505 596.004 86.2307 596.004H35.4604C33.5628 596.004 32.0108 597.517 31.9616 599.414L28.55 730.922L100.65 729.871Z" fill="url(#paint44_linear)"/>
<mask id="mask30" mask-type="alpha" maskUnits="userSpaceOnUse" x="28" y="596" width="73" height="135">
<path fill-rule="evenodd" clip-rule="evenodd" d="M100.65 729.871L89.7185 599.213C89.5667 597.399 88.0505 596.004 86.2307 596.004H35.4604C33.5628 596.004 32.0108 597.517 31.9616 599.414L28.55 730.922L100.65 729.871Z" fill="white"/>
</mask>
<g mask="url(#mask30)">
<path d="M83.0299 605.621C84.5099 605.621 85.7097 604.42 85.7097 602.938C85.7097 601.456 84.5099 600.255 83.0299 600.255C81.5499 600.255 80.3501 601.456 80.3501 602.938C80.3501 604.42 81.5499 605.621 83.0299 605.621Z" fill="#583FB3"/>
<path fill-rule="evenodd" clip-rule="evenodd" d="M76.5165 604.891C77.5939 604.891 78.4674 604.017 78.4674 602.938C78.4674 601.859 77.5939 600.985 76.5165 600.985C75.4391 600.985 74.5657 601.859 74.5657 602.938C74.5657 604.017 75.4391 604.891 76.5165 604.891Z" fill="#FF6CBB"/>
<path d="M86.7142 658.245C88.1943 658.245 89.3941 657.043 89.3941 655.561C89.3941 654.08 88.1943 652.878 86.7142 652.878C85.2342 652.878 84.0344 654.08 84.0344 655.561C84.0344 657.043 85.2342 658.245 86.7142 658.245Z" fill="#583FB3"/>
<path fill-rule="evenodd" clip-rule="evenodd" d="M80.2008 657.515C81.2783 657.515 82.1517 656.64 82.1517 655.561C82.1517 654.483 81.2783 653.608 80.2008 653.608C79.1234 653.608 78.25 654.483 78.25 655.561C78.25 656.64 79.1234 657.515 80.2008 657.515Z" fill="#FF6CBB"/>
<rect x="24.3956" y="618.425" width="73.4544" height="29.555" fill="#E2E7F4"/>
<path fill-rule="evenodd" clip-rule="evenodd" d="M21.5729 675.55L102.727 675.438V704.993L21.5729 705.105V675.55Z" fill="#E2E7F4"/>
<rect x="26.4501" y="620.587" width="71.3544" height="24.9598" fill="url(#paint45_linear)"/>
<mask id="mask31" mask-type="alpha" maskUnits="userSpaceOnUse" x="26" y="620" width="72" height="26">
<rect x="26.4501" y="620.587" width="71.3544" height="24.9598" fill="white"/>
</mask>
<g mask="url(#mask31)">
<path d="M62.1501 616.68V648.57" stroke="#5D7CFF" stroke-width="1.75"/>
</g>
<path fill-rule="evenodd" clip-rule="evenodd" d="M12.4501 677.656H108.304V702.616H12.4501V677.656Z" fill="url(#paint46_linear)"/>
<mask id="mask32" mask-type="alpha" maskUnits="userSpaceOnUse" x="12" y="677" width="97" height="26">
<path fill-rule="evenodd" clip-rule="evenodd" d="M12.4501 677.656H108.304V702.616H12.4501V677.656Z" fill="white"/>
</mask>
<g mask="url(#mask32)">
<path d="M62.1501 675.203V706.391" stroke="#5D7CFF" stroke-width="1.75"/>
</g>
</g>
</g>
<defs>
<linearGradient id="paint0_linear" x1="227.118" y1="-96.2978" x2="-175.269" y2="-18.9925" gradientUnits="userSpaceOnUse">
<stop stop-color="#FF64B7"/>
<stop offset="1" stop-color="#FFBD60"/>
</linearGradient>
<linearGradient id="paint1_linear" x1="-205.031" y1="479.494" x2="596.097" y2="851.244" gradientUnits="userSpaceOnUse">
<stop stop-color="#FFA492" stop-opacity="0.01"/>
<stop offset="0.300844" stop-color="#CA3891"/>
<stop offset="1" stop-color="#3E13AF"/>
</linearGradient>
<linearGradient id="paint2_linear" x1="435.242" y1="589.035" x2="500.456" y2="194.682" gradientUnits="userSpaceOnUse">
<stop stop-color="#FFA492"/>
<stop offset="0.216626" stop-color="#CA3891"/>
<stop offset="1" stop-color="#3E13AF"/>
</linearGradient>
<linearGradient id="paint3_linear" x1="336.663" y1="443.506" x2="340.691" y2="402.085" gradientUnits="userSpaceOnUse">
<stop stop-color="#FFA492"/>
<stop offset="0.216626" stop-color="#CA3891"/>
<stop offset="1" stop-color="#3E13AF"/>
</linearGradient>
<linearGradient id="paint4_linear" x1="175.142" y1="468.689" x2="190.458" y2="443.299" gradientUnits="userSpaceOnUse">
<stop stop-color="#FFA492"/>
<stop offset="0.216626" stop-color="#CA3891"/>
<stop offset="1" stop-color="#3E13AF"/>
</linearGradient>
<linearGradient id="paint5_linear" x1="155.307" y1="476.422" x2="160.703" y2="432.069" gradientUnits="userSpaceOnUse">
<stop stop-color="#FFA492"/>
<stop offset="0.216626" stop-color="#CA3891"/>
<stop offset="1" stop-color="#3E13AF"/>
</linearGradient>
<linearGradient id="paint6_linear" x1="96.5698" y1="419.655" x2="130.814" y2="500.085" gradientUnits="userSpaceOnUse">
<stop stop-color="#F393AA"/>
<stop offset="1" stop-color="#B81375"/>
</linearGradient>
<linearGradient id="paint7_linear" x1="206.174" y1="489.815" x2="218.824" y2="432.992" gradientUnits="userSpaceOnUse">
<stop stop-color="#FFA492"/>
<stop offset="0.216626" stop-color="#CA3891"/>
<stop offset="1" stop-color="#3E13AF"/>
</linearGradient>
<linearGradient id="paint8_linear" x1="191.047" y1="482.893" x2="213.692" y2="415.145" gradientUnits="userSpaceOnUse">
<stop stop-color="#FFA492"/>
<stop offset="0.216626" stop-color="#CA3891"/>
<stop offset="1" stop-color="#3E13AF"/>
</linearGradient>
<linearGradient id="paint9_linear" x1="155.43" y1="476.317" x2="160.826" y2="431.964" gradientUnits="userSpaceOnUse">
<stop stop-color="#FFA492"/>
<stop offset="0.216626" stop-color="#CA3891"/>
<stop offset="1" stop-color="#3E13AF"/>
</linearGradient>
<linearGradient id="paint10_linear" x1="4.5898" y1="435.74" x2="38.8344" y2="516.17" gradientUnits="userSpaceOnUse">
<stop stop-color="#F393AA"/>
<stop offset="1" stop-color="#B81375"/>
</linearGradient>
<linearGradient id="paint11_linear" x1="103.5" y1="504.574" x2="116.299" y2="451.893" gradientUnits="userSpaceOnUse">
<stop stop-color="#FFA492"/>
<stop offset="0.216626" stop-color="#CA3891"/>
<stop offset="1" stop-color="#3E13AF"/>
</linearGradient>
<linearGradient id="paint12_linear" x1="99.604" y1="496.807" x2="120.731" y2="431.821" gradientUnits="userSpaceOnUse">
<stop stop-color="#FFA492"/>
<stop offset="0.216626" stop-color="#CA3891"/>
<stop offset="1" stop-color="#3E13AF"/>
</linearGradient>
<linearGradient id="paint13_linear" x1="186.345" y1="404.516" x2="220.589" y2="484.947" gradientUnits="userSpaceOnUse">
<stop stop-color="#F393AA"/>
<stop offset="1" stop-color="#B81375"/>
</linearGradient>
<linearGradient id="paint14_linear" x1="299.687" y1="474.396" x2="311.565" y2="417.225" gradientUnits="userSpaceOnUse">
<stop stop-color="#FFA492"/>
<stop offset="0.216626" stop-color="#CA3891"/>
<stop offset="1" stop-color="#3E13AF"/>
</linearGradient>
<linearGradient id="paint15_linear" x1="300.287" y1="469.572" x2="320.671" y2="392.737" gradientUnits="userSpaceOnUse">
<stop stop-color="#FFA492"/>
<stop offset="0.216626" stop-color="#CA3891"/>
<stop offset="1" stop-color="#3E13AF"/>
</linearGradient>
<linearGradient id="paint16_linear" x1="273.845" y1="389.448" x2="308.089" y2="469.878" gradientUnits="userSpaceOnUse">
<stop stop-color="#F393AA"/>
<stop offset="1" stop-color="#B81375"/>
</linearGradient>
<linearGradient id="paint17_linear" x1="368.012" y1="480.831" x2="424.297" y2="387.521" gradientUnits="userSpaceOnUse">
<stop stop-color="#FFA492"/>
<stop offset="0.216626" stop-color="#CA3891"/>
<stop offset="1" stop-color="#3E13AF"/>
</linearGradient>
<linearGradient id="paint18_linear" x1="387.787" y1="454.504" x2="408.171" y2="377.668" gradientUnits="userSpaceOnUse">
<stop stop-color="#FFA492"/>
<stop offset="0.216626" stop-color="#CA3891"/>
<stop offset="1" stop-color="#3E13AF"/>
</linearGradient>
<linearGradient id="paint19_linear" x1="336.663" y1="443.506" x2="340.691" y2="402.085" gradientUnits="userSpaceOnUse">
<stop stop-color="#FFA492"/>
<stop offset="0.216626" stop-color="#CA3891"/>
<stop offset="1" stop-color="#3E13AF"/>
</linearGradient>
<linearGradient id="paint20_linear" x1="49.5811" y1="460.359" x2="-21.1969" y2="511.664" gradientUnits="userSpaceOnUse">
<stop stop-color="#F393AA"/>
<stop offset="1" stop-color="#B81375"/>
</linearGradient>
<linearGradient id="paint21_linear" x1="-78.2023" y1="490.19" x2="-78.3895" y2="381.219" gradientUnits="userSpaceOnUse">
<stop stop-color="#FFA492"/>
<stop offset="0.216626" stop-color="#CA3891"/>
<stop offset="1" stop-color="#3E13AF"/>
</linearGradient>
<linearGradient id="paint22_linear" x1="5.48971" y1="505.675" x2="57.859" y2="410.887" gradientUnits="userSpaceOnUse">
<stop stop-color="#FFA492"/>
<stop offset="0.216626" stop-color="#CA3891"/>
<stop offset="1" stop-color="#3E13AF"/>
</linearGradient>
<linearGradient id="paint23_linear" x1="-251.244" y1="625.013" x2="337.304" y2="1179.21" gradientUnits="userSpaceOnUse">
<stop stop-color="#FFA492" stop-opacity="0.01"/>
<stop offset="0.300844" stop-color="#CA3891"/>
<stop offset="1" stop-color="#3E13AF"/>
</linearGradient>
<linearGradient id="paint24_linear" x1="27.2986" y1="637.149" x2="40.9492" y2="565.924" gradientUnits="userSpaceOnUse">
<stop stop-color="#FFA492"/>
<stop offset="0.216626" stop-color="#CA3891"/>
<stop offset="1" stop-color="#3E13AF"/>
</linearGradient>
<linearGradient id="paint25_linear" x1="170.718" y1="644.99" x2="184.198" y2="573.5" gradientUnits="userSpaceOnUse">
<stop stop-color="#FFA492"/>
<stop offset="0.216626" stop-color="#CA3891"/>
<stop offset="1" stop-color="#3E13AF"/>
</linearGradient>
<linearGradient id="paint26_linear" x1="436.342" y1="720.101" x2="470.532" y2="482.082" gradientUnits="userSpaceOnUse">
<stop stop-color="#FFA492"/>
<stop offset="0.216626" stop-color="#CA3891"/>
<stop offset="1" stop-color="#3E13AF"/>
</linearGradient>
<linearGradient id="paint27_linear" x1="-9.39246" y1="594.238" x2="-9.39246" y2="632.611" gradientUnits="userSpaceOnUse">
<stop stop-color="#F393AA"/>
<stop offset="1" stop-color="#D44399"/>
</linearGradient>
<linearGradient id="paint28_linear" x1="228.927" y1="626.494" x2="303.514" y2="490.282" gradientUnits="userSpaceOnUse">
<stop stop-color="#FFA492"/>
<stop offset="0.43169" stop-color="#CA3891"/>
<stop offset="1" stop-color="#3E13AF"/>
</linearGradient>
<linearGradient id="paint29_linear" x1="215.977" y1="575.615" x2="224.499" y2="525.253" gradientUnits="userSpaceOnUse">
<stop stop-color="#FFA492"/>
<stop offset="0.359822" stop-color="#CA3891"/>
<stop offset="1" stop-color="#3E13AF"/>
</linearGradient>
<linearGradient id="paint30_linear" x1="274.064" y1="950.006" x2="579.507" y2="777.821" gradientUnits="userSpaceOnUse">
<stop stop-color="#FFA492"/>
<stop offset="0.43169" stop-color="#CA3891"/>
<stop offset="1" stop-color="#3E13AF"/>
</linearGradient>
<linearGradient id="paint31_linear" x1="206.054" y1="622.893" x2="222.357" y2="616.9" gradientUnits="userSpaceOnUse">
<stop stop-color="#74C3FF"/>
<stop offset="1" stop-color="#5C79FF"/>
</linearGradient>
<linearGradient id="paint32_linear" x1="213.56" y1="671.418" x2="229.863" y2="665.426" gradientUnits="userSpaceOnUse">
<stop stop-color="#74C3FF"/>
<stop offset="1" stop-color="#5C79FF"/>
</linearGradient>
<linearGradient id="paint33_linear" x1="221.066" y1="719.944" x2="237.369" y2="713.951" gradientUnits="userSpaceOnUse">
<stop stop-color="#74C3FF"/>
<stop offset="1" stop-color="#5C79FF"/>
</linearGradient>
<linearGradient id="paint34_linear" x1="304.58" y1="856.922" x2="495.055" y2="588.662" gradientUnits="userSpaceOnUse">
<stop stop-color="#FFA492"/>
<stop offset="0.43169" stop-color="#CA3891"/>
<stop offset="1" stop-color="#3E13AF"/>
</linearGradient>
<linearGradient id="paint35_linear" x1="248.164" y1="803.234" x2="358.617" y2="652.236" gradientUnits="userSpaceOnUse">
<stop stop-color="#FFA492"/>
<stop offset="0.397722" stop-color="#CA3891"/>
<stop offset="1" stop-color="#3E13AF"/>
</linearGradient>
<linearGradient id="paint36_linear" x1="179.122" y1="865.1" x2="389.762" y2="669.822" gradientUnits="userSpaceOnUse">
<stop stop-color="#FFA492"/>
<stop offset="0.43169" stop-color="#CA3891"/>
<stop offset="1" stop-color="#3E13AF"/>
</linearGradient>
<linearGradient id="paint37_linear" x1="106.346" y1="645.774" x2="110.801" y2="627.637" gradientUnits="userSpaceOnUse">
<stop stop-color="#FFA492"/>
<stop offset="0.536699" stop-color="#CA3891"/>
<stop offset="1" stop-color="#3E13AF"/>
</linearGradient>
<linearGradient id="paint38_linear" x1="111.1" y1="657.15" x2="132.023" y2="632.22" gradientUnits="userSpaceOnUse">
<stop stop-color="#FFA492"/>
<stop offset="0.43169" stop-color="#CA3891"/>
<stop offset="1" stop-color="#3E13AF"/>
</linearGradient>
<linearGradient id="paint39_linear" x1="106.174" y1="617.353" x2="111.815" y2="611.132" gradientUnits="userSpaceOnUse">
<stop stop-color="#FF6CBB"/>
<stop offset="1" stop-color="#8E62FF"/>
</linearGradient>
<linearGradient id="paint40_linear" x1="180.772" y1="915.864" x2="371.6" y2="747.754" gradientUnits="userSpaceOnUse">
<stop stop-color="#FF6CBB"/>
<stop offset="1" stop-color="#8E62FF"/>
</linearGradient>
<linearGradient id="paint41_linear" x1="367.814" y1="925.809" x2="570.443" y2="834.844" gradientUnits="userSpaceOnUse">
<stop stop-color="#FF6CBB"/>
<stop offset="1" stop-color="#8E62FF"/>
</linearGradient>
<linearGradient id="paint42_linear" x1="340.95" y1="1106.37" x2="722.12" y2="869.933" gradientUnits="userSpaceOnUse">
<stop stop-color="#FF6CBB"/>
<stop offset="1" stop-color="#8E62FF"/>
</linearGradient>
<linearGradient id="paint43_linear" x1="246.583" y1="785.469" x2="390.411" y2="589.24" gradientUnits="userSpaceOnUse">
<stop stop-color="#FF6CBB"/>
<stop offset="1" stop-color="#8E62FF"/>
</linearGradient>
<linearGradient id="paint44_linear" x1="96.5996" y1="766.452" x2="96.5996" y2="596.004" gradientUnits="userSpaceOnUse">
<stop stop-color="#74C3FF"/>
<stop offset="1" stop-color="#5C79FF"/>
</linearGradient>
<linearGradient id="paint45_linear" x1="30.1958" y1="603.28" x2="11.3846" y2="668.324" gradientUnits="userSpaceOnUse">
<stop stop-color="#6BE5FF"/>
<stop offset="1" stop-color="#5C79FF"/>
</linearGradient>
<linearGradient id="paint46_linear" x1="4.74522" y1="656.763" x2="-13.3035" y2="737.214" gradientUnits="userSpaceOnUse">
<stop stop-color="#6BE5FF"/>
<stop offset="1" stop-color="#5C79FF"/>
</linearGradient>
</defs>
</svg>
