<svg width="720" height="732" viewBox="0 0 720 732" fill="none" xmlns="http://www.w3.org/2000/svg">
<path fill-rule="evenodd" clip-rule="evenodd" d="M0 0H720V707.678C332.404 779.742 400.5 668.713 0 668.713V0Z" fill="url(#paint0_linear)"/>
<mask id="mask0" mask-type="alpha" maskUnits="userSpaceOnUse" x="0" y="0" width="720" height="732">
<path fill-rule="evenodd" clip-rule="evenodd" d="M0 0H720V707.678C332.404 779.742 400.5 668.713 0 668.713V0Z" fill="white"/>
</mask>
<g mask="url(#mask0)">
<path opacity="0.5" fill-rule="evenodd" clip-rule="evenodd" d="M374.85 480.464C375.816 480.464 376.6 479.68 376.6 478.712C376.6 477.744 375.816 476.96 374.85 476.96C373.883 476.96 373.1 477.744 373.1 478.712C373.1 479.68 373.883 480.464 374.85 480.464Z" fill="white"/>
<path opacity="0.5" fill-rule="evenodd" clip-rule="evenodd" d="M479.85 459.438C480.816 459.438 481.6 458.654 481.6 457.686C481.6 456.718 480.816 455.934 479.85 455.934C478.883 455.934 478.1 456.718 478.1 457.686C478.1 458.654 478.883 459.438 479.85 459.438Z" fill="white"/>
<path opacity="0.5" fill-rule="evenodd" clip-rule="evenodd" d="M425.904 681.405C426.871 681.405 427.654 680.62 427.654 679.653C427.654 678.685 426.871 677.9 425.904 677.9C424.938 677.9 424.154 678.685 424.154 679.653C424.154 680.62 424.938 681.405 425.904 681.405Z" fill="white"/>
<path opacity="0.3" fill-rule="evenodd" clip-rule="evenodd" d="M262.85 526.021C263.816 526.021 264.6 525.236 264.6 524.269C264.6 523.301 263.816 522.517 262.85 522.517C261.883 522.517 261.1 523.301 261.1 524.269C261.1 525.236 261.883 526.021 262.85 526.021Z" fill="white"/>
<path opacity="0.3" fill-rule="evenodd" clip-rule="evenodd" d="M199.85 540.038C200.816 540.038 201.6 539.254 201.6 538.286C201.6 537.318 200.816 536.534 199.85 536.534C198.883 536.534 198.1 537.318 198.1 538.286C198.1 539.254 198.883 540.038 199.85 540.038Z" fill="white"/>
<path opacity="0.3" fill-rule="evenodd" clip-rule="evenodd" d="M59.85 575.082C60.8165 575.082 61.6 574.297 61.6 573.33C61.6 572.362 60.8165 571.577 59.85 571.577C58.8835 571.577 58.1 572.362 58.1 573.33C58.1 574.297 58.8835 575.082 59.85 575.082Z" fill="white"/>
<path opacity="0.3" fill-rule="evenodd" clip-rule="evenodd" d="M98.35 599.612C99.3165 599.612 100.1 598.828 100.1 597.86C100.1 596.892 99.3165 596.108 98.35 596.108C97.3835 596.108 96.6 596.892 96.6 597.86C96.6 598.828 97.3835 599.612 98.35 599.612Z" fill="white"/>
<path opacity="0.3" fill-rule="evenodd" clip-rule="evenodd" d="M49.35 512.003C50.3165 512.003 51.1 511.219 51.1 510.251C51.1 509.284 50.3165 508.499 49.35 508.499C48.3835 508.499 47.6 509.284 47.6 510.251C47.6 511.219 48.3835 512.003 49.35 512.003Z" fill="white"/>
<path opacity="0.3" fill-rule="evenodd" clip-rule="evenodd" d="M49.35 459.438C50.3165 459.438 51.1 458.654 51.1 457.686C51.1 456.718 50.3165 455.934 49.35 455.934C48.3835 455.934 47.6 456.718 47.6 457.686C47.6 458.654 48.3835 459.438 49.35 459.438Z" fill="white"/>
<path opacity="0.3" fill-rule="evenodd" clip-rule="evenodd" d="M129.85 459.438C130.816 459.438 131.6 458.654 131.6 457.686C131.6 456.718 130.816 455.934 129.85 455.934C128.883 455.934 128.1 456.718 128.1 457.686C128.1 458.654 128.883 459.438 129.85 459.438Z" fill="white"/>
<path opacity="0.3" fill-rule="evenodd" clip-rule="evenodd" d="M210.35 424.395C211.316 424.395 212.1 423.61 212.1 422.643C212.1 421.675 211.316 420.89 210.35 420.89C209.383 420.89 208.6 421.675 208.6 422.643C208.6 423.61 209.383 424.395 210.35 424.395Z" fill="white"/>
<path opacity="0.3" fill-rule="evenodd" clip-rule="evenodd" d="M336.35 497.986C337.316 497.986 338.1 497.202 338.1 496.234C338.1 495.266 337.316 494.482 336.35 494.482C335.383 494.482 334.6 495.266 334.6 496.234C334.6 497.202 335.383 497.986 336.35 497.986Z" fill="white"/>
<path opacity="0.3" fill-rule="evenodd" clip-rule="evenodd" d="M308.35 543.543C309.316 543.543 310.1 542.758 310.1 541.79C310.1 540.823 309.316 540.038 308.35 540.038C307.383 540.038 306.6 540.823 306.6 541.79C306.6 542.758 307.383 543.543 308.35 543.543Z" fill="white"/>
<path opacity="0.3" fill-rule="evenodd" clip-rule="evenodd" d="M413.35 554.056C414.316 554.056 415.1 553.271 415.1 552.304C415.1 551.336 414.316 550.551 413.35 550.551C412.383 550.551 411.6 551.336 411.6 552.304C411.6 553.271 412.383 554.056 413.35 554.056Z" fill="white"/>
<path opacity="0.3" fill-rule="evenodd" clip-rule="evenodd" d="M434.35 417.386C435.316 417.386 436.1 416.602 436.1 415.634C436.1 414.666 435.316 413.882 434.35 413.882C433.383 413.882 432.6 414.666 432.6 415.634C432.6 416.602 433.383 417.386 434.35 417.386Z" fill="white"/>
<path fill-rule="evenodd" clip-rule="evenodd" d="M48.8092 376.13L186.499 485.367C196.993 493.692 210.522 497.169 223.724 494.933L567.423 436.72C575.999 435.267 581.776 427.128 580.325 418.541C578.874 409.954 570.745 404.17 562.169 405.623L218.47 463.836C214.069 464.581 209.559 463.422 206.061 460.647L68.372 351.41C61.5544 346.002 51.6482 347.15 46.2461 353.977C40.844 360.803 41.9915 370.721 48.8092 376.13Z" fill="url(#paint1_linear)"/>
<mask id="mask1" mask-type="alpha" maskUnits="userSpaceOnUse" x="42" y="348" width="539" height="148">
<path fill-rule="evenodd" clip-rule="evenodd" d="M48.8092 376.13L186.499 485.367C196.993 493.692 210.522 497.169 223.724 494.933L567.423 436.72C575.999 435.267 581.776 427.128 580.325 418.541C578.874 409.954 570.745 404.17 562.169 405.623L218.47 463.836C214.069 464.581 209.559 463.422 206.061 460.647L68.372 351.41C61.5544 346.002 51.6482 347.15 46.2461 353.977C40.844 360.803 41.9915 370.721 48.8092 376.13Z" fill="white"/>
</mask>
<g mask="url(#mask1)">
<path d="M213.255 463.749C213.255 463.749 197.505 476.364 206.325 495.603" stroke="#BB3493" stroke-width="0.63" stroke-linecap="round" stroke-linejoin="round"/>
<g style="mix-blend-mode:screen" opacity="0.4">
<path fill-rule="evenodd" clip-rule="evenodd" d="M50.6992 363.199L188.389 472.436C198.883 480.761 212.412 484.238 225.614 482.002L569.313 423.789C577.889 422.336 583.666 414.197 582.215 405.61C580.764 397.023 572.635 391.239 564.059 392.692L220.36 450.905C215.959 451.65 211.449 450.491 207.951 447.716L70.262 338.479C63.4444 333.071 53.5383 334.219 48.1361 341.046C42.734 347.872 43.8815 357.79 50.6992 363.199Z" fill="url(#paint2_linear)"/>
</g>
<g style="mix-blend-mode:screen" opacity="0.4">
<path fill-rule="evenodd" clip-rule="evenodd" d="M513.421 435.758C523.334 434.186 530.821 429.448 530.146 425.176C529.47 420.903 520.886 418.714 510.973 420.286C501.061 421.858 493.573 426.596 494.249 430.868C494.925 435.14 503.508 437.33 513.421 435.758Z" fill="url(#paint3_linear)"/>
</g>
<g style="mix-blend-mode:screen" opacity="0.4">
<path fill-rule="evenodd" clip-rule="evenodd" d="M367.605 459.597C371.084 459.597 373.905 456.773 373.905 453.29C373.905 449.806 371.084 446.982 367.605 446.982C364.126 446.982 361.305 449.806 361.305 453.29C361.305 456.773 364.126 459.597 367.605 459.597Z" fill="url(#paint4_linear)"/>
</g>
<g style="mix-blend-mode:screen" opacity="0.4">
<path fill-rule="evenodd" clip-rule="evenodd" d="M335.045 468.05C343.207 466.313 349.023 461.136 348.036 456.488C347.049 451.839 339.633 449.479 331.471 451.216C323.31 452.953 317.493 458.129 318.48 462.778C319.467 467.426 326.883 469.786 335.045 468.05Z" fill="url(#paint5_linear)"/>
</g>
<g style="mix-blend-mode:screen" opacity="0.4">
<path fill-rule="evenodd" clip-rule="evenodd" d="M185.334 457.694C188.017 454.377 185.697 448.045 180.154 443.551C174.611 439.057 167.943 438.102 165.261 441.418C162.578 444.735 164.897 451.067 170.441 455.561C175.984 460.055 182.652 461.01 185.334 457.694Z" fill="url(#paint6_linear)"/>
</g>
</g>
<path fill-rule="evenodd" clip-rule="evenodd" d="M370.923 483.008C387.195 483.008 400.386 469.801 400.386 453.509C400.386 437.217 387.195 424.009 370.923 424.009C354.651 424.009 341.46 437.217 341.46 453.509C341.46 469.801 354.651 483.008 370.923 483.008ZM370.923 468.816C362.48 468.816 355.635 461.963 355.635 453.509C355.635 445.055 362.48 438.202 370.923 438.202C379.366 438.202 386.211 445.055 386.211 453.509C386.211 461.963 379.366 468.816 370.923 468.816Z" fill="url(#paint7_linear)"/>
<mask id="mask2" mask-type="alpha" maskUnits="userSpaceOnUse" x="341" y="424" width="60" height="60">
<path fill-rule="evenodd" clip-rule="evenodd" d="M370.923 483.008C387.195 483.008 400.386 469.801 400.386 453.509C400.386 437.217 387.195 424.009 370.923 424.009C354.651 424.009 341.46 437.217 341.46 453.509C341.46 469.801 354.651 483.008 370.923 483.008ZM370.923 468.816C362.48 468.816 355.635 461.963 355.635 453.509C355.635 445.055 362.48 438.202 370.923 438.202C379.366 438.202 386.211 445.055 386.211 453.509C386.211 461.963 379.366 468.816 370.923 468.816Z" fill="white"/>
</mask>
<g mask="url(#mask2)">
<g style="mix-blend-mode:screen" opacity="0.4">
<path fill-rule="evenodd" clip-rule="evenodd" d="M363.038 477.626C375.824 477.626 386.19 467.247 386.19 454.445C386.19 441.642 375.824 431.263 363.038 431.263C350.251 431.263 339.885 441.642 339.885 454.445C339.885 467.247 350.251 477.626 363.038 477.626Z" fill="#BC1C79"/>
</g>
<mask id="mask3" mask-type="alpha" maskUnits="userSpaceOnUse" x="339" y="431" width="48" height="47">
<g style="mix-blend-mode:screen">
<path fill-rule="evenodd" clip-rule="evenodd" d="M363.038 477.626C375.824 477.626 386.19 467.247 386.19 454.445C386.19 441.642 375.824 431.263 363.038 431.263C350.251 431.263 339.885 441.642 339.885 454.445C339.885 467.247 350.251 477.626 363.038 477.626Z" fill="white"/>
<path fill-rule="evenodd" clip-rule="evenodd" d="M363.038 477.626C375.824 477.626 386.19 467.247 386.19 454.445C386.19 441.642 375.824 431.263 363.038 431.263C350.251 431.263 339.885 441.642 339.885 454.445C339.885 467.247 350.251 477.626 363.038 477.626Z" stroke="white"/>
</g>
</mask>
<g mask="url(#mask3)">
<g style="mix-blend-mode:screen" opacity="0.4">
<path fill-rule="evenodd" clip-rule="evenodd" d="M348.6 474.157L400.4 464.695L399.7 452.43L341.6 462.592L348.6 474.157Z" fill="url(#paint8_linear)"/>
</g>
<g style="mix-blend-mode:screen" opacity="0.4">
<path fill-rule="evenodd" clip-rule="evenodd" d="M337.995 463.118L386.19 454.918L382.725 435.679L336.735 443.879L337.995 463.118Z" fill="url(#paint9_linear)"/>
</g>
<g style="mix-blend-mode:screen" opacity="0.4">
<path fill-rule="evenodd" clip-rule="evenodd" d="M335.168 467.945C343.329 466.208 349.146 461.032 348.159 456.383C347.172 451.735 339.756 449.374 331.594 451.111C323.432 452.848 317.616 458.025 318.603 462.673C319.59 467.322 327.006 469.682 335.168 467.945Z" fill="url(#paint10_linear)"/>
</g>
</g>
</g>
<g opacity="0.7">
<path fill-rule="evenodd" clip-rule="evenodd" d="M278.943 499.093C295.215 499.093 308.406 485.886 308.406 469.594C308.406 453.302 295.215 440.094 278.943 440.094C262.671 440.094 249.48 453.302 249.48 469.594C249.48 485.886 262.671 499.093 278.943 499.093ZM278.943 484.901C270.5 484.901 263.655 478.048 263.655 469.594C263.655 461.14 270.5 454.287 278.943 454.287C287.386 454.287 294.231 461.14 294.231 469.594C294.231 478.048 287.386 484.901 278.943 484.901Z" fill="url(#paint11_linear)"/>
<mask id="mask4" mask-type="alpha" maskUnits="userSpaceOnUse" x="249" y="440" width="60" height="60">
<path fill-rule="evenodd" clip-rule="evenodd" d="M278.943 499.093C295.215 499.093 308.406 485.886 308.406 469.594C308.406 453.302 295.215 440.094 278.943 440.094C262.671 440.094 249.48 453.302 249.48 469.594C249.48 485.886 262.671 499.093 278.943 499.093ZM278.943 484.901C270.5 484.901 263.655 478.048 263.655 469.594C263.655 461.14 270.5 454.287 278.943 454.287C287.386 454.287 294.231 461.14 294.231 469.594C294.231 478.048 287.386 484.901 278.943 484.901Z" fill="white"/>
</mask>
<g mask="url(#mask4)">
<g style="mix-blend-mode:screen" opacity="0.4">
<path fill-rule="evenodd" clip-rule="evenodd" d="M271.058 493.711C283.844 493.711 294.21 483.332 294.21 470.53C294.21 457.727 283.844 447.348 271.058 447.348C258.271 447.348 247.905 457.727 247.905 470.53C247.905 483.332 258.271 493.711 271.058 493.711Z" fill="#BC1C79"/>
</g>
<mask id="mask5" mask-type="alpha" maskUnits="userSpaceOnUse" x="247" y="447" width="48" height="47">
<g style="mix-blend-mode:screen">
<path fill-rule="evenodd" clip-rule="evenodd" d="M271.058 493.711C283.844 493.711 294.21 483.332 294.21 470.53C294.21 457.727 283.844 447.348 271.058 447.348C258.271 447.348 247.905 457.727 247.905 470.53C247.905 483.332 258.271 493.711 271.058 493.711Z" fill="white"/>
<path fill-rule="evenodd" clip-rule="evenodd" d="M271.058 493.711C283.844 493.711 294.21 483.332 294.21 470.53C294.21 457.727 283.844 447.348 271.058 447.348C258.271 447.348 247.905 457.727 247.905 470.53C247.905 483.332 258.271 493.711 271.058 493.711Z" stroke="white"/>
</g>
</mask>
<g mask="url(#mask5)">
<g style="mix-blend-mode:screen" opacity="0.4">
<path fill-rule="evenodd" clip-rule="evenodd" d="M254.1 489.926L298.55 482.217L294.7 469.601L248.15 478.362L254.1 489.926Z" fill="url(#paint12_linear)"/>
</g>
<g style="mix-blend-mode:screen" opacity="0.4">
<path fill-rule="evenodd" clip-rule="evenodd" d="M250.425 477.941L265.545 475.103L294.84 470.372L292.95 451.764L246.33 459.018L250.425 477.941Z" fill="url(#paint13_linear)"/>
</g>
</g>
</g>
</g>
<path fill-rule="evenodd" clip-rule="evenodd" d="M460.698 467.87C476.97 467.87 490.161 454.662 490.161 438.37C490.161 422.078 476.97 408.871 460.698 408.871C444.426 408.871 431.235 422.078 431.235 438.37C431.235 454.662 444.426 467.87 460.698 467.87ZM460.698 453.677C452.255 453.677 445.41 446.824 445.41 438.37C445.41 429.916 452.255 423.063 460.698 423.063C469.141 423.063 475.986 429.916 475.986 438.37C475.986 446.824 469.141 453.677 460.698 453.677Z" fill="url(#paint14_linear)"/>
<mask id="mask6" mask-type="alpha" maskUnits="userSpaceOnUse" x="431" y="408" width="60" height="60">
<path fill-rule="evenodd" clip-rule="evenodd" d="M460.698 467.87C476.97 467.87 490.161 454.662 490.161 438.37C490.161 422.078 476.97 408.871 460.698 408.871C444.426 408.871 431.235 422.078 431.235 438.37C431.235 454.662 444.426 467.87 460.698 467.87ZM460.698 453.677C452.255 453.677 445.41 446.824 445.41 438.37C445.41 429.916 452.255 423.063 460.698 423.063C469.141 423.063 475.986 429.916 475.986 438.37C475.986 446.824 469.141 453.677 460.698 453.677Z" fill="white"/>
</mask>
<g mask="url(#mask6)">
<g style="mix-blend-mode:screen" opacity="0.4">
<path fill-rule="evenodd" clip-rule="evenodd" d="M452.812 462.487C465.599 462.487 475.965 452.108 475.965 439.306C475.965 426.503 465.599 416.125 452.812 416.125C440.026 416.125 429.66 426.503 429.66 439.306C429.66 452.108 440.026 462.487 452.812 462.487Z" fill="#BC1C79"/>
</g>
<mask id="mask7" mask-type="alpha" maskUnits="userSpaceOnUse" x="429" y="416" width="47" height="47">
<g style="mix-blend-mode:screen">
<path fill-rule="evenodd" clip-rule="evenodd" d="M452.812 462.487C465.599 462.487 475.965 452.108 475.965 439.306C475.965 426.503 465.599 416.125 452.812 416.125C440.026 416.125 429.66 426.503 429.66 439.306C429.66 452.108 440.026 462.487 452.812 462.487Z" fill="white"/>
<path fill-rule="evenodd" clip-rule="evenodd" d="M452.812 462.487C465.599 462.487 475.965 452.108 475.965 439.306C475.965 426.503 465.599 416.125 452.812 416.125C440.026 416.125 429.66 426.503 429.66 439.306C429.66 452.108 440.026 462.487 452.812 462.487Z" stroke="white"/>
</g>
</mask>
<g mask="url(#mask7)">
<g style="mix-blend-mode:screen" opacity="0.4">
<path fill-rule="evenodd" clip-rule="evenodd" d="M436.8 458.737L493.5 449.276L493.15 437.01L430.5 447.523L436.8 458.737Z" fill="url(#paint15_linear)"/>
</g>
<g style="mix-blend-mode:screen" opacity="0.4">
<path fill-rule="evenodd" clip-rule="evenodd" d="M428.085 447.979L493.605 436.625L490.14 418.017L425.565 428.74L428.085 447.979Z" fill="url(#paint16_linear)"/>
</g>
</g>
</g>
<path fill-rule="evenodd" clip-rule="evenodd" d="M548.198 452.801C564.47 452.801 577.661 439.594 577.661 423.301C577.661 407.009 564.47 393.802 548.198 393.802C531.926 393.802 518.735 407.009 518.735 423.301C518.735 439.594 531.926 452.801 548.198 452.801ZM548.198 438.608C539.755 438.608 532.91 431.755 532.91 423.301C532.91 414.848 539.755 407.994 548.198 407.994C556.641 407.994 563.486 414.848 563.486 423.301C563.486 431.755 556.641 438.608 548.198 438.608Z" fill="url(#paint17_linear)"/>
<mask id="mask8" mask-type="alpha" maskUnits="userSpaceOnUse" x="518" y="393" width="60" height="60">
<path fill-rule="evenodd" clip-rule="evenodd" d="M548.198 452.801C564.47 452.801 577.661 439.594 577.661 423.301C577.661 407.009 564.47 393.802 548.198 393.802C531.926 393.802 518.735 407.009 518.735 423.301C518.735 439.594 531.926 452.801 548.198 452.801ZM548.198 438.608C539.755 438.608 532.91 431.755 532.91 423.301C532.91 414.848 539.755 407.994 548.198 407.994C556.641 407.994 563.486 414.848 563.486 423.301C563.486 431.755 556.641 438.608 548.198 438.608Z" fill="white"/>
</mask>
<g mask="url(#mask8)">
<g style="mix-blend-mode:screen" opacity="0.4">
<path fill-rule="evenodd" clip-rule="evenodd" d="M540.313 447.418C553.099 447.418 563.465 437.04 563.465 424.237C563.465 411.434 553.099 401.056 540.313 401.056C527.526 401.056 517.16 411.434 517.16 424.237C517.16 437.04 527.526 447.418 540.313 447.418Z" fill="url(#paint18_linear)"/>
</g>
<mask id="mask9" mask-type="alpha" maskUnits="userSpaceOnUse" x="517" y="401" width="47" height="47">
<g style="mix-blend-mode:screen">
<path fill-rule="evenodd" clip-rule="evenodd" d="M540.313 447.418C553.099 447.418 563.465 437.04 563.465 424.237C563.465 411.434 553.099 401.056 540.313 401.056C527.526 401.056 517.16 411.434 517.16 424.237C517.16 437.04 527.526 447.418 540.313 447.418Z" fill="white"/>
<path fill-rule="evenodd" clip-rule="evenodd" d="M540.313 447.418C553.099 447.418 563.465 437.04 563.465 424.237C563.465 411.434 553.099 401.056 540.313 401.056C527.526 401.056 517.16 411.434 517.16 424.237C517.16 437.04 527.526 447.418 540.313 447.418Z" stroke="white"/>
</g>
</mask>
<g mask="url(#mask9)">
<g style="mix-blend-mode:screen" opacity="0.4">
<path fill-rule="evenodd" clip-rule="evenodd" d="M515.585 432.91L581.105 421.556L577.64 402.948L513.065 413.671L515.585 432.91Z" fill="url(#paint19_linear)"/>
</g>
<g style="mix-blend-mode:screen" opacity="0.4">
<path fill-rule="evenodd" clip-rule="evenodd" d="M513.421 435.758C523.334 434.186 530.821 429.448 530.146 425.176C529.47 420.903 520.886 418.714 510.973 420.286C501.061 421.858 493.573 426.596 494.249 430.868C494.925 435.14 503.508 437.33 513.421 435.758Z" fill="url(#paint20_linear)"/>
</g>
</g>
</g>
<g opacity="0.5">
<path fill-rule="evenodd" clip-rule="evenodd" d="M149.049 479.292C137.404 472.527 136.633 454.412 147.327 438.832C158.021 423.252 176.131 416.107 187.775 422.873C199.42 429.638 200.191 447.753 189.497 463.333C178.802 478.913 160.693 486.058 149.049 479.292ZM158.364 465.72C164.407 469.231 173.803 465.523 179.352 457.439C184.902 449.355 184.502 439.955 178.459 436.445C172.417 432.934 163.02 436.642 157.471 444.726C151.922 452.81 152.322 462.21 158.364 465.72Z" fill="url(#paint21_linear)"/>
<mask id="mask10" mask-type="alpha" maskUnits="userSpaceOnUse" x="139" y="420" width="59" height="62">
<path fill-rule="evenodd" clip-rule="evenodd" d="M149.049 479.292C137.404 472.527 136.633 454.412 147.327 438.832C158.021 423.252 176.131 416.107 187.775 422.873C199.42 429.638 200.191 447.753 189.497 463.333C178.802 478.913 160.693 486.058 149.049 479.292ZM158.364 465.72C164.407 469.231 173.803 465.523 179.352 457.439C184.902 449.355 184.502 439.955 178.459 436.445C172.417 432.934 163.02 436.642 157.471 444.726C151.922 452.81 152.322 462.21 158.364 465.72Z" fill="white"/>
</mask>
<g mask="url(#mask10)">
<g style="mix-blend-mode:screen" opacity="0.4">
<path fill-rule="evenodd" clip-rule="evenodd" d="M159.472 478.114C150.322 472.798 149.717 458.563 158.122 446.32C166.526 434.076 180.757 428.461 189.907 433.778C199.056 439.094 199.661 453.329 191.256 465.572C182.852 477.815 168.622 483.431 159.472 478.114Z" fill="url(#paint22_linear)"/>
</g>
<mask id="mask11" mask-type="alpha" maskUnits="userSpaceOnUse" x="152" y="431" width="46" height="50">
<g style="mix-blend-mode:screen">
<path fill-rule="evenodd" clip-rule="evenodd" d="M159.472 478.114C150.322 472.798 149.717 458.563 158.122 446.32C166.526 434.076 180.757 428.461 189.907 433.778C199.056 439.094 199.661 453.329 191.256 465.572C182.852 477.815 168.622 483.431 159.472 478.114Z" fill="white"/>
<path fill-rule="evenodd" clip-rule="evenodd" d="M159.472 478.114C150.322 472.798 149.717 458.563 158.122 446.32C166.526 434.076 180.757 428.461 189.907 433.778C199.056 439.094 199.661 453.329 191.256 465.572C182.852 477.815 168.622 483.431 159.472 478.114Z" stroke="white"/>
</g>
</mask>
<g mask="url(#mask11)">
<g style="mix-blend-mode:screen" opacity="0.3">
<path fill-rule="evenodd" clip-rule="evenodd" d="M176.571 478.39L143.236 453.385L157.795 446.726L184.066 469.141L179.096 479.103L176.571 478.39Z" fill="url(#paint23_linear)"/>
</g>
<g style="mix-blend-mode:screen" opacity="0.4">
<path fill-rule="evenodd" clip-rule="evenodd" d="M169.345 445.579C172.12 441.83 178.197 441.213 182.917 444.2C187.637 447.187 189.214 452.648 186.439 456.397C183.663 460.146 177.587 460.763 172.867 457.776C168.146 454.789 166.57 449.328 169.345 445.579Z" fill="url(#paint24_linear)"/>
</g>
<g style="mix-blend-mode:screen" opacity="0.3">
<path fill-rule="evenodd" clip-rule="evenodd" d="M183.474 468.795L156.5 447.332L171.1 432.185L195.995 452.328L183.474 468.795Z" fill="url(#paint25_linear)"/>
</g>
</g>
</g>
</g>
<g opacity="0.3">
<path fill-rule="evenodd" clip-rule="evenodd" d="M78.4844 422.207C66.8397 415.441 66.0691 397.326 76.7632 381.746C87.4573 366.166 105.566 359.021 117.211 365.787C128.856 372.553 129.627 390.667 118.932 406.247C108.238 421.827 90.1292 428.972 78.4844 422.207ZM87.8004 408.634C93.8427 412.145 103.239 408.438 108.788 400.353C114.337 392.269 113.938 382.87 107.895 379.359C101.853 375.848 92.4563 379.556 86.9073 387.64C81.3582 395.724 81.7581 405.124 87.8004 408.634Z" fill="url(#paint26_linear)"/>
<mask id="mask12" mask-type="alpha" maskUnits="userSpaceOnUse" x="69" y="363" width="58" height="62">
<path fill-rule="evenodd" clip-rule="evenodd" d="M78.4844 422.207C66.8397 415.441 66.0691 397.326 76.7632 381.746C87.4573 366.166 105.566 359.021 117.211 365.787C128.856 372.553 129.627 390.667 118.932 406.247C108.238 421.827 90.1292 428.972 78.4844 422.207ZM87.8004 408.634C93.8427 412.145 103.239 408.438 108.788 400.353C114.337 392.269 113.938 382.87 107.895 379.359C101.853 375.848 92.4563 379.556 86.9073 387.64C81.3582 395.724 81.7581 405.124 87.8004 408.634Z" fill="white"/>
</mask>
<g mask="url(#mask12)">
<g style="mix-blend-mode:screen" opacity="0.4">
<path fill-rule="evenodd" clip-rule="evenodd" d="M88.9075 421.028C79.7576 415.712 79.1533 401.477 87.5577 389.234C95.962 376.991 110.193 371.375 119.342 376.692C128.492 382.008 129.097 396.243 120.692 408.486C112.288 420.73 98.0574 426.345 88.9075 421.028Z" fill="url(#paint27_linear)"/>
</g>
<mask id="mask13" mask-type="alpha" maskUnits="userSpaceOnUse" x="81" y="374" width="46" height="50">
<g style="mix-blend-mode:screen">
<path fill-rule="evenodd" clip-rule="evenodd" d="M88.9075 421.028C79.7576 415.712 79.1533 401.477 87.5577 389.234C95.962 376.991 110.193 371.375 119.342 376.692C128.492 382.008 129.097 396.243 120.692 408.486C112.288 420.73 98.0574 426.345 88.9075 421.028Z" fill="white"/>
<path fill-rule="evenodd" clip-rule="evenodd" d="M88.9075 421.028C79.7576 415.712 79.1533 401.477 87.5577 389.234C95.962 376.991 110.193 371.375 119.342 376.692C128.492 382.008 129.097 396.243 120.692 408.486C112.288 420.73 98.0574 426.345 88.9075 421.028Z" stroke="white"/>
</g>
</mask>
<g mask="url(#mask13)">
<g style="mix-blend-mode:screen" opacity="0.3">
<path fill-rule="evenodd" clip-rule="evenodd" d="M115.448 413.7L104.356 419.837L86.1477 406.781L95.601 399.374L115.448 413.7Z" fill="url(#paint28_linear)"/>
</g>
<g style="mix-blend-mode:screen" opacity="0.3">
<path fill-rule="evenodd" clip-rule="evenodd" d="M118.664 417.346L107.059 407.93L120.473 393.146L132.396 402.249L118.664 417.346Z" fill="url(#paint29_linear)"/>
</g>
</g>
</g>
</g>
<path fill-rule="evenodd" clip-rule="evenodd" d="M282.404 660.379C283.371 660.379 284.154 659.594 284.154 658.626C284.154 657.659 283.371 656.874 282.404 656.874C281.438 656.874 280.654 657.659 280.654 658.626C280.654 659.594 281.438 660.379 282.404 660.379Z" fill="white"/>
<path fill-rule="evenodd" clip-rule="evenodd" d="M15.4008 659.225L571.154 592.988C578.822 592.074 585.712 583.548 586.544 573.944C587.376 564.34 581.834 557.295 574.167 558.209L18.4135 624.445C10.7457 625.359 3.85532 633.885 3.02337 643.489C2.19143 653.094 7.73298 660.138 15.4008 659.225Z" fill="url(#paint30_linear)"/>
<mask id="mask14" mask-type="alpha" maskUnits="userSpaceOnUse" x="2" y="558" width="585" height="102">
<path fill-rule="evenodd" clip-rule="evenodd" d="M15.4008 659.225L571.154 592.988C578.822 592.074 585.712 583.548 586.544 573.944C587.376 564.34 581.834 557.295 574.167 558.209L18.4135 624.445C10.7457 625.359 3.85532 633.885 3.02337 643.489C2.19143 653.094 7.73298 660.138 15.4008 659.225Z" fill="white"/>
</mask>
<g mask="url(#mask14)">
<g style="mix-blend-mode:screen" opacity="0.4">
<path fill-rule="evenodd" clip-rule="evenodd" d="M139.875 625.653C143.06 625.697 146.19 622.635 146.866 618.814C147.542 614.992 145.507 611.859 142.322 611.815C139.137 611.772 136.007 614.834 135.332 618.655C134.656 622.476 136.69 625.61 139.875 625.653Z" fill="url(#paint31_linear)"/>
</g>
<g style="mix-blend-mode:screen" opacity="0.4">
<path fill-rule="evenodd" clip-rule="evenodd" d="M186.891 619.03C203.967 617.246 218.264 610.17 218.826 603.226C219.387 596.282 206 592.099 188.925 593.883C171.849 595.668 157.552 602.743 156.99 609.687C156.429 616.632 169.816 620.815 186.891 619.03Z" fill="url(#paint32_linear)"/>
</g>
<g style="mix-blend-mode:screen" opacity="0.4">
<path fill-rule="evenodd" clip-rule="evenodd" d="M327.394 626.305C345.724 624.682 361.14 617.791 361.826 610.914C362.513 604.037 348.21 599.777 329.881 601.4C311.551 603.023 296.135 609.914 295.449 616.791C294.762 623.669 309.065 627.928 327.394 626.305Z" fill="url(#paint33_linear)"/>
</g>
<g style="mix-blend-mode:screen" opacity="0.4">
<path fill-rule="evenodd" clip-rule="evenodd" d="M12.9887 645.062L568.742 578.825C576.41 577.911 583.3 569.385 584.132 559.781C584.964 550.176 579.422 543.132 571.755 544.045L16.0014 610.282C8.33362 611.196 1.44321 619.722 0.611263 629.326C-0.220685 638.931 5.32087 645.975 12.9887 645.062Z" fill="url(#paint34_linear)"/>
</g>
</g>
<rect width="7.35908" height="39.3635" rx="3.67954" transform="matrix(0.999352 0.0182174 -0.148325 0.984975 119.949 599.143)" fill="url(#paint35_linear)"/>
<rect width="7.35908" height="39.3635" rx="3.67954" transform="matrix(0.999352 0.0182174 -0.148325 0.984975 194.438 594.238)" fill="url(#paint36_linear)"/>
<rect width="7.35907" height="39.3635" rx="3.67954" transform="matrix(0.999352 0.0182175 -0.148325 0.984975 268.927 589.334)" fill="#4832A6"/>
<rect width="7.35909" height="39.3635" rx="3.67955" transform="matrix(0.999352 0.0182174 -0.148325 0.984975 343.415 584.43)" fill="#4832A6"/>
<path fill-rule="evenodd" clip-rule="evenodd" d="M386.142 558.077C397.012 558.077 405.825 549.254 405.825 538.369C405.825 527.485 397.012 518.662 386.142 518.662C375.271 518.662 366.458 527.485 366.458 538.369C366.458 549.254 375.271 558.077 386.142 558.077Z" fill="url(#paint37_linear)"/>
<mask id="mask15" mask-type="alpha" maskUnits="userSpaceOnUse" x="366" y="518" width="40" height="41">
<path fill-rule="evenodd" clip-rule="evenodd" d="M386.142 558.077C397.012 558.077 405.825 549.254 405.825 538.369C405.825 527.485 397.012 518.662 386.142 518.662C375.271 518.662 366.458 527.485 366.458 538.369C366.458 549.254 375.271 558.077 386.142 558.077Z" fill="white"/>
</mask>
<g mask="url(#mask15)">
<path opacity="0.705473" fill-rule="evenodd" clip-rule="evenodd" d="M389.948 560.434C395.882 559.599 400.279 555.979 399.769 552.348C399.26 548.718 394.036 546.452 388.102 547.287C382.168 548.122 377.771 551.742 378.281 555.372C378.79 559.003 384.014 561.269 389.948 560.434Z" fill="url(#paint38_linear)"/>
<path d="M367.394 549.544C377.948 537.849 391.231 534.703 407.905 540.064C409.745 540.656 411.716 539.642 412.307 537.799C412.898 535.957 411.885 533.983 410.044 533.391C390.825 527.211 374.656 531.042 362.2 544.844C360.904 546.28 361.016 548.496 362.451 549.794C363.885 551.092 366.098 550.98 367.394 549.544Z" fill="#583FB3"/>
<path fill-rule="evenodd" clip-rule="evenodd" d="M371.437 544.419C373.322 544.419 374.85 542.889 374.85 541.002C374.85 539.115 373.322 537.585 371.437 537.585C369.553 537.585 368.025 539.115 368.025 541.002C368.025 542.889 369.553 544.419 371.437 544.419Z" fill="#FFBD60"/>
<path fill-rule="evenodd" clip-rule="evenodd" d="M385.818 538.099C387.703 538.099 389.23 536.569 389.23 534.682C389.23 532.795 387.703 531.265 385.818 531.265C383.933 531.265 382.405 532.795 382.405 534.682C382.405 536.569 383.933 538.099 385.818 538.099Z" fill="#FFBD60"/>
<path fill-rule="evenodd" clip-rule="evenodd" d="M400.846 538.099C402.731 538.099 404.258 536.569 404.258 534.682C404.258 532.795 402.731 531.265 400.846 531.265C398.961 531.265 397.433 532.795 397.433 534.682C397.433 536.569 398.961 538.099 400.846 538.099Z" fill="#FFBD60"/>
</g>
<path d="M389.249 557.004C391.742 556.564 393.6 555.28 393.399 554.136C393.197 552.992 391.012 552.421 388.519 552.861C386.026 553.301 384.168 554.586 384.37 555.73C384.571 556.874 386.756 557.445 389.249 557.004Z" fill="#583FB3"/>
<path d="M388.518 561.55L388.168 555.943L390.268 555.592L392.018 561.199L388.518 561.55Z" fill="#583FB3"/>
<path fill-rule="evenodd" clip-rule="evenodd" d="M435.325 750.274L401.413 565.947C400.745 562.315 397.37 559.827 393.703 560.262L386.169 561.157C382.472 561.596 379.766 564.852 380.009 568.566L391.925 750.274H435.325Z" fill="url(#paint39_linear)"/>
<mask id="mask16" mask-type="alpha" maskUnits="userSpaceOnUse" x="379" y="560" width="57" height="191">
<path fill-rule="evenodd" clip-rule="evenodd" d="M435.325 750.274L401.413 565.947C400.745 562.315 397.37 559.827 393.703 560.262L386.169 561.157C382.472 561.596 379.766 564.852 380.009 568.566L391.925 750.274H435.325Z" fill="white"/>
</mask>
<g mask="url(#mask16)">
<path fill-rule="evenodd" clip-rule="evenodd" d="M394.506 572.217C394.264 570.494 395.464 568.902 397.186 568.659V568.659C398.91 568.417 400.503 569.618 400.745 571.341L403.328 589.741C403.569 591.463 402.369 593.056 400.647 593.298V593.298C398.924 593.54 397.33 592.34 397.089 590.616L394.506 572.217Z" fill="url(#paint40_linear)"/>
<path fill-rule="evenodd" clip-rule="evenodd" d="M389.372 580.979C390.866 580.979 392.077 579.766 392.077 578.27C392.077 576.774 390.866 575.561 389.372 575.561C387.878 575.561 386.667 576.774 386.667 578.27C386.667 579.766 387.878 580.979 389.372 580.979Z" fill="#F6F8FB"/>
<path fill-rule="evenodd" clip-rule="evenodd" d="M390.597 588.737C391.643 588.737 392.491 587.888 392.491 586.841C392.491 585.794 391.643 584.945 390.597 584.945C389.551 584.945 388.703 585.794 388.703 586.841C388.703 587.888 389.551 588.737 390.597 588.737Z" fill="#FF6CBB"/>
<path fill-rule="evenodd" clip-rule="evenodd" d="M402.012 620.743C401.77 619.02 402.97 617.428 404.692 617.185V617.185C406.416 616.943 408.009 618.144 408.251 619.867L410.834 638.267C411.075 639.989 409.875 641.581 408.153 641.824V641.824C406.43 642.066 404.837 640.866 404.595 639.142L402.012 620.743Z" fill="url(#paint41_linear)"/>
<path fill-rule="evenodd" clip-rule="evenodd" d="M396.878 629.505C398.372 629.505 399.583 628.292 399.583 626.796C399.583 625.3 398.372 624.087 396.878 624.087C395.384 624.087 394.173 625.3 394.173 626.796C394.173 628.292 395.384 629.505 396.878 629.505Z" fill="#F6F8FB"/>
<path fill-rule="evenodd" clip-rule="evenodd" d="M398.103 637.263C399.149 637.263 399.997 636.414 399.997 635.367C399.997 634.32 399.149 633.471 398.103 633.471C397.057 633.471 396.209 634.32 396.209 635.367C396.209 636.414 397.057 637.263 398.103 637.263Z" fill="#FF6CBB"/>
<path fill-rule="evenodd" clip-rule="evenodd" d="M409.518 669.268C409.276 667.546 410.476 665.954 412.199 665.711V665.711C413.922 665.469 415.515 666.669 415.757 668.393L418.34 686.792C418.581 688.515 417.382 690.107 415.659 690.35V690.35C413.936 690.592 412.343 689.391 412.101 687.668L409.518 669.268Z" fill="url(#paint42_linear)"/>
<path fill-rule="evenodd" clip-rule="evenodd" d="M404.384 678.03C405.878 678.03 407.089 676.818 407.089 675.322C407.089 673.826 405.878 672.613 404.384 672.613C402.89 672.613 401.679 673.826 401.679 675.322C401.679 676.818 402.89 678.03 404.384 678.03Z" fill="#F6F8FB"/>
<path fill-rule="evenodd" clip-rule="evenodd" d="M405.609 685.789C406.655 685.789 407.503 684.94 407.503 683.893C407.503 682.846 406.655 681.997 405.609 681.997C404.563 681.997 403.715 682.846 403.715 683.893C403.715 684.94 404.563 685.789 405.609 685.789Z" fill="#FFBD60"/>
<path opacity="0.548875" fill-rule="evenodd" clip-rule="evenodd" d="M377.425 673.028C377.425 673.028 370.775 636.233 387.575 636.233C404.375 636.233 398.775 712.978 429.225 695.807C459.675 678.635 447.775 727.696 446.725 728.047C445.675 728.397 430.975 743.115 429.225 743.115C427.475 743.115 375.675 745.218 372.175 743.115C368.675 741.013 377.425 673.028 377.425 673.028Z" fill="url(#paint43_linear)"/>
<path opacity="0.548875" fill-rule="evenodd" clip-rule="evenodd" d="M420 651.827C420 651.827 412.65 709.999 385.7 713.153C358.75 716.307 439.25 727.17 439.95 727.17C440.65 727.17 445.55 684.417 444.85 680.212C444.15 676.007 420 651.827 420 651.827Z" fill="url(#paint44_linear)"/>
</g>
<path fill-rule="evenodd" clip-rule="evenodd" d="M341.425 746.918L337.544 638.078C337.464 635.818 335.608 634.028 333.347 634.028H293.229C290.937 634.028 289.069 635.865 289.03 638.156L287.175 746.918H341.425Z" fill="url(#paint45_linear)"/>
<mask id="mask17" mask-type="alpha" maskUnits="userSpaceOnUse" x="287" y="634" width="55" height="113">
<path fill-rule="evenodd" clip-rule="evenodd" d="M341.425 746.918L337.544 638.078C337.464 635.818 335.608 634.028 333.347 634.028H293.229C290.937 634.028 289.069 635.865 289.03 638.156L287.175 746.918H341.425Z" fill="white"/>
</mask>
<g mask="url(#mask17)">
<path fill-rule="evenodd" clip-rule="evenodd" d="M286.475 645.943H345.1V661.362H286.475V645.943Z" stroke="#FFBD60" stroke-width="0.7" stroke-linejoin="round"/>
<rect x="286.65" y="649.588" width="60.3641" height="8.12769" fill="#F6F8FB"/>
<path fill-rule="evenodd" clip-rule="evenodd" d="M283.5 676.08H342.125V691.499H283.5V676.08Z" stroke="#FFBD60" stroke-width="0.7" stroke-linejoin="round"/>
<rect x="283.675" y="679.726" width="60.3641" height="8.12769" fill="#F6F8FB"/>
</g>
<path fill-rule="evenodd" clip-rule="evenodd" d="M297.012 617.871C298.106 617.871 298.993 616.983 298.993 615.887C298.993 614.792 298.106 613.904 297.012 613.904C295.918 613.904 295.031 614.792 295.031 615.887C295.031 616.983 295.918 617.871 297.012 617.871Z" stroke="#FFBD60" stroke-width="1.05"/>
<path d="M296.778 634.013L297.059 617.895" stroke="#FFBD60" stroke-width="1.05"/>
<path d="M294.931 632.639C294.931 631.673 295.715 630.889 296.681 630.889H297.381C298.348 630.889 299.131 631.673 299.131 632.639V634.096H294.931V632.639Z" fill="url(#paint46_linear)"/>
<path d="M305.234 633.988L305.515 600.349" stroke="#583FB3" stroke-width="1.05"/>
<path fill-rule="evenodd" clip-rule="evenodd" d="M303.275 627.666C303.275 627.086 303.745 626.616 304.325 626.616H306.425C307.005 626.616 307.475 627.086 307.475 627.666V634.028H303.275V627.666Z" fill="url(#paint47_linear)"/>
<path fill-rule="evenodd" clip-rule="evenodd" d="M303.8 609.526C303.8 608.946 304.27 608.476 304.85 608.476H305.9C306.48 608.476 306.95 608.946 306.95 609.526V611.333C306.95 611.913 306.48 612.383 305.9 612.383H304.85C304.27 612.383 303.8 611.913 303.8 611.333V609.526Z" fill="url(#paint48_linear)"/>
<path fill-rule="evenodd" clip-rule="evenodd" d="M305.515 600.911C306.869 600.911 307.965 599.812 307.965 598.458C307.965 597.103 306.869 596.005 305.515 596.005C304.162 596.005 303.065 597.103 303.065 598.458C303.065 599.812 304.162 600.911 305.515 600.911Z" fill="#FFBD60"/>
<path d="M329.886 603.594L331.205 619.012" stroke="#563EB2" stroke-width="2.1"/>
<path fill-rule="evenodd" clip-rule="evenodd" d="M330.022 606.654C332.158 606.636 333.821 604.835 333.736 602.629C333.652 600.424 331.852 598.65 329.717 598.667C327.581 598.684 325.918 600.486 326.002 602.692C326.087 604.897 327.886 606.671 330.022 606.654Z" fill="#FF6CBB"/>
<path fill-rule="evenodd" clip-rule="evenodd" d="M322.258 623.498C324.637 619.855 328.554 617.503 332.888 617.117L356.887 614.975C359.831 614.713 362.793 615.2 365.498 616.391L373.785 620.042C376.969 621.445 379.251 624.333 379.879 627.755L401.8 747.189H316.4L319.953 630.83C320.033 628.221 320.83 625.684 322.258 623.498V623.498Z" fill="url(#paint49_linear)"/>
<path opacity="0.415341" fill-rule="evenodd" clip-rule="evenodd" d="M328.475 654.072C328.475 651.165 330.769 648.776 333.674 648.658L357.961 647.671C361.035 647.546 363.601 649.995 363.619 653.072V653.072C363.636 656.004 361.325 658.422 358.394 658.537L334.106 659.487C331.032 659.607 328.475 657.148 328.475 654.072V654.072Z" fill="#253554"/>
<path opacity="0.415341" fill-rule="evenodd" clip-rule="evenodd" d="M327.075 634.098C327.075 631.19 329.369 628.801 332.274 628.683L356.561 627.696C359.635 627.571 362.201 630.02 362.219 633.097V633.097C362.236 636.029 359.925 638.447 356.994 638.562L332.706 639.512C329.632 639.633 327.075 637.173 327.075 634.098V634.098Z" fill="#253554"/>
<path opacity="0.415341" fill-rule="evenodd" clip-rule="evenodd" d="M359.861 666.545C362.751 666.545 365.131 668.816 365.266 671.703L366.185 691.324C366.33 694.407 363.877 696.991 360.79 697.006V697.006C357.877 697.021 355.471 694.733 355.34 691.822L354.455 672.2C354.316 669.119 356.777 666.545 359.861 666.545V666.545Z" fill="#253554"/>
<path opacity="0.415341" fill-rule="evenodd" clip-rule="evenodd" d="M335.011 667.596C337.901 667.596 340.281 669.868 340.416 672.755L341.335 692.375C341.479 695.459 339.027 698.042 335.94 698.058V698.058C333.027 698.073 330.621 695.785 330.49 692.874L329.605 673.252C329.466 670.17 331.926 667.596 335.011 667.596V667.596Z" fill="#253554"/>
<mask id="mask18" mask-type="alpha" maskUnits="userSpaceOnUse" x="329" y="667" width="13" height="32">
<path fill-rule="evenodd" clip-rule="evenodd" d="M335.011 667.596C337.901 667.596 340.281 669.868 340.416 672.755L341.335 692.375C341.479 695.459 339.027 698.042 335.94 698.058V698.058C333.027 698.073 330.621 695.785 330.49 692.874L329.605 673.252C329.466 670.17 331.926 667.596 335.011 667.596V667.596Z" fill="white"/>
</mask>
<g mask="url(#mask18)">
</g>
<path fill-rule="evenodd" clip-rule="evenodd" d="M326.238 632.563C326.415 629.808 328.644 627.632 331.403 627.52L356.663 626.498C359.276 626.392 361.577 628.203 362.089 630.767V630.767C362.726 633.956 360.375 636.964 357.126 637.116L331.873 638.298C328.66 638.448 326.031 635.772 326.238 632.563V632.563Z" fill="#FFBD60"/>
<mask id="mask19" mask-type="alpha" maskUnits="userSpaceOnUse" x="326" y="626" width="37" height="13">
<path fill-rule="evenodd" clip-rule="evenodd" d="M326.238 632.563C326.415 629.808 328.644 627.632 331.403 627.52L356.663 626.498C359.276 626.392 361.577 628.203 362.089 630.767V630.767C362.726 633.956 360.375 636.964 357.126 637.116L331.873 638.298C328.66 638.448 326.031 635.772 326.238 632.563V632.563Z" fill="white"/>
</mask>
<g mask="url(#mask19)">
<path d="M336.444 626.117L337.603 639.383" stroke="#FF9666" stroke-width="1.75" stroke-linecap="round" stroke-linejoin="round"/>
<path d="M349.287 625.314L350.446 638.58" stroke="#FF9666" stroke-width="1.75" stroke-linecap="round" stroke-linejoin="round"/>
</g>
<path fill-rule="evenodd" clip-rule="evenodd" d="M327.638 652.337C327.815 649.582 330.044 647.406 332.803 647.294L358.063 646.272C360.676 646.167 362.977 647.977 363.489 650.541V650.541C364.126 653.73 361.775 656.739 358.526 656.891L333.273 658.072C330.06 658.222 327.431 655.546 327.638 652.337V652.337Z" fill="#FFBD60"/>
<mask id="mask20" mask-type="alpha" maskUnits="userSpaceOnUse" x="327" y="646" width="37" height="13">
<path fill-rule="evenodd" clip-rule="evenodd" d="M327.638 652.337C327.815 649.582 330.044 647.406 332.803 647.294L358.063 646.272C360.676 646.167 362.977 647.977 363.489 650.541V650.541C364.126 653.73 361.775 656.739 358.526 656.891L333.273 658.072C330.06 658.222 327.431 655.546 327.638 652.337V652.337Z" fill="white"/>
</mask>
<g mask="url(#mask20)">
<path d="M337.844 645.891L339.003 659.157" stroke="#FF9666" stroke-width="1.75" stroke-linecap="round" stroke-linejoin="round"/>
<path d="M350.687 645.088L351.846 658.354" stroke="#FF9666" stroke-width="1.75" stroke-linecap="round" stroke-linejoin="round"/>
</g>
<path fill-rule="evenodd" clip-rule="evenodd" d="M333.013 709.943C333.298 707.109 335.675 704.884 338.519 704.788L363.251 703.953C365.962 703.862 368.272 705.764 368.683 708.426V708.426C369.188 711.697 366.66 714.744 363.329 714.878L338.598 715.875C335.288 716.008 332.683 713.241 333.013 709.943V709.943Z" fill="#FFBD60"/>
<mask id="mask21" mask-type="alpha" maskUnits="userSpaceOnUse" x="332" y="703" width="37" height="13">
<path fill-rule="evenodd" clip-rule="evenodd" d="M333.013 709.943C333.298 707.109 335.675 704.884 338.519 704.788L363.251 703.953C365.962 703.862 368.272 705.764 368.683 708.426V708.426C369.188 711.697 366.66 714.744 363.329 714.878L338.598 715.875C335.288 716.008 332.683 713.241 333.013 709.943V709.943Z" fill="white"/>
</mask>
<g mask="url(#mask21)">
<path d="M343.497 703.505L343.837 716.774" stroke="#FF9666" stroke-width="1.75" stroke-linecap="round" stroke-linejoin="round"/>
<path d="M356.352 702.926L356.692 716.195" stroke="#FF9666" stroke-width="1.75" stroke-linecap="round" stroke-linejoin="round"/>
</g>
<path fill-rule="evenodd" clip-rule="evenodd" d="M335.739 696.007C332.845 696.007 330.462 693.733 330.327 690.843L329.408 671.274C329.263 668.186 331.718 665.599 334.809 665.584V665.584C337.726 665.569 340.135 667.859 340.267 670.773L341.151 690.344C341.291 693.429 338.827 696.007 335.739 696.007V696.007Z" fill="#FFBD60"/>
<mask id="mask22" mask-type="alpha" maskUnits="userSpaceOnUse" x="329" y="665" width="13" height="32">
<path fill-rule="evenodd" clip-rule="evenodd" d="M335.739 696.007C332.845 696.007 330.462 693.733 330.327 690.843L329.408 671.274C329.263 668.186 331.718 665.599 334.809 665.584V665.584C337.726 665.569 340.135 667.859 340.267 670.773L341.151 690.344C341.291 693.429 338.827 696.007 335.739 696.007V696.007Z" fill="white"/>
</mask>
<g mask="url(#mask22)">
<path d="M327.791 680.661L341.433 680.257" stroke="#FF9666" stroke-width="1.75" stroke-linecap="round" stroke-linejoin="round"/>
</g>
<path fill-rule="evenodd" clip-rule="evenodd" d="M360.764 694.806C357.87 694.806 355.488 692.532 355.352 689.642L354.433 670.072C354.288 666.985 356.744 664.398 359.834 664.382V664.382C362.751 664.367 365.16 666.658 365.292 669.572L366.176 689.143C366.316 692.228 363.852 694.806 360.764 694.806V694.806Z" fill="#FFBD60"/>
<mask id="mask23" mask-type="alpha" maskUnits="userSpaceOnUse" x="354" y="664" width="13" height="31">
<path fill-rule="evenodd" clip-rule="evenodd" d="M360.764 694.806C357.87 694.806 355.488 692.532 355.352 689.642L354.433 670.072C354.288 666.985 356.744 664.398 359.834 664.382V664.382C362.751 664.367 365.16 666.658 365.292 669.572L366.176 689.143C366.316 692.228 363.852 694.806 360.764 694.806V694.806Z" fill="white"/>
</mask>
<g mask="url(#mask23)">
<path d="M352.816 679.46L366.458 679.056" stroke="#FF9666" stroke-width="1.75" stroke-linecap="round" stroke-linejoin="round"/>
</g>
<path fill-rule="evenodd" clip-rule="evenodd" d="M499.499 461.366L513.499 441.04L528.301 444.46C530.36 444.936 531.933 446.6 532.292 448.683L581.399 733.303H541.849L499.499 461.366Z" fill="url(#paint50_linear)"/>
<mask id="mask24" mask-type="alpha" maskUnits="userSpaceOnUse" x="499" y="441" width="83" height="293">
<path fill-rule="evenodd" clip-rule="evenodd" d="M499.499 461.366L513.499 441.04L528.301 444.46C530.36 444.936 531.933 446.6 532.292 448.683L581.399 733.303H541.849L499.499 461.366Z" fill="white"/>
</mask>
<g mask="url(#mask24)">
<path opacity="0.415341" fill-rule="evenodd" clip-rule="evenodd" d="M541.849 494.657C541.849 494.657 543.599 503.418 528.199 508.324C512.799 513.23 439.999 521.64 439.999 521.64L439.649 534.607C439.649 534.607 558.299 521.64 557.249 521.64C556.199 521.64 541.849 494.657 541.849 494.657Z" fill="#253554"/>
</g>
<path fill-rule="evenodd" clip-rule="evenodd" d="M450.149 733.303L440.826 453.604C440.754 451.446 442.33 449.585 444.47 449.3L510.655 440.506C512.847 440.215 514.889 441.673 515.326 443.84L573.699 733.303H450.149Z" fill="url(#paint51_linear)"/>
<path opacity="0.415341" fill-rule="evenodd" clip-rule="evenodd" d="M448.289 469.553C447.936 466.676 449.982 464.057 452.859 463.703L459.536 462.883C462.415 462.529 465.035 464.576 465.388 467.454L470.679 510.597C471.032 513.474 468.986 516.093 466.108 516.447L459.431 517.268C456.552 517.622 453.932 515.575 453.579 512.696L448.289 469.553Z" fill="#253554"/>
<path opacity="0.415341" fill-rule="evenodd" clip-rule="evenodd" d="M488.889 464.998C488.536 462.12 490.582 459.502 493.459 459.148L500.136 458.327C503.015 457.973 505.635 460.02 505.988 462.899L511.279 506.041C511.632 508.919 509.586 511.537 506.708 511.891L500.031 512.712C497.152 513.066 494.532 511.019 494.179 508.14L488.889 464.998Z" fill="#253554"/>
<path opacity="0.415341" fill-rule="evenodd" clip-rule="evenodd" d="M468.559 639.183C468.199 635.408 470.91 632.033 474.673 631.57L477.818 631.184C481.749 630.7 485.298 633.573 485.645 637.518L492.706 717.845C493.045 721.703 490.187 725.104 486.327 725.433L483.775 725.65C479.95 725.976 476.577 723.162 476.212 719.341L468.559 639.183Z" fill="#253554"/>
<path opacity="0.415341" fill-rule="evenodd" clip-rule="evenodd" d="M517.559 632.175C517.199 628.4 519.91 625.024 523.673 624.562L526.818 624.175C530.749 623.692 534.298 626.564 534.645 630.51L541.706 710.836C542.045 714.695 539.187 718.095 535.327 718.424L532.775 718.641C528.95 718.967 525.577 716.153 525.212 712.332L517.559 632.175Z" fill="#253554"/>
<path opacity="0.415341" fill-rule="evenodd" clip-rule="evenodd" d="M521.059 632.175C520.699 628.4 523.41 625.024 527.173 624.562L530.318 624.175C534.249 623.692 537.798 626.564 538.145 630.51L545.206 710.836C545.545 714.695 542.687 718.095 538.827 718.424L536.275 718.641C532.45 718.967 529.077 716.153 528.712 712.332L521.059 632.175Z" fill="#253554"/>
<mask id="mask25" mask-type="alpha" maskUnits="userSpaceOnUse" x="518" y="623" width="31" height="97">
<path fill-rule="evenodd" clip-rule="evenodd" d="M521.059 632.175C520.699 628.4 523.41 625.024 527.173 624.562L530.318 624.175C534.249 623.692 537.798 626.564 538.145 630.51L545.206 710.836C545.545 714.695 542.687 718.095 538.827 718.424L536.275 718.641C532.45 718.967 529.077 716.153 528.712 712.332L521.059 632.175Z" fill="white"/>
</mask>
<g mask="url(#mask25)">
</g>
<path opacity="0.415341" fill-rule="evenodd" clip-rule="evenodd" d="M434.399 620.113L557.249 615.207L555.499 601.189L432.649 608.548L434.399 620.113Z" fill="#253554"/>
<path fill-rule="evenodd" clip-rule="evenodd" d="M447.743 466.075C447.39 463.198 449.436 460.579 452.313 460.225L458.991 459.404C461.869 459.05 464.489 461.098 464.842 463.976L470.133 507.119C470.486 509.996 468.44 512.615 465.563 512.969L458.885 513.79C456.007 514.143 453.387 512.096 453.034 509.218L447.743 466.075Z" fill="#FFBD60"/>
<mask id="mask26" mask-type="alpha" maskUnits="userSpaceOnUse" x="447" y="458" width="24" height="57">
<path fill-rule="evenodd" clip-rule="evenodd" d="M447.743 466.075C447.39 463.198 449.436 460.579 452.313 460.225L458.991 459.404C461.869 459.05 464.489 461.098 464.842 463.976L470.133 507.119C470.486 509.996 468.44 512.615 465.563 512.969L458.885 513.79C456.007 514.143 453.387 512.096 453.034 509.218L447.743 466.075Z" fill="white"/>
</mask>
<g mask="url(#mask26)">
<path d="M445.221 473.567L468.728 469.84" stroke="#FF9666" stroke-width="1.75" stroke-linecap="round" stroke-linejoin="round"/>
<path d="M446.971 488.198L470.478 484.47" stroke="#FF9666" stroke-width="1.75" stroke-linecap="round" stroke-linejoin="round"/>
<path d="M448.721 502.829L472.228 499.101" stroke="#FF9666" stroke-width="1.75" stroke-linecap="round" stroke-linejoin="round"/>
</g>
<path fill-rule="evenodd" clip-rule="evenodd" d="M512.188 631.179C511.827 627.404 514.538 624.029 518.302 623.566L521.447 623.18C525.378 622.696 528.927 625.568 529.274 629.514L536.335 709.841C536.674 713.699 533.815 717.1 529.956 717.429L527.403 717.646C523.579 717.972 520.206 715.157 519.841 711.337L512.188 631.179Z" fill="#FFBD60"/>
<mask id="mask27" mask-type="alpha" maskUnits="userSpaceOnUse" x="509" y="622" width="31" height="97">
<path fill-rule="evenodd" clip-rule="evenodd" d="M512.188 631.179C511.827 627.404 514.538 624.029 518.302 623.566L521.447 623.18C525.378 622.696 528.927 625.568 529.274 629.514L536.335 709.841C536.674 713.699 533.815 717.1 529.956 717.429L527.403 717.646C523.579 717.972 520.206 715.157 519.841 711.337L512.188 631.179Z" fill="white"/>
</mask>
<g mask="url(#mask27)">
<path d="M509.19 646.94L532.859 644.449" stroke="#FF9666" stroke-width="1.75" stroke-linecap="round" stroke-linejoin="round"/>
<path d="M509.19 671.645L532.859 669.155" stroke="#FF9666" stroke-width="1.75" stroke-linecap="round" stroke-linejoin="round"/>
<path d="M512.165 696.351L535.834 693.86" stroke="#FF9666" stroke-width="1.75" stroke-linecap="round" stroke-linejoin="round"/>
</g>
<path fill-rule="evenodd" clip-rule="evenodd" d="M465.252 632.415C464.891 628.64 467.602 625.265 471.366 624.802L474.51 624.415C478.442 623.932 481.991 626.804 482.338 630.75L489.399 711.077C489.738 714.935 486.879 718.335 483.02 718.664L480.467 718.882C476.643 719.208 473.269 716.393 472.905 712.572L465.252 632.415Z" fill="#FFBD60"/>
<mask id="mask28" mask-type="alpha" maskUnits="userSpaceOnUse" x="462" y="623" width="31" height="97">
<path fill-rule="evenodd" clip-rule="evenodd" d="M465.252 632.415C464.891 628.64 467.602 625.265 471.366 624.802L474.51 624.415C478.442 623.932 481.991 626.804 482.338 630.75L489.399 711.077C489.738 714.935 486.879 718.335 483.02 718.664L480.467 718.882C476.643 719.208 473.269 716.393 472.905 712.572L465.252 632.415Z" fill="white"/>
</mask>
<g mask="url(#mask28)">
<path d="M462.253 648.176L485.923 645.685" stroke="#FF9666" stroke-width="1.75" stroke-linecap="round" stroke-linejoin="round"/>
<path d="M462.253 672.881L485.923 670.39" stroke="#FF9666" stroke-width="1.75" stroke-linecap="round" stroke-linejoin="round"/>
<path d="M465.228 697.587L488.898 695.096" stroke="#FF9666" stroke-width="1.75" stroke-linecap="round" stroke-linejoin="round"/>
</g>
<path fill-rule="evenodd" clip-rule="evenodd" d="M488.343 461.519C487.99 458.642 490.036 456.023 492.913 455.67L499.591 454.849C502.469 454.495 505.089 456.542 505.442 459.42L510.733 502.563C511.086 505.441 509.04 508.059 506.163 508.413L499.485 509.234C496.607 509.588 493.987 507.541 493.634 504.662L488.343 461.519Z" fill="#FFBD60"/>
<mask id="mask29" mask-type="alpha" maskUnits="userSpaceOnUse" x="487" y="454" width="25" height="56">
<path fill-rule="evenodd" clip-rule="evenodd" d="M488.343 461.519C487.99 458.642 490.036 456.023 492.913 455.67L499.591 454.849C502.469 454.495 505.089 456.542 505.442 459.42L510.733 502.563C511.086 505.441 509.04 508.059 506.163 508.413L499.485 509.234C496.607 509.588 493.987 507.541 493.634 504.662L488.343 461.519Z" fill="white"/>
</mask>
<g mask="url(#mask29)">
<path d="M485.821 469.012L509.328 465.284" stroke="#FF9666" stroke-width="1.75" stroke-linecap="round" stroke-linejoin="round"/>
<path d="M487.571 483.642L511.078 479.915" stroke="#FF9666" stroke-width="1.75" stroke-linecap="round" stroke-linejoin="round"/>
<path d="M489.321 498.273L512.828 494.545" stroke="#FF9666" stroke-width="1.75" stroke-linecap="round" stroke-linejoin="round"/>
</g>
<path fill-rule="evenodd" clip-rule="evenodd" d="M544.999 596.984L529.949 513.23H550.086C551.796 513.23 553.256 514.466 553.538 516.153L566.699 594.881L544.999 596.984Z" fill="url(#paint52_linear)"/>
<path fill-rule="evenodd" clip-rule="evenodd" d="M435.872 527.272C435.831 525.469 437.166 523.93 438.956 523.717L529.53 512.913C531.346 512.696 533.023 513.915 533.378 515.71L550.881 604.308C551.289 606.374 549.795 608.329 547.695 608.478L441.562 615.998C439.568 616.14 437.861 614.585 437.816 612.587L435.872 527.272Z" fill="url(#paint53_linear)"/>
<path opacity="0.415341" fill-rule="evenodd" clip-rule="evenodd" d="M448.547 546.887C448.062 542.274 451.409 538.141 456.022 537.656L519.199 531.008C523.813 530.522 527.948 533.87 528.432 538.484L529.005 543.942C529.489 548.555 526.143 552.687 521.53 553.173L458.353 559.821C453.738 560.307 449.604 556.959 449.12 552.344L448.547 546.887Z" fill="#253554"/>
<path opacity="0.415341" fill-rule="evenodd" clip-rule="evenodd" d="M462.547 588.238C462.062 583.625 465.409 579.493 470.022 579.007L533.199 572.359C537.813 571.873 541.948 575.221 542.432 579.836L543.005 585.293C543.489 589.906 540.143 594.039 535.53 594.524L472.353 601.172C467.738 601.658 463.604 598.31 463.12 593.696L462.547 588.238Z" fill="#253554"/>
<path fill-rule="evenodd" clip-rule="evenodd" d="M445.553 544.482C445.25 539.895 448.769 535.735 453.414 535.19L517.412 527.667C522.058 527.121 526.072 530.399 526.375 534.988L526.669 539.45C526.972 544.037 523.453 548.197 518.809 548.742L454.811 556.265C450.164 556.811 446.15 553.533 445.848 548.944L445.553 544.482Z" fill="#E2E7F4"/>
<path fill-rule="evenodd" clip-rule="evenodd" d="M446.644 545.145C446.665 541.341 449.851 537.874 453.76 537.399L518.553 529.532C522.464 529.057 525.618 531.758 525.596 535.563L525.578 538.787C525.557 542.591 522.371 546.058 518.462 546.533L453.669 554.4C449.758 554.875 446.604 552.174 446.626 548.369L446.644 545.145Z" fill="#FFBD60"/>
<mask id="mask30" mask-type="alpha" maskUnits="userSpaceOnUse" x="446" y="529" width="80" height="26">
<path fill-rule="evenodd" clip-rule="evenodd" d="M446.644 545.145C446.665 541.341 449.851 537.874 453.76 537.399L518.553 529.532C522.464 529.057 525.618 531.758 525.596 535.563L525.578 538.787C525.557 542.591 522.371 546.058 518.462 546.533L453.669 554.4C449.758 554.875 446.604 552.174 446.626 548.369L446.644 545.145Z" fill="white"/>
</mask>
<g mask="url(#mask30)">
<path d="M464.502 534.665L464.158 555.075" stroke="#FF9666" stroke-width="1.75" stroke-linecap="round" stroke-linejoin="round"/>
<path d="M486.283 531.761L485.939 552.171" stroke="#FF9666" stroke-width="1.75" stroke-linecap="round" stroke-linejoin="round"/>
<path d="M507.777 528.988L507.433 549.398" stroke="#FF9666" stroke-width="1.75" stroke-linecap="round" stroke-linejoin="round"/>
<path opacity="0.503664" fill-rule="evenodd" clip-rule="evenodd" d="M447.954 553.55L526.778 541.7L526.527 550.626L446.94 563.275L447.954 553.55Z" fill="#FF9666"/>
</g>
<path fill-rule="evenodd" clip-rule="evenodd" d="M452.903 586.06C452.6 581.473 456.119 577.313 460.764 576.767L524.762 569.245C529.408 568.699 533.422 571.977 533.725 576.566L534.019 581.028C534.322 585.615 530.803 589.774 526.159 590.32L462.161 597.843C457.514 598.389 453.5 595.111 453.198 590.522L452.903 586.06Z" fill="#E2E7F4"/>
<path fill-rule="evenodd" clip-rule="evenodd" d="M453.994 586.723C454.015 582.919 457.201 579.451 461.11 578.977L525.903 571.11C529.814 570.635 532.968 573.336 532.947 577.141L532.929 580.365C532.907 584.169 529.722 587.636 525.812 588.111L461.02 595.978C457.108 596.453 453.954 593.752 453.976 589.946L453.994 586.723Z" fill="#FFBD60"/>
<mask id="mask31" mask-type="alpha" maskUnits="userSpaceOnUse" x="453" y="571" width="80" height="26">
<path fill-rule="evenodd" clip-rule="evenodd" d="M453.994 586.723C454.015 582.919 457.201 579.451 461.11 578.977L525.903 571.11C529.814 570.635 532.968 573.336 532.947 577.141L532.929 580.365C532.907 584.169 529.722 587.636 525.812 588.111L461.02 595.978C457.108 596.453 453.954 593.752 453.976 589.946L453.994 586.723Z" fill="white"/>
</mask>
<g mask="url(#mask31)">
<path opacity="0.503664" fill-rule="evenodd" clip-rule="evenodd" d="M447.944 596.248L526.622 583.878L526.524 592.095L447.096 605.215L447.944 596.248Z" fill="#FF9666"/>
<path d="M471.853 576.243L471.508 596.653" stroke="#FF9666" stroke-width="1.75" stroke-linecap="round" stroke-linejoin="round"/>
<path d="M493.633 573.339L493.289 593.749" stroke="#FF9666" stroke-width="1.75" stroke-linecap="round" stroke-linejoin="round"/>
<path d="M515.127 570.566L514.783 590.976" stroke="#FF9666" stroke-width="1.75" stroke-linecap="round" stroke-linejoin="round"/>
</g>
<path fill-rule="evenodd" clip-rule="evenodd" d="M300.65 729.871L289.718 599.213C289.567 597.399 288.05 596.005 286.231 596.005H235.46C233.563 596.005 232.011 597.517 231.961 599.414L228.55 730.922L300.65 729.871Z" fill="url(#paint54_linear)"/>
<mask id="mask32" mask-type="alpha" maskUnits="userSpaceOnUse" x="228" y="596" width="73" height="135">
<path fill-rule="evenodd" clip-rule="evenodd" d="M300.65 729.871L289.718 599.213C289.567 597.399 288.05 596.005 286.231 596.005H235.46C233.563 596.005 232.011 597.517 231.961 599.414L228.55 730.922L300.65 729.871Z" fill="white"/>
</mask>
<g mask="url(#mask32)">
<path d="M283.03 605.621C284.51 605.621 285.709 604.42 285.709 602.938C285.709 601.456 284.51 600.255 283.03 600.255C281.55 600.255 280.35 601.456 280.35 602.938C280.35 604.42 281.55 605.621 283.03 605.621Z" fill="#583FB3"/>
<path fill-rule="evenodd" clip-rule="evenodd" d="M276.516 604.891C277.594 604.891 278.467 604.017 278.467 602.938C278.467 601.859 277.594 600.985 276.516 600.985C275.439 600.985 274.566 601.859 274.566 602.938C274.566 604.017 275.439 604.891 276.516 604.891Z" fill="#FF6CBB"/>
<path d="M286.714 658.245C288.194 658.245 289.394 657.043 289.394 655.561C289.394 654.08 288.194 652.878 286.714 652.878C285.234 652.878 284.034 654.08 284.034 655.561C284.034 657.043 285.234 658.245 286.714 658.245Z" fill="#583FB3"/>
<path fill-rule="evenodd" clip-rule="evenodd" d="M280.201 657.515C281.278 657.515 282.152 656.64 282.152 655.561C282.152 654.483 281.278 653.608 280.201 653.608C279.123 653.608 278.25 654.483 278.25 655.561C278.25 656.64 279.123 657.515 280.201 657.515Z" fill="#FF6CBB"/>
<rect x="224.396" y="618.425" width="73.4544" height="29.555" fill="#E2E7F4"/>
<path fill-rule="evenodd" clip-rule="evenodd" d="M221.573 675.55L302.727 675.438V704.993L221.573 705.105V675.55Z" fill="#E2E7F4"/>
<rect x="226.45" y="620.587" width="71.3544" height="24.9598" fill="url(#paint55_linear)"/>
<mask id="mask33" mask-type="alpha" maskUnits="userSpaceOnUse" x="226" y="620" width="72" height="26">
<rect x="226.45" y="620.587" width="71.3544" height="24.9598" fill="white"/>
</mask>
<g mask="url(#mask33)">
<path d="M262.15 616.68V648.57" stroke="#5D7CFF" stroke-width="1.75"/>
</g>
<path fill-rule="evenodd" clip-rule="evenodd" d="M212.45 677.656H308.304V702.616H212.45V677.656Z" fill="url(#paint56_linear)"/>
<mask id="mask34" mask-type="alpha" maskUnits="userSpaceOnUse" x="212" y="677" width="97" height="26">
<path fill-rule="evenodd" clip-rule="evenodd" d="M212.45 677.656H308.304V702.616H212.45V677.656Z" fill="white"/>
</mask>
<g mask="url(#mask34)">
<path d="M262.15 675.203V706.391" stroke="#5D7CFF" stroke-width="1.75"/>
</g>
</g>
</g>
<defs>
<linearGradient id="paint0_linear" x1="511.015" y1="-96.2739" x2="-279.913" y2="245.7" gradientUnits="userSpaceOnUse">
<stop stop-color="#FF64B7"/>
<stop offset="1" stop-color="#FFBD60"/>
</linearGradient>
<linearGradient id="paint1_linear" x1="-5.03139" y1="479.494" x2="796.097" y2="851.244" gradientUnits="userSpaceOnUse">
<stop stop-color="#FFA492" stop-opacity="0.01"/>
<stop offset="0.300844" stop-color="#CA3891"/>
<stop offset="1" stop-color="#3E13AF"/>
</linearGradient>
<linearGradient id="paint2_linear" x1="635.242" y1="589.036" x2="700.456" y2="194.682" gradientUnits="userSpaceOnUse">
<stop stop-color="#FFA492"/>
<stop offset="0.216626" stop-color="#CA3891"/>
<stop offset="1" stop-color="#3E13AF"/>
</linearGradient>
<linearGradient id="paint3_linear" x1="536.663" y1="443.506" x2="540.691" y2="402.085" gradientUnits="userSpaceOnUse">
<stop stop-color="#FFA492"/>
<stop offset="0.216626" stop-color="#CA3891"/>
<stop offset="1" stop-color="#3E13AF"/>
</linearGradient>
<linearGradient id="paint4_linear" x1="375.142" y1="468.689" x2="390.458" y2="443.299" gradientUnits="userSpaceOnUse">
<stop stop-color="#FFA492"/>
<stop offset="0.216626" stop-color="#CA3891"/>
<stop offset="1" stop-color="#3E13AF"/>
</linearGradient>
<linearGradient id="paint5_linear" x1="355.307" y1="476.422" x2="360.703" y2="432.069" gradientUnits="userSpaceOnUse">
<stop stop-color="#FFA492"/>
<stop offset="0.216626" stop-color="#CA3891"/>
<stop offset="1" stop-color="#3E13AF"/>
</linearGradient>
<linearGradient id="paint6_linear" x1="205.628" y1="462.227" x2="200.602" y2="412.52" gradientUnits="userSpaceOnUse">
<stop stop-color="#FFA492"/>
<stop offset="0.216626" stop-color="#CA3891"/>
<stop offset="1" stop-color="#3E13AF"/>
</linearGradient>
<linearGradient id="paint7_linear" x1="296.57" y1="419.655" x2="330.814" y2="500.085" gradientUnits="userSpaceOnUse">
<stop stop-color="#F393AA"/>
<stop offset="1" stop-color="#B81375"/>
</linearGradient>
<linearGradient id="paint8_linear" x1="406.174" y1="489.815" x2="418.824" y2="432.992" gradientUnits="userSpaceOnUse">
<stop stop-color="#FFA492"/>
<stop offset="0.216626" stop-color="#CA3891"/>
<stop offset="1" stop-color="#3E13AF"/>
</linearGradient>
<linearGradient id="paint9_linear" x1="391.047" y1="482.893" x2="413.692" y2="415.145" gradientUnits="userSpaceOnUse">
<stop stop-color="#FFA492"/>
<stop offset="0.216626" stop-color="#CA3891"/>
<stop offset="1" stop-color="#3E13AF"/>
</linearGradient>
<linearGradient id="paint10_linear" x1="355.43" y1="476.317" x2="360.826" y2="431.964" gradientUnits="userSpaceOnUse">
<stop stop-color="#FFA492"/>
<stop offset="0.216626" stop-color="#CA3891"/>
<stop offset="1" stop-color="#3E13AF"/>
</linearGradient>
<linearGradient id="paint11_linear" x1="204.59" y1="435.74" x2="238.834" y2="516.17" gradientUnits="userSpaceOnUse">
<stop stop-color="#F393AA"/>
<stop offset="1" stop-color="#B81375"/>
</linearGradient>
<linearGradient id="paint12_linear" x1="303.499" y1="504.574" x2="316.299" y2="451.893" gradientUnits="userSpaceOnUse">
<stop stop-color="#FFA492"/>
<stop offset="0.216626" stop-color="#CA3891"/>
<stop offset="1" stop-color="#3E13AF"/>
</linearGradient>
<linearGradient id="paint13_linear" x1="299.604" y1="496.807" x2="320.731" y2="431.821" gradientUnits="userSpaceOnUse">
<stop stop-color="#FFA492"/>
<stop offset="0.216626" stop-color="#CA3891"/>
<stop offset="1" stop-color="#3E13AF"/>
</linearGradient>
<linearGradient id="paint14_linear" x1="386.345" y1="404.516" x2="420.589" y2="484.947" gradientUnits="userSpaceOnUse">
<stop stop-color="#F393AA"/>
<stop offset="1" stop-color="#B81375"/>
</linearGradient>
<linearGradient id="paint15_linear" x1="499.687" y1="474.396" x2="511.565" y2="417.225" gradientUnits="userSpaceOnUse">
<stop stop-color="#FFA492"/>
<stop offset="0.216626" stop-color="#CA3891"/>
<stop offset="1" stop-color="#3E13AF"/>
</linearGradient>
<linearGradient id="paint16_linear" x1="500.287" y1="469.572" x2="520.671" y2="392.737" gradientUnits="userSpaceOnUse">
<stop stop-color="#FFA492"/>
<stop offset="0.216626" stop-color="#CA3891"/>
<stop offset="1" stop-color="#3E13AF"/>
</linearGradient>
<linearGradient id="paint17_linear" x1="473.845" y1="389.448" x2="508.089" y2="469.878" gradientUnits="userSpaceOnUse">
<stop stop-color="#F393AA"/>
<stop offset="1" stop-color="#B81375"/>
</linearGradient>
<linearGradient id="paint18_linear" x1="568.012" y1="480.831" x2="624.297" y2="387.521" gradientUnits="userSpaceOnUse">
<stop stop-color="#FFA492"/>
<stop offset="0.216626" stop-color="#CA3891"/>
<stop offset="1" stop-color="#3E13AF"/>
</linearGradient>
<linearGradient id="paint19_linear" x1="587.787" y1="454.504" x2="608.171" y2="377.668" gradientUnits="userSpaceOnUse">
<stop stop-color="#FFA492"/>
<stop offset="0.216626" stop-color="#CA3891"/>
<stop offset="1" stop-color="#3E13AF"/>
</linearGradient>
<linearGradient id="paint20_linear" x1="536.663" y1="443.506" x2="540.691" y2="402.085" gradientUnits="userSpaceOnUse">
<stop stop-color="#FFA492"/>
<stop offset="0.216626" stop-color="#CA3891"/>
<stop offset="1" stop-color="#3E13AF"/>
</linearGradient>
<linearGradient id="paint21_linear" x1="292.966" y1="442.902" x2="191.038" y2="538.602" gradientUnits="userSpaceOnUse">
<stop stop-color="#F393AA"/>
<stop offset="1" stop-color="#B81375"/>
</linearGradient>
<linearGradient id="paint22_linear" x1="117.716" y1="498.55" x2="102.163" y2="391.209" gradientUnits="userSpaceOnUse">
<stop stop-color="#FFA492"/>
<stop offset="0.216626" stop-color="#CA3891"/>
<stop offset="1" stop-color="#3E13AF"/>
</linearGradient>
<linearGradient id="paint23_linear" x1="213.734" y1="479.467" x2="116.278" y2="536.794" gradientUnits="userSpaceOnUse">
<stop stop-color="#FFA492"/>
<stop offset="0.216626" stop-color="#CA3891"/>
<stop offset="1" stop-color="#3E13AF"/>
</linearGradient>
<linearGradient id="paint24_linear" x1="163.037" y1="429.663" x2="209.586" y2="429.089" gradientUnits="userSpaceOnUse">
<stop stop-color="#FFA492"/>
<stop offset="0.216626" stop-color="#CA3891"/>
<stop offset="1" stop-color="#3E13AF"/>
</linearGradient>
<linearGradient id="paint25_linear" x1="191.687" y1="495.276" x2="238.167" y2="399.725" gradientUnits="userSpaceOnUse">
<stop stop-color="#FFA492"/>
<stop offset="0.216626" stop-color="#CA3891"/>
<stop offset="1" stop-color="#3E13AF"/>
</linearGradient>
<linearGradient id="paint26_linear" x1="222.402" y1="385.817" x2="120.474" y2="481.516" gradientUnits="userSpaceOnUse">
<stop stop-color="#F393AA"/>
<stop offset="1" stop-color="#B81375"/>
</linearGradient>
<linearGradient id="paint27_linear" x1="47.1524" y1="441.464" x2="31.5987" y2="334.123" gradientUnits="userSpaceOnUse">
<stop stop-color="#FFA492"/>
<stop offset="0.216626" stop-color="#CA3891"/>
<stop offset="1" stop-color="#3E13AF"/>
</linearGradient>
<linearGradient id="paint28_linear" x1="136.919" y1="416.344" x2="77.2815" y2="463.77" gradientUnits="userSpaceOnUse">
<stop stop-color="#FFA492"/>
<stop offset="0.216626" stop-color="#CA3891"/>
<stop offset="1" stop-color="#3E13AF"/>
</linearGradient>
<linearGradient id="paint29_linear" x1="128.853" y1="433.193" x2="159.05" y2="374.552" gradientUnits="userSpaceOnUse">
<stop stop-color="#FFA492"/>
<stop offset="0.216626" stop-color="#CA3891"/>
<stop offset="1" stop-color="#3E13AF"/>
</linearGradient>
<linearGradient id="paint30_linear" x1="-48.4508" y1="646.344" x2="563.686" y2="1161.78" gradientUnits="userSpaceOnUse">
<stop stop-color="#FFA492" stop-opacity="0.01"/>
<stop offset="0.300844" stop-color="#CA3891"/>
<stop offset="1" stop-color="#3E13AF"/>
</linearGradient>
<linearGradient id="paint31_linear" x1="145.012" y1="635.721" x2="166.532" y2="610.238" gradientUnits="userSpaceOnUse">
<stop stop-color="#FFA492"/>
<stop offset="0.216626" stop-color="#CA3891"/>
<stop offset="1" stop-color="#3E13AF"/>
</linearGradient>
<linearGradient id="paint32_linear" x1="222.421" y1="633.293" x2="232.238" y2="564.877" gradientUnits="userSpaceOnUse">
<stop stop-color="#FFA492"/>
<stop offset="0.216626" stop-color="#CA3891"/>
<stop offset="1" stop-color="#3E13AF"/>
</linearGradient>
<linearGradient id="paint33_linear" x1="365.313" y1="640.742" x2="374.883" y2="572.769" gradientUnits="userSpaceOnUse">
<stop stop-color="#FFA492"/>
<stop offset="0.216626" stop-color="#CA3891"/>
<stop offset="1" stop-color="#3E13AF"/>
</linearGradient>
<linearGradient id="paint34_linear" x1="610.696" y1="733.651" x2="651.197" y2="431.333" gradientUnits="userSpaceOnUse">
<stop stop-color="#FFA492"/>
<stop offset="0.216626" stop-color="#CA3891"/>
<stop offset="1" stop-color="#3E13AF"/>
</linearGradient>
<linearGradient id="paint35_linear" x1="0" y1="0" x2="0" y2="39.3635" gradientUnits="userSpaceOnUse">
<stop stop-color="#F393AA"/>
<stop offset="1" stop-color="#D44399"/>
</linearGradient>
<linearGradient id="paint36_linear" x1="0" y1="0" x2="0" y2="39.3635" gradientUnits="userSpaceOnUse">
<stop stop-color="#F393AA"/>
<stop offset="1" stop-color="#D44399"/>
</linearGradient>
<linearGradient id="paint37_linear" x1="428.927" y1="626.494" x2="503.514" y2="490.282" gradientUnits="userSpaceOnUse">
<stop stop-color="#FFA492"/>
<stop offset="0.43169" stop-color="#CA3891"/>
<stop offset="1" stop-color="#3E13AF"/>
</linearGradient>
<linearGradient id="paint38_linear" x1="415.977" y1="575.615" x2="424.499" y2="525.253" gradientUnits="userSpaceOnUse">
<stop stop-color="#FFA492"/>
<stop offset="0.359822" stop-color="#CA3891"/>
<stop offset="1" stop-color="#3E13AF"/>
</linearGradient>
<linearGradient id="paint39_linear" x1="474.064" y1="950.006" x2="779.507" y2="777.821" gradientUnits="userSpaceOnUse">
<stop stop-color="#FFA492"/>
<stop offset="0.43169" stop-color="#CA3891"/>
<stop offset="1" stop-color="#3E13AF"/>
</linearGradient>
<linearGradient id="paint40_linear" x1="406.053" y1="622.893" x2="422.357" y2="616.9" gradientUnits="userSpaceOnUse">
<stop stop-color="#74C3FF"/>
<stop offset="1" stop-color="#5C79FF"/>
</linearGradient>
<linearGradient id="paint41_linear" x1="413.56" y1="671.418" x2="429.863" y2="665.426" gradientUnits="userSpaceOnUse">
<stop stop-color="#74C3FF"/>
<stop offset="1" stop-color="#5C79FF"/>
</linearGradient>
<linearGradient id="paint42_linear" x1="421.066" y1="719.944" x2="437.369" y2="713.952" gradientUnits="userSpaceOnUse">
<stop stop-color="#74C3FF"/>
<stop offset="1" stop-color="#5C79FF"/>
</linearGradient>
<linearGradient id="paint43_linear" x1="504.58" y1="856.922" x2="695.055" y2="588.662" gradientUnits="userSpaceOnUse">
<stop stop-color="#FFA492"/>
<stop offset="0.43169" stop-color="#CA3891"/>
<stop offset="1" stop-color="#3E13AF"/>
</linearGradient>
<linearGradient id="paint44_linear" x1="448.164" y1="803.234" x2="558.617" y2="652.236" gradientUnits="userSpaceOnUse">
<stop stop-color="#FFA492"/>
<stop offset="0.397722" stop-color="#CA3891"/>
<stop offset="1" stop-color="#3E13AF"/>
</linearGradient>
<linearGradient id="paint45_linear" x1="379.122" y1="865.101" x2="589.762" y2="669.822" gradientUnits="userSpaceOnUse">
<stop stop-color="#FFA492"/>
<stop offset="0.43169" stop-color="#CA3891"/>
<stop offset="1" stop-color="#3E13AF"/>
</linearGradient>
<linearGradient id="paint46_linear" x1="306.346" y1="645.774" x2="310.801" y2="627.637" gradientUnits="userSpaceOnUse">
<stop stop-color="#FFA492"/>
<stop offset="0.536699" stop-color="#CA3891"/>
<stop offset="1" stop-color="#3E13AF"/>
</linearGradient>
<linearGradient id="paint47_linear" x1="311.1" y1="657.15" x2="332.023" y2="632.22" gradientUnits="userSpaceOnUse">
<stop stop-color="#FFA492"/>
<stop offset="0.43169" stop-color="#CA3891"/>
<stop offset="1" stop-color="#3E13AF"/>
</linearGradient>
<linearGradient id="paint48_linear" x1="306.174" y1="617.353" x2="311.815" y2="611.132" gradientUnits="userSpaceOnUse">
<stop stop-color="#FF6CBB"/>
<stop offset="1" stop-color="#8E62FF"/>
</linearGradient>
<linearGradient id="paint49_linear" x1="380.772" y1="915.864" x2="571.6" y2="747.754" gradientUnits="userSpaceOnUse">
<stop stop-color="#FF6CBB"/>
<stop offset="1" stop-color="#8E62FF"/>
</linearGradient>
<linearGradient id="paint50_linear" x1="567.814" y1="925.809" x2="770.443" y2="834.844" gradientUnits="userSpaceOnUse">
<stop stop-color="#FF6CBB"/>
<stop offset="1" stop-color="#8E62FF"/>
</linearGradient>
<linearGradient id="paint51_linear" x1="540.95" y1="1106.37" x2="922.12" y2="869.933" gradientUnits="userSpaceOnUse">
<stop stop-color="#FF6CBB"/>
<stop offset="1" stop-color="#8E62FF"/>
</linearGradient>
<linearGradient id="paint52_linear" x1="551.873" y1="641.071" x2="596.13" y2="559.488" gradientUnits="userSpaceOnUse">
<stop stop-color="#FF6CBB"/>
<stop offset="1" stop-color="#8E62FF"/>
</linearGradient>
<linearGradient id="paint53_linear" x1="446.583" y1="785.469" x2="590.411" y2="589.24" gradientUnits="userSpaceOnUse">
<stop stop-color="#FF6CBB"/>
<stop offset="1" stop-color="#8E62FF"/>
</linearGradient>
<linearGradient id="paint54_linear" x1="296.6" y1="766.452" x2="296.6" y2="596.005" gradientUnits="userSpaceOnUse">
<stop stop-color="#74C3FF"/>
<stop offset="1" stop-color="#5C79FF"/>
</linearGradient>
<linearGradient id="paint55_linear" x1="230.196" y1="603.28" x2="211.384" y2="668.324" gradientUnits="userSpaceOnUse">
<stop stop-color="#6BE5FF"/>
<stop offset="1" stop-color="#5C79FF"/>
</linearGradient>
<linearGradient id="paint56_linear" x1="204.745" y1="656.763" x2="186.696" y2="737.214" gradientUnits="userSpaceOnUse">
<stop stop-color="#6BE5FF"/>
<stop offset="1" stop-color="#5C79FF"/>
</linearGradient>
</defs>
</svg>
