<svg width="110" height="48" viewBox="0 0 110 48" fill="none" xmlns="http://www.w3.org/2000/svg">
<path fill-rule="evenodd" clip-rule="evenodd" d="M1.45557 30.9614C1.45557 36.4843 5.93272 40.9614 11.4556 40.9614H108.956V7.46143H11.4556C5.93272 7.46143 1.45557 11.9386 1.45557 17.4614V30.9614Z" fill="#EAEFF6"/>
<path fill-rule="evenodd" clip-rule="evenodd" d="M108.956 7.46143L98.9556 1.00867V7.46143L108.956 7.46143Z" fill="#BEC9D9"/>
<path fill-rule="evenodd" clip-rule="evenodd" d="M108.956 40.9614L98.9556 47.4142V40.9614H108.956Z" fill="#BEC9D9"/>
<path d="M24.752 28.5694C23.92 28.5694 23.192 28.3934 22.568 28.0414C21.952 27.6814 21.476 27.1734 21.14 26.5174C20.812 25.8614 20.648 25.0974 20.648 24.2254C20.648 23.3534 20.812 22.5934 21.14 21.9454C21.476 21.2894 21.952 20.7854 22.568 20.4334C23.192 20.0734 23.92 19.8934 24.752 19.8934C25.32 19.8934 25.856 19.9814 26.36 20.1574C26.864 20.3334 27.288 20.5814 27.632 20.9014L27.116 22.0294C26.732 21.7254 26.352 21.5054 25.976 21.3694C25.6 21.2254 25.2 21.1534 24.776 21.1534C23.96 21.1534 23.328 21.4174 22.88 21.9454C22.44 22.4734 22.22 23.2334 22.22 24.2254C22.22 25.2254 22.44 25.9894 22.88 26.5174C23.328 27.0454 23.96 27.3094 24.776 27.3094C25.2 27.3094 25.6 27.2414 25.976 27.1054C26.352 26.9614 26.732 26.7374 27.116 26.4334L27.632 27.5614C27.288 27.8814 26.864 28.1294 26.36 28.3054C25.856 28.4814 25.32 28.5694 24.752 28.5694ZM31.6716 28.5574C31.0716 28.5574 30.5436 28.4334 30.0876 28.1854C29.6396 27.9374 29.2916 27.5814 29.0436 27.1174C28.7956 26.6534 28.6716 26.1134 28.6716 25.4974C28.6716 24.8814 28.7956 24.3454 29.0436 23.8894C29.2916 23.4254 29.6396 23.0694 30.0876 22.8214C30.5436 22.5734 31.0716 22.4494 31.6716 22.4494C32.2716 22.4494 32.7956 22.5734 33.2436 22.8214C33.6996 23.0694 34.0476 23.4254 34.2876 23.8894C34.5356 24.3454 34.6596 24.8814 34.6596 25.4974C34.6596 26.1134 34.5356 26.6534 34.2876 27.1174C34.0476 27.5814 33.6996 27.9374 33.2436 28.1854C32.7956 28.4334 32.2716 28.5574 31.6716 28.5574ZM31.6596 27.3934C32.1476 27.3934 32.5196 27.2334 32.7756 26.9134C33.0316 26.5934 33.1596 26.1214 33.1596 25.4974C33.1596 24.8814 33.0316 24.4134 32.7756 24.0934C32.5196 23.7654 32.1516 23.6014 31.6716 23.6014C31.1916 23.6014 30.8196 23.7654 30.5556 24.0934C30.2996 24.4134 30.1716 24.8814 30.1716 25.4974C30.1716 26.1214 30.2996 26.5934 30.5556 26.9134C30.8116 27.2334 31.1796 27.3934 31.6596 27.3934ZM43.07 22.4494C43.734 22.4494 44.23 22.6494 44.558 23.0494C44.886 23.4414 45.05 24.0454 45.05 24.8614V28.4614H43.55V24.9214C43.55 24.4734 43.474 24.1494 43.322 23.9494C43.17 23.7414 42.926 23.6374 42.59 23.6374C42.19 23.6374 41.878 23.7734 41.654 24.0454C41.43 24.3174 41.318 24.6974 41.318 25.1854V28.4614H39.818V24.9214C39.818 24.4734 39.742 24.1494 39.59 23.9494C39.446 23.7414 39.202 23.6374 38.858 23.6374C38.466 23.6374 38.158 23.7734 37.934 24.0454C37.71 24.3174 37.598 24.6974 37.598 25.1854V28.4614H36.098V22.5934H37.562V23.4214C37.738 23.1014 37.982 22.8614 38.294 22.7014C38.606 22.5334 38.962 22.4494 39.362 22.4494C40.25 22.4494 40.838 22.8174 41.126 23.5534C41.31 23.2094 41.574 22.9414 41.918 22.7494C42.262 22.5494 42.646 22.4494 43.07 22.4494ZM46.7745 22.5934H48.2745V28.4614H46.7745V22.5934ZM48.3465 19.8694V21.3454H46.6905V19.8694H48.3465ZM53.4294 22.4494C54.1334 22.4494 54.6574 22.6494 55.0014 23.0494C55.3454 23.4494 55.5174 24.0534 55.5174 24.8614V28.4614H54.0174V24.9454C54.0174 24.4894 53.9294 24.1574 53.7534 23.9494C53.5854 23.7414 53.3174 23.6374 52.9494 23.6374C52.5174 23.6374 52.1694 23.7734 51.9054 24.0454C51.6494 24.3174 51.5214 24.6814 51.5214 25.1374V28.4614H50.0214V22.5934H51.4854V23.4694C51.6854 23.1414 51.9534 22.8894 52.2894 22.7134C52.6254 22.5374 53.0054 22.4494 53.4294 22.4494ZM62.9529 22.5934V27.9214C62.9529 28.8414 62.6969 29.5374 62.1849 30.0094C61.6809 30.4814 60.9329 30.7174 59.9409 30.7174C59.4289 30.7174 58.9369 30.6494 58.4649 30.5134C57.9929 30.3854 57.5809 30.2014 57.2289 29.9614L57.6489 28.9054C58.3769 29.3454 59.1289 29.5654 59.9049 29.5654C60.9449 29.5654 61.4649 29.0534 61.4649 28.0294V27.2614C61.2889 27.5894 61.0329 27.8454 60.6969 28.0294C60.3609 28.2054 59.9769 28.2934 59.5449 28.2934C59.0329 28.2934 58.5769 28.1734 58.1769 27.9334C57.7849 27.6854 57.4769 27.3414 57.2529 26.9014C57.0289 26.4614 56.9169 25.9534 56.9169 25.3774C56.9169 24.8014 57.0249 24.2934 57.2409 23.8534C57.4649 23.4054 57.7769 23.0614 58.1769 22.8214C58.5769 22.5734 59.0329 22.4494 59.5449 22.4494C59.9769 22.4494 60.3609 22.5414 60.6969 22.7254C61.0329 22.9014 61.2889 23.1534 61.4649 23.4814V22.5934H62.9529ZM59.9409 27.1294C60.4209 27.1294 60.7929 26.9734 61.0569 26.6614C61.3289 26.3494 61.4649 25.9214 61.4649 25.3774C61.4649 24.8254 61.3289 24.3934 61.0569 24.0814C60.7929 23.7694 60.4209 23.6134 59.9409 23.6134C59.4689 23.6134 59.0969 23.7694 58.8249 24.0814C58.5529 24.3934 58.4169 24.8254 58.4169 25.3774C58.4169 25.9134 58.5529 26.3414 58.8249 26.6614C59.0969 26.9734 59.4689 27.1294 59.9409 27.1294ZM71.1644 28.5694C70.5164 28.5694 69.9084 28.4814 69.3404 28.3054C68.7724 28.1294 68.2924 27.8814 67.9004 27.5614L68.4164 26.4334C68.8244 26.7454 69.2524 26.9734 69.7004 27.1174C70.1564 27.2614 70.6484 27.3334 71.1764 27.3334C71.7604 27.3334 72.2084 27.2334 72.5204 27.0334C72.8404 26.8254 73.0004 26.5374 73.0004 26.1694C73.0004 25.8494 72.8524 25.6054 72.5564 25.4374C72.2684 25.2694 71.7844 25.1094 71.1044 24.9574C70.4004 24.8054 69.8284 24.6294 69.3884 24.4294C68.9484 24.2294 68.6164 23.9734 68.3924 23.6614C68.1684 23.3494 68.0564 22.9534 68.0564 22.4734C68.0564 21.9774 68.1924 21.5334 68.4644 21.1414C68.7364 20.7494 69.1204 20.4454 69.6164 20.2294C70.1124 20.0054 70.6844 19.8934 71.3324 19.8934C71.9244 19.8934 72.4884 19.9854 73.0244 20.1694C73.5604 20.3454 74.0004 20.5894 74.3444 20.9014L73.8284 22.0294C73.0764 21.4294 72.2444 21.1294 71.3324 21.1294C70.7884 21.1294 70.3564 21.2414 70.0364 21.4654C69.7244 21.6814 69.5684 21.9854 69.5684 22.3774C69.5684 22.7054 69.7084 22.9574 69.9884 23.1334C70.2684 23.3094 70.7444 23.4734 71.4164 23.6254C72.1284 23.7854 72.7044 23.9654 73.1444 24.1654C73.5924 24.3574 73.9324 24.6054 74.1644 24.9094C74.4044 25.2134 74.5244 25.5974 74.5244 26.0614C74.5244 26.5654 74.3884 27.0094 74.1164 27.3934C73.8524 27.7694 73.4644 28.0614 72.9524 28.2694C72.4484 28.4694 71.8524 28.5694 71.1644 28.5694ZM78.6927 28.5574C78.0927 28.5574 77.5647 28.4334 77.1087 28.1854C76.6607 27.9374 76.3127 27.5814 76.0647 27.1174C75.8167 26.6534 75.6927 26.1134 75.6927 25.4974C75.6927 24.8814 75.8167 24.3454 76.0647 23.8894C76.3127 23.4254 76.6607 23.0694 77.1087 22.8214C77.5647 22.5734 78.0927 22.4494 78.6927 22.4494C79.2927 22.4494 79.8167 22.5734 80.2647 22.8214C80.7207 23.0694 81.0687 23.4254 81.3087 23.8894C81.5567 24.3454 81.6807 24.8814 81.6807 25.4974C81.6807 26.1134 81.5567 26.6534 81.3087 27.1174C81.0687 27.5814 80.7207 27.9374 80.2647 28.1854C79.8167 28.4334 79.2927 28.5574 78.6927 28.5574ZM78.6807 27.3934C79.1687 27.3934 79.5407 27.2334 79.7967 26.9134C80.0527 26.5934 80.1807 26.1214 80.1807 25.4974C80.1807 24.8814 80.0527 24.4134 79.7967 24.0934C79.5407 23.7654 79.1727 23.6014 78.6927 23.6014C78.2127 23.6014 77.8407 23.7654 77.5767 24.0934C77.3207 24.4134 77.1927 24.8814 77.1927 25.4974C77.1927 26.1214 77.3207 26.5934 77.5767 26.9134C77.8327 27.2334 78.2007 27.3934 78.6807 27.3934ZM85.7951 28.5574C85.1951 28.5574 84.6671 28.4334 84.2111 28.1854C83.7631 27.9374 83.4151 27.5814 83.1671 27.1174C82.9191 26.6534 82.7951 26.1134 82.7951 25.4974C82.7951 24.8814 82.9191 24.3454 83.1671 23.8894C83.4151 23.4254 83.7631 23.0694 84.2111 22.8214C84.6671 22.5734 85.1951 22.4494 85.7951 22.4494C86.3951 22.4494 86.9191 22.5734 87.3671 22.8214C87.8231 23.0694 88.1711 23.4254 88.4111 23.8894C88.6591 24.3454 88.7831 24.8814 88.7831 25.4974C88.7831 26.1134 88.6591 26.6534 88.4111 27.1174C88.1711 27.5814 87.8231 27.9374 87.3671 28.1854C86.9191 28.4334 86.3951 28.5574 85.7951 28.5574ZM85.7831 27.3934C86.2711 27.3934 86.6431 27.2334 86.8991 26.9134C87.1551 26.5934 87.2831 26.1214 87.2831 25.4974C87.2831 24.8814 87.1551 24.4134 86.8991 24.0934C86.6431 23.7654 86.2751 23.6014 85.7951 23.6014C85.3151 23.6014 84.9431 23.7654 84.6791 24.0934C84.4231 24.4134 84.2951 24.8814 84.2951 25.4974C84.2951 26.1214 84.4231 26.5934 84.6791 26.9134C84.9351 27.2334 85.3031 27.3934 85.7831 27.3934ZM93.6294 22.4494C94.3334 22.4494 94.8574 22.6494 95.2014 23.0494C95.5454 23.4494 95.7174 24.0534 95.7174 24.8614V28.4614H94.2174V24.9454C94.2174 24.4894 94.1294 24.1574 93.9534 23.9494C93.7854 23.7414 93.5174 23.6374 93.1494 23.6374C92.7174 23.6374 92.3694 23.7734 92.1054 24.0454C91.8494 24.3174 91.7214 24.6814 91.7214 25.1374V28.4614H90.2214V22.5934H91.6854V23.4694C91.8854 23.1414 92.1534 22.8894 92.4894 22.7134C92.8254 22.5374 93.2054 22.4494 93.6294 22.4494Z" fill="#95AFD1"/>
</svg>
