<svg width="120" height="56" viewBox="0 0 120 56" fill="none" xmlns="http://www.w3.org/2000/svg">
<g filter="url(#filter0_d)">
<path fill-rule="evenodd" clip-rule="evenodd" d="M11.9556 39.5C11.9556 45.0228 16.4327 49.5 21.9556 49.5H119.456V16H21.9556C16.4327 16 11.9556 20.4772 11.9556 26V39.5Z" fill="white"/>
</g>
<path d="M35.252 37.108C34.42 37.108 33.692 36.932 33.068 36.58C32.452 36.22 31.976 35.712 31.64 35.056C31.312 34.4 31.148 33.636 31.148 32.764C31.148 31.892 31.312 31.132 31.64 30.484C31.976 29.828 32.452 29.324 33.068 28.972C33.692 28.612 34.42 28.432 35.252 28.432C35.82 28.432 36.356 28.52 36.86 28.696C37.364 28.872 37.788 29.12 38.132 29.44L37.616 30.568C37.232 30.264 36.852 30.044 36.476 29.908C36.1 29.764 35.7 29.692 35.276 29.692C34.46 29.692 33.828 29.956 33.38 30.484C32.94 31.012 32.72 31.772 32.72 32.764C32.72 33.764 32.94 34.528 33.38 35.056C33.828 35.584 34.46 35.848 35.276 35.848C35.7 35.848 36.1 35.78 36.476 35.644C36.852 35.5 37.232 35.276 37.616 34.972L38.132 36.1C37.788 36.42 37.364 36.668 36.86 36.844C36.356 37.02 35.82 37.108 35.252 37.108ZM42.1716 37.096C41.5716 37.096 41.0436 36.972 40.5876 36.724C40.1396 36.476 39.7916 36.12 39.5436 35.656C39.2956 35.192 39.1716 34.652 39.1716 34.036C39.1716 33.42 39.2956 32.884 39.5436 32.428C39.7916 31.964 40.1396 31.608 40.5876 31.36C41.0436 31.112 41.5716 30.988 42.1716 30.988C42.7716 30.988 43.2956 31.112 43.7436 31.36C44.1996 31.608 44.5476 31.964 44.7876 32.428C45.0356 32.884 45.1596 33.42 45.1596 34.036C45.1596 34.652 45.0356 35.192 44.7876 35.656C44.5476 36.12 44.1996 36.476 43.7436 36.724C43.2956 36.972 42.7716 37.096 42.1716 37.096ZM42.1596 35.932C42.6476 35.932 43.0196 35.772 43.2756 35.452C43.5316 35.132 43.6596 34.66 43.6596 34.036C43.6596 33.42 43.5316 32.952 43.2756 32.632C43.0196 32.304 42.6516 32.14 42.1716 32.14C41.6916 32.14 41.3196 32.304 41.0556 32.632C40.7996 32.952 40.6716 33.42 40.6716 34.036C40.6716 34.66 40.7996 35.132 41.0556 35.452C41.3116 35.772 41.6796 35.932 42.1596 35.932ZM53.57 30.988C54.234 30.988 54.73 31.188 55.058 31.588C55.386 31.98 55.55 32.584 55.55 33.4V37H54.05V33.46C54.05 33.012 53.974 32.688 53.822 32.488C53.67 32.28 53.426 32.176 53.09 32.176C52.69 32.176 52.378 32.312 52.154 32.584C51.93 32.856 51.818 33.236 51.818 33.724V37H50.318V33.46C50.318 33.012 50.242 32.688 50.09 32.488C49.946 32.28 49.702 32.176 49.358 32.176C48.966 32.176 48.658 32.312 48.434 32.584C48.21 32.856 48.098 33.236 48.098 33.724V37H46.598V31.132H48.062V31.96C48.238 31.64 48.482 31.4 48.794 31.24C49.106 31.072 49.462 30.988 49.862 30.988C50.75 30.988 51.338 31.356 51.626 32.092C51.81 31.748 52.074 31.48 52.418 31.288C52.762 31.088 53.146 30.988 53.57 30.988ZM57.2745 37V31.132H58.7745V37H57.2745ZM57.1905 28.408H58.8465V29.884H57.1905V28.408ZM63.9294 30.988C64.6334 30.988 65.1574 31.188 65.5014 31.588C65.8454 31.988 66.0174 32.592 66.0174 33.4V37H64.5174V33.484C64.5174 33.028 64.4294 32.696 64.2534 32.488C64.0854 32.28 63.8174 32.176 63.4494 32.176C63.0174 32.176 62.6694 32.312 62.4054 32.584C62.1494 32.856 62.0214 33.22 62.0214 33.676V37H60.5214V31.132H61.9854V32.008C62.1854 31.68 62.4534 31.428 62.7894 31.252C63.1254 31.076 63.5054 30.988 63.9294 30.988ZM73.4529 31.132V36.46C73.4529 37.38 73.1969 38.076 72.6849 38.548C72.1809 39.02 71.4329 39.256 70.4409 39.256C69.9289 39.256 69.4369 39.188 68.9649 39.052C68.4929 38.924 68.0809 38.74 67.7289 38.5L68.1489 37.444C68.8769 37.884 69.6289 38.104 70.4049 38.104C71.4449 38.104 71.9649 37.592 71.9649 36.568V35.8C71.7889 36.128 71.5329 36.384 71.1969 36.568C70.8609 36.744 70.4769 36.832 70.0449 36.832C69.5329 36.832 69.0769 36.712 68.6769 36.472C68.2849 36.224 67.9769 35.88 67.7529 35.44C67.5289 35 67.4169 34.492 67.4169 33.916C67.4169 33.34 67.5249 32.832 67.7409 32.392C67.9649 31.944 68.2769 31.6 68.6769 31.36C69.0769 31.112 69.5329 30.988 70.0449 30.988C70.4769 30.988 70.8609 31.08 71.1969 31.264C71.5329 31.44 71.7889 31.692 71.9649 32.02V31.132H73.4529ZM70.4409 35.668C70.9209 35.668 71.2929 35.512 71.5569 35.2C71.8289 34.888 71.9649 34.46 71.9649 33.916C71.9649 33.364 71.8289 32.932 71.5569 32.62C71.2929 32.308 70.9209 32.152 70.4409 32.152C69.9689 32.152 69.5969 32.308 69.3249 32.62C69.0529 32.932 68.9169 33.364 68.9169 33.916C68.9169 34.452 69.0529 34.88 69.3249 35.2C69.5969 35.512 69.9689 35.668 70.4409 35.668ZM81.6644 37.108C81.0164 37.108 80.4084 37.02 79.8404 36.844C79.2724 36.668 78.7924 36.42 78.4004 36.1L78.9164 34.972C79.3244 35.284 79.7524 35.512 80.2004 35.656C80.6564 35.8 81.1484 35.872 81.6764 35.872C82.2604 35.872 82.7084 35.772 83.0204 35.572C83.3404 35.364 83.5004 35.076 83.5004 34.708C83.5004 34.388 83.3524 34.144 83.0564 33.976C82.7684 33.808 82.2844 33.648 81.6044 33.496C80.9004 33.344 80.3284 33.168 79.8884 32.968C79.4484 32.768 79.1164 32.512 78.8924 32.2C78.6684 31.888 78.5564 31.492 78.5564 31.012C78.5564 30.516 78.6924 30.072 78.9644 29.68C79.2364 29.288 79.6204 28.984 80.1164 28.768C80.6124 28.544 81.1844 28.432 81.8324 28.432C82.4244 28.432 82.9884 28.524 83.5244 28.708C84.0604 28.884 84.5004 29.128 84.8444 29.44L84.3284 30.568C83.5764 29.968 82.7444 29.668 81.8324 29.668C81.2884 29.668 80.8564 29.78 80.5364 30.004C80.2244 30.22 80.0684 30.524 80.0684 30.916C80.0684 31.244 80.2084 31.496 80.4884 31.672C80.7684 31.848 81.2444 32.012 81.9164 32.164C82.6284 32.324 83.2044 32.504 83.6444 32.704C84.0924 32.896 84.4324 33.144 84.6644 33.448C84.9044 33.752 85.0244 34.136 85.0244 34.6C85.0244 35.104 84.8884 35.548 84.6164 35.932C84.3524 36.308 83.9644 36.6 83.4524 36.808C82.9484 37.008 82.3524 37.108 81.6644 37.108ZM89.1927 37.096C88.5927 37.096 88.0647 36.972 87.6087 36.724C87.1607 36.476 86.8127 36.12 86.5647 35.656C86.3167 35.192 86.1927 34.652 86.1927 34.036C86.1927 33.42 86.3167 32.884 86.5647 32.428C86.8127 31.964 87.1607 31.608 87.6087 31.36C88.0647 31.112 88.5927 30.988 89.1927 30.988C89.7927 30.988 90.3167 31.112 90.7647 31.36C91.2207 31.608 91.5687 31.964 91.8087 32.428C92.0567 32.884 92.1807 33.42 92.1807 34.036C92.1807 34.652 92.0567 35.192 91.8087 35.656C91.5687 36.12 91.2207 36.476 90.7647 36.724C90.3167 36.972 89.7927 37.096 89.1927 37.096ZM89.1807 35.932C89.6687 35.932 90.0407 35.772 90.2967 35.452C90.5527 35.132 90.6807 34.66 90.6807 34.036C90.6807 33.42 90.5527 32.952 90.2967 32.632C90.0407 32.304 89.6727 32.14 89.1927 32.14C88.7127 32.14 88.3407 32.304 88.0767 32.632C87.8207 32.952 87.6927 33.42 87.6927 34.036C87.6927 34.66 87.8207 35.132 88.0767 35.452C88.3327 35.772 88.7007 35.932 89.1807 35.932ZM96.2951 37.096C95.6951 37.096 95.1671 36.972 94.7111 36.724C94.2631 36.476 93.9151 36.12 93.6671 35.656C93.4191 35.192 93.2951 34.652 93.2951 34.036C93.2951 33.42 93.4191 32.884 93.6671 32.428C93.9151 31.964 94.2631 31.608 94.7111 31.36C95.1671 31.112 95.6951 30.988 96.2951 30.988C96.8951 30.988 97.4191 31.112 97.8671 31.36C98.3231 31.608 98.6711 31.964 98.9111 32.428C99.1591 32.884 99.2831 33.42 99.2831 34.036C99.2831 34.652 99.1591 35.192 98.9111 35.656C98.6711 36.12 98.3231 36.476 97.8671 36.724C97.4191 36.972 96.8951 37.096 96.2951 37.096ZM96.2831 35.932C96.7711 35.932 97.1431 35.772 97.3991 35.452C97.6551 35.132 97.7831 34.66 97.7831 34.036C97.7831 33.42 97.6551 32.952 97.3991 32.632C97.1431 32.304 96.7751 32.14 96.2951 32.14C95.8151 32.14 95.4431 32.304 95.1791 32.632C94.9231 32.952 94.7951 33.42 94.7951 34.036C94.7951 34.66 94.9231 35.132 95.1791 35.452C95.4351 35.772 95.8031 35.932 96.2831 35.932ZM104.129 30.988C104.833 30.988 105.357 31.188 105.701 31.588C106.045 31.988 106.217 32.592 106.217 33.4V37H104.717V33.484C104.717 33.028 104.629 32.696 104.453 32.488C104.285 32.28 104.017 32.176 103.649 32.176C103.217 32.176 102.869 32.312 102.605 32.584C102.349 32.856 102.221 33.22 102.221 33.676V37H100.721V31.132H102.185V32.008C102.385 31.68 102.653 31.428 102.989 31.252C103.325 31.076 103.705 30.988 104.129 30.988Z" fill="#95AFD1"/>
<defs>
<filter id="filter0_d" x="0.955566" y="0" width="129.5" height="55.5" filterUnits="userSpaceOnUse" color-interpolation-filters="sRGB">
<feFlood flood-opacity="0" result="BackgroundImageFix"/>
<feColorMatrix in="SourceAlpha" type="matrix" values="0 0 0 0 0 0 0 0 0 0 0 0 0 0 0 0 0 0 127 0"/>
<feOffset dy="-5"/>
<feGaussianBlur stdDeviation="5.5"/>
<feColorMatrix type="matrix" values="0 0 0 0 0.583005 0 0 0 0 0.685323 0 0 0 0 0.816463 0 0 0 0.3 0"/>
<feBlend mode="normal" in2="BackgroundImageFix" result="effect1_dropShadow"/>
<feBlend mode="normal" in="SourceGraphic" in2="effect1_dropShadow" result="shape"/>
</filter>
</defs>
</svg>
