<svg width="181" height="181" viewBox="0 0 181 181" fill="none" xmlns="http://www.w3.org/2000/svg">
<rect opacity="0.4" x="1.46481" y="90.7416" width="126.256" height="126.256" rx="46.2503" transform="rotate(-45 1.46481 90.7416)" stroke="#FF9491" stroke-width="1.12"/>
<rect x="26.4068" y="90.7416" width="90.9831" height="90.9831" rx="32.7672" transform="rotate(-45 26.4068 90.7416)" fill="url(#paint0_linear)"/>
<rect opacity="0.6" x="52" y="80.5413" width="14.8233" height="6.15666" rx="3.07833" fill="white"/>
<path opacity="0.6" fill-rule="evenodd" clip-rule="evenodd" d="M114.048 109.751C114.048 108.051 115.426 106.672 117.126 106.672H125.793C127.493 106.672 128.871 108.051 128.871 109.751C128.871 111.451 127.493 112.829 125.793 112.829H117.126C115.426 112.829 114.048 111.451 114.048 109.751Z" fill="white"/>
<rect opacity="0.3" x="54.3405" y="95.4267" width="7.80172" height="6.15666" rx="3.07833" fill="#BA2841"/>
<rect opacity="0.3" x="104.846" y="65" width="13.653" height="6.15666" rx="3.07833" fill="#BA2841"/>
<path fill-rule="evenodd" clip-rule="evenodd" d="M84.3605 73.9223C83.6853 73.9223 83.1379 74.4697 83.1379 75.145V84.8338C83.125 84.8387 83.1121 84.8435 83.0993 84.8484C74.9684 87.938 69.19 95.8031 69.19 105.018C69.19 116.93 78.8468 126.587 90.759 126.587C102.671 126.587 112.328 116.93 112.328 105.018C112.328 95.7989 106.544 87.9308 98.4076 84.8442C98.3984 84.8407 98.3893 84.8373 98.3802 84.8338V75.145C98.3802 74.4697 97.8328 73.9223 97.1575 73.9223H84.3605Z" fill="url(#paint1_linear)"/>
<path fill-rule="evenodd" clip-rule="evenodd" d="M89.5281 98.9728C90.8497 98.9728 91.9212 97.9014 91.9212 96.5797C91.9212 95.2581 90.8497 94.1866 89.5281 94.1866C88.2064 94.1866 87.135 95.2581 87.135 96.5797C87.135 97.9014 88.2064 98.9728 89.5281 98.9728Z" fill="#F89764"/>
<path fill-rule="evenodd" clip-rule="evenodd" d="M86.7435 71.0311C88.0652 71.0311 89.1366 69.9596 89.1366 68.638C89.1366 67.3163 88.0652 66.2449 86.7435 66.2449C85.4219 66.2449 84.3504 67.3163 84.3504 68.638C84.3504 69.9596 85.4219 71.0311 86.7435 71.0311Z" fill="white"/>
<path fill-rule="evenodd" clip-rule="evenodd" d="M87.1014 58.1754C87.9455 58.1754 88.6297 57.4912 88.6297 56.6471C88.6297 55.803 87.9455 55.1188 87.1014 55.1188C86.2573 55.1188 85.5731 55.803 85.5731 56.6471C85.5731 57.4912 86.2573 58.1754 87.1014 58.1754Z" fill="white"/>
<path fill-rule="evenodd" clip-rule="evenodd" d="M87.6675 79.6022C88.3139 79.6022 88.8379 79.0782 88.8379 78.4318C88.8379 77.7854 88.3139 77.2614 87.6675 77.2614C87.021 77.2614 86.497 77.7854 86.497 78.4318C86.497 79.0782 87.021 79.6022 87.6675 79.6022Z" fill="#F89764"/>
<path fill-rule="evenodd" clip-rule="evenodd" d="M93.4681 63.0839C94.1145 63.0839 94.6386 62.5598 94.6386 61.9134C94.6386 61.267 94.1145 60.743 93.4681 60.743C92.8217 60.743 92.2977 61.267 92.2977 61.9134C92.2977 62.5598 92.8217 63.0839 93.4681 63.0839Z" fill="white"/>
<path fill-rule="evenodd" clip-rule="evenodd" d="M86.9773 93.7501C87.6525 93.7501 88.1999 93.2027 88.1999 92.5275C88.1999 91.8522 87.6525 91.3048 86.9773 91.3048C86.302 91.3048 85.7546 91.8522 85.7546 92.5275C85.7546 93.2027 86.302 93.7501 86.9773 93.7501Z" fill="#F89764"/>
<path fill-rule="evenodd" clip-rule="evenodd" d="M90.759 124.884C101.731 124.884 110.625 115.989 110.625 105.018C110.625 99.307 103.597 108.642 99.7393 105.018C95.8811 101.394 96.0197 105.018 90.759 105.018C85.4984 105.018 83.1926 99.0807 78.932 102.724C74.6713 106.368 70.8933 98.9722 70.8933 105.018C70.8933 115.989 79.7875 124.884 90.759 124.884Z" fill="#F89764"/>
<mask id="mask0" mask-type="alpha" maskUnits="userSpaceOnUse" x="70" y="101" width="41" height="24">
<path fill-rule="evenodd" clip-rule="evenodd" d="M90.759 124.884C101.731 124.884 110.625 115.989 110.625 105.018C110.625 99.307 103.597 108.642 99.7393 105.018C95.8811 101.394 96.0197 105.018 90.759 105.018C85.4984 105.018 83.1926 99.0807 78.932 102.724C74.6713 106.368 70.8933 98.9722 70.8933 105.018C70.8933 115.989 79.7875 124.884 90.759 124.884Z" fill="white"/>
</mask>
<g mask="url(#mask0)">
<path fill-rule="evenodd" clip-rule="evenodd" d="M94.427 126.106C105.399 126.106 114.293 113.544 114.293 102.573C114.293 96.8617 107.265 106.196 103.407 102.573C99.5491 98.9487 99.6877 102.573 94.427 102.573C89.1663 102.573 86.8606 96.6354 82.5999 100.279C78.3393 103.923 74.5613 100.195 74.5613 106.24C74.5613 117.212 83.4555 126.106 94.427 126.106Z" fill="#FFB28A"/>
<path fill-rule="evenodd" clip-rule="evenodd" d="M98.9104 112.751C99.5568 112.751 100.081 112.227 100.081 111.581C100.081 110.934 99.5568 110.41 98.9104 110.41C98.264 110.41 97.74 110.934 97.74 111.581C97.74 112.227 98.264 112.751 98.9104 112.751Z" fill="#F89764"/>
<path fill-rule="evenodd" clip-rule="evenodd" d="M96.2087 118.109C97.408 118.109 98.3802 117.136 98.3802 115.937C98.3802 114.738 97.408 113.766 96.2087 113.766C95.0095 113.766 94.0373 114.738 94.0373 115.937C94.0373 117.136 95.0095 118.109 96.2087 118.109Z" fill="#F89764"/>
</g>
<defs>
<linearGradient id="paint0_linear" x1="12.5971" y1="181.725" x2="103.58" y2="209.344" gradientUnits="userSpaceOnUse">
<stop stop-color="#FF7697"/>
<stop offset="1" stop-color="#FFCC84"/>
</linearGradient>
<linearGradient id="paint1_linear" x1="74.0662" y1="123.874" x2="113.536" y2="115.726" gradientUnits="userSpaceOnUse">
<stop stop-color="white" stop-opacity="0.72353"/>
<stop offset="1" stop-color="white"/>
</linearGradient>
</defs>
</svg>
