<svg width="181" height="181" viewBox="0 0 181 181" fill="none" xmlns="http://www.w3.org/2000/svg">
<rect opacity="0.4" x="1.29072" y="90.7416" width="126.503" height="126.503" rx="46.3734" transform="rotate(-45 1.29072 90.7416)" stroke="#64B6FF" stroke-width="0.873793"/>
<rect x="26.4067" y="90.7416" width="90.9831" height="90.9831" rx="32.7672" transform="rotate(-45 26.4067 90.7416)" fill="url(#paint0_linear)"/>
<path fill-rule="evenodd" clip-rule="evenodd" d="M61.7416 76.7006H119.742V104.782C119.742 109.201 116.16 112.782 111.742 112.782H69.7416C65.3233 112.782 61.7416 109.201 61.7416 104.782V76.7006Z" fill="url(#paint1_linear)"/>
<path opacity="0.4" d="M71.7416 74.6532V112.782" stroke="#62BEFA"/>
<path opacity="0.4" d="M90.7416 74.6532V112.782" stroke="#62BEFA"/>
<path opacity="0.4" d="M109.742 74.6532V112.782" stroke="#62BEFA"/>
<path fill-rule="evenodd" clip-rule="evenodd" d="M61.7416 76.7006C61.7416 72.2823 65.3233 68.7006 69.7416 68.7006H111.742C116.16 68.7006 119.742 72.2823 119.742 76.7006V76.7824H61.7416V76.7006Z" fill="url(#paint2_linear)"/>
<rect opacity="0.6" x="50" y="77.5" width="14.8233" height="6.15666" rx="3.07833" fill="white"/>
<rect opacity="0.3" x="51.5" y="98.5" width="7.80172" height="6.15666" rx="3.07833" fill="#2A74A9"/>
<rect opacity="0.3" x="103.5" y="59" width="13.653" height="6.15666" rx="3.07833" fill="#2A74A9"/>
<path fill-rule="evenodd" clip-rule="evenodd" d="M68.2333 74.475C68.966 74.475 69.5599 73.8811 69.5599 73.1484C69.5599 72.4158 68.966 71.8218 68.2333 71.8218C67.5007 71.8218 66.9067 72.4158 66.9067 73.1484C66.9067 73.8811 67.5007 74.475 68.2333 74.475Z" fill="white"/>
<path fill-rule="evenodd" clip-rule="evenodd" d="M73.2333 74.475C73.966 74.475 74.5599 73.8811 74.5599 73.1484C74.5599 72.4158 73.966 71.8218 73.2333 71.8218C72.5007 71.8218 71.9067 72.4158 71.9067 73.1484C71.9067 73.8811 72.5007 74.475 73.2333 74.475Z" fill="white"/>
<path fill-rule="evenodd" clip-rule="evenodd" d="M78.2333 74.475C78.966 74.475 79.5599 73.8811 79.5599 73.1484C79.5599 72.4158 78.966 71.8218 78.2333 71.8218C77.5007 71.8218 76.9067 72.4158 76.9067 73.1484C76.9067 73.8811 77.5007 74.475 78.2333 74.475Z" fill="white"/>
<path opacity="0.4" d="M61.7416 83.8539H119.742" stroke="#62BEFA"/>
<path opacity="0.4" d="M61.7416 90.9611H119.742" stroke="#62BEFA"/>
<path opacity="0.4" d="M61.7416 105.175H119.742" stroke="#62BEFA"/>
<path opacity="0.4" d="M61.7416 98.0682H119.742" stroke="#62BEFA"/>
<rect x="99" y="95" width="22.4116" height="22.4116" rx="4" fill="url(#paint3_linear)"/>
<path opacity="0.6" fill-rule="evenodd" clip-rule="evenodd" d="M91 118.078C91 116.378 92.3782 115 94.0783 115H102.745C104.445 115 105.823 116.378 105.823 118.078C105.823 119.778 104.445 121.157 102.745 121.157H94.0783C92.3782 121.157 91 119.778 91 118.078Z" fill="white"/>
<path opacity="0.7" d="M105.5 103.578V111.046" stroke="white" stroke-width="2" stroke-linecap="round" stroke-linejoin="round"/>
<path opacity="0.7" d="M110.5 101.578V111.046" stroke="white" stroke-width="2" stroke-linecap="round" stroke-linejoin="round"/>
<path opacity="0.7" d="M115.5 107.578V111.046" stroke="white" stroke-width="2" stroke-linecap="round" stroke-linejoin="round"/>
<defs>
<linearGradient id="paint0_linear" x1="111.632" y1="170.208" x2="111.632" y2="90.7416" gradientUnits="userSpaceOnUse">
<stop stop-color="#64B7FF"/>
<stop offset="1" stop-color="#84FFED"/>
</linearGradient>
<linearGradient id="paint1_linear" x1="68.2977" y1="110.924" x2="115.826" y2="91.6681" gradientUnits="userSpaceOnUse">
<stop stop-color="white" stop-opacity="0.72353"/>
<stop offset="1" stop-color="white"/>
</linearGradient>
<linearGradient id="paint2_linear" x1="-17.9984" y1="76.2556" x2="-15.0096" y2="108.911" gradientUnits="userSpaceOnUse">
<stop stop-color="#64B7FF"/>
<stop offset="1" stop-color="#82F9EF"/>
</linearGradient>
<linearGradient id="paint3_linear" x1="81.194" y1="110.921" x2="113.037" y2="148.702" gradientUnits="userSpaceOnUse">
<stop stop-color="#64B7FF"/>
<stop offset="1" stop-color="#82F9EF"/>
</linearGradient>
</defs>
</svg>
