<svg width="375" height="572" viewBox="0 0 375 572" fill="none" xmlns="http://www.w3.org/2000/svg">
<path opacity="0.1" fill-rule="evenodd" clip-rule="evenodd" d="M186.607 545.723C261.723 545.723 322.616 539.231 322.616 531.223C322.616 523.215 261.723 516.723 186.607 516.723C111.491 516.723 50.5976 523.215 50.5976 531.223C50.5976 539.231 111.491 545.723 186.607 545.723Z" fill="#495180"/>
<path d="M141.731 324.995L122.892 368.729C119.238 377.21 117.058 386.096 116.445 395.007L112.764 448.47" stroke="url(#paint0_linear)" stroke-width="24.9984" stroke-linecap="round" stroke-linejoin="round"/>
<path d="M139.828 323.706L132.275 351.673" stroke="#81A6FF" stroke-width="41.1264" stroke-linecap="round" stroke-linejoin="round"/>
<path fill-rule="evenodd" clip-rule="evenodd" d="M137.667 399.946C133.869 394.214 87.2735 394.795 81.9655 400.24C71.0576 411.429 68.6018 535.959 74.3279 536.48C97.4581 538.585 144.172 545.078 154.338 532.507C158.71 527.101 152.516 512.689 153.937 510.277C162.254 496.166 145.064 411.11 137.667 399.946Z" fill="url(#paint1_linear)"/>
<mask id="mask0" mask-type="alpha" maskUnits="userSpaceOnUse" x="71" y="395" width="86" height="146">
<path fill-rule="evenodd" clip-rule="evenodd" d="M137.667 399.946C133.869 394.214 87.2735 394.795 81.9655 400.24C71.0576 411.429 68.6018 535.959 74.3279 536.48C97.4581 538.585 144.172 545.078 154.338 532.507C158.71 527.101 152.516 512.689 153.937 510.277C162.254 496.166 145.064 411.11 137.667 399.946Z" fill="white"/>
</mask>
<g mask="url(#mask0)">
<path opacity="0.2" fill-rule="evenodd" clip-rule="evenodd" d="M135.97 395.589C135.97 395.589 163.546 497.442 115.369 562.576L152.124 582.746L202.437 528.555L165.939 398.379L135.97 395.589Z" fill="white"/>
<path opacity="0.5" fill-rule="evenodd" clip-rule="evenodd" d="M159.309 507.172C159.309 507.172 109.581 529.045 67.4267 521.164L84.0283 569.191L186.371 537.825L159.309 507.172Z" fill="#4832A6"/>
</g>
<rect width="58.4294" height="54.18" rx="23.1336" transform="matrix(0.65606 0.754709 -0.75471 0.656058 266.024 348.992)" fill="#4832A6"/>
<path d="M254.767 205.131C254.767 205.131 275.431 242.723 281.731 295.223" stroke="url(#paint2_linear)" stroke-width="31.248" stroke-linecap="round" stroke-linejoin="round"/>
<path fill-rule="evenodd" clip-rule="evenodd" d="M303.74 256.261C297.017 242.024 265.294 247.734 248.903 275.096C248.903 275.096 225.984 370.614 231.318 376.808C236.652 383.002 285.423 390.278 301.286 376.631C317.149 362.983 310.463 270.499 303.74 256.261Z" fill="url(#paint3_linear)"/>
<mask id="mask1" mask-type="alpha" maskUnits="userSpaceOnUse" x="230" y="248" width="82" height="137">
<path fill-rule="evenodd" clip-rule="evenodd" d="M303.74 256.261C297.017 242.024 265.294 247.734 248.903 275.096C248.903 275.096 225.984 370.614 231.318 376.808C236.652 383.002 285.423 390.278 301.286 376.631C317.149 362.983 310.463 270.499 303.74 256.261Z" fill="white"/>
</mask>
<g mask="url(#mask1)">
<path opacity="0.1" fill-rule="evenodd" clip-rule="evenodd" d="M282.66 231.09C282.66 231.09 299.59 324.957 245.37 392.86L331.655 390.83L331.06 264.717L282.66 231.09Z" fill="#273199"/>
</g>
<path d="M232.031 317.995L213.192 361.729C209.538 370.21 207.358 379.096 206.745 388.007L203.064 441.47" stroke="url(#paint4_linear)" stroke-width="24.9984" stroke-linecap="round" stroke-linejoin="round"/>
<path d="M230.129 316.706L222.575 344.673" stroke="#81A6FF" stroke-width="41.1264" stroke-linecap="round" stroke-linejoin="round"/>
<path fill-rule="evenodd" clip-rule="evenodd" d="M227.967 392.946C224.169 387.214 177.574 387.795 172.266 393.24C161.358 404.429 158.902 528.959 164.628 529.48C187.758 531.585 234.472 538.078 244.638 525.507C249.01 520.101 242.816 505.689 244.237 503.277C252.554 489.166 235.364 404.11 227.967 392.946Z" fill="url(#paint5_linear)"/>
<mask id="mask2" mask-type="alpha" maskUnits="userSpaceOnUse" x="161" y="388" width="86" height="146">
<path fill-rule="evenodd" clip-rule="evenodd" d="M227.967 392.946C224.169 387.214 177.574 387.795 172.266 393.24C161.358 404.429 158.902 528.959 164.628 529.48C187.758 531.585 234.472 538.078 244.638 525.507C249.01 520.101 242.816 505.689 244.237 503.277C252.554 489.166 235.364 404.11 227.967 392.946Z" fill="white"/>
</mask>
<g mask="url(#mask2)">
<path opacity="0.2" fill-rule="evenodd" clip-rule="evenodd" d="M226.27 388.589C226.27 388.589 253.846 490.442 205.669 555.576L242.424 575.746L292.737 521.555L256.238 391.379L226.27 388.589Z" fill="white"/>
<path opacity="0.5" fill-rule="evenodd" clip-rule="evenodd" d="M249.609 500.172C249.609 500.172 199.881 522.045 157.727 514.164L174.328 562.191L276.671 530.825L249.609 500.172Z" fill="#4832A6"/>
</g>
<path fill-rule="evenodd" clip-rule="evenodd" d="M212.205 111.98C217.099 111.436 220.87 107.636 221.171 102.942L224.469 51.4843L220.746 50.1193L201.396 98.7825C198.673 105.63 204.569 112.829 212.205 111.98Z" fill="#43A4E0"/>
<path fill-rule="evenodd" clip-rule="evenodd" d="M220.44 53.4645C224.356 54.931 228.803 52.8619 230.372 48.8432C231.941 44.8244 230.039 40.3777 226.123 38.9112C222.207 37.4447 217.761 39.5137 216.191 43.5325C214.622 47.5513 216.524 51.998 220.44 53.4645Z" fill="#58BBF8"/>
<path fill-rule="evenodd" clip-rule="evenodd" d="M76.0171 114.847C78.7778 92.5134 99.0451 76.6096 121.95 78.8037L190.27 85.348C213.175 87.5421 230.558 107.052 229.665 129.565L228.261 164.984C227.315 188.834 206.315 206.764 182.05 204.44L110.791 197.614C86.5252 195.29 68.7491 173.645 71.6737 149.985L76.0171 114.847Z" fill="url(#paint6_linear)"/>
<mask id="mask3" mask-type="alpha" maskUnits="userSpaceOnUse" x="71" y="78" width="159" height="127">
<path fill-rule="evenodd" clip-rule="evenodd" d="M76.0171 114.847C78.7778 92.5134 99.0451 76.6096 121.95 78.8037L190.27 85.348C213.175 87.5421 230.558 107.052 229.665 129.565L228.261 164.984C227.315 188.834 206.315 206.764 182.05 204.44L110.791 197.614C86.5252 195.29 68.7491 173.645 71.6737 149.985L76.0171 114.847Z" fill="white"/>
</mask>
<g mask="url(#mask3)">
<path opacity="0.2" fill-rule="evenodd" clip-rule="evenodd" d="M134.107 74.039C132.244 65.9685 138.417 58.4043 146.818 58.4645L182.912 58.7235C189.457 58.7704 195.061 63.5236 196.074 69.8862L200.616 98.4136C201.934 106.696 195.04 113.872 186.548 113.058L151.786 109.725C146.041 109.174 141.259 105.029 139.981 99.4922L134.107 74.039Z" fill="#525DD0"/>
<path opacity="0.5" fill-rule="evenodd" clip-rule="evenodd" d="M149.268 102.664C150.745 102.804 152.04 101.737 152.159 100.281C152.279 98.8245 151.179 97.5299 149.701 97.3894C148.224 97.249 146.93 98.3158 146.81 99.7722C146.69 101.229 147.791 102.523 149.268 102.664Z" fill="white"/>
<path opacity="0.5" fill-rule="evenodd" clip-rule="evenodd" d="M191.637 107.117C193.114 107.257 194.409 106.191 194.529 104.734C194.648 103.278 193.548 101.983 192.071 101.843C190.593 101.702 189.299 102.769 189.179 104.225C189.059 105.682 190.16 106.976 191.637 107.117Z" fill="white"/>
<path opacity="0.33" fill-rule="evenodd" clip-rule="evenodd" d="M233.478 180.152C233.478 180.152 192.718 171.521 156.717 176.338C120.717 181.154 87.6836 203.931 87.6836 203.931C87.6836 203.931 138.734 218.894 141.902 218.866C145.069 218.838 180.436 214.027 186.771 213.971C193.106 213.914 233.478 180.152 233.478 180.152Z" fill="#273199"/>
</g>
<path fill-rule="evenodd" clip-rule="evenodd" d="M87.2263 136.694C91.074 137.149 94.4488 134.512 94.764 130.804C95.0793 127.096 92.2157 123.722 88.368 123.266C84.5203 122.811 81.1455 125.448 80.8302 129.156C80.515 132.864 83.3786 136.239 87.2263 136.694Z" fill="white"/>
<path d="M61.2939 163.673C62.6481 155.134 70.8264 149.543 79.5607 151.185L107.872 156.508C116.606 158.15 122.589 166.404 121.235 174.943L119.448 186.214C117.465 198.718 105.489 206.905 92.6997 204.5L87.5457 203.531C70.0771 200.247 58.1116 183.739 60.82 166.661L61.2939 163.673Z" fill="url(#paint7_linear)"/>
<path fill-rule="evenodd" clip-rule="evenodd" d="M111.708 94.5798C116.603 94.0358 120.373 90.2353 120.674 85.542L123.973 34.084L120.25 32.719L100.9 81.3822C98.1769 88.2296 104.073 95.4285 111.708 94.5798Z" fill="#6A5FEB"/>
<path fill-rule="evenodd" clip-rule="evenodd" d="M119.944 36.0642C123.86 37.5307 128.306 35.4617 129.876 31.4429C131.445 27.4241 129.543 22.9774 125.627 21.5109C121.711 20.0444 117.264 22.1134 115.695 26.1322C114.125 30.151 116.028 34.5977 119.944 36.0642Z" fill="#58BBF8"/>
<path fill-rule="evenodd" clip-rule="evenodd" d="M68.2314 203.831C81.4685 184.229 254.185 176.855 268.059 195.3C281.932 213.744 263.084 318.602 243.377 334.164C223.67 349.726 118.762 357.502 96.5527 337.098C74.3439 316.693 54.9943 223.433 68.2314 203.831Z" fill="url(#paint8_linear)"/>
<mask id="mask4" mask-type="alpha" maskUnits="userSpaceOnUse" x="63" y="184" width="210" height="166">
<path fill-rule="evenodd" clip-rule="evenodd" d="M68.2314 203.831C81.4685 184.229 254.185 176.855 268.059 195.3C281.932 213.744 263.084 318.602 243.377 334.164C223.67 349.726 118.762 357.502 96.5527 337.098C74.3439 316.693 54.9943 223.433 68.2314 203.831Z" fill="white"/>
</mask>
<g mask="url(#mask4)">
<path opacity="0.33" fill-rule="evenodd" clip-rule="evenodd" d="M84.6841 215.915C84.6841 215.915 96.507 206.883 112.756 231.771C129.005 256.66 143.816 330.642 175.338 336.403C206.859 342.163 259.121 327.852 264.097 319.822C269.074 311.793 270.299 339.455 256.31 347.158C242.32 354.862 183.852 369.438 159.865 372.594C135.877 375.75 102.927 369.34 91.7978 358.445C80.6685 347.55 66.3919 311.208 60.0424 289.45C53.6929 267.692 52.9601 237.166 57.0995 227.041C61.2388 216.916 84.6841 215.915 84.6841 215.915Z" fill="#273199"/>
<path opacity="0.3" d="M279.81 248.092L245.07 257.051C238.789 258.671 234.98 264.915 236.374 271.306L250.728 337.087" stroke="#CDEEFF" stroke-width="2.17728"/>
<path opacity="0.5" fill-rule="evenodd" clip-rule="evenodd" d="M249.704 273.225C251.912 273.131 253.574 271.213 253.417 268.942C253.26 266.671 251.342 264.907 249.134 265.001C246.926 265.096 245.263 267.014 245.421 269.285C245.578 271.556 247.496 273.32 249.704 273.225Z" fill="#BBE9FF"/>
<path opacity="0.3" d="M234.267 190.374L235.863 213.423C236.506 222.707 230.004 230.788 220.813 232.125L128.701 245.522C118.79 246.964 112.147 256.185 113.879 266.099L127.856 346.14" stroke="#CDEEFF" stroke-width="2.17728"/>
<path opacity="0.5" fill-rule="evenodd" clip-rule="evenodd" d="M125.81 264.447C128.018 264.352 129.68 262.434 129.523 260.163C129.366 257.892 127.448 256.128 125.24 256.222C123.032 256.317 121.369 258.235 121.527 260.506C121.684 262.777 123.602 264.541 125.81 264.447Z" fill="#BBE9FF"/>
<path opacity="0.5" fill-rule="evenodd" clip-rule="evenodd" d="M225.226 222.182C227.434 222.087 229.097 220.17 228.939 217.899C228.782 215.628 226.864 213.863 224.656 213.958C222.448 214.052 220.786 215.97 220.943 218.241C221.101 220.512 223.018 222.276 225.226 222.182Z" fill="#BBE9FF"/>
</g>
<rect width="58.4294" height="54.18" rx="23.1336" transform="matrix(0.65606 0.754709 -0.75471 0.656058 91.0242 356.692)" fill="#4832A6"/>
<path d="M79.7669 212.831C79.7669 212.831 100.431 250.423 106.731 302.923" stroke="url(#paint9_linear)" stroke-width="31.248" stroke-linecap="round" stroke-linejoin="round"/>
<path fill-rule="evenodd" clip-rule="evenodd" d="M128.74 263.961C122.017 249.724 90.2944 255.434 73.9026 282.796C73.9026 282.796 50.9844 378.314 56.318 384.508C61.6517 390.702 110.423 397.978 126.286 384.331C142.149 370.683 135.463 278.199 128.74 263.961Z" fill="url(#paint10_linear)"/>
<mask id="mask5" mask-type="alpha" maskUnits="userSpaceOnUse" x="55" y="256" width="82" height="137">
<path fill-rule="evenodd" clip-rule="evenodd" d="M128.74 263.961C122.017 249.724 90.2944 255.434 73.9026 282.796C73.9026 282.796 50.9844 378.314 56.318 384.508C61.6517 390.702 110.423 397.978 126.286 384.331C142.149 370.683 135.463 278.199 128.74 263.961Z" fill="white"/>
</mask>
<g mask="url(#mask5)">
<path opacity="0.1" fill-rule="evenodd" clip-rule="evenodd" d="M107.66 238.79C107.66 238.79 124.59 332.657 70.3697 400.56L156.655 398.53L156.06 272.417L107.66 238.79Z" fill="#273199"/>
</g>
<defs>
<linearGradient id="paint0_linear" x1="176.933" y1="354.808" x2="149.644" y2="317.845" gradientUnits="userSpaceOnUse">
<stop stop-color="#7C5ED1"/>
<stop offset="1" stop-color="#4630A4"/>
</linearGradient>
<linearGradient id="paint1_linear" x1="70.1098" y1="394.785" x2="169.857" y2="412.381" gradientUnits="userSpaceOnUse">
<stop stop-color="#5CBCFF"/>
<stop offset="1" stop-color="#8C5DFF"/>
</linearGradient>
<linearGradient id="paint2_linear" x1="274.822" y1="343.452" x2="348.901" y2="277.49" gradientUnits="userSpaceOnUse">
<stop stop-color="#7C5ED1"/>
<stop offset="1" stop-color="#4630A4"/>
</linearGradient>
<linearGradient id="paint3_linear" x1="220.787" y1="246.8" x2="282.871" y2="263.148" gradientUnits="userSpaceOnUse">
<stop stop-color="#8ACFFF"/>
<stop offset="1" stop-color="#7775FF"/>
</linearGradient>
<linearGradient id="paint4_linear" x1="267.233" y1="347.808" x2="239.944" y2="310.845" gradientUnits="userSpaceOnUse">
<stop stop-color="#7C5ED1"/>
<stop offset="1" stop-color="#4630A4"/>
</linearGradient>
<linearGradient id="paint5_linear" x1="160.41" y1="387.785" x2="260.157" y2="405.381" gradientUnits="userSpaceOnUse">
<stop stop-color="#5CBCFF"/>
<stop offset="1" stop-color="#8C5DFF"/>
</linearGradient>
<linearGradient id="paint6_linear" x1="167.74" y1="76.3882" x2="83.3234" y2="154.344" gradientUnits="userSpaceOnUse">
<stop stop-color="#5CBCFF"/>
<stop offset="1" stop-color="#8C5DFF"/>
</linearGradient>
<linearGradient id="paint7_linear" x1="80.264" y1="130.524" x2="41.202" y2="179.661" gradientUnits="userSpaceOnUse">
<stop stop-color="#8ACFFF"/>
<stop offset="1" stop-color="#7775FF"/>
</linearGradient>
<linearGradient id="paint8_linear" x1="179.523" y1="175.5" x2="80.1434" y2="291.762" gradientUnits="userSpaceOnUse">
<stop stop-color="#5CBCFF"/>
<stop offset="1" stop-color="#8C5DFF"/>
</linearGradient>
<linearGradient id="paint9_linear" x1="99.822" y1="351.152" x2="173.901" y2="285.19" gradientUnits="userSpaceOnUse">
<stop stop-color="#7C5ED1"/>
<stop offset="1" stop-color="#4630A4"/>
</linearGradient>
<linearGradient id="paint10_linear" x1="45.787" y1="254.5" x2="107.871" y2="270.848" gradientUnits="userSpaceOnUse">
<stop stop-color="#8ACFFF"/>
<stop offset="1" stop-color="#7775FF"/>
</linearGradient>
</defs>
</svg>
