<svg width="1440" height="994" viewBox="0 0 1440 994" fill="none" xmlns="http://www.w3.org/2000/svg">
<path opacity="0.2" fill-rule="evenodd" clip-rule="evenodd" d="M0 0H1440V978.429C664.809 1050.51 727.5 846 0 898V0Z" fill="url(#paint0_linear)"/>
<mask id="mask0" mask-type="alpha" maskUnits="userSpaceOnUse" x="0" y="0" width="1440" height="994">
<path fill-rule="evenodd" clip-rule="evenodd" d="M0 0H1440V978.429C664.809 1050.51 727.5 846 0 898V0Z" fill="white"/>
</mask>
<g mask="url(#mask0)">
<path fill-rule="evenodd" clip-rule="evenodd" d="M0 0H1440V978.429C664.809 1050.51 801 778.878 0 778.878V0Z" fill="url(#paint1_linear)"/>
<mask id="mask1" mask-type="alpha" maskUnits="userSpaceOnUse" x="0" y="0" width="1440" height="991">
<path fill-rule="evenodd" clip-rule="evenodd" d="M0 0H1440V978.429C664.809 1050.51 801 778.878 0 778.878V0Z" fill="white"/>
</mask>
<g mask="url(#mask1)">
<rect opacity="0.2" x="218" y="792" width="1400" height="316.776" fill="white"/>
</g>
</g>
<defs>
<linearGradient id="paint0_linear" x1="1901.47" y1="863.44" x2="1565.18" y2="-292.866" gradientUnits="userSpaceOnUse">
<stop stop-color="#FFC8AC"/>
<stop offset="0.259423" stop-color="#F261FD"/>
<stop offset="1" stop-color="#4159FF"/>
</linearGradient>
<linearGradient id="paint1_linear" x1="1901.47" y1="860.487" x2="1567.3" y2="-292.479" gradientUnits="userSpaceOnUse">
<stop stop-color="#FFC8AC"/>
<stop offset="0.259423" stop-color="#F261FD"/>
<stop offset="1" stop-color="#4159FF"/>
</linearGradient>
</defs>
</svg>
