<svg width="1083" height="774" viewBox="0 0 1083 774" fill="none" xmlns="http://www.w3.org/2000/svg">
<path opacity="0.5" fill-rule="evenodd" clip-rule="evenodd" d="M749.7 264.6C751.633 264.6 753.2 263.033 753.2 261.1C753.2 259.167 751.633 257.6 749.7 257.6C747.767 257.6 746.2 259.167 746.2 261.1C746.2 263.033 747.767 264.6 749.7 264.6Z" fill="white"/>
<path opacity="0.5" fill-rule="evenodd" clip-rule="evenodd" d="M959.7 222.6C961.633 222.6 963.2 221.033 963.2 219.1C963.2 217.167 961.633 215.6 959.7 215.6C957.767 215.6 956.2 217.167 956.2 219.1C956.2 221.033 957.767 222.6 959.7 222.6Z" fill="white"/>
<path opacity="0.5" fill-rule="evenodd" clip-rule="evenodd" d="M851.809 665.982C853.742 665.982 855.309 664.415 855.309 662.482C855.309 660.549 853.742 658.982 851.809 658.982C849.876 658.982 848.309 660.549 848.309 662.482C848.309 664.415 849.876 665.982 851.809 665.982Z" fill="white"/>
<path opacity="0.3" fill-rule="evenodd" clip-rule="evenodd" d="M525.7 355.6C527.633 355.6 529.2 354.033 529.2 352.1C529.2 350.167 527.633 348.6 525.7 348.6C523.767 348.6 522.2 350.167 522.2 352.1C522.2 354.033 523.767 355.6 525.7 355.6Z" fill="white"/>
<path opacity="0.3" fill-rule="evenodd" clip-rule="evenodd" d="M399.7 383.6C401.633 383.6 403.2 382.033 403.2 380.1C403.2 378.167 401.633 376.6 399.7 376.6C397.767 376.6 396.2 378.167 396.2 380.1C396.2 382.033 397.767 383.6 399.7 383.6Z" fill="white"/>
<path opacity="0.3" fill-rule="evenodd" clip-rule="evenodd" d="M119.7 453.6C121.633 453.6 123.2 452.033 123.2 450.1C123.2 448.167 121.633 446.6 119.7 446.6C117.767 446.6 116.2 448.167 116.2 450.1C116.2 452.033 117.767 453.6 119.7 453.6Z" fill="white"/>
<path opacity="0.3" fill-rule="evenodd" clip-rule="evenodd" d="M196.7 502.6C198.633 502.6 200.2 501.033 200.2 499.1C200.2 497.167 198.633 495.6 196.7 495.6C194.767 495.6 193.2 497.167 193.2 499.1C193.2 501.033 194.767 502.6 196.7 502.6Z" fill="white"/>
<path opacity="0.3" fill-rule="evenodd" clip-rule="evenodd" d="M98.7 327.6C100.633 327.6 102.2 326.033 102.2 324.1C102.2 322.167 100.633 320.6 98.7 320.6C96.767 320.6 95.2 322.167 95.2 324.1C95.2 326.033 96.767 327.6 98.7 327.6Z" fill="white"/>
<path opacity="0.3" fill-rule="evenodd" clip-rule="evenodd" d="M98.7 222.6C100.633 222.6 102.2 221.033 102.2 219.1C102.2 217.167 100.633 215.6 98.7 215.6C96.767 215.6 95.2 217.167 95.2 219.1C95.2 221.033 96.767 222.6 98.7 222.6Z" fill="white"/>
<path opacity="0.3" fill-rule="evenodd" clip-rule="evenodd" d="M259.7 222.6C261.633 222.6 263.2 221.033 263.2 219.1C263.2 217.167 261.633 215.6 259.7 215.6C257.767 215.6 256.2 217.167 256.2 219.1C256.2 221.033 257.767 222.6 259.7 222.6Z" fill="white"/>
<path opacity="0.3" fill-rule="evenodd" clip-rule="evenodd" d="M420.7 152.6C422.633 152.6 424.2 151.033 424.2 149.1C424.2 147.167 422.633 145.6 420.7 145.6C418.767 145.6 417.2 147.167 417.2 149.1C417.2 151.033 418.767 152.6 420.7 152.6Z" fill="white"/>
<path opacity="0.3" fill-rule="evenodd" clip-rule="evenodd" d="M672.7 299.6C674.633 299.6 676.2 298.033 676.2 296.1C676.2 294.167 674.633 292.6 672.7 292.6C670.767 292.6 669.2 294.167 669.2 296.1C669.2 298.033 670.767 299.6 672.7 299.6Z" fill="white"/>
<path opacity="0.3" fill-rule="evenodd" clip-rule="evenodd" d="M616.7 390.6C618.633 390.6 620.2 389.033 620.2 387.1C620.2 385.167 618.633 383.6 616.7 383.6C614.767 383.6 613.2 385.167 613.2 387.1C613.2 389.033 614.767 390.6 616.7 390.6Z" fill="white"/>
<path opacity="0.3" fill-rule="evenodd" clip-rule="evenodd" d="M826.7 411.6C828.633 411.6 830.2 410.033 830.2 408.1C830.2 406.167 828.633 404.6 826.7 404.6C824.767 404.6 823.2 406.167 823.2 408.1C823.2 410.033 824.767 411.6 826.7 411.6Z" fill="white"/>
<path opacity="0.3" fill-rule="evenodd" clip-rule="evenodd" d="M868.7 138.6C870.633 138.6 872.2 137.033 872.2 135.1C872.2 133.167 870.633 131.6 868.7 131.6C866.767 131.6 865.2 133.167 865.2 135.1C865.2 137.033 866.767 138.6 868.7 138.6Z" fill="white"/>
<path fill-rule="evenodd" clip-rule="evenodd" d="M97.6184 56.1902L372.997 274.393C393.986 291.023 421.044 297.969 447.448 293.502L1134.85 177.22C1152 174.318 1163.55 158.061 1160.65 140.907C1157.75 123.754 1141.49 112.201 1124.34 115.103L436.94 231.385C428.139 232.874 419.119 230.558 412.123 225.015L136.744 6.8123C123.109 -3.99197 103.297 -1.69694 92.4923 11.9384C81.688 25.5737 83.9831 45.3859 97.6184 56.1902Z" fill="url(#paint0_linear)"/>
<mask id="mask0" mask-type="alpha" maskUnits="userSpaceOnUse" x="85" y="0" width="1077" height="295">
<path fill-rule="evenodd" clip-rule="evenodd" d="M97.6184 56.1902L372.997 274.393C393.986 291.023 421.044 297.969 447.448 293.502L1134.85 177.22C1152 174.318 1163.55 158.061 1160.65 140.907C1157.75 123.754 1141.49 112.201 1124.34 115.103L436.94 231.385C428.139 232.874 419.119 230.558 412.123 225.015L136.744 6.8123C123.109 -3.99197 103.297 -1.69694 92.4923 11.9384C81.688 25.5737 83.9831 45.3859 97.6184 56.1902Z" fill="white"/>
</mask>
<g mask="url(#mask0)">
<path d="M426.51 231.21C426.51 231.21 395.01 256.41 412.65 294.84" stroke="#BB3493" stroke-width="1.26" stroke-linecap="round" stroke-linejoin="round"/>
<g style="mix-blend-mode:screen" opacity="0.4">
<path fill-rule="evenodd" clip-rule="evenodd" d="M101.398 30.3602L376.777 248.563C397.766 265.194 424.824 272.139 451.228 267.672L1138.63 151.39C1155.78 148.488 1167.33 132.231 1164.43 115.077C1161.53 97.924 1145.27 86.3708 1128.12 89.2725L440.72 205.555C431.919 207.044 422.899 204.729 415.903 199.185L140.524 -19.0177C126.889 -29.822 107.077 -27.5269 96.2723 -13.8916C85.468 -0.256258 87.7631 19.556 101.398 30.3602Z" fill="url(#paint1_linear)"/>
</g>
<g style="mix-blend-mode:screen" opacity="0.4">
<path fill-rule="evenodd" clip-rule="evenodd" d="M1026.84 175.297C1046.67 172.157 1061.64 162.694 1060.29 154.159C1058.94 145.625 1041.77 141.253 1021.95 144.393C1002.12 147.533 987.146 156.996 988.497 165.531C989.849 174.065 1007.02 178.437 1026.84 175.297Z" fill="url(#paint2_linear)"/>
</g>
<g style="mix-blend-mode:screen" opacity="0.4">
<path fill-rule="evenodd" clip-rule="evenodd" d="M735.21 222.918C742.169 222.918 747.81 217.277 747.81 210.318C747.81 203.359 742.169 197.718 735.21 197.718C728.251 197.718 722.61 203.359 722.61 210.318C722.61 217.277 728.251 222.918 735.21 222.918Z" fill="url(#paint3_linear)"/>
</g>
<g style="mix-blend-mode:screen" opacity="0.4">
<path fill-rule="evenodd" clip-rule="evenodd" d="M670.09 239.801C686.413 236.332 698.046 225.992 696.072 216.706C694.099 207.421 679.266 202.706 662.943 206.176C646.619 209.645 634.987 219.985 636.96 229.271C638.934 238.556 653.767 243.271 670.09 239.801Z" fill="url(#paint4_linear)"/>
</g>
<g style="mix-blend-mode:screen" opacity="0.4">
<path fill-rule="evenodd" clip-rule="evenodd" d="M370.669 219.115C376.033 212.491 371.395 199.842 360.309 190.865C349.222 181.887 335.886 179.98 330.521 186.605C325.157 193.229 329.795 205.878 340.881 214.855C351.968 223.833 365.304 225.74 370.669 219.115Z" fill="url(#paint5_linear)"/>
</g>
</g>
<path fill-rule="evenodd" clip-rule="evenodd" d="M741.846 269.682C774.39 269.682 800.772 243.3 800.772 210.756C800.772 178.212 774.39 151.83 741.846 151.83C709.302 151.83 682.92 178.212 682.92 210.756C682.92 243.3 709.302 269.682 741.846 269.682ZM741.846 241.332C724.959 241.332 711.27 227.642 711.27 210.756C711.27 193.869 724.959 180.18 741.846 180.18C758.732 180.18 772.422 193.869 772.422 210.756C772.422 227.642 758.732 241.332 741.846 241.332Z" fill="url(#paint6_linear)"/>
<mask id="mask1" mask-type="alpha" maskUnits="userSpaceOnUse" x="682" y="151" width="119" height="119">
<path fill-rule="evenodd" clip-rule="evenodd" d="M741.846 269.682C774.39 269.682 800.772 243.3 800.772 210.756C800.772 178.212 774.39 151.83 741.846 151.83C709.302 151.83 682.92 178.212 682.92 210.756C682.92 243.3 709.302 269.682 741.846 269.682ZM741.846 241.332C724.959 241.332 711.27 227.642 711.27 210.756C711.27 193.869 724.959 180.18 741.846 180.18C758.732 180.18 772.422 193.869 772.422 210.756C772.422 227.642 758.732 241.332 741.846 241.332Z" fill="white"/>
</mask>
<g mask="url(#mask1)">
<g style="mix-blend-mode:screen" opacity="0.4">
<path fill-rule="evenodd" clip-rule="evenodd" d="M726.075 258.93C751.649 258.93 772.38 238.199 772.38 212.625C772.38 187.051 751.649 166.32 726.075 166.32C700.501 166.32 679.77 187.051 679.77 212.625C679.77 238.199 700.501 258.93 726.075 258.93Z" fill="#BC1C79"/>
</g>
<mask id="mask2" mask-type="alpha" maskUnits="userSpaceOnUse" x="679" y="166" width="94" height="93">
<g style="mix-blend-mode:screen">
<path fill-rule="evenodd" clip-rule="evenodd" d="M726.075 258.93C751.649 258.93 772.38 238.199 772.38 212.625C772.38 187.051 751.649 166.32 726.075 166.32C700.501 166.32 679.77 187.051 679.77 212.625C679.77 238.199 700.501 258.93 726.075 258.93Z" fill="white"/>
<path fill-rule="evenodd" clip-rule="evenodd" d="M726.075 258.93C751.649 258.93 772.38 238.199 772.38 212.625C772.38 187.051 751.649 166.32 726.075 166.32C700.501 166.32 679.77 187.051 679.77 212.625C679.77 238.199 700.501 258.93 726.075 258.93Z" stroke="white"/>
</g>
</mask>
<g mask="url(#mask2)">
<g style="mix-blend-mode:screen" opacity="0.4">
<path fill-rule="evenodd" clip-rule="evenodd" d="M697.2 252L800.8 233.1L799.4 208.6L683.2 228.9L697.2 252Z" fill="url(#paint7_linear)"/>
</g>
<g style="mix-blend-mode:screen" opacity="0.4">
<path fill-rule="evenodd" clip-rule="evenodd" d="M675.99 229.95L772.38 213.57L765.45 175.14L673.47 191.52L675.99 229.95Z" fill="url(#paint8_linear)"/>
</g>
<g style="mix-blend-mode:screen" opacity="0.4">
<path fill-rule="evenodd" clip-rule="evenodd" d="M670.335 239.592C686.658 236.123 698.291 225.783 696.317 216.497C694.344 207.212 679.511 202.497 663.188 205.967C646.864 209.436 635.232 219.776 637.205 229.062C639.179 238.347 654.012 243.062 670.335 239.592Z" fill="url(#paint9_linear)"/>
</g>
</g>
</g>
<g opacity="0.7">
<path fill-rule="evenodd" clip-rule="evenodd" d="M557.886 301.812C590.43 301.812 616.812 275.43 616.812 242.886C616.812 210.342 590.43 183.96 557.886 183.96C525.342 183.96 498.96 210.342 498.96 242.886C498.96 275.43 525.342 301.812 557.886 301.812ZM557.886 273.462C540.999 273.462 527.31 259.772 527.31 242.886C527.31 225.999 540.999 212.31 557.886 212.31C574.772 212.31 588.462 225.999 588.462 242.886C588.462 259.772 574.772 273.462 557.886 273.462Z" fill="url(#paint10_linear)"/>
<mask id="mask3" mask-type="alpha" maskUnits="userSpaceOnUse" x="498" y="183" width="119" height="119">
<path fill-rule="evenodd" clip-rule="evenodd" d="M557.886 301.812C590.43 301.812 616.812 275.43 616.812 242.886C616.812 210.342 590.43 183.96 557.886 183.96C525.342 183.96 498.96 210.342 498.96 242.886C498.96 275.43 525.342 301.812 557.886 301.812ZM557.886 273.462C540.999 273.462 527.31 259.772 527.31 242.886C527.31 225.999 540.999 212.31 557.886 212.31C574.772 212.31 588.462 225.999 588.462 242.886C588.462 259.772 574.772 273.462 557.886 273.462Z" fill="white"/>
</mask>
<g mask="url(#mask3)">
<g style="mix-blend-mode:screen" opacity="0.4">
<path fill-rule="evenodd" clip-rule="evenodd" d="M542.115 291.06C567.688 291.06 588.42 270.329 588.42 244.755C588.42 219.181 567.688 198.45 542.115 198.45C516.541 198.45 495.81 219.181 495.81 244.755C495.81 270.329 516.541 291.06 542.115 291.06Z" fill="#BC1C79"/>
</g>
<mask id="mask4" mask-type="alpha" maskUnits="userSpaceOnUse" x="495" y="198" width="94" height="94">
<g style="mix-blend-mode:screen">
<path fill-rule="evenodd" clip-rule="evenodd" d="M542.115 291.06C567.688 291.06 588.42 270.329 588.42 244.755C588.42 219.181 567.688 198.45 542.115 198.45C516.541 198.45 495.81 219.181 495.81 244.755C495.81 270.329 516.541 291.06 542.115 291.06Z" fill="white"/>
<path fill-rule="evenodd" clip-rule="evenodd" d="M542.115 291.06C567.688 291.06 588.42 270.329 588.42 244.755C588.42 219.181 567.688 198.45 542.115 198.45C516.541 198.45 495.81 219.181 495.81 244.755C495.81 270.329 516.541 291.06 542.115 291.06Z" stroke="white"/>
</g>
</mask>
<g mask="url(#mask4)">
<g style="mix-blend-mode:screen" opacity="0.4">
<path fill-rule="evenodd" clip-rule="evenodd" d="M508.2 283.5L597.1 268.1L589.4 242.9L496.3 260.4L508.2 283.5Z" fill="url(#paint11_linear)"/>
</g>
<g style="mix-blend-mode:screen" opacity="0.4">
<path fill-rule="evenodd" clip-rule="evenodd" d="M500.85 259.56L531.09 253.89L589.68 244.44L585.9 207.27L492.66 221.76L500.85 259.56Z" fill="url(#paint12_linear)"/>
</g>
</g>
</g>
</g>
<path fill-rule="evenodd" clip-rule="evenodd" d="M921.396 239.442C953.94 239.442 980.322 213.06 980.322 180.516C980.322 147.972 953.94 121.59 921.396 121.59C888.852 121.59 862.47 147.972 862.47 180.516C862.47 213.06 888.852 239.442 921.396 239.442ZM921.396 211.092C904.509 211.092 890.82 197.402 890.82 180.516C890.82 163.629 904.509 149.94 921.396 149.94C938.282 149.94 951.972 163.629 951.972 180.516C951.972 197.402 938.282 211.092 921.396 211.092Z" fill="url(#paint13_linear)"/>
<mask id="mask5" mask-type="alpha" maskUnits="userSpaceOnUse" x="862" y="121" width="119" height="119">
<path fill-rule="evenodd" clip-rule="evenodd" d="M921.396 239.442C953.94 239.442 980.322 213.06 980.322 180.516C980.322 147.972 953.94 121.59 921.396 121.59C888.852 121.59 862.47 147.972 862.47 180.516C862.47 213.06 888.852 239.442 921.396 239.442ZM921.396 211.092C904.509 211.092 890.82 197.402 890.82 180.516C890.82 163.629 904.509 149.94 921.396 149.94C938.282 149.94 951.972 163.629 951.972 180.516C951.972 197.402 938.282 211.092 921.396 211.092Z" fill="white"/>
</mask>
<g mask="url(#mask5)">
<g style="mix-blend-mode:screen" opacity="0.4">
<path fill-rule="evenodd" clip-rule="evenodd" d="M905.625 228.69C931.198 228.69 951.93 207.959 951.93 182.385C951.93 156.811 931.198 136.08 905.625 136.08C880.051 136.08 859.32 156.811 859.32 182.385C859.32 207.959 880.051 228.69 905.625 228.69Z" fill="#BC1C79"/>
</g>
<mask id="mask6" mask-type="alpha" maskUnits="userSpaceOnUse" x="859" y="136" width="93" height="93">
<g style="mix-blend-mode:screen">
<path fill-rule="evenodd" clip-rule="evenodd" d="M905.625 228.69C931.198 228.69 951.93 207.959 951.93 182.385C951.93 156.811 931.198 136.08 905.625 136.08C880.051 136.08 859.32 156.811 859.32 182.385C859.32 207.959 880.051 228.69 905.625 228.69Z" fill="white"/>
<path fill-rule="evenodd" clip-rule="evenodd" d="M905.625 228.69C931.198 228.69 951.93 207.959 951.93 182.385C951.93 156.811 931.198 136.08 905.625 136.08C880.051 136.08 859.32 156.811 859.32 182.385C859.32 207.959 880.051 228.69 905.625 228.69Z" stroke="white"/>
</g>
</mask>
<g mask="url(#mask6)">
<g style="mix-blend-mode:screen" opacity="0.4">
<path fill-rule="evenodd" clip-rule="evenodd" d="M873.6 221.2L987 202.3L986.3 177.8L861 198.8L873.6 221.2Z" fill="url(#paint14_linear)"/>
</g>
<g style="mix-blend-mode:screen" opacity="0.4">
<path fill-rule="evenodd" clip-rule="evenodd" d="M856.17 199.71L987.21 177.03L980.28 139.86L851.13 161.28L856.17 199.71Z" fill="url(#paint15_linear)"/>
</g>
</g>
</g>
<path fill-rule="evenodd" clip-rule="evenodd" d="M1096.4 209.342C1128.94 209.342 1155.32 182.96 1155.32 150.416C1155.32 117.872 1128.94 91.49 1096.4 91.49C1063.85 91.49 1037.47 117.872 1037.47 150.416C1037.47 182.96 1063.85 209.342 1096.4 209.342ZM1096.4 180.992C1079.51 180.992 1065.82 167.303 1065.82 150.416C1065.82 133.529 1079.51 119.84 1096.4 119.84C1113.28 119.84 1126.97 133.529 1126.97 150.416C1126.97 167.303 1113.28 180.992 1096.4 180.992Z" fill="url(#paint16_linear)"/>
<mask id="mask7" mask-type="alpha" maskUnits="userSpaceOnUse" x="1037" y="91" width="119" height="119">
<path fill-rule="evenodd" clip-rule="evenodd" d="M1096.4 209.342C1128.94 209.342 1155.32 182.96 1155.32 150.416C1155.32 117.872 1128.94 91.49 1096.4 91.49C1063.85 91.49 1037.47 117.872 1037.47 150.416C1037.47 182.96 1063.85 209.342 1096.4 209.342ZM1096.4 180.992C1079.51 180.992 1065.82 167.303 1065.82 150.416C1065.82 133.529 1079.51 119.84 1096.4 119.84C1113.28 119.84 1126.97 133.529 1126.97 150.416C1126.97 167.303 1113.28 180.992 1096.4 180.992Z" fill="white"/>
</mask>
<g mask="url(#mask7)">
<g style="mix-blend-mode:screen" opacity="0.4">
<path fill-rule="evenodd" clip-rule="evenodd" d="M1080.62 198.59C1106.2 198.59 1126.93 177.859 1126.93 152.285C1126.93 126.711 1106.2 105.98 1080.62 105.98C1055.05 105.98 1034.32 126.711 1034.32 152.285C1034.32 177.859 1055.05 198.59 1080.62 198.59Z" fill="url(#paint17_linear)"/>
</g>
<mask id="mask8" mask-type="alpha" maskUnits="userSpaceOnUse" x="1034" y="105" width="93" height="94">
<g style="mix-blend-mode:screen">
<path fill-rule="evenodd" clip-rule="evenodd" d="M1080.62 198.59C1106.2 198.59 1126.93 177.859 1126.93 152.285C1126.93 126.711 1106.2 105.98 1080.62 105.98C1055.05 105.98 1034.32 126.711 1034.32 152.285C1034.32 177.859 1055.05 198.59 1080.62 198.59Z" fill="white"/>
<path fill-rule="evenodd" clip-rule="evenodd" d="M1080.62 198.59C1106.2 198.59 1126.93 177.859 1126.93 152.285C1126.93 126.711 1106.2 105.98 1080.62 105.98C1055.05 105.98 1034.32 126.711 1034.32 152.285C1034.32 177.859 1055.05 198.59 1080.62 198.59Z" stroke="white"/>
</g>
</mask>
<g mask="url(#mask8)">
<g style="mix-blend-mode:screen" opacity="0.4">
<path fill-rule="evenodd" clip-rule="evenodd" d="M1031.17 169.61L1162.21 146.93L1155.28 109.76L1026.13 131.18L1031.17 169.61Z" fill="url(#paint18_linear)"/>
</g>
<g style="mix-blend-mode:screen" opacity="0.4">
<path fill-rule="evenodd" clip-rule="evenodd" d="M1026.84 175.297C1046.67 172.157 1061.64 162.694 1060.29 154.16C1058.94 145.625 1041.77 141.253 1021.95 144.393C1002.12 147.533 987.146 156.996 988.497 165.531C989.849 174.065 1007.02 178.437 1026.84 175.297Z" fill="url(#paint19_linear)"/>
</g>
</g>
</g>
<g opacity="0.5">
<path fill-rule="evenodd" clip-rule="evenodd" d="M306.475 256.419C278.579 239.657 269.553 203.456 286.314 175.56C303.076 147.665 339.277 138.639 367.173 155.4C395.068 172.161 404.094 208.363 387.333 236.258C370.572 264.154 334.37 273.18 306.475 256.419ZM321.076 232.118C335.55 240.815 354.335 236.132 363.032 221.657C371.729 207.182 367.046 188.398 352.571 179.701C338.097 171.003 319.312 175.687 310.615 190.162C301.918 204.636 306.601 223.421 321.076 232.118Z" fill="url(#paint20_linear)"/>
<mask id="mask9" mask-type="alpha" maskUnits="userSpaceOnUse" x="255" y="125" width="163" height="162">
<path fill-rule="evenodd" clip-rule="evenodd" d="M306.475 256.419C278.579 239.657 269.553 203.456 286.314 175.56C303.076 147.665 339.277 138.639 367.173 155.4C395.068 172.161 404.094 208.363 387.333 236.258C370.572 264.154 334.37 273.18 306.475 256.419ZM321.076 232.118C335.55 240.815 354.335 236.132 363.032 221.657C371.729 207.182 367.046 188.398 352.571 179.701C338.097 171.003 319.312 175.687 310.615 190.162C301.918 204.636 306.601 223.421 321.076 232.118Z" fill="white"/>
</mask>
<g mask="url(#mask9)">
<g style="mix-blend-mode:screen" opacity="0.4">
<path fill-rule="evenodd" clip-rule="evenodd" d="M325.53 255.325C303.61 242.154 296.517 213.706 309.688 191.785C322.859 169.864 351.307 162.772 373.228 175.943C395.149 189.114 402.242 217.562 389.07 239.483C375.899 261.404 347.451 268.497 325.53 255.325Z" fill="url(#paint21_linear)"/>
</g>
<mask id="mask10" mask-type="alpha" maskUnits="userSpaceOnUse" x="285" y="152" width="128" height="128">
<g style="mix-blend-mode:screen">
<path fill-rule="evenodd" clip-rule="evenodd" d="M325.53 255.325C303.61 242.154 296.517 213.706 309.688 191.785C322.859 169.864 351.307 162.772 373.228 175.943C395.149 189.114 402.242 217.562 389.07 239.483C375.899 261.404 347.451 268.497 325.53 255.325Z" fill="white"/>
<path fill-rule="evenodd" clip-rule="evenodd" d="M325.53 255.325C303.61 242.154 296.517 213.706 309.688 191.785C322.859 169.864 351.307 162.772 373.228 175.943C395.149 189.114 402.242 217.562 389.07 239.483C375.899 261.404 347.451 268.497 325.53 255.325Z" stroke="white"/>
</g>
</mask>
<g mask="url(#mask10)">
<g style="mix-blend-mode:screen" opacity="0.3">
<path fill-rule="evenodd" clip-rule="evenodd" d="M364 266.7L275.8 203L306.6 193.2L377.3 249.2L370.162 268.998L364 266.7Z" fill="url(#paint22_linear)"/>
</g>
<g style="mix-blend-mode:screen" opacity="0.4">
<path fill-rule="evenodd" clip-rule="evenodd" d="M336.228 193.035C340.417 186.584 352.566 187.037 363.363 194.049C374.16 201.061 379.516 211.975 375.326 218.426C371.137 224.878 358.987 224.424 348.191 217.413C337.394 210.401 332.038 199.487 336.228 193.035Z" fill="url(#paint23_linear)"/>
</g>
<g style="mix-blend-mode:screen" opacity="0.3">
<path fill-rule="evenodd" clip-rule="evenodd" d="M378.63 250.11L303.03 190.89L331.38 160.02L401.31 215.46L378.63 250.11Z" fill="url(#paint24_linear)"/>
</g>
</g>
</g>
</g>
<g opacity="0.3">
<path fill-rule="evenodd" clip-rule="evenodd" d="M165.347 142.389C137.451 125.627 128.425 89.4258 145.186 61.5303C161.948 33.6348 198.149 24.6087 226.045 41.37C253.94 58.1314 262.966 94.3329 246.205 122.228C229.444 150.124 193.242 159.15 165.347 142.389ZM179.948 118.088C194.422 126.785 213.207 122.102 221.904 107.627C230.601 93.1525 225.918 74.368 211.443 65.6707C196.969 56.9735 178.184 61.657 169.487 76.1316C160.79 90.6063 165.473 109.391 179.948 118.088Z" fill="url(#paint25_linear)"/>
<mask id="mask11" mask-type="alpha" maskUnits="userSpaceOnUse" x="114" y="11" width="163" height="162">
<path fill-rule="evenodd" clip-rule="evenodd" d="M165.347 142.389C137.451 125.627 128.425 89.4258 145.186 61.5303C161.948 33.6348 198.149 24.6087 226.045 41.37C253.94 58.1314 262.966 94.3329 246.205 122.228C229.444 150.124 193.242 159.15 165.347 142.389ZM179.948 118.088C194.422 126.785 213.207 122.102 221.904 107.627C230.601 93.1525 225.918 74.368 211.443 65.6707C196.969 56.9735 178.184 61.657 169.487 76.1316C160.79 90.6063 165.473 109.391 179.948 118.088Z" fill="white"/>
</mask>
<g mask="url(#mask11)">
<g style="mix-blend-mode:screen" opacity="0.4">
<path fill-rule="evenodd" clip-rule="evenodd" d="M184.402 141.295C162.482 128.124 155.389 99.6761 168.56 77.7553C181.731 55.8345 210.179 48.7417 232.1 61.913C254.021 75.0844 261.114 103.532 247.942 125.453C234.771 147.374 206.323 154.467 184.402 141.295Z" fill="url(#paint26_linear)"/>
</g>
<mask id="mask12" mask-type="alpha" maskUnits="userSpaceOnUse" x="144" y="38" width="128" height="128">
<g style="mix-blend-mode:screen">
<path fill-rule="evenodd" clip-rule="evenodd" d="M184.402 141.295C162.482 128.124 155.389 99.6761 168.56 77.7553C181.731 55.8345 210.179 48.7417 232.1 61.913C254.021 75.0844 261.114 103.532 247.942 125.453C234.771 147.374 206.323 154.467 184.402 141.295Z" fill="white"/>
<path fill-rule="evenodd" clip-rule="evenodd" d="M184.402 141.295C162.482 128.124 155.389 99.6761 168.56 77.7553C181.731 55.8345 210.179 48.7417 232.1 61.913C254.021 75.0844 261.114 103.532 247.942 125.453C234.771 147.374 206.323 154.467 184.402 141.295Z" stroke="white"/>
</g>
</mask>
<g mask="url(#mask12)">
<g style="mix-blend-mode:screen" opacity="0.3">
<path fill-rule="evenodd" clip-rule="evenodd" d="M235.9 137.2L214.2 148.4L168 112L185.5 97.3L235.9 137.2Z" fill="url(#paint27_linear)"/>
</g>
<g style="mix-blend-mode:screen" opacity="0.3">
<path fill-rule="evenodd" clip-rule="evenodd" d="M242.55 142.38L209.79 116.55L235.62 86.31L269.01 111.51L242.55 142.38Z" fill="url(#paint28_linear)"/>
</g>
</g>
</g>
</g>
<path fill-rule="evenodd" clip-rule="evenodd" d="M564.809 623.982C566.742 623.982 568.309 622.415 568.309 620.482C568.309 618.549 566.742 616.982 564.809 616.982C562.876 616.982 561.309 618.549 561.309 620.482C561.309 622.415 562.876 623.982 564.809 623.982Z" fill="white"/>
<path fill-rule="evenodd" clip-rule="evenodd" d="M31.5281 579.351L1150.67 518.138C1166.11 517.293 1177.94 504.091 1177.09 488.651C1176.25 473.21 1163.05 461.377 1147.61 462.222L28.4697 523.434C13.0288 524.279 1.1961 537.481 2.04066 552.922C2.88522 568.363 16.0872 580.195 31.5281 579.351Z" fill="url(#paint29_linear)"/>
<mask id="mask13" mask-type="alpha" maskUnits="userSpaceOnUse" x="0" y="402" width="1179" height="238">
<path fill-rule="evenodd" clip-rule="evenodd" d="M31.5281 579.351L1150.67 518.138C1166.11 517.293 1177.94 504.091 1177.09 488.651C1176.25 473.21 1163.05 461.377 1147.61 462.222L28.4697 523.434C13.0288 524.279 1.1961 537.481 2.04066 552.922C2.88522 568.363 16.0872 580.195 31.5281 579.351Z" fill="white"/>
</mask>
<g mask="url(#mask13)">
<g style="mix-blend-mode:screen" opacity="0.4">
<path fill-rule="evenodd" clip-rule="evenodd" d="M281.504 554.061C288.84 554.446 295.1 548.81 295.484 541.473C295.869 534.137 290.233 527.878 282.896 527.493C275.56 527.109 269.3 532.744 268.916 540.081C268.531 547.418 274.167 553.677 281.504 554.061Z" fill="url(#paint30_linear)"/>
</g>
<g style="mix-blend-mode:screen" opacity="0.4">
<path fill-rule="evenodd" clip-rule="evenodd" d="M377.721 543.492C411.939 541.099 438.825 526.967 437.773 511.926C436.721 496.886 408.13 486.632 373.912 489.025C339.695 491.418 312.809 505.55 313.861 520.591C314.912 535.632 343.504 545.885 377.721 543.492Z" fill="url(#paint31_linear)"/>
</g>
<g style="mix-blend-mode:screen" opacity="0.4">
<path fill-rule="evenodd" clip-rule="evenodd" d="M658.701 558.256C695.942 556.305 725.494 542.542 724.707 527.516C723.919 512.49 693.091 501.892 655.85 503.844C618.608 505.795 589.057 519.558 589.844 534.584C590.632 549.61 621.46 560.208 658.701 558.256Z" fill="url(#paint32_linear)"/>
</g>
<g style="mix-blend-mode:screen" opacity="0.4">
<path fill-rule="evenodd" clip-rule="evenodd" d="M26.7021 551.059L1145.84 489.847C1161.28 489.002 1173.11 475.8 1172.27 460.359C1171.42 444.918 1158.22 433.086 1142.78 433.93L23.6437 495.143C8.2028 495.987 -3.62986 509.189 -2.7853 524.63C-1.94074 540.071 11.2612 551.904 26.7021 551.059Z" fill="url(#paint33_linear)"/>
</g>
</g>
<rect x="232.238" y="501.639" width="22.4" height="76.65" rx="11.2" transform="rotate(3 232.238 501.639)" fill="url(#paint34_linear)"/>
<rect x="381.214" y="491.852" width="22.4" height="76.65" rx="11.2" transform="rotate(3 381.214 491.852)" fill="url(#paint35_linear)"/>
<rect x="530.19" y="482.065" width="22.4" height="76.65" rx="11.2" transform="rotate(3 530.19 482.065)" fill="#4832A6"/>
<rect x="679.167" y="472.279" width="22.4" height="76.65" rx="11.2" transform="rotate(3 679.167 472.279)" fill="#4832A6"/>
<path fill-rule="evenodd" clip-rule="evenodd" d="M772.283 419.633C794.025 419.633 811.65 402.008 811.65 380.266C811.65 358.525 794.025 340.9 772.283 340.9C750.542 340.9 732.917 358.525 732.917 380.266C732.917 402.008 750.542 419.633 772.283 419.633Z" fill="url(#paint36_linear)"/>
<mask id="mask14" mask-type="alpha" maskUnits="userSpaceOnUse" x="732" y="340" width="80" height="80">
<path fill-rule="evenodd" clip-rule="evenodd" d="M772.283 419.633C794.025 419.633 811.65 402.008 811.65 380.266C811.65 358.525 794.025 340.9 772.283 340.9C750.542 340.9 732.917 358.525 732.917 380.266C732.917 402.008 750.542 419.633 772.283 419.633Z" fill="white"/>
</mask>
<g mask="url(#mask14)">
<path opacity="0.705473" fill-rule="evenodd" clip-rule="evenodd" d="M779.895 424.341C791.763 422.673 800.558 415.442 799.539 408.19C798.52 400.938 788.072 396.411 776.205 398.079C764.337 399.747 755.542 406.978 756.561 414.23C757.58 421.482 768.027 426.009 779.895 424.341Z" fill="url(#paint37_linear)"/>
<path d="M734.787 402.591C755.897 379.229 782.463 372.941 815.809 383.648C819.49 384.83 823.432 382.804 824.614 379.123C825.796 375.443 823.77 371.5 820.089 370.319C781.653 357.977 749.315 365.632 724.399 393.205C721.807 396.073 722.031 400.5 724.9 403.091C727.768 405.683 732.195 405.459 734.787 402.591Z" fill="#583FB3"/>
<path fill-rule="evenodd" clip-rule="evenodd" d="M742.875 392.35C746.644 392.35 749.7 389.294 749.7 385.525C749.7 381.756 746.644 378.7 742.875 378.7C739.106 378.7 736.05 381.756 736.05 385.525C736.05 389.294 739.106 392.35 742.875 392.35Z" fill="#FFBD60"/>
<path fill-rule="evenodd" clip-rule="evenodd" d="M771.636 379.725C775.405 379.725 778.461 376.67 778.461 372.9C778.461 369.131 775.405 366.075 771.636 366.075C767.866 366.075 764.811 369.131 764.811 372.9C764.811 376.67 767.866 379.725 771.636 379.725Z" fill="#FFBD60"/>
<path fill-rule="evenodd" clip-rule="evenodd" d="M801.692 379.725C805.461 379.725 808.517 376.67 808.517 372.9C808.517 369.131 805.461 366.075 801.692 366.075C797.923 366.075 794.867 369.131 794.867 372.9C794.867 376.67 797.923 379.725 801.692 379.725Z" fill="#FFBD60"/>
</g>
<path d="M778.498 417.49C783.484 416.611 787.2 414.046 786.797 411.76C786.394 409.475 782.025 408.335 777.038 409.214C772.052 410.093 768.336 412.659 768.739 414.944C769.142 417.23 773.511 418.37 778.498 417.49Z" fill="#583FB3"/>
<path d="M777.036 426.57L776.336 415.37L780.536 414.67L784.036 425.87L777.036 426.57Z" fill="#583FB3"/>
<path fill-rule="evenodd" clip-rule="evenodd" d="M870.65 803.55L802.829 435.363C801.491 428.102 794.743 423.127 787.411 423.997L772.341 425.785C764.946 426.662 759.532 433.174 760.02 440.605L783.85 803.55H870.65Z" fill="url(#paint38_linear)"/>
<mask id="mask15" mask-type="alpha" maskUnits="userSpaceOnUse" x="759" y="423" width="112" height="381">
<path fill-rule="evenodd" clip-rule="evenodd" d="M870.65 803.55L802.829 435.363C801.491 428.102 794.743 423.127 787.411 423.997L772.341 425.785C764.946 426.662 759.532 433.174 760.02 440.605L783.85 803.55H870.65Z" fill="white"/>
</mask>
<g mask="url(#mask15)">
<rect x="788.136" y="441.648" width="12.6" height="49.7" rx="6.3" transform="rotate(-8 788.136 441.648)" fill="url(#paint39_linear)"/>
<path fill-rule="evenodd" clip-rule="evenodd" d="M778.744 465.379C781.732 465.379 784.155 462.957 784.155 459.969C784.155 456.98 781.732 454.558 778.744 454.558C775.756 454.558 773.333 456.98 773.333 459.969C773.333 462.957 775.756 465.379 778.744 465.379Z" fill="#F6F8FB"/>
<path fill-rule="evenodd" clip-rule="evenodd" d="M781.194 480.877C783.286 480.877 784.982 479.182 784.982 477.09C784.982 474.998 783.286 473.302 781.194 473.302C779.102 473.302 777.407 474.998 777.407 477.09C777.407 479.182 779.102 480.877 781.194 480.877Z" fill="#FF6CBB"/>
<rect x="803.148" y="538.579" width="12.6" height="49.7" rx="6.3" transform="rotate(-8 803.148 538.579)" fill="url(#paint40_linear)"/>
<path fill-rule="evenodd" clip-rule="evenodd" d="M793.756 562.311C796.744 562.311 799.167 559.888 799.167 556.9C799.167 553.912 796.744 551.489 793.756 551.489C790.768 551.489 788.346 553.912 788.346 556.9C788.346 559.888 790.768 562.311 793.756 562.311Z" fill="#F6F8FB"/>
<path fill-rule="evenodd" clip-rule="evenodd" d="M796.206 577.809C798.298 577.809 799.994 576.113 799.994 574.021C799.994 571.929 798.298 570.234 796.206 570.234C794.114 570.234 792.419 571.929 792.419 574.021C792.419 576.113 794.114 577.809 796.206 577.809Z" fill="#FF6CBB"/>
<rect x="818.161" y="635.511" width="12.6" height="49.7" rx="6.3" transform="rotate(-8 818.161 635.511)" fill="url(#paint41_linear)"/>
<path fill-rule="evenodd" clip-rule="evenodd" d="M808.768 659.242C811.757 659.242 814.179 656.82 814.179 653.831C814.179 650.843 811.757 648.421 808.768 648.421C805.78 648.421 803.358 650.843 803.358 653.831C803.358 656.82 805.78 659.242 808.768 659.242Z" fill="#F6F8FB"/>
<path fill-rule="evenodd" clip-rule="evenodd" d="M811.218 674.74C813.31 674.74 815.006 673.044 815.006 670.953C815.006 668.861 813.31 667.165 811.218 667.165C809.127 667.165 807.431 668.861 807.431 670.953C807.431 673.044 809.127 674.74 811.218 674.74Z" fill="#FFBD60"/>
<path opacity="0.548875" fill-rule="evenodd" clip-rule="evenodd" d="M754.85 649.25C754.85 649.25 741.55 575.75 775.15 575.75C808.75 575.75 797.55 729.05 858.45 694.75C919.35 660.45 895.55 758.45 893.45 759.15C891.35 759.85 861.95 789.25 858.45 789.25C854.95 789.25 751.35 793.45 744.35 789.25C737.35 785.05 754.85 649.25 754.85 649.25Z" fill="url(#paint42_linear)"/>
<path opacity="0.548875" fill-rule="evenodd" clip-rule="evenodd" d="M840 606.9C840 606.9 825.3 723.1 771.4 729.4C717.5 735.7 878.5 757.4 879.9 757.4C881.3 757.4 891.1 672 889.7 663.6C888.3 655.2 840 606.9 840 606.9Z" fill="url(#paint43_linear)"/>
</g>
<path fill-rule="evenodd" clip-rule="evenodd" d="M682.85 796.845L675.089 579.446C674.928 574.927 671.217 571.346 666.694 571.346H586.458C581.874 571.346 578.137 575.02 578.059 579.603L574.35 796.845H682.85Z" fill="url(#paint44_linear)"/>
<mask id="mask16" mask-type="alpha" maskUnits="userSpaceOnUse" x="574" y="571" width="109" height="226">
<path fill-rule="evenodd" clip-rule="evenodd" d="M682.85 796.845L675.089 579.446C674.928 574.927 671.217 571.346 666.694 571.346H586.458C581.874 571.346 578.137 575.02 578.059 579.603L574.35 796.845H682.85Z" fill="white"/>
</mask>
<g mask="url(#mask16)">
<path fill-rule="evenodd" clip-rule="evenodd" d="M572.95 595.146H690.2V625.946H572.95V595.146Z" stroke="#FFBD60" stroke-width="1.4" stroke-linejoin="round"/>
<rect x="573.3" y="602.428" width="120.728" height="16.2352" fill="#F6F8FB"/>
<path fill-rule="evenodd" clip-rule="evenodd" d="M567 655.346H684.25V686.146H567V655.346Z" stroke="#FFBD60" stroke-width="1.4" stroke-linejoin="round"/>
<rect x="567.35" y="662.628" width="120.728" height="16.2352" fill="#F6F8FB"/>
</g>
<path fill-rule="evenodd" clip-rule="evenodd" d="M594.025 539.072C596.213 539.072 597.986 537.298 597.986 535.11C597.986 532.922 596.213 531.149 594.025 531.149C591.837 531.149 590.063 532.922 590.063 535.11C590.063 537.298 591.837 539.072 594.025 539.072Z" stroke="#FFBD60" stroke-width="2.1"/>
<path d="M593.556 571.316L594.118 539.121" stroke="#FFBD60" stroke-width="2.1"/>
<path d="M589.863 568.577C589.863 566.644 591.43 565.077 593.363 565.077H594.763C596.696 565.077 598.263 566.644 598.263 568.577V571.481H589.863V568.577Z" fill="url(#paint45_linear)"/>
<path d="M610.469 571.267L611.031 504.072" stroke="#583FB3" stroke-width="2.1"/>
<path fill-rule="evenodd" clip-rule="evenodd" d="M606.55 558.641C606.55 557.481 607.49 556.541 608.65 556.541H612.85C614.01 556.541 614.95 557.481 614.95 558.641V571.346H606.55V558.641Z" fill="url(#paint46_linear)"/>
<path fill-rule="evenodd" clip-rule="evenodd" d="M607.6 522.405C607.6 521.246 608.54 520.305 609.7 520.305H611.8C612.96 520.305 613.9 521.246 613.9 522.405V526.01C613.9 527.17 612.96 528.11 611.8 528.11H609.7C608.54 528.11 607.6 527.17 607.6 526.01V522.405Z" fill="url(#paint47_linear)"/>
<path fill-rule="evenodd" clip-rule="evenodd" d="M611.031 505.194C613.737 505.194 615.931 503 615.931 500.294C615.931 497.587 613.737 495.394 611.031 495.394C608.325 495.394 606.131 497.587 606.131 500.294C606.131 503 608.325 505.194 611.031 505.194Z" fill="#FFBD60"/>
<path d="M659.772 510.573L662.409 541.331" stroke="#563EB2" stroke-width="4.2"/>
<path fill-rule="evenodd" clip-rule="evenodd" d="M659.877 516.59C664.241 516.514 667.716 512.915 667.64 508.551C667.564 504.187 663.965 500.712 659.601 500.788C655.237 500.864 651.762 504.463 651.838 508.827C651.914 513.19 655.513 516.666 659.877 516.59Z" fill="#FF6CBB"/>
<path fill-rule="evenodd" clip-rule="evenodd" d="M644.52 550.305C649.275 543.032 657.1 538.338 665.756 537.567L713.785 533.287C719.666 532.763 725.584 533.735 730.988 536.113L747.565 543.407C753.935 546.21 758.503 551.987 759.761 558.833L803.6 797.388H632.8L639.906 564.97C640.065 559.75 641.662 554.676 644.52 550.305Z" fill="url(#paint48_linear)"/>
<path opacity="0.415341" fill-rule="evenodd" clip-rule="evenodd" d="M656.95 611.386C656.95 605.579 661.533 600.806 667.335 600.571L715.937 598.598C722.077 598.348 727.202 603.24 727.238 609.386C727.272 615.244 722.655 620.074 716.801 620.302L668.197 622.202C662.058 622.442 656.95 617.53 656.95 611.386Z" fill="#253554"/>
<path opacity="0.415341" fill-rule="evenodd" clip-rule="evenodd" d="M654.15 571.486C654.15 565.679 658.733 560.906 664.535 560.67L713.136 558.698C719.277 558.448 724.402 563.34 724.438 569.485C724.472 575.344 719.855 580.174 714.001 580.402L665.397 582.302C659.258 582.542 654.15 577.63 654.15 571.486Z" fill="#253554"/>
<path opacity="0.415341" fill-rule="evenodd" clip-rule="evenodd" d="M719.722 636.3C725.502 636.3 730.262 640.842 730.533 646.616L732.37 685.781C732.659 691.948 727.754 697.115 721.58 697.147C715.753 697.176 710.942 692.601 710.679 686.78L708.911 647.611C708.632 641.448 713.553 636.3 719.722 636.3Z" fill="#253554"/>
<path opacity="0.415341" fill-rule="evenodd" clip-rule="evenodd" d="M670.022 638.4C675.802 638.4 680.562 642.942 680.833 648.716L682.67 687.881C682.959 694.048 678.054 699.215 671.88 699.247C666.053 699.276 661.242 694.701 660.979 688.88L659.211 649.711C658.932 643.548 663.853 638.4 670.022 638.4Z" fill="#253554"/>
<mask id="mask17" mask-type="alpha" maskUnits="userSpaceOnUse" x="659" y="638" width="24" height="62">
<path fill-rule="evenodd" clip-rule="evenodd" d="M670.022 638.4C675.802 638.4 680.562 642.942 680.833 648.716L682.67 687.881C682.959 694.048 678.054 699.215 671.88 699.247C666.053 699.276 661.242 694.701 660.979 688.88L659.211 649.711C658.932 643.548 663.853 638.4 670.022 638.4Z" fill="white"/>
</mask>
<g mask="url(#mask17)">
</g>
<path fill-rule="evenodd" clip-rule="evenodd" d="M652.475 568.419C652.83 562.916 657.283 558.569 662.793 558.347L713.34 556.305C718.558 556.094 723.154 559.709 724.178 564.829C725.452 571.201 720.755 577.212 714.264 577.515L663.731 579.876C657.314 580.176 652.062 574.83 652.475 568.419Z" fill="#FFBD60"/>
<mask id="mask18" mask-type="alpha" maskUnits="userSpaceOnUse" x="652" y="556" width="73" height="24">
<path fill-rule="evenodd" clip-rule="evenodd" d="M652.475 568.419C652.83 562.916 657.283 558.569 662.793 558.347L713.34 556.305C718.558 556.094 723.154 559.709 724.178 564.829C725.452 571.201 720.755 577.212 714.264 577.515L663.731 579.876C657.314 580.176 652.062 574.83 652.475 568.419Z" fill="white"/>
</mask>
<g mask="url(#mask18)">
<path d="M672.888 555.544L675.207 582.043" stroke="#FF9666" stroke-width="3.5" stroke-linecap="round" stroke-linejoin="round"/>
<path d="M698.575 553.94L700.893 580.438" stroke="#FF9666" stroke-width="3.5" stroke-linecap="round" stroke-linejoin="round"/>
</g>
<path fill-rule="evenodd" clip-rule="evenodd" d="M655.275 607.919C655.63 602.416 660.083 598.069 665.593 597.846L716.14 595.804C721.358 595.593 725.954 599.208 726.978 604.329C728.252 610.7 723.555 616.711 717.064 617.014L666.531 619.376C660.114 619.676 654.862 614.329 655.275 607.919Z" fill="#FFBD60"/>
<mask id="mask19" mask-type="alpha" maskUnits="userSpaceOnUse" x="655" y="595" width="73" height="25">
<path fill-rule="evenodd" clip-rule="evenodd" d="M655.275 607.919C655.63 602.416 660.083 598.069 665.593 597.846L716.14 595.804C721.358 595.593 725.954 599.208 726.978 604.329C728.252 610.7 723.555 616.711 717.064 617.014L666.531 619.376C660.114 619.676 654.862 614.329 655.275 607.919Z" fill="white"/>
</mask>
<g mask="url(#mask19)">
<path d="M675.688 595.044L678.006 621.543" stroke="#FF9666" stroke-width="3.5" stroke-linecap="round" stroke-linejoin="round"/>
<path d="M701.375 593.439L703.693 619.938" stroke="#FF9666" stroke-width="3.5" stroke-linecap="round" stroke-linejoin="round"/>
</g>
<path fill-rule="evenodd" clip-rule="evenodd" d="M665.772 722.629C666.223 717.133 670.75 712.865 676.264 712.738L726.839 711.578C732.059 711.459 736.592 715.153 737.526 720.291C738.689 726.684 733.887 732.612 727.393 732.802L676.826 734.281C670.404 734.468 665.246 729.032 665.772 722.629Z" fill="#FFBD60"/>
<mask id="mask20" mask-type="alpha" maskUnits="userSpaceOnUse" x="665" y="710" width="73" height="26">
<path fill-rule="evenodd" clip-rule="evenodd" d="M665.772 722.629C666.223 717.133 670.75 712.865 676.264 712.738L726.839 711.578C732.059 711.459 736.592 715.153 737.526 720.291C738.689 726.684 733.887 732.612 727.393 732.802L676.826 734.281C670.404 734.468 665.246 729.032 665.772 722.629Z" fill="white"/>
</mask>
<g mask="url(#mask20)">
<path d="M686.406 710.112L688.262 736.648" stroke="#FF9666" stroke-width="3.5" stroke-linecap="round" stroke-linejoin="round"/>
<path d="M712.116 708.956L713.972 735.491" stroke="#FF9666" stroke-width="3.5" stroke-linecap="round" stroke-linejoin="round"/>
</g>
<path fill-rule="evenodd" clip-rule="evenodd" d="M671.477 695.188C665.697 695.188 660.937 690.646 660.666 684.872L658.83 645.707C658.54 639.539 663.445 634.373 669.619 634.341C675.446 634.311 680.258 638.887 680.52 644.708L682.289 683.877C682.567 690.04 677.646 695.188 671.477 695.188Z" fill="#FFBD60"/>
<mask id="mask21" mask-type="alpha" maskUnits="userSpaceOnUse" x="658" y="634" width="25" height="62">
<path fill-rule="evenodd" clip-rule="evenodd" d="M671.477 695.188C665.697 695.188 660.937 690.646 660.666 684.872L658.83 645.707C658.54 639.539 663.445 634.373 669.619 634.341C675.446 634.311 680.258 638.887 680.52 644.708L682.289 683.877C682.567 690.04 677.646 695.188 671.477 695.188Z" fill="white"/>
</mask>
<g mask="url(#mask21)">
<path d="M655.601 664.497L682.85 663.688" stroke="#FF9666" stroke-width="3.5" stroke-linecap="round" stroke-linejoin="round"/>
</g>
<path fill-rule="evenodd" clip-rule="evenodd" d="M721.527 692.788C715.747 692.788 710.987 688.247 710.716 682.473L708.88 643.307C708.59 637.14 713.495 631.973 719.669 631.942C725.496 631.912 730.308 636.488 730.57 642.309L732.339 681.478C732.617 687.64 727.696 692.788 721.527 692.788Z" fill="#FFBD60"/>
<mask id="mask22" mask-type="alpha" maskUnits="userSpaceOnUse" x="708" y="631" width="25" height="62">
<path fill-rule="evenodd" clip-rule="evenodd" d="M721.527 692.788C715.747 692.788 710.987 688.247 710.716 682.473L708.88 643.307C708.59 637.14 713.495 631.973 719.669 631.942C725.496 631.912 730.308 636.488 730.57 642.309L732.339 681.478C732.617 687.64 727.696 692.788 721.527 692.788Z" fill="white"/>
</mask>
<g mask="url(#mask22)">
<path d="M705.65 662.098L732.9 661.288" stroke="#FF9666" stroke-width="3.5" stroke-linecap="round" stroke-linejoin="round"/>
</g>
<path fill-rule="evenodd" clip-rule="evenodd" d="M998.999 226.45L1027 185.85L1056.6 192.681C1060.72 193.632 1063.87 196.959 1064.59 201.125L1162.8 769.65H1083.7L998.999 226.45Z" fill="url(#paint49_linear)"/>
<mask id="mask23" mask-type="alpha" maskUnits="userSpaceOnUse" x="998" y="185" width="165" height="585">
<path fill-rule="evenodd" clip-rule="evenodd" d="M998.999 226.45L1027 185.85L1056.6 192.681C1060.72 193.632 1063.87 196.959 1064.59 201.125L1162.8 769.65H1083.7L998.999 226.45Z" fill="white"/>
</mask>
<g mask="url(#mask23)">
<path opacity="0.415341" fill-rule="evenodd" clip-rule="evenodd" d="M1083.7 292.95C1083.7 292.95 1087.2 310.45 1056.4 320.25C1025.6 330.05 879.999 346.85 879.999 346.85L879.299 372.75C879.299 372.75 1116.6 346.85 1114.5 346.85C1112.4 346.85 1083.7 292.95 1083.7 292.95Z" fill="#253554"/>
</g>
<path fill-rule="evenodd" clip-rule="evenodd" d="M900.299 769.65L881.653 210.956C881.509 206.639 884.661 202.917 888.943 202.349L1021.31 184.783C1025.7 184.202 1029.78 187.115 1030.65 191.448L1147.4 769.65H900.299Z" fill="url(#paint50_linear)"/>
<rect opacity="0.415341" x="895.3" y="232.399" width="34.4548" height="107.8" rx="10.5" transform="rotate(-7 895.3 232.399)" fill="#253554"/>
<rect opacity="0.415341" x="976.5" y="223.299" width="34.4548" height="107.8" rx="10.5" transform="rotate(-7 976.5 223.299)" fill="#253554"/>
<path opacity="0.415341" fill-rule="evenodd" clip-rule="evenodd" d="M937.121 581.664C936.399 574.113 941.822 567.361 949.351 566.436L955.64 565.664C963.501 564.699 970.598 570.442 971.292 578.332L985.411 738.752C986.09 746.47 980.372 753.272 972.652 753.929L967.547 754.363C959.9 755.014 953.154 749.386 952.423 741.746L937.121 581.664Z" fill="#253554"/>
<path opacity="0.415341" fill-rule="evenodd" clip-rule="evenodd" d="M1035.12 567.664C1034.4 560.113 1039.82 553.361 1047.35 552.436L1053.64 551.664C1061.5 550.699 1068.6 556.442 1069.29 564.332L1083.41 724.752C1084.09 732.47 1078.37 739.272 1070.65 739.929L1065.55 740.363C1057.9 741.014 1051.15 735.386 1050.42 727.746L1035.12 567.664Z" fill="#253554"/>
<path opacity="0.415341" fill-rule="evenodd" clip-rule="evenodd" d="M1042.12 567.664C1041.4 560.113 1046.82 553.361 1054.35 552.436L1060.64 551.664C1068.5 550.699 1075.6 556.442 1076.29 564.332L1090.41 724.752C1091.09 732.47 1085.37 739.272 1077.65 739.929L1072.55 740.363C1064.9 741.014 1058.15 735.386 1057.42 727.746L1042.12 567.664Z" fill="#253554"/>
<mask id="mask24" mask-type="alpha" maskUnits="userSpaceOnUse" x="1036" y="549" width="62" height="194">
<path fill-rule="evenodd" clip-rule="evenodd" d="M1042.12 567.664C1041.4 560.113 1046.82 553.361 1054.35 552.436L1060.64 551.664C1068.5 550.699 1075.6 556.442 1076.29 564.332L1090.41 724.752C1091.09 732.47 1085.37 739.272 1077.65 739.929L1072.55 740.363C1064.9 741.014 1058.15 735.386 1057.42 727.746L1042.12 567.664Z" fill="white"/>
</mask>
<g mask="url(#mask24)">
</g>
<path opacity="0.415341" fill-rule="evenodd" clip-rule="evenodd" d="M868.799 543.55L1114.5 533.75L1111 505.75L865.299 520.45L868.799 543.55Z" fill="#253554"/>
<rect x="894.208" y="225.451" width="34.4548" height="107.8" rx="10.5" transform="rotate(-7 894.208 225.451)" fill="#FFBD60"/>
<mask id="mask25" mask-type="alpha" maskUnits="userSpaceOnUse" x="894" y="221" width="48" height="112">
<rect x="894.208" y="225.451" width="34.4548" height="107.8" rx="10.5" transform="rotate(-7 894.208 225.451)" fill="white"/>
</mask>
<g mask="url(#mask25)">
<path d="M890.442 250.823L937.456 243.377" stroke="#FF9666" stroke-width="3.5" stroke-linecap="round" stroke-linejoin="round"/>
<path d="M893.942 280.048L940.956 272.602" stroke="#FF9666" stroke-width="3.5" stroke-linecap="round" stroke-linejoin="round"/>
<path d="M897.442 309.273L944.456 301.827" stroke="#FF9666" stroke-width="3.5" stroke-linecap="round" stroke-linejoin="round"/>
</g>
<path fill-rule="evenodd" clip-rule="evenodd" d="M1024.38 565.676C1023.66 558.125 1029.08 551.372 1036.61 550.448L1042.9 549.676C1050.76 548.711 1057.85 554.454 1058.55 562.344L1072.67 722.764C1073.35 730.482 1067.63 737.284 1059.91 737.941L1054.8 738.375C1047.16 739.026 1040.41 733.398 1039.68 725.758L1024.38 565.676Z" fill="#FFBD60"/>
<mask id="mask26" mask-type="alpha" maskUnits="userSpaceOnUse" x="1018" y="547" width="62" height="194">
<path fill-rule="evenodd" clip-rule="evenodd" d="M1024.38 565.676C1023.66 558.125 1029.08 551.372 1036.61 550.448L1042.9 549.676C1050.76 548.711 1057.85 554.454 1058.55 562.344L1072.67 722.764C1073.35 730.482 1067.63 737.284 1059.91 737.941L1054.8 738.375C1047.16 739.026 1040.41 733.398 1039.68 725.758L1024.38 565.676Z" fill="white"/>
</mask>
<g mask="url(#mask26)">
<path d="M1018.38 597.138L1065.72 592.162" stroke="#FF9666" stroke-width="3.5" stroke-linecap="round" stroke-linejoin="round"/>
<path d="M1018.38 646.488L1065.72 641.512" stroke="#FF9666" stroke-width="3.5" stroke-linecap="round" stroke-linejoin="round"/>
<path d="M1024.33 695.838L1071.67 690.862" stroke="#FF9666" stroke-width="3.5" stroke-linecap="round" stroke-linejoin="round"/>
</g>
<path fill-rule="evenodd" clip-rule="evenodd" d="M930.505 568.144C929.783 560.593 935.207 553.841 942.736 552.917L949.025 552.144C956.886 551.179 963.982 556.922 964.677 564.813L978.796 725.232C979.475 732.95 973.757 739.752 966.037 740.409L960.932 740.844C953.284 741.494 946.539 735.867 945.808 728.226L930.505 568.144Z" fill="#FFBD60"/>
<mask id="mask27" mask-type="alpha" maskUnits="userSpaceOnUse" x="924" y="550" width="62" height="193">
<path fill-rule="evenodd" clip-rule="evenodd" d="M930.505 568.144C929.783 560.593 935.207 553.841 942.736 552.917L949.025 552.144C956.886 551.179 963.982 556.922 964.677 564.813L978.796 725.232C979.475 732.95 973.757 739.752 966.037 740.409L960.932 740.844C953.284 741.494 946.539 735.867 945.808 728.226L930.505 568.144Z" fill="white"/>
</mask>
<g mask="url(#mask27)">
<path d="M924.507 599.606L971.846 594.631" stroke="#FF9666" stroke-width="3.5" stroke-linecap="round" stroke-linejoin="round"/>
<path d="M924.507 648.956L971.846 643.981" stroke="#FF9666" stroke-width="3.5" stroke-linecap="round" stroke-linejoin="round"/>
<path d="M930.457 698.306L977.796 693.331" stroke="#FF9666" stroke-width="3.5" stroke-linecap="round" stroke-linejoin="round"/>
</g>
<rect x="975.408" y="216.351" width="34.4548" height="107.8" rx="10.5" transform="rotate(-7 975.408 216.351)" fill="#FFBD60"/>
<mask id="mask28" mask-type="alpha" maskUnits="userSpaceOnUse" x="975" y="212" width="48" height="112">
<rect x="975.408" y="216.351" width="34.4548" height="107.8" rx="10.5" transform="rotate(-7 975.408 216.351)" fill="white"/>
</mask>
<g mask="url(#mask28)">
<path d="M971.642 241.723L1018.66 234.277" stroke="#FF9666" stroke-width="3.5" stroke-linecap="round" stroke-linejoin="round"/>
<path d="M975.142 270.948L1022.16 263.502" stroke="#FF9666" stroke-width="3.5" stroke-linecap="round" stroke-linejoin="round"/>
<path d="M978.642 300.173L1025.66 292.727" stroke="#FF9666" stroke-width="3.5" stroke-linecap="round" stroke-linejoin="round"/>
</g>
<path fill-rule="evenodd" clip-rule="evenodd" d="M1090 497.35L1059.9 330.05H1100.17C1103.59 330.05 1106.51 332.521 1107.08 335.894L1133.4 493.15L1090 497.35Z" fill="url(#paint51_linear)"/>
<path fill-rule="evenodd" clip-rule="evenodd" d="M871.744 358.108C871.662 354.502 874.333 351.424 877.914 350.998L1059.06 329.417C1062.69 328.984 1066.05 331.421 1066.76 335.009L1101.76 511.969C1102.58 516.1 1099.59 520.013 1095.39 520.31L883.124 535.332C879.136 535.614 875.723 532.505 875.631 528.509L871.744 358.108Z" fill="url(#paint52_linear)"/>
<rect opacity="0.415341" x="895.34" y="380.597" width="160.65" height="44.52" rx="16.8" transform="rotate(-6 895.34 380.597)" fill="#253554"/>
<rect opacity="0.415341" x="923.34" y="463.197" width="160.65" height="44.52" rx="16.8" transform="rotate(-6 923.34 463.197)" fill="#253554"/>
<rect x="890.011" y="373.709" width="160.65" height="44.52" rx="16.8" transform="rotate(-6 890.011 373.709)" fill="#E2E7F4"/>
<rect x="893.183" y="377.106" width="155.05" height="37.1" rx="14" transform="rotate(-6 893.183 377.106)" fill="#FFBD60"/>
<mask id="mask29" mask-type="alpha" maskUnits="userSpaceOnUse" x="893" y="360" width="159" height="55">
<rect x="893.183" y="377.106" width="155.05" height="37.1" rx="14" transform="rotate(-6 893.183 377.106)" fill="white"/>
</mask>
<g mask="url(#mask29)">
<path d="M926.571 372.865L930.751 413.635" stroke="#FF9666" stroke-width="3.5" stroke-linecap="round" stroke-linejoin="round"/>
<path d="M970.133 367.065L974.312 407.836" stroke="#FF9666" stroke-width="3.5" stroke-linecap="round" stroke-linejoin="round"/>
<path d="M1013.12 361.528L1017.3 402.299" stroke="#FF9666" stroke-width="3.5" stroke-linecap="round" stroke-linejoin="round"/>
<path opacity="0.503664" fill-rule="evenodd" clip-rule="evenodd" d="M893.9 408.1L1053.5 391.3L1054.9 407.4L893.9 425.6L893.9 408.1Z" fill="#FF9666"/>
</g>
<rect x="904.711" y="456.761" width="160.65" height="44.52" rx="16.8" transform="rotate(-6 904.711 456.761)" fill="#E2E7F4"/>
<rect x="907.883" y="460.158" width="155.05" height="37.1" rx="14" transform="rotate(-6 907.883 460.158)" fill="#FFBD60"/>
<mask id="mask30" mask-type="alpha" maskUnits="userSpaceOnUse" x="907" y="443" width="159" height="55">
<rect x="907.883" y="460.158" width="155.05" height="37.1" rx="14" transform="rotate(-6 907.883 460.158)" fill="white"/>
</mask>
<g mask="url(#mask30)">
<path opacity="0.503664" fill-rule="evenodd" clip-rule="evenodd" d="M893.906 493.505L1053.19 473.922L1054.87 489.995L894.211 511.002L893.906 493.505Z" fill="#FF9666"/>
<path d="M941.271 455.917L945.451 496.688" stroke="#FF9666" stroke-width="3.5" stroke-linecap="round" stroke-linejoin="round"/>
<path d="M984.833 450.118L989.012 490.889" stroke="#FF9666" stroke-width="3.5" stroke-linecap="round" stroke-linejoin="round"/>
<path d="M1027.82 444.581L1032 485.351" stroke="#FF9666" stroke-width="3.5" stroke-linecap="round" stroke-linejoin="round"/>
</g>
<path fill-rule="evenodd" clip-rule="evenodd" d="M601.3 762.794L579.437 501.809C579.134 498.183 576.101 495.394 572.462 495.394H470.921C467.125 495.394 464.021 498.418 463.923 502.212L457.1 764.894L601.3 762.794Z" fill="url(#paint53_linear)"/>
<mask id="mask31" mask-type="alpha" maskUnits="userSpaceOnUse" x="457" y="495" width="145" height="270">
<path fill-rule="evenodd" clip-rule="evenodd" d="M601.3 762.794L579.437 501.809C579.134 498.183 576.101 495.394 572.462 495.394H470.921C467.125 495.394 464.021 498.418 463.923 502.212L457.1 764.894L601.3 762.794Z" fill="white"/>
</mask>
<g mask="url(#mask31)">
<path d="M566.06 514.603C569.02 514.603 571.419 512.204 571.419 509.244C571.419 506.284 569.02 503.884 566.06 503.884C563.1 503.884 560.7 506.284 560.7 509.244C560.7 512.204 563.1 514.603 566.06 514.603Z" fill="#583FB3"/>
<path fill-rule="evenodd" clip-rule="evenodd" d="M553.033 513.145C555.188 513.145 556.935 511.399 556.935 509.244C556.935 507.089 555.188 505.342 553.033 505.342C550.878 505.342 549.131 507.089 549.131 509.244C549.131 511.399 550.878 513.145 553.033 513.145Z" fill="#FF6CBB"/>
<path d="M573.428 619.719C576.388 619.719 578.788 617.32 578.788 614.36C578.788 611.4 576.388 609 573.428 609C570.468 609 568.069 611.4 568.069 614.36C568.069 617.32 570.468 619.719 573.428 619.719Z" fill="#583FB3"/>
<path fill-rule="evenodd" clip-rule="evenodd" d="M560.402 618.261C562.557 618.261 564.303 616.514 564.303 614.36C564.303 612.205 562.557 610.458 560.402 610.458C558.247 610.458 556.5 612.205 556.5 614.36C556.5 616.514 558.247 618.261 560.402 618.261Z" fill="#FF6CBB"/>
<rect x="448.791" y="540.179" width="146.909" height="59.0366" fill="#E2E7F4"/>
<path fill-rule="evenodd" clip-rule="evenodd" d="M443.146 654.286L605.454 654.064V713.101L443.146 713.323V654.286Z" fill="#E2E7F4"/>
<rect x="452.9" y="544.497" width="142.709" height="49.8576" fill="url(#paint54_linear)"/>
<mask id="mask32" mask-type="alpha" maskUnits="userSpaceOnUse" x="452" y="544" width="144" height="51">
<rect x="452.9" y="544.497" width="142.709" height="49.8576" fill="white"/>
</mask>
<g mask="url(#mask32)">
<path d="M524.3 536.694V600.394" stroke="#5D7CFF" stroke-width="3.5"/>
</g>
<path fill-rule="evenodd" clip-rule="evenodd" d="M424.9 658.494H616.609V708.351H424.9V658.494Z" fill="url(#paint55_linear)"/>
<mask id="mask33" mask-type="alpha" maskUnits="userSpaceOnUse" x="424" y="658" width="193" height="51">
<path fill-rule="evenodd" clip-rule="evenodd" d="M424.9 658.494H616.609V708.351H424.9V658.494Z" fill="white"/>
</mask>
<g mask="url(#mask33)">
<path d="M524.3 653.594V715.894" stroke="#5D7CFF" stroke-width="3.5"/>
</g>
</g>
<defs>
<linearGradient id="paint0_linear" x1="-10.0627" y1="262.661" x2="1591.49" y2="1006.76" gradientUnits="userSpaceOnUse">
<stop stop-color="#FFA492" stop-opacity="0.01"/>
<stop offset="0.300844" stop-color="#CA3891"/>
<stop offset="1" stop-color="#3E13AF"/>
</linearGradient>
<linearGradient id="paint1_linear" x1="1270.48" y1="481.473" x2="1400.6" y2="-306.308" gradientUnits="userSpaceOnUse">
<stop stop-color="#FFA492"/>
<stop offset="0.216626" stop-color="#CA3891"/>
<stop offset="1" stop-color="#3E13AF"/>
</linearGradient>
<linearGradient id="paint2_linear" x1="1073.32" y1="190.768" x2="1081.34" y2="108.018" gradientUnits="userSpaceOnUse">
<stop stop-color="#FFA492"/>
<stop offset="0.216626" stop-color="#CA3891"/>
<stop offset="1" stop-color="#3E13AF"/>
</linearGradient>
<linearGradient id="paint3_linear" x1="750.285" y1="241.079" x2="780.86" y2="190.328" gradientUnits="userSpaceOnUse">
<stop stop-color="#FFA492"/>
<stop offset="0.216626" stop-color="#CA3891"/>
<stop offset="1" stop-color="#3E13AF"/>
</linearGradient>
<linearGradient id="paint4_linear" x1="710.602" y1="256.518" x2="721.352" y2="167.903" gradientUnits="userSpaceOnUse">
<stop stop-color="#FFA492"/>
<stop offset="0.216626" stop-color="#CA3891"/>
<stop offset="1" stop-color="#3E13AF"/>
</linearGradient>
<linearGradient id="paint5_linear" x1="411.224" y1="228.194" x2="401.19" y2="128.84" gradientUnits="userSpaceOnUse">
<stop stop-color="#FFA492"/>
<stop offset="0.216626" stop-color="#CA3891"/>
<stop offset="1" stop-color="#3E13AF"/>
</linearGradient>
<linearGradient id="paint6_linear" x1="593.139" y1="143.132" x2="661.485" y2="303.854" gradientUnits="userSpaceOnUse">
<stop stop-color="#F393AA"/>
<stop offset="1" stop-color="#B81375"/>
</linearGradient>
<linearGradient id="paint7_linear" x1="812.349" y1="283.278" x2="837.587" y2="169.76" gradientUnits="userSpaceOnUse">
<stop stop-color="#FFA492"/>
<stop offset="0.216626" stop-color="#CA3891"/>
<stop offset="1" stop-color="#3E13AF"/>
</linearGradient>
<linearGradient id="paint8_linear" x1="782.093" y1="269.451" x2="827.283" y2="134.089" gradientUnits="userSpaceOnUse">
<stop stop-color="#FFA492"/>
<stop offset="0.216626" stop-color="#CA3891"/>
<stop offset="1" stop-color="#3E13AF"/>
</linearGradient>
<linearGradient id="paint9_linear" x1="710.847" y1="256.309" x2="721.597" y2="167.695" gradientUnits="userSpaceOnUse">
<stop stop-color="#FFA492"/>
<stop offset="0.216626" stop-color="#CA3891"/>
<stop offset="1" stop-color="#3E13AF"/>
</linearGradient>
<linearGradient id="paint10_linear" x1="409.179" y1="175.262" x2="477.525" y2="335.984" gradientUnits="userSpaceOnUse">
<stop stop-color="#F393AA"/>
<stop offset="1" stop-color="#B81375"/>
</linearGradient>
<linearGradient id="paint11_linear" x1="606.999" y1="312.76" x2="632.537" y2="207.514" gradientUnits="userSpaceOnUse">
<stop stop-color="#FFA492"/>
<stop offset="0.216626" stop-color="#CA3891"/>
<stop offset="1" stop-color="#3E13AF"/>
</linearGradient>
<linearGradient id="paint12_linear" x1="599.207" y1="297.244" x2="641.367" y2="167.403" gradientUnits="userSpaceOnUse">
<stop stop-color="#FFA492"/>
<stop offset="0.216626" stop-color="#CA3891"/>
<stop offset="1" stop-color="#3E13AF"/>
</linearGradient>
<linearGradient id="paint13_linear" x1="772.689" y1="112.892" x2="841.035" y2="273.614" gradientUnits="userSpaceOnUse">
<stop stop-color="#F393AA"/>
<stop offset="1" stop-color="#B81375"/>
</linearGradient>
<linearGradient id="paint14_linear" x1="999.373" y1="252.478" x2="1023.07" y2="138.267" gradientUnits="userSpaceOnUse">
<stop stop-color="#FFA492"/>
<stop offset="0.216626" stop-color="#CA3891"/>
<stop offset="1" stop-color="#3E13AF"/>
</linearGradient>
<linearGradient id="paint15_linear" x1="1000.57" y1="242.843" x2="1041.25" y2="89.3376" gradientUnits="userSpaceOnUse">
<stop stop-color="#FFA492"/>
<stop offset="0.216626" stop-color="#CA3891"/>
<stop offset="1" stop-color="#3E13AF"/>
</linearGradient>
<linearGradient id="paint16_linear" x1="947.689" y1="82.7923" x2="1016.03" y2="243.514" gradientUnits="userSpaceOnUse">
<stop stop-color="#F393AA"/>
<stop offset="1" stop-color="#B81375"/>
</linearGradient>
<linearGradient id="paint17_linear" x1="1136.02" y1="265.332" x2="1248.39" y2="78.8211" gradientUnits="userSpaceOnUse">
<stop stop-color="#FFA492"/>
<stop offset="0.216626" stop-color="#CA3891"/>
<stop offset="1" stop-color="#3E13AF"/>
</linearGradient>
<linearGradient id="paint18_linear" x1="1175.57" y1="212.743" x2="1216.25" y2="59.2376" gradientUnits="userSpaceOnUse">
<stop stop-color="#FFA492"/>
<stop offset="0.216626" stop-color="#CA3891"/>
<stop offset="1" stop-color="#3E13AF"/>
</linearGradient>
<linearGradient id="paint19_linear" x1="1073.32" y1="190.768" x2="1081.34" y2="108.018" gradientUnits="userSpaceOnUse">
<stop stop-color="#FFA492"/>
<stop offset="0.216626" stop-color="#CA3891"/>
<stop offset="1" stop-color="#3E13AF"/>
</linearGradient>
<linearGradient id="paint20_linear" x1="499.119" y1="224.534" x2="357.757" y2="327.099" gradientUnits="userSpaceOnUse">
<stop stop-color="#F393AA"/>
<stop offset="1" stop-color="#B81375"/>
</linearGradient>
<linearGradient id="paint21_linear" x1="243.669" y1="284.002" x2="243.414" y2="66.2585" gradientUnits="userSpaceOnUse">
<stop stop-color="#FFA492"/>
<stop offset="0.216626" stop-color="#CA3891"/>
<stop offset="1" stop-color="#3E13AF"/>
</linearGradient>
<linearGradient id="paint22_linear" x1="450.563" y1="280.329" x2="280.297" y2="412.52" gradientUnits="userSpaceOnUse">
<stop stop-color="#FFA492"/>
<stop offset="0.216626" stop-color="#CA3891"/>
<stop offset="1" stop-color="#3E13AF"/>
</linearGradient>
<linearGradient id="paint23_linear" x1="317.126" y1="160.76" x2="405.197" y2="141.665" gradientUnits="userSpaceOnUse">
<stop stop-color="#FFA492"/>
<stop offset="0.216626" stop-color="#CA3891"/>
<stop offset="1" stop-color="#3E13AF"/>
</linearGradient>
<linearGradient id="paint24_linear" x1="410.961" y1="315.036" x2="515.61" y2="125.54" gradientUnits="userSpaceOnUse">
<stop stop-color="#FFA492"/>
<stop offset="0.216626" stop-color="#CA3891"/>
<stop offset="1" stop-color="#3E13AF"/>
</linearGradient>
<linearGradient id="paint25_linear" x1="357.991" y1="110.504" x2="216.629" y2="213.069" gradientUnits="userSpaceOnUse">
<stop stop-color="#F393AA"/>
<stop offset="1" stop-color="#B81375"/>
</linearGradient>
<linearGradient id="paint26_linear" x1="102.541" y1="169.972" x2="102.286" y2="-47.7715" gradientUnits="userSpaceOnUse">
<stop stop-color="#FFA492"/>
<stop offset="0.216626" stop-color="#CA3891"/>
<stop offset="1" stop-color="#3E13AF"/>
</linearGradient>
<linearGradient id="paint27_linear" x1="284.547" y1="149.879" x2="173.905" y2="243.795" gradientUnits="userSpaceOnUse">
<stop stop-color="#FFA492"/>
<stop offset="0.216626" stop-color="#CA3891"/>
<stop offset="1" stop-color="#3E13AF"/>
</linearGradient>
<linearGradient id="paint28_linear" x1="274.826" y1="182.789" x2="341.064" y2="66.6646" gradientUnits="userSpaceOnUse">
<stop stop-color="#FFA492"/>
<stop offset="0.216626" stop-color="#CA3891"/>
<stop offset="1" stop-color="#3E13AF"/>
</linearGradient>
<linearGradient id="paint29_linear" x1="-102.484" y1="553.294" x2="1073.32" y2="1661.83" gradientUnits="userSpaceOnUse">
<stop stop-color="#FFA492" stop-opacity="0.01"/>
<stop offset="0.300844" stop-color="#CA3891"/>
<stop offset="1" stop-color="#3E13AF"/>
</linearGradient>
<linearGradient id="paint30_linear" x1="296.394" y1="574.041" x2="331.433" y2="522.224" gradientUnits="userSpaceOnUse">
<stop stop-color="#FFA492"/>
<stop offset="0.216626" stop-color="#CA3891"/>
<stop offset="1" stop-color="#3E13AF"/>
</linearGradient>
<linearGradient id="paint31_linear" x1="454.591" y1="577.562" x2="481.818" y2="435.266" gradientUnits="userSpaceOnUse">
<stop stop-color="#FFA492"/>
<stop offset="0.216626" stop-color="#CA3891"/>
<stop offset="1" stop-color="#3E13AF"/>
</linearGradient>
<linearGradient id="paint32_linear" x1="741.431" y1="593.243" x2="768.32" y2="450.421" gradientUnits="userSpaceOnUse">
<stop stop-color="#FFA492"/>
<stop offset="0.216626" stop-color="#CA3891"/>
<stop offset="1" stop-color="#3E13AF"/>
</linearGradient>
<linearGradient id="paint33_linear" x1="1272.7" y1="743.323" x2="1340.94" y2="267.863" gradientUnits="userSpaceOnUse">
<stop stop-color="#FFA492"/>
<stop offset="0.216626" stop-color="#CA3891"/>
<stop offset="1" stop-color="#3E13AF"/>
</linearGradient>
<linearGradient id="paint34_linear" x1="232.238" y1="501.639" x2="232.238" y2="578.289" gradientUnits="userSpaceOnUse">
<stop stop-color="#F393AA"/>
<stop offset="1" stop-color="#D44399"/>
</linearGradient>
<linearGradient id="paint35_linear" x1="381.214" y1="491.852" x2="381.214" y2="568.502" gradientUnits="userSpaceOnUse">
<stop stop-color="#F393AA"/>
<stop offset="1" stop-color="#D44399"/>
</linearGradient>
<linearGradient id="paint36_linear" x1="857.853" y1="556.297" x2="1006.74" y2="284.056" gradientUnits="userSpaceOnUse">
<stop stop-color="#FFA492"/>
<stop offset="0.43169" stop-color="#CA3891"/>
<stop offset="1" stop-color="#3E13AF"/>
</linearGradient>
<linearGradient id="paint37_linear" x1="831.945" y1="454.659" x2="848.936" y2="354.04" gradientUnits="userSpaceOnUse">
<stop stop-color="#FFA492"/>
<stop offset="0.359822" stop-color="#CA3891"/>
<stop offset="1" stop-color="#3E13AF"/>
</linearGradient>
<linearGradient id="paint38_linear" x1="948.128" y1="1202.52" x2="1558.65" y2="857.927" gradientUnits="userSpaceOnUse">
<stop stop-color="#FFA492"/>
<stop offset="0.43169" stop-color="#CA3891"/>
<stop offset="1" stop-color="#3E13AF"/>
</linearGradient>
<linearGradient id="paint39_linear" x1="796.903" y1="551.389" x2="830.836" y2="544.06" gradientUnits="userSpaceOnUse">
<stop stop-color="#74C3FF"/>
<stop offset="1" stop-color="#5C79FF"/>
</linearGradient>
<linearGradient id="paint40_linear" x1="811.915" y1="648.321" x2="845.848" y2="640.991" gradientUnits="userSpaceOnUse">
<stop stop-color="#74C3FF"/>
<stop offset="1" stop-color="#5C79FF"/>
</linearGradient>
<linearGradient id="paint41_linear" x1="826.927" y1="745.252" x2="860.86" y2="737.922" gradientUnits="userSpaceOnUse">
<stop stop-color="#74C3FF"/>
<stop offset="1" stop-color="#5C79FF"/>
</linearGradient>
<linearGradient id="paint42_linear" x1="1009.16" y1="1016.58" x2="1389.48" y2="480.282" gradientUnits="userSpaceOnUse">
<stop stop-color="#FFA492"/>
<stop offset="0.43169" stop-color="#CA3891"/>
<stop offset="1" stop-color="#3E13AF"/>
</linearGradient>
<linearGradient id="paint43_linear" x1="896.329" y1="909.339" x2="1116.88" y2="607.455" gradientUnits="userSpaceOnUse">
<stop stop-color="#FFA492"/>
<stop offset="0.397722" stop-color="#CA3891"/>
<stop offset="1" stop-color="#3E13AF"/>
</linearGradient>
<linearGradient id="paint44_linear" x1="758.243" y1="1032.92" x2="1179.04" y2="642.324" gradientUnits="userSpaceOnUse">
<stop stop-color="#FFA492"/>
<stop offset="0.43169" stop-color="#CA3891"/>
<stop offset="1" stop-color="#3E13AF"/>
</linearGradient>
<linearGradient id="paint45_linear" x1="612.691" y1="594.81" x2="621.582" y2="558.574" gradientUnits="userSpaceOnUse">
<stop stop-color="#FFA492"/>
<stop offset="0.536699" stop-color="#CA3891"/>
<stop offset="1" stop-color="#3E13AF"/>
</linearGradient>
<linearGradient id="paint46_linear" x1="622.2" y1="617.533" x2="663.986" y2="567.683" gradientUnits="userSpaceOnUse">
<stop stop-color="#FFA492"/>
<stop offset="0.43169" stop-color="#CA3891"/>
<stop offset="1" stop-color="#3E13AF"/>
</linearGradient>
<linearGradient id="paint47_linear" x1="612.349" y1="538.037" x2="623.614" y2="525.597" gradientUnits="userSpaceOnUse">
<stop stop-color="#FF6CBB"/>
<stop offset="1" stop-color="#8E62FF"/>
</linearGradient>
<linearGradient id="paint48_linear" x1="761.543" y1="1134.32" x2="1142.79" y2="798.046" gradientUnits="userSpaceOnUse">
<stop stop-color="#FF6CBB"/>
<stop offset="1" stop-color="#8E62FF"/>
</linearGradient>
<linearGradient id="paint49_linear" x1="1135.63" y1="1154.18" x2="1540.72" y2="972.104" gradientUnits="userSpaceOnUse">
<stop stop-color="#FF6CBB"/>
<stop offset="1" stop-color="#8E62FF"/>
</linearGradient>
<linearGradient id="paint50_linear" x1="1081.9" y1="1514.87" x2="1843.71" y2="1041.72" gradientUnits="userSpaceOnUse">
<stop stop-color="#FF6CBB"/>
<stop offset="1" stop-color="#8E62FF"/>
</linearGradient>
<linearGradient id="paint51_linear" x1="1103.75" y1="585.414" x2="1192.09" y2="422.36" gradientUnits="userSpaceOnUse">
<stop stop-color="#FF6CBB"/>
<stop offset="1" stop-color="#8E62FF"/>
</linearGradient>
<linearGradient id="paint52_linear" x1="893.127" y1="873.948" x2="1180.41" y2="481.563" gradientUnits="userSpaceOnUse">
<stop stop-color="#FF6CBB"/>
<stop offset="1" stop-color="#8E62FF"/>
</linearGradient>
<linearGradient id="paint53_linear" x1="593.199" y1="835.866" x2="593.199" y2="495.394" gradientUnits="userSpaceOnUse">
<stop stop-color="#74C3FF"/>
<stop offset="1" stop-color="#5C79FF"/>
</linearGradient>
<linearGradient id="paint54_linear" x1="460.391" y1="509.926" x2="422.855" y2="639.879" gradientUnits="userSpaceOnUse">
<stop stop-color="#6BE5FF"/>
<stop offset="1" stop-color="#5C79FF"/>
</linearGradient>
<linearGradient id="paint55_linear" x1="409.49" y1="616.76" x2="373.478" y2="777.482" gradientUnits="userSpaceOnUse">
<stop stop-color="#6BE5FF"/>
<stop offset="1" stop-color="#5C79FF"/>
</linearGradient>
</defs>
</svg>
