<svg width="224" height="265" viewBox="0 0 224 265" fill="none" xmlns="http://www.w3.org/2000/svg">
<g opacity="0.12">
<path d="M156.25 21.5796H193.525C205.897 21.5796 215.925 31.6084 215.925 43.9796V136.439C215.925 148.81 205.897 158.839 193.525 158.839H27.9863" stroke="#A568F2" stroke-width="14.7"/>
<path fill-rule="evenodd" clip-rule="evenodd" d="M147.15 35.2297C154.689 35.2297 160.8 29.1184 160.8 21.5797C160.8 14.041 154.689 7.92969 147.15 7.92969C139.611 7.92969 133.5 14.041 133.5 21.5797C133.5 29.1184 139.611 35.2297 147.15 35.2297Z" stroke="#A568F2" stroke-width="14.7"/>
<path fill-rule="evenodd" clip-rule="evenodd" d="M21.15 172.489C28.6887 172.489 34.8 166.378 34.8 158.839C34.8 151.3 28.6887 145.189 21.15 145.189C13.6113 145.189 7.5 151.3 7.5 158.839C7.5 166.378 13.6113 172.489 21.15 172.489Z" stroke="#A568F2" stroke-width="14.7"/>
<path d="M164.1 158.839V234.38" stroke="#A568F2" stroke-width="14.7"/>
<path fill-rule="evenodd" clip-rule="evenodd" d="M164.1 256.68C171.639 256.68 177.75 250.568 177.75 243.03C177.75 235.491 171.639 229.38 164.1 229.38C156.561 229.38 150.45 235.491 150.45 243.03C150.45 250.568 156.561 256.68 164.1 256.68Z" stroke="#A568F2" stroke-width="14.7"/>
</g>
</svg>
