<svg width="260" height="143" viewBox="0 0 260 143" fill="none" xmlns="http://www.w3.org/2000/svg">
<g opacity="0.2">
<path d="M21.6499 75.7498L21.6499 113.025C21.6499 125.396 31.6787 135.425 44.0499 135.425H136.509C148.88 135.425 158.909 125.396 158.909 113.025L158.909 53.332C158.909 35.6589 173.236 21.332 190.909 21.332L227.42 21.332" stroke="#FFAA8C" stroke-width="14.7"/>
<path fill-rule="evenodd" clip-rule="evenodd" d="M35.3 66.65C35.3 74.1887 29.1887 80.3 21.65 80.3C14.1113 80.3 8 74.1887 8 66.65C8 59.1113 14.1113 53 21.65 53C29.1887 53 35.3 59.1113 35.3 66.65Z" stroke="#FFAA8C" stroke-width="14.7"/>
<path fill-rule="evenodd" clip-rule="evenodd" d="M252.07 21.3321C252.07 28.8708 245.958 34.9821 238.42 34.9821C230.881 34.9821 224.77 28.8708 224.77 21.3321C224.77 13.7934 230.881 7.68213 238.42 7.68213C245.958 7.68213 252.07 13.7934 252.07 21.3321Z" stroke="#FFAA8C" stroke-width="14.7"/>
</g>
</svg>
