<svg width="199" height="138" viewBox="0 0 199 138" fill="none" xmlns="http://www.w3.org/2000/svg">
<g opacity="0.2">
<path d="M21.6499 30.4V94.1C21.6499 106.471 31.6787 116.5 44.0499 116.5H170.401" stroke="#FFAA8C" stroke-width="14.7"/>
<path fill-rule="evenodd" clip-rule="evenodd" d="M177.05 130.15C184.589 130.15 190.7 124.039 190.7 116.5C190.7 108.961 184.589 102.85 177.05 102.85C169.511 102.85 163.4 108.961 163.4 116.5C163.4 124.039 169.511 130.15 177.05 130.15Z" stroke="#FFAA8C" stroke-width="14.7"/>
<path fill-rule="evenodd" clip-rule="evenodd" d="M21.65 35.3C29.1887 35.3 35.3 29.1887 35.3 21.65C35.3 14.1113 29.1887 8 21.65 8C14.1113 8 8 14.1113 8 21.65C8 29.1887 14.1113 35.3 21.65 35.3Z" stroke="#FFAA8C" stroke-width="14.7"/>
</g>
</svg>
