<svg width="1658" height="464" viewBox="0 0 1658 464" fill="none" xmlns="http://www.w3.org/2000/svg">
<g opacity="0.12">
<path d="M1590.25 220.58H1627.53C1639.9 220.58 1649.93 230.608 1649.93 242.98V335.439C1649.93 347.81 1639.9 357.839 1627.53 357.839H1461.99" stroke="#A568F2" stroke-width="14.7"/>
<path fill-rule="evenodd" clip-rule="evenodd" d="M1581.15 234.23C1588.69 234.23 1594.8 228.118 1594.8 220.58C1594.8 213.041 1588.69 206.93 1581.15 206.93C1573.61 206.93 1567.5 213.041 1567.5 220.58C1567.5 228.118 1573.61 234.23 1581.15 234.23Z" stroke="#A568F2" stroke-width="14.7"/>
<path fill-rule="evenodd" clip-rule="evenodd" d="M1455.15 371.489C1462.69 371.489 1468.8 365.378 1468.8 357.839C1468.8 350.3 1462.69 344.189 1455.15 344.189C1447.61 344.189 1441.5 350.3 1441.5 357.839C1441.5 365.378 1447.61 371.489 1455.15 371.489Z" stroke="#A568F2" stroke-width="14.7"/>
<path d="M1598.1 357.839V433.38" stroke="#A568F2" stroke-width="14.7"/>
<path fill-rule="evenodd" clip-rule="evenodd" d="M1598.1 455.68C1605.64 455.68 1611.75 449.568 1611.75 442.03C1611.75 434.491 1605.64 428.38 1598.1 428.38C1590.56 428.38 1584.45 434.491 1584.45 442.03C1584.45 449.568 1590.56 455.68 1598.1 455.68Z" stroke="#A568F2" stroke-width="14.7"/>
</g>
<g opacity="0.2">
<path d="M21.6499 75.7498L21.6499 113.025C21.6499 125.396 31.6787 135.425 44.0499 135.425H136.509C148.88 135.425 158.909 125.396 158.909 113.025L158.909 53.332C158.909 35.6589 173.236 21.332 190.909 21.332L227.42 21.332" stroke="#FFAA8C" stroke-width="14.7"/>
<path fill-rule="evenodd" clip-rule="evenodd" d="M35.3 66.65C35.3 74.1887 29.1887 80.3 21.65 80.3C14.1113 80.3 8 74.1887 8 66.65C8 59.1113 14.1113 53 21.65 53C29.1887 53 35.3 59.1113 35.3 66.65Z" stroke="#FFAA8C" stroke-width="14.7"/>
<path fill-rule="evenodd" clip-rule="evenodd" d="M252.07 21.3321C252.07 28.8708 245.958 34.9821 238.42 34.9821C230.881 34.9821 224.77 28.8708 224.77 21.3321C224.77 13.7934 230.881 7.68213 238.42 7.68213C245.958 7.68213 252.07 13.7934 252.07 21.3321Z" stroke="#FFAA8C" stroke-width="14.7"/>
</g>
</svg>
