<svg width="115" height="20" viewBox="0 0 115 20" fill="none" xmlns="http://www.w3.org/2000/svg">
<path fill-rule="evenodd" clip-rule="evenodd" d="M3.26004 17.647C5.06051 17.647 6.52008 16.1874 6.52008 14.3869C6.52008 12.5865 5.06051 11.1269 3.26004 11.1269C1.45957 11.1269 0 12.5865 0 14.3869C0 16.1874 1.45957 17.647 3.26004 17.647Z" fill="white"/>
<path fill-rule="evenodd" clip-rule="evenodd" d="M8.68603 0L15.8408 11.0715C16.2863 11.7608 16.5232 12.5641 16.5232 13.3848C16.5232 15.7387 14.615 17.647 12.2611 17.647L6.86881 9.61113C5.51332 7.5911 5.48917 4.95841 6.80736 2.91386L8.68603 0Z" fill="white"/>
<path fill-rule="evenodd" clip-rule="evenodd" d="M71.4057 6.95923H68.4204V10.505C68.4204 12.3693 70.0789 12.2092 71.8175 11.7974L72.0691 14.7255C71.2685 15.0229 70.0675 15.2288 69.1525 15.2288C66.6361 15.2288 64.8175 14.0164 64.8175 11.0883V6.95923H63.0675V4.01971H64.8175V0.496857H68.3061V4.01971H71.4057V6.95923ZM34.5268 15H38.0153V4.01971H34.5268L34.4124 5.17493C33.7833 4.40859 32.7196 3.79095 31.1755 3.79095C28.2474 3.79095 26.0971 6.23864 26.0971 9.5213C26.0971 12.804 28.2474 15.2288 31.1755 15.2288C32.7196 15.2288 33.7833 14.6226 34.4124 13.8448L34.5268 15ZM29.6657 9.5213C29.6657 8.03438 30.6379 6.99354 32.0333 6.99354C33.4287 7.00498 34.4009 8.03438 34.4009 9.5213C34.4009 11.0082 33.4287 12.0491 32.0333 12.0491C30.6379 12.0491 29.6657 11.0082 29.6657 9.5213ZM45.0698 5.51806C45.5845 4.43147 46.6711 3.79095 47.9407 3.79095C48.3753 3.79095 48.8214 3.87101 49.2789 4.01971L49.0616 7.16511C48.604 7.00498 48.1351 6.92491 47.6776 6.92491C46.3165 6.92491 45.1613 7.66837 45.1613 9.71574V15H41.5584V4.01971H44.9554L45.0698 5.51806ZM57.1569 3.79095C53.7598 3.79095 51.0834 5.75825 51.0834 9.53273C51.0834 12.8955 53.6912 15.2288 57.2026 15.2288C58.6438 15.2288 59.6389 14.9314 60.9085 14.3252L60.5539 11.1683C59.5245 11.6602 58.7925 11.9232 57.6029 11.9232C55.9788 11.9232 54.6863 11.0997 54.6863 9.50986C54.6863 7.65693 56.1503 7.05073 57.7974 7.05073C58.7238 7.05073 59.7075 7.25661 60.5081 7.58831L60.7712 4.52297C59.4216 3.96252 58.415 3.79095 57.1569 3.79095ZM73.8507 4.01971L78.2657 15.0115C77.9455 16.1324 77.1105 16.6928 76.1269 16.6928C75.7151 16.6928 75.2805 16.5899 74.8458 16.3954L74.354 19.232C75.1203 19.6095 75.9324 19.8039 76.7216 19.8039C78.7461 19.8039 80.5075 18.7974 81.3883 16.6127L86.4781 4.01971H82.452L80.1873 11.3628L77.8654 4.01971H73.8507ZM92.7205 19.5751H89.1175V4.01971H92.5031L92.6175 5.17493C93.258 4.37428 94.2874 3.79095 95.9459 3.79095C99.0456 3.79095 101.07 6.23864 101.07 9.53273C101.07 12.804 99.0456 15.2288 95.9459 15.2288C94.5848 15.2288 93.3724 14.817 92.7205 14.1879V19.5751ZM92.6747 9.50986C92.6747 8.03438 93.6698 7.01641 95.0195 7.01641C96.4034 7.01641 97.4443 7.98863 97.4443 9.50986C97.4443 10.9739 96.392 12.0033 95.0195 12.0033C93.6698 12.0033 92.6747 10.9739 92.6747 9.50986ZM107.187 8.32033H111.281C111.281 7.46249 110.561 6.6504 109.348 6.6504C108.022 6.6504 107.278 7.41674 107.187 8.32033ZM114.278 14.2451L113.786 11.5458C113.089 11.8775 111.647 12.1863 110.195 12.1863C108.719 12.1863 107.358 11.7059 107.175 10.4363H114.495C115.296 5.88407 112.471 3.79095 109.291 3.79095C106.054 3.79095 103.664 6.05564 103.664 9.50986C103.664 12.9641 106.1 15.2288 110.172 15.2288C111.853 15.2288 113.42 14.7369 114.278 14.2451Z" fill="white"/>
</svg>
