<svg width="262" height="32" viewBox="0 0 262 32" fill="none" xmlns="http://www.w3.org/2000/svg">
<path fill-rule="evenodd" clip-rule="evenodd" d="M5.19041 28.0961C8.05699 28.0961 10.3808 25.7723 10.3808 22.9057C10.3808 20.0392 8.05699 17.7153 5.19041 17.7153C2.32382 17.7153 0 20.0392 0 22.9057C0 25.7723 2.32382 28.0961 5.19041 28.0961Z" fill="white"/>
<path fill-rule="evenodd" clip-rule="evenodd" d="M13.8293 0L25.2206 17.6272C25.9299 18.7247 26.3071 20.0037 26.3071 21.3104C26.3071 25.0581 23.269 28.0963 19.5212 28.0963L10.9361 15.3022C8.77794 12.086 8.73949 7.89444 10.8382 4.63925L13.8293 0Z" fill="white"/>
<path fill-rule="evenodd" clip-rule="evenodd" d="M113.687 11.0801H108.934V16.7253C108.934 19.6936 111.575 19.4387 114.343 18.7831L114.743 23.445C113.469 23.9185 111.557 24.2463 110.1 24.2463C106.093 24.2463 103.198 22.316 103.198 17.6541V11.0801H100.412V6.39997H103.198V0.791138H108.752V6.39997H113.687V11.0801ZM54.9711 23.882H60.5253V6.39992H54.9711L54.789 8.23918C53.7875 7.01908 52.0939 6.03571 49.6355 6.03571C44.9736 6.03571 41.55 9.93276 41.55 15.1592C41.55 20.3856 44.9736 24.2462 49.6355 24.2462C52.0939 24.2462 53.7875 23.2811 54.789 22.0427L54.9711 23.882ZM47.2317 15.1593C47.2317 12.7919 48.7796 11.1347 51.0013 11.1347C53.2229 11.1529 54.7708 12.7919 54.7708 15.1593C54.7708 17.5266 53.2229 19.1838 51.0013 19.1838C48.7796 19.1838 47.2317 17.5266 47.2317 15.1593ZM71.7569 8.7855C72.5764 7.0555 74.3064 6.03571 76.3278 6.03571C77.0198 6.03571 77.73 6.16319 78.4584 6.39992L78.1124 11.4078C77.384 11.1529 76.6374 11.0254 75.9089 11.0254C73.7419 11.0254 71.9026 12.2091 71.9026 15.4688V23.882H66.1663V6.39992H71.5748L71.7569 8.7855ZM91.0012 6.03571C85.5927 6.03571 81.3314 9.16792 81.3314 15.1774C81.3314 20.5313 85.4834 24.2462 91.074 24.2462C93.3686 24.2462 94.9529 23.7727 96.9742 22.8076L96.4097 17.7815C94.7708 18.5645 93.6053 18.9834 91.7114 18.9834C89.1255 18.9834 87.0677 17.6722 87.0677 15.141C87.0677 12.1909 89.3987 11.2257 92.021 11.2257C93.496 11.2257 95.0621 11.5535 96.3369 12.0816L96.7557 7.20119C94.6069 6.30887 93.0043 6.03571 91.0012 6.03571ZM117.58 6.39991L124.609 23.9002C124.099 25.6848 122.77 26.5772 121.204 26.5772C120.548 26.5772 119.856 26.4133 119.164 26.1037L118.381 30.6199C119.601 31.2208 120.894 31.5304 122.151 31.5304C125.374 31.5304 128.178 29.9279 129.581 26.4497L137.684 6.39991H131.274L127.669 18.0911L123.972 6.39991H117.58ZM147.623 31.1662H141.887V6.39992H147.277L147.459 8.23918C148.479 6.96445 150.118 6.03571 152.758 6.03571C157.694 6.03571 160.917 9.93276 160.917 15.1774C160.917 20.3856 157.694 24.2462 152.758 24.2462C150.591 24.2462 148.661 23.5906 147.623 22.5891V31.1662ZM147.55 15.1409C147.55 12.7918 149.135 11.171 151.283 11.171C153.487 11.171 155.144 12.7189 155.144 15.1409C155.144 17.4719 153.469 19.1108 151.283 19.1108C149.135 19.1108 147.55 17.4719 147.55 15.1409ZM170.655 13.2471H177.175C177.175 11.8813 176.027 10.5884 174.097 10.5884C171.985 10.5884 170.801 11.8085 170.655 13.2471ZM181.946 22.6801L181.163 18.3824C180.052 18.9105 177.757 19.4022 175.445 19.4022C173.095 19.4022 170.928 18.6374 170.637 16.616H182.292C183.566 9.36823 179.068 6.03571 174.006 6.03571C168.852 6.03571 165.046 9.64139 165.046 15.141C165.046 20.6405 168.925 24.2462 175.408 24.2462C178.085 24.2462 180.58 23.4632 181.946 22.6801Z" fill="white"/>
<path d="M196.059 23.882V7.04526H199.785V20.849H207.308V23.882H196.059Z" fill="white"/>
<path d="M223.934 23.882L222.334 20.1565H214.5L212.9 23.882H209.151L216.888 7.04526H219.874L227.611 23.882H223.934ZM215.718 17.3384H221.116L218.417 11.0335L215.718 17.3384Z" fill="white"/>
<path d="M241.431 15.1651C242.402 15.4517 243.15 15.9532 243.675 16.6697C244.217 17.3702 244.487 18.2379 244.487 19.2728C244.487 20.6898 243.962 21.8123 242.911 22.6402C241.876 23.4681 240.443 23.882 238.613 23.882H230.612V7.04526H238.374C240.125 7.04526 241.51 7.43533 242.529 8.21548C243.564 8.99562 244.081 10.0623 244.081 11.4157C244.081 12.2913 243.843 13.0635 243.365 13.7322C242.903 14.385 242.258 14.8626 241.431 15.1651ZM234.242 13.8994H237.753C238.708 13.8994 239.409 13.7402 239.854 13.4217C240.316 13.0874 240.547 12.5859 240.547 11.9172C240.547 11.2166 240.316 10.7072 239.854 10.3887C239.409 10.0544 238.708 9.88721 237.753 9.88721H234.242V13.8994ZM238.183 21.0401C239.17 21.0401 239.886 20.8729 240.332 20.5386C240.778 20.2042 241.001 19.6629 241.001 18.9146C241.001 18.1663 240.778 17.617 240.332 17.2667C239.886 16.9165 239.17 16.7413 238.183 16.7413H234.242V21.0401H238.183Z" fill="white"/>
<path d="M254.569 24.097C253.295 24.097 252.069 23.9298 250.891 23.5955C249.713 23.2452 248.733 22.7676 247.953 22.1625L249.147 19.5116C250.771 20.6421 252.594 21.2073 254.616 21.2073C255.667 21.2073 256.471 21.0401 257.028 20.7057C257.602 20.3555 257.888 19.8778 257.888 19.2728C257.888 18.7315 257.625 18.3096 257.1 18.0071C256.591 17.7046 255.675 17.41 254.354 17.1234C252.873 16.8209 251.687 16.4548 250.795 16.0249C249.919 15.595 249.275 15.0696 248.861 14.4487C248.463 13.8118 248.264 13.0317 248.264 12.1082C248.264 11.0893 248.542 10.1818 249.1 9.38569C249.673 8.58963 250.469 7.9687 251.488 7.5229C252.507 7.06118 253.685 6.83032 255.022 6.83032C256.216 6.83032 257.363 7.00546 258.461 7.35573C259.576 7.70599 260.459 8.17567 261.112 8.76476L259.918 11.4157C258.374 10.2852 256.75 9.72004 255.046 9.72004C254.075 9.72004 253.311 9.9111 252.753 10.2932C252.196 10.6594 251.918 11.1689 251.918 11.8217C251.918 12.2038 252.021 12.5222 252.228 12.7769C252.451 13.0158 252.809 13.2307 253.303 13.4217C253.812 13.6128 254.529 13.8118 255.452 14.0188C257.617 14.4964 259.17 15.1094 260.109 15.8577C261.064 16.606 261.542 17.6409 261.542 18.9624C261.542 20.5545 260.929 21.8123 259.703 22.7357C258.477 23.6432 256.766 24.097 254.569 24.097Z" fill="white"/>
</svg>
