<svg width="141" height="17" viewBox="0 0 141 17" fill="none" xmlns="http://www.w3.org/2000/svg">
<path fill-rule="evenodd" clip-rule="evenodd" d="M2.7982 15.1469C4.3436 15.1469 5.5964 13.8941 5.5964 12.3487C5.5964 10.8033 4.3436 9.55054 2.7982 9.55054C1.2528 9.55054 0 10.8033 0 12.3487C0 13.8941 1.2528 15.1469 2.7982 15.1469Z" fill="white"/>
<path fill-rule="evenodd" clip-rule="evenodd" d="M7.45551 0L13.5967 9.50303C13.979 10.0947 14.1824 10.7842 14.1824 11.4886C14.1824 13.5091 12.5445 15.147 10.5241 15.147L5.89573 8.24956C4.73227 6.5157 4.71153 4.25597 5.84299 2.50106L7.45551 0Z" fill="white"/>
<path fill-rule="evenodd" clip-rule="evenodd" d="M61.29 5.97339H58.7276V9.01682C58.7276 10.617 60.1511 10.4796 61.6434 10.1262L61.8594 12.6394C61.1722 12.8947 60.1413 13.0714 59.3559 13.0714C57.1961 13.0714 55.6351 12.0308 55.6351 9.51749V5.97339H54.133V3.45029H55.6351V0.426514H58.6294V3.45029H61.29V5.97339ZM29.6356 12.875H32.63V3.45026H29.6356L29.5374 4.44183C28.9975 3.78406 28.0845 3.25391 26.7591 3.25391C24.2458 3.25391 22.4001 5.35486 22.4001 8.17245C22.4001 10.9901 24.2458 13.0714 26.7591 13.0714C28.0845 13.0714 28.9975 12.5511 29.5374 11.8835L29.6356 12.875ZM25.4632 8.17233C25.4632 6.89609 26.2977 6.00269 27.4954 6.00269C28.6932 6.01251 29.5276 6.89609 29.5276 8.17233C29.5276 9.44861 28.6932 10.342 27.4954 10.342C26.2977 10.342 25.4632 9.44861 25.4632 8.17233ZM38.685 4.73636C39.1268 3.80368 40.0595 3.25391 41.1492 3.25391C41.5223 3.25391 41.9052 3.32263 42.2979 3.45026L42.1113 6.15005C41.7186 6.0126 41.3161 5.94388 40.9234 5.94388C39.7551 5.94388 38.7636 6.58203 38.7636 8.33936V12.875H35.6711V3.45026H38.5869L38.685 4.73636ZM49.0598 3.25391C46.144 3.25391 43.8467 4.9425 43.8467 8.18228C43.8467 11.0686 46.0851 13.0714 49.099 13.0714C50.336 13.0714 51.1902 12.8161 52.2799 12.2958L51.9756 9.58618C51.092 10.0083 50.4637 10.2341 49.4426 10.2341C48.0486 10.2341 46.9392 9.52728 46.9392 8.16263C46.9392 6.5722 48.1958 6.05188 49.6095 6.05188C50.4048 6.05188 51.2491 6.22861 51.9363 6.51331L52.1621 3.88223C51.0036 3.40115 50.1397 3.25391 49.0598 3.25391ZM63.3887 3.4502L67.1783 12.8848C66.9034 13.8469 66.1867 14.3279 65.3424 14.3279C64.989 14.3279 64.6159 14.2396 64.2428 14.0727L63.8207 16.5074C64.4785 16.8314 65.1755 16.9983 65.8529 16.9983C67.5906 16.9983 69.1025 16.1344 69.8584 14.2592L74.2272 3.4502H70.7715L68.8276 9.75302L66.8346 3.4502H63.3887ZM79.5853 16.802H76.4928V3.45026H79.3987L79.4969 4.44183C80.0467 3.75461 80.9302 3.25391 82.3538 3.25391C85.0143 3.25391 86.752 5.35486 86.752 8.18228C86.752 10.9901 85.0143 13.0714 82.3538 13.0714C81.1855 13.0714 80.1449 12.718 79.5853 12.178V16.802ZM79.5459 8.16266C79.5459 6.89621 80.4 6.02246 81.5584 6.02246C82.7464 6.02246 83.6398 6.85693 83.6398 8.16266C83.6398 9.41931 82.7365 10.3029 81.5584 10.3029C80.4 10.3029 79.5459 9.41931 79.5459 8.16266ZM92.0021 7.1416H95.5167C95.5167 6.4053 94.8982 5.70825 93.8576 5.70825C92.7187 5.70825 92.0806 6.36603 92.0021 7.1416ZM98.0889 12.2271L97.6667 9.91016C97.0678 10.1949 95.8308 10.4599 94.584 10.4599C93.3176 10.4599 92.1493 10.0476 91.9922 8.95786H98.2754C98.9626 5.05051 96.5377 3.25391 93.8084 3.25391C91.0301 3.25391 88.9782 5.19775 88.9782 8.16263C88.9782 11.1275 91.0694 13.0714 94.5644 13.0714C96.0075 13.0714 97.3525 12.6492 98.0889 12.2271Z" fill="white"/>
<path d="M105.698 12.8751V3.79825H107.706V11.24H111.762V12.8751H105.698Z" fill="white"/>
<path d="M120.725 12.8751L119.862 10.8666H115.639L114.777 12.8751H112.755L116.927 3.79825H118.536L122.708 12.8751H120.725ZM116.296 9.34738H119.206L117.751 5.94837L116.296 9.34738Z" fill="white"/>
<path d="M130.158 8.17575C130.681 8.33025 131.085 8.60063 131.368 8.98688C131.66 9.36454 131.806 9.83234 131.806 10.3903C131.806 11.1542 131.522 11.7593 130.956 12.2056C130.398 12.652 129.626 12.8751 128.638 12.8751H124.325V3.79825H128.51C129.454 3.79825 130.201 4.00854 130.75 4.42912C131.308 4.84971 131.587 5.42479 131.587 6.15437C131.587 6.62646 131.458 7.04275 131.201 7.40325C130.952 7.75517 130.604 8.01267 130.158 8.17575ZM126.282 7.49338H128.175C128.69 7.49338 129.068 7.40754 129.308 7.23588C129.557 7.05563 129.681 6.78525 129.681 6.42475C129.681 6.04708 129.557 5.77242 129.308 5.60075C129.068 5.4205 128.69 5.33037 128.175 5.33037H126.282V7.49338ZM128.407 11.343C128.939 11.343 129.325 11.2529 129.565 11.0726C129.806 10.8924 129.926 10.6005 129.926 10.1971C129.926 9.79371 129.806 9.49759 129.565 9.30875C129.325 9.11992 128.939 9.0255 128.407 9.0255H126.282V11.343H128.407Z" fill="white"/>
<path d="M137.241 12.991C136.554 12.991 135.893 12.9009 135.258 12.7206C134.623 12.5318 134.095 12.2743 133.674 11.9481L134.318 10.519C135.193 11.1284 136.176 11.4331 137.266 11.4331C137.833 11.4331 138.266 11.343 138.567 11.1628C138.876 10.9739 139.03 10.7164 139.03 10.3903C139.03 10.0984 138.889 9.87096 138.605 9.70788C138.331 9.54479 137.837 9.386 137.125 9.2315C136.326 9.06842 135.687 8.871 135.206 8.63925C134.734 8.4075 134.387 8.12425 134.163 7.7895C133.949 7.44617 133.841 7.02558 133.841 6.52775C133.841 5.97842 133.992 5.48917 134.292 5.06C134.601 4.63083 135.03 4.29608 135.58 4.05575C136.129 3.80683 136.764 3.68237 137.485 3.68237C138.129 3.68237 138.747 3.77679 139.339 3.96562C139.94 4.15446 140.416 4.40767 140.768 4.72525L140.125 6.15437C139.292 5.54496 138.416 5.24025 137.498 5.24025C136.974 5.24025 136.562 5.34325 136.262 5.54925C135.962 5.74667 135.811 6.02133 135.811 6.37325C135.811 6.57925 135.867 6.75092 135.979 6.88825C136.099 7.017 136.292 7.13288 136.558 7.23588C136.833 7.33888 137.219 7.44617 137.717 7.55775C138.884 7.81525 139.721 8.14571 140.228 8.54913C140.743 8.95254 141 9.51046 141 10.2229C141 11.0812 140.67 11.7593 140.009 12.2571C139.348 12.7464 138.425 12.991 137.241 12.991Z" fill="white"/>
</svg>
