<svg width="181" height="181" viewBox="0 0 181 181" fill="none" xmlns="http://www.w3.org/2000/svg">
<rect opacity="0.4" x="0.911344" y="90.6877" width="126.256" height="126.256" rx="46.2503" transform="rotate(-45 0.911344 90.6877)" stroke="#FF9491" stroke-width="1.12"/>
<rect width="90.9831" height="90.9831" rx="32.7672" transform="matrix(0.707107 -0.707106 0.707107 0.707106 25.8535 90.6877)" fill="url(#paint0_linear)"/>
<path fill-rule="evenodd" clip-rule="evenodd" d="M71.9355 114.611H94.5907C104.082 114.611 111.776 106.917 111.776 97.426C111.776 87.9349 104.082 80.2408 94.5907 80.2408H89.0536C87.301 80.2408 85.8803 81.6616 85.8803 83.4142C85.8803 85.1668 87.301 86.5875 89.0536 86.5875H94.5907C100.577 86.5875 105.429 91.4401 105.429 97.426C105.429 103.412 100.577 108.264 94.5907 108.264H71.9355C70.183 108.264 68.7622 109.685 68.7622 111.438C68.7622 113.19 70.183 114.611 71.9355 114.611Z" fill="url(#paint1_linear)"/>
<rect x="71.9883" y="103.391" width="22.9623" height="4.08" rx="2.04" fill="white"/>
<path opacity="0.5" fill-rule="evenodd" clip-rule="evenodd" d="M94.6432 64.9751C93.3358 64.2971 91.7896 64.5199 91.1896 65.4728C90.5896 66.4258 91.163 67.7479 92.4704 68.426L93.4767 68.9478L89.9246 74.6571C89.6949 75.0263 89.9162 75.5393 90.419 75.803C90.9217 76.0667 91.5154 75.9813 91.7451 75.6121L95.3023 69.8946L96.1642 70.3416C97.4716 71.0197 99.0179 70.7968 99.6179 69.8439C100.218 68.891 99.6444 67.5689 98.337 66.8908L94.6432 64.9751Z" fill="white"/>
<path fill-rule="evenodd" clip-rule="evenodd" d="M87.6446 70.4006C87.976 69.8266 88.7099 69.63 89.2839 69.9613L96.3333 74.0313C96.9073 74.3627 97.1039 75.0966 96.7725 75.6706L89.9259 87.5294C89.5945 88.1033 88.8606 88.3 88.2867 87.9686L81.2372 83.8986C80.6633 83.5672 80.4666 82.8333 80.798 82.2593L87.6446 70.4006Z" fill="white"/>
<path opacity="0.5" fill-rule="evenodd" clip-rule="evenodd" d="M79.0575 84.9919C79.3888 84.4179 80.1227 84.2213 80.6967 84.5527L87.7461 88.6228C88.32 88.9541 88.5167 89.6881 88.1853 90.262L87.912 90.7355C87.5806 91.3094 86.8467 91.5061 86.2728 91.1747L79.2234 87.1046C78.6495 86.7732 78.4528 86.0393 78.7842 85.4653L79.0575 84.9919Z" fill="white"/>
<rect opacity="0.2" x="51.4465" y="80.4874" width="14.8233" height="6.15666" rx="3.07833" fill="white"/>
<path opacity="0.2" fill-rule="evenodd" clip-rule="evenodd" d="M113.495 109.697C113.495 107.997 114.873 106.618 116.573 106.618H125.24C126.94 106.618 128.318 107.997 128.318 109.697C128.318 111.397 126.94 112.775 125.24 112.775H116.573C114.873 112.775 113.495 111.397 113.495 109.697Z" fill="white"/>
<rect opacity="0.3" x="53.7871" y="95.3729" width="7.80172" height="6.15666" rx="3.07833" fill="#BA2841"/>
<rect opacity="0.3" x="104.292" y="64.9462" width="13.653" height="6.15666" rx="3.07833" fill="#BA2841"/>
<defs>
<linearGradient id="paint0_linear" x1="-13.8097" y1="90.9831" x2="77.1735" y2="118.602" gradientUnits="userSpaceOnUse">
<stop stop-color="#FF7697"/>
<stop offset="1" stop-color="#FFCC84"/>
</linearGradient>
<linearGradient id="paint1_linear" x1="58.0011" y1="89.197" x2="66.6882" y2="121.044" gradientUnits="userSpaceOnUse">
<stop stop-color="#FFC586"/>
<stop offset="1" stop-color="white"/>
</linearGradient>
</defs>
</svg>
