<svg width="181" height="181" viewBox="0 0 181 181" fill="none" xmlns="http://www.w3.org/2000/svg">
<rect opacity="0.4" x="1.29072" y="90.7416" width="126.503" height="126.503" rx="46.3734" transform="rotate(-45 1.29072 90.7416)" stroke="#EE89D4" stroke-width="0.873793"/>
<rect x="26.4067" y="90.7416" width="90.9831" height="90.9831" rx="32.7672" transform="rotate(-45 26.4067 90.7416)" fill="url(#paint0_linear)"/>
<path opacity="0.2" fill-rule="evenodd" clip-rule="evenodd" d="M91.6997 122.729C109.366 122.729 123.687 108.408 123.687 90.7416C123.687 73.0756 109.366 58.7545 91.6997 58.7545C74.0337 58.7545 59.7126 73.0756 59.7126 90.7416C59.7126 108.408 74.0337 122.729 91.6997 122.729Z" fill="url(#paint1_linear)"/>
<path fill-rule="evenodd" clip-rule="evenodd" d="M90.7784 98.9054C91.1403 98.9054 91.4337 98.6174 91.4337 98.2555V78.9535V78.8094C91.4337 78.5179 91.1909 78.2829 90.9 78.3006C88.9254 78.4207 87.2639 79.4582 85.6222 80.4833C84.9073 80.9297 84.1962 81.3737 83.4646 81.7387C82.8502 82.0452 82.1561 82.1207 81.4706 82.1952C80.6148 82.2884 79.7723 82.38 79.1148 82.918C78.3587 83.5366 78.0775 84.0658 77.7552 84.6723C77.5457 85.0664 77.3189 85.4932 76.9331 85.9984C76.711 86.2893 76.2616 86.6638 75.7955 87.0522C75.2208 87.5311 74.6208 88.0311 74.3902 88.4215C73.9709 89.1315 73.8017 89.9181 73.6298 90.7177C73.5212 91.2223 73.4116 91.7321 73.2373 92.2311C73.0645 92.7255 72.8566 93.216 72.6474 93.7096C72.1813 94.8091 71.7089 95.9236 71.6046 97.1304C71.5292 98.0321 72.199 98.8243 73.1007 98.8997C73.1461 98.9035 73.1917 98.9054 73.2373 98.9054H90.7784ZM93.0721 98.2552C93.0721 98.6171 93.3655 98.9054 93.7274 98.9054H98.4833C99.2101 98.9054 99.85 99.3842 100.055 100.081L101.922 102.911L103.602 105.457C103.755 105.977 104.302 106.275 104.822 106.122C105.015 106.066 105.186 105.951 105.311 105.795L108.392 99.5172C108.703 99.1304 109.173 98.9054 109.669 98.9054H111.105C112.01 98.9054 112.743 98.1719 112.743 97.267C112.743 97.2278 112.742 97.1886 112.739 97.1495C112.727 96.9874 112.715 96.8429 112.701 96.716C111.658 86.8236 103.629 79.0141 93.6384 78.3133L93.5797 78.3093C93.3037 78.2917 93.0721 78.513 93.0721 78.7896V98.2552Z" fill="url(#paint2_linear)"/>
<mask id="mask0" mask-type="alpha" maskUnits="userSpaceOnUse" x="71" y="78" width="42" height="29">
<path fill-rule="evenodd" clip-rule="evenodd" d="M90.7784 98.9054C91.1403 98.9054 91.4337 98.6174 91.4337 98.2555V78.9535V78.8094C91.4337 78.5179 91.1909 78.2829 90.9 78.3006C88.9254 78.4207 87.2639 79.4582 85.6222 80.4833C84.9073 80.9297 84.1962 81.3737 83.4646 81.7387C82.8502 82.0452 82.1561 82.1207 81.4706 82.1952C80.6148 82.2884 79.7723 82.38 79.1148 82.918C78.3587 83.5366 78.0775 84.0658 77.7552 84.6723C77.5457 85.0664 77.3189 85.4932 76.9331 85.9984C76.711 86.2893 76.2616 86.6638 75.7955 87.0522C75.2208 87.5311 74.6208 88.0311 74.3902 88.4215C73.9709 89.1315 73.8017 89.9181 73.6298 90.7177C73.5212 91.2223 73.4116 91.7321 73.2373 92.2311C73.0645 92.7255 72.8566 93.216 72.6474 93.7096C72.1813 94.8091 71.7089 95.9236 71.6046 97.1304C71.5292 98.0321 72.199 98.8243 73.1007 98.8997C73.1461 98.9035 73.1917 98.9054 73.2373 98.9054H90.7784ZM93.0721 98.2552C93.0721 98.6171 93.3655 98.9054 93.7274 98.9054H98.4833C99.2101 98.9054 99.85 99.3842 100.055 100.081L101.922 102.911L103.602 105.457C103.755 105.977 104.302 106.275 104.822 106.122C105.015 106.066 105.186 105.951 105.311 105.795L108.392 99.5172C108.703 99.1304 109.173 98.9054 109.669 98.9054H111.105C112.01 98.9054 112.743 98.1719 112.743 97.267C112.743 97.2278 112.742 97.1886 112.739 97.1495C112.727 96.9874 112.715 96.8429 112.701 96.716C111.658 86.8236 103.629 79.0141 93.6384 78.3133L93.5797 78.3093C93.3037 78.2917 93.0721 78.513 93.0721 78.7896V98.2552Z" fill="white"/>
</mask>
<g mask="url(#mask0)">
<path d="M77.7684 88.4223C79.557 88.4223 81.007 86.9724 81.007 85.1838C81.007 83.3951 79.557 81.9452 77.7684 81.9452C75.9798 81.9452 74.5298 83.3951 74.5298 85.1838C74.5298 85.6362 74.8966 86.0029 75.349 86.0029C75.8014 86.0029 76.1682 85.6362 76.1682 85.1838C76.1682 84.3 76.8846 83.5836 77.7684 83.5836C78.6522 83.5836 79.3686 84.3 79.3686 85.1838C79.3686 86.0675 78.6522 86.784 77.7684 86.784C77.316 86.784 76.9492 87.1507 76.9492 87.6032C76.9492 88.0556 77.316 88.4223 77.7684 88.4223Z" fill="#E59AE0"/>
<path fill-rule="evenodd" clip-rule="evenodd" d="M72.657 99.608C72.3371 99.9279 72.3371 100.447 72.657 100.766C73.9218 102.031 75.9723 102.031 77.237 100.766C78.5018 99.5018 78.5018 97.4512 77.237 96.1865C76.9171 95.8666 76.3985 95.8666 76.0785 96.1865C75.7586 96.5064 75.7586 97.025 76.0785 97.345C76.7035 97.9699 76.7035 98.9831 76.0785 99.608C75.4536 100.233 74.4404 100.233 73.8155 99.608C73.4956 99.2881 72.9769 99.2881 72.657 99.608ZM87.4754 88.8164C87.9124 88.9335 88.1718 89.3827 88.0547 89.8197C87.9376 90.2567 87.4884 90.5161 87.0514 90.399C86.1977 90.1702 85.3203 90.6768 85.0915 91.5305C84.8628 92.3841 85.3694 93.2616 86.2231 93.4903C86.6601 93.6074 86.9194 94.0566 86.8023 94.4936C86.6852 94.9306 86.236 95.19 85.799 95.0729C84.0713 94.61 83.0461 92.8341 83.509 91.1065C83.9719 89.3788 85.7478 88.3535 87.4754 88.8164ZM92.882 75.3819C93.319 75.499 93.5784 75.9481 93.4613 76.3852C93.3442 76.8222 92.895 77.0815 92.458 76.9644C91.6043 76.7357 90.7269 77.2423 90.4981 78.0959C90.2694 78.9496 90.776 79.827 91.6297 80.0558C92.0667 80.1729 92.326 80.6221 92.2089 81.0591C92.0918 81.4961 91.6426 81.7554 91.2056 81.6383C89.4779 81.1754 88.4527 79.3996 88.9156 77.6719C89.3785 75.9442 91.1544 74.9189 92.882 75.3819Z" fill="#E59AE0"/>
<rect width="5.8981" height="1.96603" rx="0.983017" transform="matrix(-1 0 0 1 104.607 86.6538)" fill="#E59AE1"/>
<path fill-rule="evenodd" clip-rule="evenodd" d="M95.0094 87.5987C95.0094 88.9348 96.0926 90.018 97.4288 90.018C98.7649 90.018 99.8481 88.9348 99.8481 87.5987C99.8481 86.2625 98.7649 85.1793 97.4288 85.1793C96.0926 85.1793 95.0094 86.2625 95.0094 87.5987ZM98.2098 87.5987C98.2098 88.03 97.8601 88.3797 97.4288 88.3797C96.9974 88.3797 96.6477 88.03 96.6477 87.5987C96.6477 87.1673 96.9974 86.8176 97.4288 86.8176C97.8601 86.8176 98.2098 87.1673 98.2098 87.5987Z" fill="#E59AE1"/>
<rect width="5.8981" height="1.96603" rx="0.983017" transform="matrix(-1 0 0 1 101.29 93.5418)" fill="#E59AE1"/>
<path fill-rule="evenodd" clip-rule="evenodd" d="M100.252 94.4798C100.252 95.816 101.335 96.8992 102.672 96.8992C104.008 96.8992 105.091 95.816 105.091 94.4798C105.091 93.1436 104.008 92.0604 102.672 92.0604C101.335 92.0604 100.252 93.1436 100.252 94.4798ZM103.453 94.4798C103.453 94.9111 103.103 95.2608 102.672 95.2608C102.24 95.2608 101.891 94.9111 101.891 94.4798C101.891 94.0484 102.24 93.6987 102.672 93.6987C103.103 93.6987 103.453 94.0484 103.453 94.4798Z" fill="#E59AE1"/>
<rect width="5.8981" height="1.96603" rx="0.983017" transform="matrix(-1 0 0 1 105.823 80.7557)" fill="#E59AE1"/>
</g>
<rect opacity="0.6" x="53.9856" y="79.2346" width="14.8233" height="6.15666" rx="3.07833" fill="white"/>
<path opacity="0.6" fill-rule="evenodd" clip-rule="evenodd" d="M116.034 108.444C116.034 106.744 117.412 105.366 119.112 105.366H127.779C129.479 105.366 130.857 106.744 130.857 108.444C130.857 110.144 129.479 111.522 127.779 111.522H119.112C117.412 111.522 116.034 110.144 116.034 108.444Z" fill="white"/>
<rect opacity="0.3" x="56.3261" y="94.12" width="7.80172" height="6.15666" rx="3.07833" fill="#5629B0"/>
<rect opacity="0.3" x="106.832" y="63.6933" width="13.653" height="6.15666" rx="3.07833" fill="#5629B0"/>
<defs>
<linearGradient id="paint0_linear" x1="106.529" y1="90.7416" x2="15.5456" y2="112.464" gradientUnits="userSpaceOnUse">
<stop stop-color="#FF91CC"/>
<stop offset="1" stop-color="#895BFF"/>
</linearGradient>
<linearGradient id="paint1_linear" x1="93.2676" y1="139.604" x2="137.66" y2="98.4751" gradientUnits="userSpaceOnUse">
<stop stop-color="white" stop-opacity="0.72353"/>
<stop offset="1" stop-color="white"/>
</linearGradient>
<linearGradient id="paint2_linear" x1="71.1341" y1="90.5613" x2="80.8752" y2="117.451" gradientUnits="userSpaceOnUse">
<stop stop-color="#F4E7FF"/>
<stop offset="1" stop-color="#F1C9EB"/>
</linearGradient>
</defs>
</svg>
