<svg width="699" height="698" viewBox="0 0 699 698" fill="none" xmlns="http://www.w3.org/2000/svg">
<path d="M387.078 339.967L413.397 352.717C433.151 362.286 441.12 386.265 431.024 405.754L412.896 440.747" stroke="url(#paint0_linear)" stroke-width="24.9984" stroke-linecap="round" stroke-linejoin="round"/>
<path d="M387.078 315.984L394.281 343.95" stroke="#81A6FF" stroke-width="41.1264" stroke-linecap="round" stroke-linejoin="round"/>
<path fill-rule="evenodd" clip-rule="evenodd" d="M408.173 391.09C411.946 385.572 451.281 397.352 456.657 402.949C465.47 412.123 461.596 486.909 456.749 516.937C456.749 516.937 469.962 519 475.311 532.719C427.266 538.542 382.996 533.5 382.996 533.5C378.561 527.979 384.443 503.688 382.996 501.247C374.531 486.959 400.822 401.838 408.173 391.09Z" fill="url(#paint1_linear)"/>
<mask id="mask0" mask-type="alpha" maskUnits="userSpaceOnUse" x="356" y="383" width="161" height="182">
<path fill-rule="evenodd" clip-rule="evenodd" d="M408.173 391.09C411.946 385.572 451.281 397.352 456.657 402.949C465.47 412.123 461.596 486.909 456.749 516.937C456.749 516.937 469.962 519 475.311 532.719C427.266 538.542 382.996 533.5 382.996 533.5C378.561 527.979 384.443 503.688 382.996 501.247C374.531 486.959 400.822 401.838 408.173 391.09Z" fill="white"/>
</mask>
<g mask="url(#mask0)">
<path opacity="0.2" fill-rule="evenodd" clip-rule="evenodd" d="M417.063 388.75C417.063 388.75 390.154 488.92 439.096 555.576L402.313 574.177L351.312 518.315L386.964 390.34L417.063 388.75Z" fill="white"/>
<path opacity="0.5" fill-rule="evenodd" clip-rule="evenodd" d="M367.202 498.744C367.202 498.744 417.153 521.952 459.285 515.929L490.784 540.308C490.784 540.308 410.82 547.868 370.897 544.469C330.974 541.07 340.36 527.5 340.36 527.5L367.202 498.744Z" fill="#4832A6"/>
</g>
<path d="M320.544 327.306L286.697 375.696L238.624 428.146" stroke="url(#paint2_linear)" stroke-width="24.9984" stroke-linecap="round" stroke-linejoin="round"/>
<path d="M300.528 311.793L307.731 339.759" stroke="#81A6FF" stroke-width="41.1264" stroke-linecap="round" stroke-linejoin="round"/>
<path fill-rule="evenodd" clip-rule="evenodd" d="M230.013 403.117C233.787 397.6 273.122 409.38 278.498 414.976C287.311 424.151 250.797 486.909 245.95 516.937C245.95 516.937 259.163 519 264.512 532.719C216.467 538.542 172.198 533.5 172.198 533.5C167.763 527.979 173.644 503.688 172.198 501.247C163.732 486.959 222.663 413.865 230.013 403.117Z" fill="url(#paint3_linear)"/>
<mask id="mask1" mask-type="alpha" maskUnits="userSpaceOnUse" x="158" y="388" width="149" height="177">
<path fill-rule="evenodd" clip-rule="evenodd" d="M230.013 403.117C233.787 397.6 273.122 409.38 278.498 414.976C287.311 424.151 250.797 486.909 245.95 516.937C245.95 516.937 259.163 519 264.512 532.719C216.467 538.542 172.198 533.5 172.198 533.5C167.763 527.979 173.644 503.688 172.198 501.247C163.732 486.959 222.663 413.865 230.013 403.117Z" fill="white"/>
</mask>
<g mask="url(#mask1)">
<path opacity="0.2" fill-rule="evenodd" clip-rule="evenodd" d="M251.727 398.79C251.727 398.79 179.356 488.92 228.297 555.576L191.514 574.177L140.513 518.315L176.165 390.34L251.727 398.79Z" fill="white"/>
<path opacity="0.5" fill-rule="evenodd" clip-rule="evenodd" d="M156.403 498.744C156.403 498.744 206.355 521.952 248.486 515.929L279.985 540.308C279.985 540.308 200.021 547.868 160.098 544.469C120.175 541.07 129.561 527.5 129.561 527.5L156.403 498.744Z" fill="#4832A6"/>
</g>
<path fill-rule="evenodd" clip-rule="evenodd" d="M307.196 116.672C302.237 115.672 298.766 111.182 299.045 106.132L301.851 55.338L305.71 54.304L319.042 104.059C320.997 111.356 314.601 118.166 307.196 116.672Z" fill="#43A4E0"/>
<path fill-rule="evenodd" clip-rule="evenodd" d="M305.753 57.4753C301.683 58.5659 297.499 56.1505 296.409 52.0804C295.318 48.0104 297.733 43.8268 301.804 42.7363C305.874 41.6457 310.057 44.061 311.148 48.1311C312.238 52.2012 309.823 56.3847 305.753 57.4753Z" fill="#58BBF8"/>
<path fill-rule="evenodd" clip-rule="evenodd" d="M439.931 136.371C439.387 113.612 420.989 95.3323 398.227 94.935L331.111 93.7635C308.349 93.3662 289.325 110.992 287.987 133.719L286.017 167.165C284.599 191.26 303.527 211.69 327.66 212.111L397.546 213.331C421.679 213.752 441.309 193.996 440.732 169.866L439.931 136.371Z" fill="url(#paint4_linear)"/>
<mask id="mask2" mask-type="alpha" maskUnits="userSpaceOnUse" x="285" y="92" width="158" height="123">
<path fill-rule="evenodd" clip-rule="evenodd" d="M439.931 136.371C439.387 113.612 420.989 95.3323 398.227 94.935L331.111 93.7635C308.349 93.3662 289.325 110.992 287.987 133.719L286.017 167.165C284.599 191.26 303.527 211.69 327.66 212.111L397.546 213.331C421.679 213.752 441.309 193.996 440.732 169.866L439.931 136.371Z" fill="white"/>
</mask>
<g mask="url(#mask2)">
<path opacity="0.2" fill-rule="evenodd" clip-rule="evenodd" d="M388.112 88.7198C390.779 80.8005 385.428 72.448 377.119 71.5608L341.906 67.8008C335.478 67.1144 329.515 71.232 327.88 77.4858L320.795 104.583C318.654 112.771 324.744 120.802 333.205 120.95L367.443 121.548C373.135 121.647 378.235 118.05 380.052 112.655L388.112 88.7198Z" fill="#525DD0"/>
<path opacity="0.5" fill-rule="evenodd" clip-rule="evenodd" d="M370.418 115.167C368.965 115.142 367.808 113.944 367.833 112.491C367.859 111.038 369.057 109.881 370.51 109.906C371.963 109.932 373.12 111.13 373.094 112.583C373.069 114.035 371.871 115.193 370.418 115.167Z" fill="white"/>
<path opacity="0.5" fill-rule="evenodd" clip-rule="evenodd" d="M327.822 114.424C326.369 114.398 325.212 113.2 325.237 111.747C325.263 110.295 326.461 109.137 327.914 109.163C329.366 109.188 330.524 110.386 330.498 111.839C330.473 113.292 329.275 114.449 327.822 114.424Z" fill="white"/>
<path opacity="0.2" fill-rule="evenodd" clip-rule="evenodd" d="M279.256 172.77C279.256 172.77 320.35 168.93 355.455 177.683C390.56 186.436 421.014 212.391 421.014 212.391C421.014 212.391 369.147 221.256 366.02 220.873C362.894 220.489 328.414 211.812 322.161 211.044C315.908 210.276 279.256 172.77 279.256 172.77Z" fill="#273199"/>
</g>
<path fill-rule="evenodd" clip-rule="evenodd" d="M427.921 156.642C424.134 156.576 421.118 153.452 421.184 149.665C421.25 145.878 424.374 142.861 428.161 142.928C431.948 142.994 434.965 146.117 434.898 149.905C434.832 153.692 431.709 156.708 427.921 156.642Z" fill="white"/>
<path d="M449.498 186.54C449.039 177.784 441.569 171.058 432.813 171.517L404.785 172.986C396.029 173.445 389.303 180.915 389.762 189.671L390.385 201.562C391.057 214.383 401.995 224.232 414.817 223.56L419.63 223.308C437.142 222.39 450.594 207.45 449.676 189.938L449.498 186.54Z" fill="url(#paint5_linear)"/>
<path fill-rule="evenodd" clip-rule="evenodd" d="M409.064 111.649C404.105 110.648 400.634 106.159 400.913 101.109L403.718 50.3148L407.578 49.2808L420.909 99.0355C422.865 106.333 416.469 113.143 409.064 111.649Z" fill="#6A5FEB"/>
<path fill-rule="evenodd" clip-rule="evenodd" d="M407.621 52.4521C403.551 53.5427 399.367 51.1273 398.277 47.0572C397.186 42.9872 399.601 38.8036 403.671 37.7131C407.741 36.6225 411.925 39.0378 413.016 43.1079C414.106 47.178 411.691 51.3615 407.621 52.4521Z" fill="#58BBF8"/>
<path d="M272.88 205.644C272.88 205.644 234.051 175.939 195.179 220.952" stroke="url(#paint6_linear)" stroke-width="31.248" stroke-linecap="round" stroke-linejoin="round"/>
<path fill-rule="evenodd" clip-rule="evenodd" d="M189.017 324.123C184.037 312.307 170.397 306.796 158.606 311.836L147.265 316.684C135.559 321.688 130.097 335.209 135.041 346.94L138.16 354.343C143.14 366.159 156.781 371.67 168.572 366.63L179.913 361.781C191.618 356.777 197.081 343.256 192.137 331.526L189.017 324.123Z" fill="#4832A6"/>
<path fill-rule="evenodd" clip-rule="evenodd" d="M167.97 203.449C180.225 193.654 206.147 213.044 208.857 245.033C208.857 245.033 209.755 313.252 200.372 322.969C190.989 332.685 145.203 334.558 136.964 315.149C128.726 295.74 155.715 213.243 167.97 203.449Z" fill="url(#paint7_linear)"/>
<mask id="mask3" mask-type="alpha" maskUnits="userSpaceOnUse" x="101" y="193" width="138" height="153">
<path fill-rule="evenodd" clip-rule="evenodd" d="M167.97 203.449C180.225 193.654 206.147 213.044 208.857 245.033C208.857 245.033 209.755 313.252 200.372 322.969C190.989 332.685 145.203 334.558 136.964 315.149C128.726 295.74 155.715 213.243 167.97 203.449Z" fill="white"/>
</mask>
<g mask="url(#mask3)">
<path opacity="0.1" fill-rule="evenodd" clip-rule="evenodd" d="M197.838 190.309C197.838 190.309 141.525 267.296 160.361 352.855L83.917 312.253L139.721 198.865L197.838 190.309Z" fill="#273199"/>
</g>
<path fill-rule="evenodd" clip-rule="evenodd" d="M450.941 226.81C440.765 205.214 269.926 165.773 253.286 181.178C236.646 196.582 239.346 302.401 256.583 321.263C273.82 340.125 377.082 367.299 402.322 351.538C427.561 335.778 461.117 248.405 450.941 226.81Z" fill="url(#paint8_linear)"/>
<mask id="mask4" mask-type="alpha" maskUnits="userSpaceOnUse" x="216" y="166" width="245" height="206">
<path fill-rule="evenodd" clip-rule="evenodd" d="M450.941 226.81C440.765 205.214 269.926 165.773 253.286 181.178C236.646 196.582 239.346 302.401 256.583 321.263C273.82 340.125 377.082 367.299 402.322 351.538C427.561 335.778 461.117 248.405 450.941 226.81Z" fill="white"/>
</mask>
<g mask="url(#mask4)">
<path opacity="0.3" d="M449.451 281.302L412.135 280.335C405.555 280.164 400 285.188 399.511 291.752L394.577 358.016" stroke="#CDEEFF" stroke-width="2.17728"/>
<path opacity="0.5" fill-rule="evenodd" clip-rule="evenodd" d="M412.144 296.707C414.337 297.213 416.525 295.846 417.031 293.653C417.538 291.46 416.17 289.271 413.977 288.765C411.784 288.259 409.596 289.626 409.089 291.819C408.583 294.012 409.95 296.201 412.144 296.707Z" fill="#BBE9FF"/>
<path opacity="0.3" d="M422.707 213.59L417.611 235.664C415.512 244.755 406.859 250.773 397.605 249.576L302.581 237.291C292.58 235.998 283.443 243.109 282.24 253.121L272.701 332.505" stroke="#CDEEFF" stroke-width="2.17728"/>
<path opacity="0.5" fill-rule="evenodd" clip-rule="evenodd" d="M295.469 254.118C297.662 254.625 299.85 253.257 300.357 251.064C300.863 248.871 299.496 246.683 297.303 246.176C295.109 245.67 292.921 247.037 292.415 249.23C291.908 251.424 293.276 253.612 295.469 254.118Z" fill="#BBE9FF"/>
<path opacity="0.5" fill-rule="evenodd" clip-rule="evenodd" d="M402.684 240.894C404.877 241.4 407.065 240.033 407.571 237.84C408.078 235.646 406.71 233.458 404.517 232.952C402.324 232.445 400.136 233.813 399.629 236.006C399.123 238.199 400.491 240.387 402.684 240.894Z" fill="#BBE9FF"/>
<path opacity="0.33" fill-rule="evenodd" clip-rule="evenodd" d="M404.6 245.259C404.6 245.259 397.313 320.496 445.808 330.177C494.303 339.858 450.451 274.988 450.451 274.988L404.6 245.259Z" fill="#273199"/>
</g>
<g opacity="0.5">
<path fill-rule="evenodd" clip-rule="evenodd" d="M408.173 674.306C411.946 679.824 451.281 668.044 456.657 662.447C465.47 653.273 461.596 578.487 456.749 548.459C456.749 548.459 469.962 546.396 475.311 532.677C427.266 526.854 382.996 531.896 382.996 531.896C378.561 537.417 384.443 561.708 382.996 564.149C374.531 578.438 400.822 663.559 408.173 674.306Z" fill="url(#paint9_linear)"/>
<mask id="mask5" mask-type="alpha" maskUnits="userSpaceOnUse" x="356" y="501" width="161" height="181">
<path fill-rule="evenodd" clip-rule="evenodd" d="M408.173 674.306C411.946 679.824 451.281 668.044 456.657 662.447C465.47 653.273 461.596 578.487 456.749 548.459C456.749 548.459 469.962 546.396 475.311 532.677C427.266 526.854 382.996 531.896 382.996 531.896C378.561 537.417 384.443 561.708 382.996 564.149C374.531 578.438 400.822 663.559 408.173 674.306Z" fill="white"/>
</mask>
<g mask="url(#mask5)">
<path opacity="0.2" fill-rule="evenodd" clip-rule="evenodd" d="M417.063 676.646C417.063 676.646 390.154 576.477 439.096 509.82L402.313 491.219L351.312 547.082L386.964 675.056L417.063 676.646Z" fill="white"/>
<path opacity="0.5" fill-rule="evenodd" clip-rule="evenodd" d="M367.202 566.652C367.202 566.652 417.153 543.444 459.285 549.467L490.784 525.088C490.784 525.088 410.82 517.528 370.897 520.927C330.974 524.326 340.36 537.896 340.36 537.896L367.202 566.652Z" fill="#4832A6"/>
</g>
</g>
<g opacity="0.5">
<path fill-rule="evenodd" clip-rule="evenodd" d="M230.013 656.279C233.787 661.796 273.122 650.016 278.498 644.42C287.311 635.245 250.797 572.487 245.95 542.459C245.95 542.459 259.163 540.396 264.512 526.677C216.467 520.854 172.198 525.896 172.198 525.896C167.763 531.417 173.644 555.708 172.198 558.149C163.732 572.437 222.663 645.531 230.013 656.279Z" fill="url(#paint10_linear)"/>
<mask id="mask6" mask-type="alpha" maskUnits="userSpaceOnUse" x="158" y="495" width="149" height="177">
<path fill-rule="evenodd" clip-rule="evenodd" d="M230.013 656.279C233.787 661.796 273.122 650.016 278.498 644.42C287.311 635.245 250.797 572.487 245.95 542.459C245.95 542.459 259.163 540.396 264.512 526.677C216.467 520.854 172.198 525.896 172.198 525.896C167.763 531.417 173.644 555.708 172.198 558.149C163.732 572.437 222.663 645.531 230.013 656.279Z" fill="white"/>
</mask>
<g mask="url(#mask6)">
<path opacity="0.2" fill-rule="evenodd" clip-rule="evenodd" d="M251.727 660.606C251.727 660.606 179.356 570.477 228.297 503.82L191.514 485.219L140.513 541.082L176.165 669.056L251.727 660.606Z" fill="white"/>
<path opacity="0.5" fill-rule="evenodd" clip-rule="evenodd" d="M156.403 560.652C156.403 560.652 206.355 537.444 248.486 543.467L279.985 519.088C279.985 519.088 200.021 511.528 160.098 514.927C120.175 518.326 129.561 531.896 129.561 531.896L156.403 560.652Z" fill="#4832A6"/>
</g>
</g>
<path fill-rule="evenodd" clip-rule="evenodd" d="M566.5 266.176C589.42 266.176 608 243.343 608 215.176C608 187.01 589.42 164.176 566.5 164.176C543.58 164.176 525 187.01 525 215.176C525 243.343 543.58 266.176 566.5 266.176Z" fill="url(#paint11_linear)"/>
<path fill-rule="evenodd" clip-rule="evenodd" d="M575 241.576C585.493 241.576 594 228.521 594 212.418C594 196.314 585.493 183.26 575 183.26C564.507 183.26 556 196.314 556 212.418C556 228.521 564.507 241.576 575 241.576Z" fill="#452093"/>
<path d="M421.355 245.407C421.355 245.407 426.959 293.973 486.342 290.667" stroke="url(#paint12_linear)" stroke-width="31.248" stroke-linecap="round" stroke-linejoin="round"/>
<path fill-rule="evenodd" clip-rule="evenodd" d="M564.837 223.43C559.797 235.22 565.308 248.861 577.124 253.841L588.49 258.631C600.221 263.575 613.742 258.113 618.746 246.407L621.904 239.021C626.944 227.23 621.433 213.59 609.617 208.61L598.251 203.819C586.52 198.875 572.999 204.338 567.995 216.043L564.837 223.43Z" fill="#4832A6"/>
<path fill-rule="evenodd" clip-rule="evenodd" d="M492.652 322.398C477.093 320.386 473.034 288.27 494.163 264.099C494.163 264.099 542.612 216.064 556.119 216.064C569.627 216.064 602.78 247.699 594.541 267.107C586.302 286.516 508.211 324.409 492.652 322.398Z" fill="url(#paint13_linear)"/>
<mask id="mask7" mask-type="alpha" maskUnits="userSpaceOnUse" x="469" y="198" width="139" height="153">
<path fill-rule="evenodd" clip-rule="evenodd" d="M492.652 322.398C477.093 320.386 473.034 288.27 494.163 264.099C494.163 264.099 542.612 216.064 556.119 216.064C569.627 216.064 602.78 247.699 594.541 267.107C586.302 286.516 508.211 324.409 492.652 322.398Z" fill="white"/>
</mask>
<g mask="url(#mask7)">
<path opacity="0.1" fill-rule="evenodd" clip-rule="evenodd" d="M462.452 310.04C462.452 310.04 556.95 297.068 605.412 224.085L629.307 307.279L508.978 345.902L462.452 310.04Z" fill="#273199"/>
</g>
<path fill-rule="evenodd" clip-rule="evenodd" d="M636.5 289.176C659.42 289.176 678 266.343 678 238.176C678 210.01 659.42 187.176 636.5 187.176C613.58 187.176 595 210.01 595 238.176C595 266.343 613.58 289.176 636.5 289.176Z" fill="url(#paint14_linear)"/>
<path fill-rule="evenodd" clip-rule="evenodd" d="M646 268.576C656.493 268.576 665 255.521 665 239.418C665 223.314 656.493 210.26 646 210.26C635.507 210.26 627 223.314 627 239.418C627 255.521 635.507 268.576 646 268.576Z" fill="#452093"/>
<defs>
<linearGradient id="paint0_linear" x1="359.339" y1="361.753" x2="382.808" y2="329.55" gradientUnits="userSpaceOnUse">
<stop stop-color="#7C5ED1"/>
<stop offset="1" stop-color="#4630A4"/>
</linearGradient>
<linearGradient id="paint1_linear" x1="473.917" y1="399.055" x2="372.097" y2="418.84" gradientUnits="userSpaceOnUse">
<stop stop-color="#5CBCFF"/>
<stop offset="1" stop-color="#8C5DFF"/>
</linearGradient>
<linearGradient id="paint2_linear" x1="269.055" y1="368.03" x2="317.584" y2="341.574" gradientUnits="userSpaceOnUse">
<stop stop-color="#7C5ED1"/>
<stop offset="1" stop-color="#4630A4"/>
</linearGradient>
<linearGradient id="paint3_linear" x1="268.677" y1="400.659" x2="174.937" y2="413.507" gradientUnits="userSpaceOnUse">
<stop stop-color="#5CBCFF"/>
<stop offset="1" stop-color="#8C5DFF"/>
</linearGradient>
<linearGradient id="paint4_linear" x1="353.833" y1="87.4419" x2="429.481" y2="173.245" gradientUnits="userSpaceOnUse">
<stop stop-color="#5CBCFF"/>
<stop offset="1" stop-color="#8C5DFF"/>
</linearGradient>
<linearGradient id="paint5_linear" x1="434.305" y1="150.541" x2="468.524" y2="204.94" gradientUnits="userSpaceOnUse">
<stop stop-color="#8ACFFF"/>
<stop offset="1" stop-color="#7775FF"/>
</linearGradient>
<linearGradient id="paint6_linear" x1="162.487" y1="243.965" x2="197.728" y2="153.116" gradientUnits="userSpaceOnUse">
<stop stop-color="#7C5ED1"/>
<stop offset="1" stop-color="#4630A4"/>
</linearGradient>
<linearGradient id="paint7_linear" x1="239.58" y1="230.07" x2="184.469" y2="221.195" gradientUnits="userSpaceOnUse">
<stop stop-color="#8ACFFF"/>
<stop offset="1" stop-color="#7775FF"/>
</linearGradient>
<linearGradient id="paint8_linear" x1="344.473" y1="178.391" x2="421.611" y2="312.667" gradientUnits="userSpaceOnUse">
<stop stop-color="#5CBCFF"/>
<stop offset="1" stop-color="#8C5DFF"/>
</linearGradient>
<linearGradient id="paint9_linear" x1="416.645" y1="656.68" x2="377.108" y2="553.683" gradientUnits="userSpaceOnUse">
<stop stop-color="#FBBBCE" stop-opacity="0.01"/>
<stop offset="1" stop-color="#8C5DFF"/>
</linearGradient>
<linearGradient id="paint10_linear" x1="198.268" y1="639.173" x2="186.395" y2="526.772" gradientUnits="userSpaceOnUse">
<stop stop-color="#F79CE7" stop-opacity="0.01"/>
<stop offset="1" stop-color="#8C5DFF"/>
</linearGradient>
<linearGradient id="paint11_linear" x1="514.189" y1="221.399" x2="570.23" y2="239.874" gradientUnits="userSpaceOnUse">
<stop stop-color="#7B8DFF"/>
<stop offset="1" stop-color="#4E299E"/>
</linearGradient>
<linearGradient id="paint12_linear" x1="525.606" y1="298.197" x2="435.774" y2="335.955" gradientUnits="userSpaceOnUse">
<stop stop-color="#7C5ED1"/>
<stop offset="1" stop-color="#4630A4"/>
</linearGradient>
<linearGradient id="paint13_linear" x1="462.057" y1="252.393" x2="493.956" y2="298.202" gradientUnits="userSpaceOnUse">
<stop stop-color="#8ACFFF"/>
<stop offset="1" stop-color="#7775FF"/>
</linearGradient>
<linearGradient id="paint14_linear" x1="584.189" y1="244.399" x2="640.23" y2="262.874" gradientUnits="userSpaceOnUse">
<stop stop-color="#7B8DFF"/>
<stop offset="1" stop-color="#4E299E"/>
</linearGradient>
</defs>
</svg>
