<svg width="142" height="232" viewBox="0 0 142 232" fill="none" xmlns="http://www.w3.org/2000/svg">
<path opacity="0.1" fill-rule="evenodd" clip-rule="evenodd" d="M70.8108 219.579C100.899 219.579 125.291 216.977 125.291 213.769C125.291 210.56 100.899 207.958 70.8108 207.958C40.7224 207.958 16.3309 210.56 16.3309 213.769C16.3309 216.977 40.7224 219.579 70.8108 219.579Z" fill="#495180"/>
<path d="M52.4119 131.139L45.1896 148.557C43.7823 151.951 42.9652 155.56 42.7735 159.229L41.6566 180.606" stroke="url(#paint0_linear)" stroke-width="9.99936" stroke-linecap="round" stroke-linejoin="round"/>
<path d="M52.0084 130.623L49.1208 141.827" stroke="#81A6FF" stroke-width="16.4506" stroke-linecap="round" stroke-linejoin="round"/>
<path fill-rule="evenodd" clip-rule="evenodd" d="M51.4818 160.993C49.97 158.783 31.2075 159.755 29.0542 161.997C24.6291 166.604 23.2699 215.992 25.5738 216.108C34.8803 216.573 53.6691 218.403 57.7996 213.26C59.5759 211.048 57.1251 205.435 57.7045 204.457C61.0951 198.732 54.4268 165.3 51.4818 160.993Z" fill="url(#paint1_linear)"/>
<mask id="mask0" mask-type="alpha" maskUnits="userSpaceOnUse" x="7" y="154" width="64" height="72">
<path fill-rule="evenodd" clip-rule="evenodd" d="M51.4818 160.993C49.97 158.783 31.2075 159.755 29.0542 161.997C24.6291 166.604 23.2699 215.992 25.5738 216.108C34.8803 216.573 53.6691 218.403 57.7996 213.26C59.5759 211.048 57.1251 205.435 57.7045 204.457C61.0951 198.732 54.4268 165.3 51.4818 160.993Z" fill="white"/>
</mask>
<g mask="url(#mask0)">
<path opacity="0.2" fill-rule="evenodd" clip-rule="evenodd" d="M50.8038 159.779C50.8038 159.779 61.5881 199.915 41.9862 226.619L56.7217 234.074L77.1494 211.694L62.8614 160.417L50.8038 159.779Z" fill="white"/>
<path opacity="0.5" fill-rule="evenodd" clip-rule="evenodd" d="M59.9671 203.851C59.9671 203.851 39.9586 213.147 23.0811 210.732L29.5858 229.187L70.7211 215.374L59.9671 203.851Z" fill="#4832A6"/>
</g>
<path fill-rule="evenodd" clip-rule="evenodd" d="M95.6373 146.824C99.4946 143.47 105.341 143.879 108.694 147.737L111.909 151.437C115.261 155.294 114.852 161.137 110.996 164.489L108.583 166.588C104.726 169.942 98.8793 169.534 95.5263 165.675L92.3109 161.975C88.9595 158.119 89.3681 152.276 93.2236 148.923L95.6373 146.824Z" fill="#4832A6"/>
<path d="M98.113 83.1066C98.113 83.1066 106.39 98.1692 108.914 119.206" stroke="url(#paint2_linear)" stroke-width="12.4992" stroke-linecap="round" stroke-linejoin="round"/>
<path fill-rule="evenodd" clip-rule="evenodd" d="M117.828 103.499C115.155 97.8426 102.438 100.295 95.8326 111.322C95.8326 111.322 86.5156 149.632 88.6436 152.08C90.7715 154.528 110.299 157.176 116.674 151.635C123.048 146.094 120.501 109.155 117.828 103.499Z" fill="url(#paint3_linear)"/>
<mask id="mask1" mask-type="alpha" maskUnits="userSpaceOnUse" x="70" y="96" width="72" height="70">
<path fill-rule="evenodd" clip-rule="evenodd" d="M117.828 103.499C115.155 97.8426 102.438 100.295 95.8326 111.322C95.8326 111.322 86.5156 149.632 88.6436 152.08C90.7715 154.528 110.299 157.176 116.674 151.635C123.048 146.094 120.501 109.155 117.828 103.499Z" fill="white"/>
</mask>
<g mask="url(#mask1)">
<path opacity="0.1" fill-rule="evenodd" clip-rule="evenodd" d="M109.423 93.5711C109.423 93.5711 116.075 131.057 94.2495 158.529L128.831 157.255L128.772 106.774L109.423 93.5711Z" fill="#273199"/>
</g>
<path d="M88.5824 128.334L81.3601 145.752C79.9528 149.146 79.1357 152.755 78.944 156.424L77.8271 177.801" stroke="url(#paint4_linear)" stroke-width="9.99936" stroke-linecap="round" stroke-linejoin="round"/>
<path d="M88.179 127.818L85.2914 139.022" stroke="#81A6FF" stroke-width="16.4506" stroke-linecap="round" stroke-linejoin="round"/>
<path fill-rule="evenodd" clip-rule="evenodd" d="M87.6524 158.189C86.1405 155.978 67.378 156.95 65.2247 159.192C60.7996 163.799 59.4404 213.188 61.7443 213.303C71.0509 213.769 89.8396 215.598 93.9701 210.455C95.7465 208.243 93.2956 202.63 93.8751 201.652C97.2656 195.928 90.5973 162.495 87.6524 158.189Z" fill="url(#paint5_linear)"/>
<mask id="mask2" mask-type="alpha" maskUnits="userSpaceOnUse" x="43" y="151" width="64" height="72">
<path fill-rule="evenodd" clip-rule="evenodd" d="M87.6524 158.189C86.1405 155.978 67.378 156.95 65.2247 159.192C60.7996 163.799 59.4404 213.188 61.7443 213.303C71.0509 213.769 89.8396 215.598 93.9701 210.455C95.7465 208.243 93.2956 202.63 93.8751 201.652C97.2656 195.928 90.5973 162.495 87.6524 158.189Z" fill="white"/>
</mask>
<g mask="url(#mask2)">
<path opacity="0.2" fill-rule="evenodd" clip-rule="evenodd" d="M86.9744 156.974C86.9744 156.974 97.7586 197.11 78.1567 223.815L92.8923 231.269L113.32 208.889L99.0319 157.612L86.9744 156.974Z" fill="white"/>
<path opacity="0.5" fill-rule="evenodd" clip-rule="evenodd" d="M96.1376 201.046C96.1376 201.046 76.1291 210.342 59.2517 207.927L65.7564 226.382L106.892 212.569L96.1376 201.046Z" fill="#4832A6"/>
</g>
<path fill-rule="evenodd" clip-rule="evenodd" d="M80.8918 45.7274C82.9116 45.5715 84.5107 43.9564 84.6465 41.9351L86.013 21.5963L84.5292 20.9968L76.7971 40.1343C75.6634 42.9405 77.8741 45.9603 80.8918 45.7274V45.7274Z" fill="#43A4E0"/>
<path fill-rule="evenodd" clip-rule="evenodd" d="M84.3571 22.2559C85.922 22.8882 87.7034 22.1317 88.3358 20.5663C88.9683 19.0009 88.2124 17.2193 86.6475 16.587C85.0826 15.9547 83.3012 16.7112 82.6688 18.2766C82.0363 19.8421 82.7922 21.6237 84.3571 22.2559Z" fill="#58BBF8"/>
<path fill-rule="evenodd" clip-rule="evenodd" d="M27.1641 47.0522C28.4894 38.0429 36.6848 31.6823 45.7412 32.6342L72.527 35.4495C81.5834 36.4013 88.2773 44.3268 87.7005 53.4148L86.8466 66.8713C86.2351 76.5067 77.7245 83.6947 68.1227 82.6855L40.2284 79.7537C30.6265 78.7445 23.7964 69.9441 25.2016 60.3922L27.1641 47.0522Z" fill="url(#paint6_linear)"/>
<mask id="mask3" mask-type="alpha" maskUnits="userSpaceOnUse" x="23" y="30" width="67" height="55">
<path fill-rule="evenodd" clip-rule="evenodd" d="M27.1641 47.0522C28.4894 38.0429 36.6848 31.6823 45.7412 32.6342L72.527 35.4495C81.5834 36.4013 88.2773 44.3268 87.7005 53.4148L86.8466 66.8713C86.2351 76.5067 77.7245 83.6947 68.1227 82.6855L40.2284 79.7537C30.6265 78.7445 23.7964 69.9441 25.2016 60.3922L27.1641 47.0522Z" fill="white"/>
</mask>
<g mask="url(#mask3)">
<path opacity="0.2" fill-rule="evenodd" clip-rule="evenodd" d="M50.0862 30.6469C49.4138 27.373 51.9454 24.3181 55.2872 24.3708L69.4863 24.5947C72.0719 24.6355 74.2387 26.5612 74.5829 29.124L76.0793 40.2657C76.5299 43.6205 73.7206 46.5119 70.3541 46.1581L56.6981 44.7228C54.4335 44.4847 52.5837 42.8077 52.1256 40.5772L50.0862 30.6469Z" fill="#525DD0"/>
<path opacity="0.5" fill-rule="evenodd" clip-rule="evenodd" d="M55.832 42.0406C56.4108 42.1014 56.9294 41.6813 56.9902 41.1023C57.0511 40.5233 56.6312 40.0046 56.0523 39.9438C55.4735 39.8829 54.9549 40.303 54.8941 40.882C54.8332 41.461 55.2531 41.9797 55.832 42.0406Z" fill="white"/>
<path opacity="0.5" fill-rule="evenodd" clip-rule="evenodd" d="M72.8034 43.8243C73.3822 43.8852 73.9008 43.4651 73.9616 42.8861C74.0225 42.3071 73.6026 41.7884 73.0238 41.7275C72.4449 41.6667 71.9264 42.0868 71.8655 42.6658C71.8047 43.2448 72.2246 43.7635 72.8034 43.8243Z" fill="white"/>
<path opacity="0.33" fill-rule="evenodd" clip-rule="evenodd" d="M89.5699 73.4745C89.5699 73.4745 73.4194 69.941 59.0352 71.7085C44.651 73.4761 31.2759 82.3117 31.2759 82.3117C31.2759 82.3117 51.464 88.3694 52.7258 88.3694C53.9875 88.3694 68.1194 86.6018 70.643 86.6018C73.1665 86.6017 89.5699 73.4745 89.5699 73.4745Z" fill="#273199"/>
</g>
<path fill-rule="evenodd" clip-rule="evenodd" d="M30.9446 55.7259C32.4535 55.8846 33.8053 54.7897 33.9638 53.2802C34.1223 51.7708 33.0276 50.4186 31.5186 50.2598C30.0097 50.1011 28.6579 51.196 28.4994 52.7054C28.3409 54.2148 29.4356 55.5671 30.9446 55.7259Z" fill="white"/>
<path fill-rule="evenodd" clip-rule="evenodd" d="M20.9087 66.5528C21.5174 63.0983 24.8117 60.7916 28.2661 61.4011L39.3559 63.3577C42.8092 63.967 45.1151 67.2601 44.5065 70.7136L43.6741 75.4375C42.7827 80.4959 37.9589 83.8735 32.9007 82.9811L30.9676 82.64C24.0608 81.4214 19.4492 74.8352 20.6663 67.9282L20.9087 66.5528Z" fill="url(#paint7_linear)"/>
<path fill-rule="evenodd" clip-rule="evenodd" d="M40.636 38.7531C42.6559 38.5972 44.255 36.9821 44.3908 34.9608L45.7573 14.622L44.2734 14.0225L36.5414 33.1599C35.4076 35.9661 37.6184 38.986 40.636 38.7531V38.7531Z" fill="#6A5FEB"/>
<path fill-rule="evenodd" clip-rule="evenodd" d="M44.1014 15.2816C45.6663 15.9139 47.4476 15.1574 48.0801 13.592C48.7126 12.0265 47.9567 10.2449 46.3918 9.61268C44.8268 8.98041 43.0455 9.73689 42.413 11.3023C41.7806 12.8677 42.5365 14.6493 44.1014 15.2816Z" fill="#58BBF8"/>
<path fill-rule="evenodd" clip-rule="evenodd" d="M23.3276 83.358C28.8438 75.5445 98.9786 71.8689 104.471 79.1054C109.964 86.3419 101.539 127.91 93.4279 134.154C85.3166 140.398 42.692 143.935 33.8318 135.959C24.9717 127.984 17.8114 91.1714 23.3276 83.358Z" fill="url(#paint8_linear)"/>
<mask id="mask4" mask-type="alpha" maskUnits="userSpaceOnUse" x="20" y="73" width="89" height="70">
<path fill-rule="evenodd" clip-rule="evenodd" d="M23.3276 83.358C28.8438 75.5445 98.9786 71.8689 104.471 79.1054C109.964 86.3419 101.539 127.91 93.4279 134.154C85.3166 140.398 42.692 143.935 33.8318 135.959C24.9717 127.984 17.8114 91.1714 23.3276 83.358Z" fill="white"/>
</mask>
<g mask="url(#mask4)">
<path opacity="0.33" fill-rule="evenodd" clip-rule="evenodd" d="M30.1489 88.1469C30.1489 88.1469 35.0129 84.5216 41.4215 94.297C47.8301 104.072 53.2915 133.277 66.0387 135.418C78.7858 137.559 100.097 131.667 102.175 128.469C104.254 125.27 104.547 136.209 98.8132 139.318C93.0798 142.427 69.2487 148.451 59.4925 149.804C49.7362 151.158 36.4144 148.767 31.9794 144.506C27.5444 140.244 22.0209 125.928 19.6058 117.348C17.1907 108.768 17.1195 96.6941 18.8741 92.67C20.6286 88.6458 30.1489 88.1469 30.1489 88.1469Z" fill="#273199"/>
<path opacity="0.3" d="M108.72 100.321L94.2381 104.072C91.6896 104.732 90.1077 107.276 90.6433 109.853L96.062 135.929" stroke="#CDEEFF" stroke-width="0.870912"/>
<path opacity="0.5" fill-rule="evenodd" clip-rule="evenodd" d="M96.0562 110.375C96.9565 110.328 97.6481 109.559 97.6009 108.659C97.5537 107.758 96.7856 107.066 95.8852 107.113C94.9849 107.161 94.2933 107.929 94.3405 108.83C94.3877 109.73 95.1558 110.422 96.0562 110.375Z" fill="#BBE9FF"/>
<path opacity="0.3" d="M90.946 77.1941L91.4217 86.2707C91.617 89.9979 88.9536 93.2655 85.2637 93.8259L47.2989 99.5914C43.3111 100.197 40.5822 103.938 41.2233 107.92L46.3177 139.563" stroke="#CDEEFF" stroke-width="0.870912"/>
<path opacity="0.5" fill-rule="evenodd" clip-rule="evenodd" d="M46.4291 106.857C47.3295 106.809 48.0211 106.041 47.9739 105.14C47.9267 104.24 47.1585 103.548 46.2582 103.595C45.3578 103.642 44.6662 104.411 44.7134 105.311C44.7606 106.212 45.5287 106.904 46.4291 106.857Z" fill="#BBE9FF"/>
<path opacity="0.5" fill-rule="evenodd" clip-rule="evenodd" d="M86.251 89.9222C87.1514 89.875 87.843 89.1066 87.7958 88.206C87.7486 87.3053 86.9804 86.6135 86.0801 86.6606C85.1797 86.7078 84.4881 87.4762 84.5353 88.3768C84.5825 89.2775 85.3506 89.9694 86.251 89.9222Z" fill="#BBE9FF"/>
</g>
<path fill-rule="evenodd" clip-rule="evenodd" d="M25.5392 149.909C29.3965 146.555 35.2429 146.964 38.5958 150.822L41.8112 154.522C45.1626 158.379 44.754 164.222 40.8985 167.575L38.4849 169.674C34.6276 173.028 28.7812 172.619 25.4283 168.761L22.2129 165.061C18.8615 161.204 19.2701 155.361 23.1256 152.008L25.5392 149.909Z" fill="#4832A6"/>
<path d="M28.015 86.1919C28.015 86.1919 36.2922 101.255 38.8157 122.291" stroke="url(#paint9_linear)" stroke-width="12.4992" stroke-linecap="round" stroke-linejoin="round"/>
<path fill-rule="evenodd" clip-rule="evenodd" d="M47.7298 106.584C45.0568 100.928 32.3402 103.381 25.7346 114.407C25.7346 114.407 16.4176 152.717 18.5455 155.165C20.6734 157.613 40.2013 160.261 46.5755 154.72C52.9497 149.179 50.4027 112.24 47.7298 106.584Z" fill="url(#paint10_linear)"/>
<mask id="mask5" mask-type="alpha" maskUnits="userSpaceOnUse" x="0" y="99" width="72" height="70">
<path fill-rule="evenodd" clip-rule="evenodd" d="M47.7298 106.584C45.0568 100.928 32.3402 103.381 25.7346 114.407C25.7346 114.407 16.4176 152.717 18.5455 155.165C20.6734 157.613 40.2013 160.261 46.5755 154.72C52.9497 149.179 50.4027 112.24 47.7298 106.584Z" fill="white"/>
</mask>
<g mask="url(#mask5)">
<path opacity="0.1" fill-rule="evenodd" clip-rule="evenodd" d="M39.3254 96.6565C39.3254 96.6565 45.9767 134.142 24.1515 161.614L58.7331 160.34L58.6739 109.859L39.3254 96.6565Z" fill="#273199"/>
</g>
<defs>
<linearGradient id="paint0_linear" x1="66.6413" y1="143.496" x2="55.5547" y2="128.311" gradientUnits="userSpaceOnUse">
<stop stop-color="#7C5ED1"/>
<stop offset="1" stop-color="#4630A4"/>
</linearGradient>
<linearGradient id="paint1_linear" x1="24.2977" y1="160.024" x2="64.037" y2="167.392" gradientUnits="userSpaceOnUse">
<stop stop-color="#5CBCFF"/>
<stop offset="1" stop-color="#8C5DFF"/>
</linearGradient>
<linearGradient id="paint2_linear" x1="106.146" y1="138.531" x2="135.828" y2="112.11" gradientUnits="userSpaceOnUse">
<stop stop-color="#7C5ED1"/>
<stop offset="1" stop-color="#4630A4"/>
</linearGradient>
<linearGradient id="paint3_linear" x1="84.6095" y1="100.16" x2="109.354" y2="106.753" gradientUnits="userSpaceOnUse">
<stop stop-color="#8ACFFF"/>
<stop offset="1" stop-color="#7775FF"/>
</linearGradient>
<linearGradient id="paint4_linear" x1="102.812" y1="140.691" x2="91.7252" y2="125.507" gradientUnits="userSpaceOnUse">
<stop stop-color="#7C5ED1"/>
<stop offset="1" stop-color="#4630A4"/>
</linearGradient>
<linearGradient id="paint5_linear" x1="60.4683" y1="157.219" x2="100.208" y2="164.588" gradientUnits="userSpaceOnUse">
<stop stop-color="#5CBCFF"/>
<stop offset="1" stop-color="#8C5DFF"/>
</linearGradient>
<linearGradient id="paint6_linear" x1="63.7795" y1="31.8237" x2="29.5041" y2="62.2438" gradientUnits="userSpaceOnUse">
<stop stop-color="#5CBCFF"/>
<stop offset="1" stop-color="#8C5DFF"/>
</linearGradient>
<linearGradient id="paint7_linear" x1="28.7059" y1="52.9862" x2="12.4375" y2="72.9482" gradientUnits="userSpaceOnUse">
<stop stop-color="#8ACFFF"/>
<stop offset="1" stop-color="#7775FF"/>
</linearGradient>
<linearGradient id="paint8_linear" x1="68.6943" y1="71.6605" x2="28.9106" y2="119.265" gradientUnits="userSpaceOnUse">
<stop stop-color="#5CBCFF"/>
<stop offset="1" stop-color="#8C5DFF"/>
</linearGradient>
<linearGradient id="paint9_linear" x1="36.0483" y1="141.616" x2="65.7299" y2="115.195" gradientUnits="userSpaceOnUse">
<stop stop-color="#7C5ED1"/>
<stop offset="1" stop-color="#4630A4"/>
</linearGradient>
<linearGradient id="paint10_linear" x1="14.5115" y1="103.245" x2="39.256" y2="109.839" gradientUnits="userSpaceOnUse">
<stop stop-color="#8ACFFF"/>
<stop offset="1" stop-color="#7775FF"/>
</linearGradient>
</defs>
</svg>
