<svg width="181" height="181" viewBox="0 0 181 181" fill="none" xmlns="http://www.w3.org/2000/svg">
<rect opacity="0.4" x="1.46482" y="90.7416" width="126.256" height="126.256" rx="46.2503" transform="rotate(-45 1.46482 90.7416)" stroke="#66BBD0" stroke-width="1.12"/>
<rect x="26.4068" y="90.7416" width="90.9831" height="90.9831" rx="32.7672" transform="rotate(-45 26.4068 90.7416)" fill="url(#paint0_linear)"/>
<path fill-rule="evenodd" clip-rule="evenodd" d="M61.7416 76.7006H119.742V104.782C119.742 109.201 116.16 112.782 111.742 112.782H69.7416C65.3233 112.782 61.7416 109.201 61.7416 104.782V76.7006Z" fill="url(#paint1_linear)"/>
<path fill-rule="evenodd" clip-rule="evenodd" d="M61.7416 76.7006C61.7416 72.2823 65.3233 68.7006 69.7416 68.7006H111.742C116.16 68.7006 119.742 72.2823 119.742 76.7006V76.7824H61.7416V76.7006Z" fill="#5FA8F6"/>
<path fill-rule="evenodd" clip-rule="evenodd" d="M68.2334 74.475C68.966 74.475 69.56 73.8811 69.56 73.1484C69.56 72.4158 68.966 71.8218 68.2334 71.8218C67.5007 71.8218 66.9068 72.4158 66.9068 73.1484C66.9068 73.8811 67.5007 74.475 68.2334 74.475Z" fill="white"/>
<path fill-rule="evenodd" clip-rule="evenodd" d="M73.2334 74.475C73.966 74.475 74.56 73.8811 74.56 73.1484C74.56 72.4158 73.966 71.8218 73.2334 71.8218C72.5007 71.8218 71.9068 72.4158 71.9068 73.1484C71.9068 73.8811 72.5007 74.475 73.2334 74.475Z" fill="white"/>
<path fill-rule="evenodd" clip-rule="evenodd" d="M78.2334 74.475C78.966 74.475 79.56 73.8811 79.56 73.1484C79.56 72.4158 78.966 71.8218 78.2334 71.8218C77.5007 71.8218 76.9068 72.4158 76.9068 73.1484C76.9068 73.8811 77.5007 74.475 78.2334 74.475Z" fill="white"/>
<path d="M73.56 87.7416L80.114 94.2956L73.56 100.85" stroke="#5EDA92" stroke-width="3" stroke-linecap="round" stroke-linejoin="round"/>
<path d="M83.56 100.85H97.5139" stroke="#5EDA92" stroke-width="3" stroke-linecap="round" stroke-linejoin="round"/>
<rect opacity="0.6" x="51" y="80.5" width="14.8233" height="6.15666" rx="3.07833" fill="white"/>
<path opacity="0.6" fill-rule="evenodd" clip-rule="evenodd" d="M111.048 111.751C111.048 110.051 112.426 108.672 114.126 108.672H122.793C124.493 108.672 125.871 110.051 125.871 111.751C125.871 113.451 124.493 114.829 122.793 114.829H114.126C112.426 114.829 111.048 113.451 111.048 111.751Z" fill="white"/>
<rect opacity="0.3" x="51.3405" y="95.4267" width="7.80172" height="6.15666" rx="3.07833" fill="#09582A"/>
<rect opacity="0.3" x="101.5" y="61" width="13.653" height="6.15666" rx="3.07833" fill="#09582A"/>
<defs>
<linearGradient id="paint0_linear" x1="71.8129" y1="89.0721" x2="20.4497" y2="149.586" gradientUnits="userSpaceOnUse">
<stop stop-color="#70D69B"/>
<stop offset="1" stop-color="#5DA4FF"/>
</linearGradient>
<linearGradient id="paint1_linear" x1="68.2977" y1="110.924" x2="115.826" y2="91.6681" gradientUnits="userSpaceOnUse">
<stop stop-color="white" stop-opacity="0.72353"/>
<stop offset="1" stop-color="white"/>
</linearGradient>
</defs>
</svg>
