<svg width="1070" height="607" viewBox="0 0 1070 607" fill="none" xmlns="http://www.w3.org/2000/svg">
<path fill-rule="evenodd" clip-rule="evenodd" d="M0 20.4995C0 9.45384 8.9543 0.499512 20 0.499512H1050C1061.05 0.499512 1070 9.45382 1070 20.4995V586.5C1070 597.545 1061.05 606.5 1050 606.5H20C8.95432 606.5 0 597.545 0 586.5L0 20.4995Z" fill="url(#paint0_linear)"/>
<mask id="mask0" mask-type="alpha" maskUnits="userSpaceOnUse" x="0" y="0" width="1070" height="607">
<path fill-rule="evenodd" clip-rule="evenodd" d="M0 20.4995C0 9.45384 8.9543 0.499512 20 0.499512H1050C1061.05 0.499512 1070 9.45382 1070 20.4995V586.5C1070 597.545 1061.05 606.5 1050 606.5H20C8.95432 606.5 0 597.545 0 586.5L0 20.4995Z" fill="white"/>
</mask>
<g mask="url(#mask0)">
<g opacity="0.2">
<path fill-rule="evenodd" clip-rule="evenodd" d="M928.16 328.292C950.892 328.292 969.32 309.864 969.32 287.132C969.32 264.4 950.892 245.972 928.16 245.972C905.428 245.972 887 264.4 887 287.132C887 309.864 905.428 328.292 928.16 328.292Z" fill="#6A172E"/>
<path fill-rule="evenodd" clip-rule="evenodd" d="M1013.99 94.0996L1104.19 233.861C1109.8 242.563 1112.79 252.703 1112.79 263.064C1112.79 292.779 1088.74 316.868 1059.06 316.868L991.086 215.427C973.998 189.927 973.694 156.693 990.311 130.883L1013.99 94.0996Z" fill="#6A172E"/>
</g>
<g opacity="0.2">
<path fill-rule="evenodd" clip-rule="evenodd" d="M-4.84 614.692C17.892 614.692 36.32 596.264 36.32 573.532C36.32 550.8 17.892 532.372 -4.84 532.372C-27.572 532.372 -46 550.8 -46 573.532C-46 596.264 -27.572 614.692 -4.84 614.692Z" fill="#6A172E"/>
<path fill-rule="evenodd" clip-rule="evenodd" d="M80.994 380.5L171.189 520.261C176.804 528.963 179.792 539.103 179.792 549.464C179.792 579.179 155.736 603.268 126.062 603.268L58.0857 501.826C40.998 476.326 40.6935 443.092 57.311 417.283L80.994 380.5Z" fill="#6A172E"/>
</g>
</g>
<defs>
<linearGradient id="paint0_linear" x1="1583.94" y1="505.752" x2="1466.3" y2="-462.27" gradientUnits="userSpaceOnUse">
<stop stop-color="#FF5798"/>
<stop offset="1" stop-color="#FFCC84"/>
</linearGradient>
</defs>
</svg>
