<svg width="208" height="181" viewBox="0 0 208 181" fill="none" xmlns="http://www.w3.org/2000/svg">
<rect opacity="0.4" x="13.4113" y="90.6877" width="126.256" height="126.256" rx="46.2503" transform="rotate(-45 13.4113 90.6877)" stroke="#70D69B" stroke-width="1.12"/>
<rect x="38.3535" y="90.6877" width="90.9831" height="90.9831" rx="32.7672" transform="rotate(-45 38.3535 90.6877)" fill="url(#paint0_linear)"/>
<path fill-rule="evenodd" clip-rule="evenodd" d="M85.9519 71.4477L83.1942 74.2054L83.1942 74.2055L88.6755 83.2223L93.8008 84.8121L104.407 95.4187L107.165 92.661L96.5585 82.0543L94.9687 76.929L85.9519 71.4478L85.9519 71.4477Z" fill="url(#paint1_linear)"/>
<rect width="22.9586" height="68.4385" rx="5" transform="matrix(0.30799 -0.307992 0.30799 0.307992 95.4979 90.8224)" fill="#2E6D49"/>
<path fill-rule="evenodd" clip-rule="evenodd" d="M107.695 72.6143C110.357 69.9526 114.205 69.2005 117.537 70.358L111.636 76.2591L112.782 80.5348L117.057 81.6804L123.148 75.5902C124.63 79.0549 123.958 83.2216 121.13 86.0493C118.431 88.7489 114.511 89.4841 111.146 88.255L96.3631 103.038C96.7213 105.166 96.0793 107.43 94.437 109.072C91.7405 111.769 87.3686 111.769 84.6721 109.072C81.9756 106.376 81.9756 102.004 84.6721 99.3075C86.3144 97.6653 88.5781 97.0232 90.7063 97.3813L105.489 82.5982C104.26 79.2339 104.996 75.3138 107.695 72.6143ZM87.8539 105.891C88.793 106.83 90.3157 106.83 91.2549 105.891C92.1941 104.951 92.1941 103.429 91.2549 102.49C90.3157 101.55 88.793 101.55 87.8539 102.49C86.9147 103.429 86.9147 104.951 87.8539 105.891Z" fill="white"/>
<rect x="93.6945" y="98.5651" width="18.75" height="2.1" rx="1.7" transform="rotate(-45 93.6945 98.5651)" fill="#67BFC9"/>
<rect opacity="0.2" x="63.9465" y="80.4874" width="14.8233" height="6.15666" rx="3.07833" fill="white"/>
<path opacity="0.2" fill-rule="evenodd" clip-rule="evenodd" d="M125.995 109.697C125.995 107.997 127.373 106.618 129.073 106.618H137.74C139.44 106.618 140.818 107.997 140.818 109.697C140.818 111.397 139.44 112.775 137.74 112.775H129.073C127.373 112.775 125.995 111.397 125.995 109.697Z" fill="white"/>
<rect opacity="0.3" x="66.2871" y="95.3729" width="7.80172" height="6.15666" rx="3.07833" fill="#256AC3"/>
<rect opacity="0.3" x="121.792" y="64.9462" width="13.653" height="6.15666" rx="3.07833" fill="#256AC3"/>
<defs>
<linearGradient id="paint0_linear" x1="83.7597" y1="89.0183" x2="32.3964" y2="149.533" gradientUnits="userSpaceOnUse">
<stop stop-color="#70D69B"/>
<stop offset="1" stop-color="#5DA4FF"/>
</linearGradient>
<linearGradient id="paint1_linear" x1="168.498" y1="76.5947" x2="90.3662" y2="149.62" gradientUnits="userSpaceOnUse">
<stop stop-color="#70D69B"/>
<stop offset="1" stop-color="white"/>
</linearGradient>
</defs>
</svg>
